<svg width="1217" height="185" viewBox="0 0 1217 185" fill="none" xmlns="http://www.w3.org/2000/svg">
<path d="M73.33 158.1C54.01 158.1 38.47 153.06 26.71 142.98C15.09 132.9 9.28 118.48 9.28 99.72V29.79C9.28 26.29 7.88 22.86 5.08 19.5C2.28 16 0.88 13.41 0.88 11.73V10.89C0.88 8.22999 2.56 6.89999 5.92 6.89999H52.12C55.48 6.89999 57.16 8.22999 57.16 10.89V11.73C57.16 13.41 55.62 16 52.54 19.5C49.46 22.86 47.92 26.29 47.92 29.79V99.72C47.92 128.14 59.26 142.35 81.94 142.35C85.44 142.35 88.87 141.72 92.23 140.46C95.59 139.06 98.88 136.89 102.1 133.95C105.46 131.01 108.12 126.6 110.08 120.72C112.04 114.84 113.02 107.84 113.02 99.72V29.79C113.02 26.29 111.55 22.86 108.61 19.5C105.81 16 104.41 13.41 104.41 11.73V10.89C104.41 8.22999 106.09 6.89999 109.45 6.89999H136.12C139.48 6.89999 141.16 8.22999 141.16 10.89V11.73C141.16 13.41 139.55 16 136.33 19.5C133.25 22.86 131.71 26.29 131.71 29.79V100.14C131.71 118.76 126.39 133.11 115.75 143.19C105.25 153.13 91.11 158.1 73.33 158.1ZM283.453 133.11C285.413 135.91 287.793 138.5 290.593 140.88C293.533 143.12 295.773 145.01 297.313 146.55C298.853 147.95 299.623 149.49 299.623 151.17V152.01C299.623 154.67 297.943 156 294.583 156H238.303C234.943 156 233.263 154.67 233.263 152.01V151.17C233.263 149.77 234.173 148.02 235.993 145.92C237.813 143.68 239.073 141.79 239.773 140.25C240.613 138.71 240.193 136.33 238.513 133.11L212.473 97.2L188.743 133.11C187.203 136.33 186.713 138.71 187.273 140.25C187.833 141.79 188.813 143.68 190.213 145.92C191.613 148.02 192.313 149.77 192.313 151.17V152.01C192.313 154.67 190.633 156 187.273 156H151.993C148.633 156 146.953 154.67 146.953 152.01V151.17C146.953 149.49 147.863 147.88 149.683 146.34C151.643 144.8 154.163 142.91 157.243 140.67C160.323 138.29 162.843 135.77 164.803 133.11L201.763 82.5L163.543 29.79C161.443 26.99 158.923 24.4 155.983 22.02C153.183 19.64 151.013 17.75 149.473 16.35C148.073 14.95 147.373 13.41 147.373 11.73V10.89C147.373 8.22999 149.053 6.89999 152.413 6.89999H207.643C211.003 6.89999 212.683 8.22999 212.683 10.89V11.73C212.683 13.13 211.773 14.95 209.953 17.19C208.133 19.43 206.803 21.32 205.963 22.86C205.263 24.26 205.753 26.57 207.433 29.79L233.053 64.65L256.363 29.79C257.903 26.71 258.183 24.4 257.203 22.86C256.223 21.32 254.683 19.5 252.583 17.4C250.623 15.16 249.643 13.27 249.643 11.73V10.89C249.643 8.22999 251.323 6.89999 254.683 6.89999H293.323C296.683 6.89999 298.363 8.22999 298.363 10.89V11.73C298.363 13.41 297.243 15.02 295.003 16.56C292.903 18.1 290.173 19.99 286.813 22.23C283.453 24.47 280.793 26.99 278.833 29.79L243.973 79.35L283.453 133.11ZM351.29 156C347.93 156 346.25 154.67 346.25 152.01V151.17C346.25 149.49 347.65 146.97 350.45 143.61C353.25 140.11 354.65 136.61 354.65 133.11V29.79C354.65 26.29 353.25 22.86 350.45 19.5C347.65 16 346.25 13.41 346.25 11.73V10.89C346.25 8.22999 347.93 6.89999 351.29 6.89999H400.85C430.11 6.89999 452.86 13.83 469.1 27.69C485.48 41.55 493.67 59.75 493.67 82.29C493.67 104.27 486.11 122.05 470.99 135.63C456.01 149.21 436.13 156 411.35 156H351.29ZM410.51 141.3H418.91C429.27 141.3 437.67 137.73 444.11 130.59C450.55 123.45 453.77 113.23 453.77 99.93C453.77 86.35 451.67 73.61 447.47 61.71C443.27 49.67 437.32 40.01 429.62 32.73C421.92 25.31 413.38 21.6 404 21.6H401.69C395.39 21.6 392.24 24.96 392.24 31.68V119.67C392.24 126.53 393.85 131.85 397.07 135.63C400.29 139.41 404.77 141.3 410.51 141.3ZM590.986 122.82C592.526 121.28 594.206 120.86 596.026 121.56C597.986 122.12 598.896 123.52 598.756 125.76C598.476 132.76 594.416 139.9 586.576 147.18C578.736 154.46 568.586 158.1 556.126 158.1C540.866 158.1 528.406 153.2 518.746 143.4C509.086 133.6 504.256 120.79 504.256 104.97C504.256 89.85 509.296 77.46 519.376 67.8C529.596 58 541.776 53.1 555.916 53.1C568.656 53.1 578.526 56.04 585.526 61.92C592.526 67.8 596.026 74.45 596.026 81.87C596.026 87.75 593.296 92.09 587.836 94.89L546.046 118.41C551.786 127.51 559.766 132.06 569.986 132.06C574.326 132.06 578.386 131.22 582.166 129.54C586.086 127.72 589.026 125.48 590.986 122.82ZM552.136 63.39C547.936 63.39 544.506 65.49 541.846 69.69C539.326 73.89 538.066 79.14 538.066 85.44C538.066 93.84 539.116 101.19 541.216 107.49L560.746 95.73C564.386 93.21 566.206 89.64 566.206 85.02C566.206 80.4 565.016 75.64 562.636 70.74C560.396 65.84 556.896 63.39 552.136 63.39ZM654.01 157.89C640.57 157.89 629.51 155.65 620.83 151.17C612.15 146.55 607.81 140.6 607.81 133.32C607.81 128.84 609.14 125.48 611.8 123.24C614.6 121 618.24 119.88 622.72 119.88C627.48 119.88 631.26 121.42 634.06 124.5C636.86 127.44 638.75 130.73 639.73 134.37C640.71 137.87 642.39 141.16 644.77 144.24C647.15 147.18 650.23 148.65 654.01 148.65C661.57 148.65 665.35 144.8 665.35 137.1C665.35 132.06 663.39 128.07 659.47 125.13C655.69 122.19 651.07 119.95 645.61 118.41C640.15 116.87 634.69 115.12 629.23 113.16C623.91 111.2 619.29 107.91 615.37 103.29C611.59 98.67 609.7 92.58 609.7 85.02C609.7 75.64 613.83 68.01 622.09 62.13C630.35 56.11 640.99 53.1 654.01 53.1C667.03 53.1 677.6 55.55 685.72 60.45C693.98 65.35 698.11 71.3 698.11 78.3C698.11 81.94 696.71 85.02 693.91 87.54C691.25 89.92 687.96 91.11 684.04 91.11C679.42 91.11 675.78 89.64 673.12 86.7C670.46 83.76 668.64 80.54 667.66 77.04C666.82 73.4 665.42 70.11 663.46 67.17C661.64 64.23 659.12 62.76 655.9 62.76C652.82 62.76 650.37 63.95 648.55 66.33C646.87 68.71 646.03 71.51 646.03 74.73C646.03 79.91 647.85 84.11 651.49 87.33C655.27 90.55 659.75 93 664.93 94.68C670.25 96.36 675.5 98.18 680.68 100.14C686 102.1 690.48 105.32 694.12 109.8C697.9 114.14 699.79 119.88 699.79 127.02C699.79 135.98 695.66 143.4 687.4 149.28C679.28 155.02 668.15 157.89 654.01 157.89ZM738.689 42.81C731.549 42.81 725.739 40.85 721.259 36.93C716.779 32.87 714.539 27.83 714.539 21.81C714.539 15.79 716.779 10.82 721.259 6.89999C725.739 2.83999 731.549 0.809995 738.689 0.809995C745.689 0.809995 751.429 2.83999 755.909 6.89999C760.389 10.82 762.629 15.79 762.629 21.81C762.629 27.83 760.389 32.87 755.909 36.93C751.429 40.85 745.689 42.81 738.689 42.81ZM716.219 156C712.859 156 711.179 154.67 711.179 152.01V151.17C711.179 149.49 712.579 146.9 715.379 143.4C718.179 139.9 719.579 136.4 719.579 132.9V93C719.579 89.36 718.179 85.86 715.379 82.5C712.579 79 711.179 76.62 711.179 75.36V74.52C711.179 72.84 712.789 71.23 716.009 69.69L747.719 54.15C750.659 52.89 752.969 52.75 754.649 53.73C756.329 54.71 757.169 56.32 757.169 58.56V132.9C757.169 136.4 758.709 139.9 761.789 143.4C765.009 146.9 766.619 149.49 766.619 151.17V152.01C766.619 154.67 764.869 156 761.369 156H716.219ZM868.349 55.2C874.929 55.2 879.199 55.76 881.159 56.88C883.119 57.86 883.959 59.61 883.679 62.13C883.539 64.09 882.839 65.7 881.579 66.96C880.459 68.08 879.269 68.85 878.009 69.27C876.889 69.55 875.139 69.97 872.759 70.53C870.519 70.95 868.909 71.3 867.929 71.58C874.789 79.42 878.219 88.1 878.219 97.62C878.219 114 870.659 126.04 855.539 133.74C864.499 135.7 870.869 138.57 874.649 142.35C878.429 145.99 880.319 150.61 880.319 156.21C880.319 164.47 875.069 171.19 864.569 176.37C854.069 181.69 841.049 184.35 825.509 184.35C810.249 184.35 798.139 181.97 789.179 177.21C780.359 172.45 775.949 165.66 775.949 156.84C775.949 153.2 777.209 149.98 779.729 147.18C782.249 144.38 785.819 142.98 790.439 142.98C794.639 142.98 798.209 144.59 801.149 147.81C804.229 151.03 806.469 154.6 807.869 158.52C809.409 162.44 811.649 166.01 814.589 169.23C817.669 172.59 821.379 174.27 825.719 174.27C831.179 174.41 835.449 172.8 838.529 169.44C841.609 166.22 843.149 161.95 843.149 156.63C843.149 146.97 840.209 141.3 834.329 139.62C831.249 139.9 828.729 140.04 826.769 140.04C811.929 140.04 799.679 136.12 790.019 128.28C780.499 120.44 775.739 110.29 775.739 97.83C775.739 84.53 780.499 73.75 790.019 65.49C799.679 57.23 812.069 53.1 827.189 53.1C831.109 53.1 837.269 53.45 845.669 54.15C854.069 54.85 861.629 55.2 868.349 55.2ZM810.809 81.03C810.809 92.09 812.979 102.94 817.319 113.58C821.659 124.22 826.559 129.54 832.019 129.54C835.519 129.54 838.249 128 840.209 124.92C842.309 121.7 843.359 117.36 843.359 111.9C843.359 101.96 841.189 91.39 836.849 80.19C832.509 68.99 827.469 63.39 821.729 63.39C818.369 63.39 815.709 64.93 813.749 68.01C811.789 71.09 810.809 75.43 810.809 81.03ZM1007.27 133.11C1007.55 136.61 1008.88 140.11 1011.26 143.61C1013.64 146.97 1014.83 149.56 1014.83 151.38V152.22C1014.83 154.88 1013.15 156.21 1009.79 156.21H967.793C964.433 156.21 962.753 154.88 962.753 152.22V151.38C962.753 149.7 964.083 147.11 966.743 143.61C969.403 140.11 970.593 136.61 970.313 133.11L968.213 95.52C967.653 85.16 966.253 77.81 964.013 73.47C961.913 69.13 958.483 66.96 953.723 66.96C949.243 66.96 945.813 68.78 943.433 72.42C941.193 76.06 940.073 81.03 940.073 87.33V133.11C940.073 136.61 941.613 140.11 944.693 143.61C947.773 147.11 949.313 149.7 949.313 151.38V152.22C949.313 154.88 947.633 156.21 944.273 156.21H898.913C895.553 156.21 893.873 154.88 893.873 152.22V151.38C893.873 149.7 895.413 147.11 898.493 143.61C901.573 140.11 903.113 136.61 903.113 133.11V91.74C903.113 88.8 902.203 86.35 900.383 84.39C898.563 82.29 896.673 80.54 894.713 79.14C892.893 77.6 891.983 75.99 891.983 74.31V73.68C891.983 71.86 893.663 70.11 897.023 68.43L926.423 53.94C929.083 52.82 931.043 52.82 932.303 53.94C933.703 54.92 934.403 56.6 934.403 58.98V68.85C940.283 58.35 950.293 53.1 964.433 53.1C974.933 53.1 983.963 56.53 991.523 63.39C999.083 70.25 1003.42 81.38 1004.54 96.78L1007.27 133.11ZM1109.35 122.82C1110.89 121.28 1112.57 120.86 1114.39 121.56C1116.35 122.12 1117.26 123.52 1117.12 125.76C1116.84 132.76 1112.78 139.9 1104.94 147.18C1097.1 154.46 1086.95 158.1 1074.49 158.1C1059.23 158.1 1046.77 153.2 1037.11 143.4C1027.45 133.6 1022.62 120.79 1022.62 104.97C1022.62 89.85 1027.66 77.46 1037.74 67.8C1047.96 58 1060.14 53.1 1074.28 53.1C1087.02 53.1 1096.89 56.04 1103.89 61.92C1110.89 67.8 1114.39 74.45 1114.39 81.87C1114.39 87.75 1111.66 92.09 1106.2 94.89L1064.41 118.41C1070.15 127.51 1078.13 132.06 1088.35 132.06C1092.69 132.06 1096.75 131.22 1100.53 129.54C1104.45 127.72 1107.39 125.48 1109.35 122.82ZM1070.5 63.39C1066.3 63.39 1062.87 65.49 1060.21 69.69C1057.69 73.89 1056.43 79.14 1056.43 85.44C1056.43 93.84 1057.48 101.19 1059.58 107.49L1079.11 95.73C1082.75 93.21 1084.57 89.64 1084.57 85.02C1084.57 80.4 1083.38 75.64 1081 70.74C1078.76 65.84 1075.26 63.39 1070.5 63.39ZM1196.94 53.1C1202.96 53.1 1207.72 55.06 1211.22 58.98C1214.86 62.9 1216.68 67.87 1216.68 73.89C1216.68 87.05 1211.29 93.63 1200.51 93.63C1196.17 93.63 1192.88 92.65 1190.64 90.69C1188.4 88.59 1187.07 86.28 1186.65 83.76C1186.37 81.24 1185.67 79 1184.55 77.04C1183.43 74.94 1181.75 73.89 1179.51 73.89C1174.33 73.89 1171.74 80.61 1171.74 94.05V133.11C1171.74 136.61 1173.56 140.11 1177.2 143.61C1180.98 146.97 1182.87 149.49 1182.87 151.17V152.01C1182.87 154.67 1181.19 156 1177.83 156H1132.68C1129.32 156 1127.64 154.67 1127.64 152.01V151.17C1127.64 149.49 1129.04 146.97 1131.84 143.61C1134.64 140.11 1136.04 136.61 1136.04 133.11V91.32C1136.04 88.52 1135.2 86.14 1133.52 84.18C1131.84 82.22 1130.16 80.54 1128.48 79.14C1126.8 77.74 1125.96 76.2 1125.96 74.52V73.89C1125.96 71.51 1127.57 69.48 1130.79 67.8L1160.4 53.94C1163.2 52.96 1165.16 52.89 1166.28 53.73C1167.4 54.57 1167.96 56.18 1167.96 58.56V73.89C1172.72 60.03 1182.38 53.1 1196.94 53.1Z" fill="#A3A3A3"/>
</svg>
