<svg width="91" height="33" viewBox="0 0 91 33" fill="none" xmlns="http://www.w3.org/2000/svg">
<g clip-path="url(#clip0_404_241)">
<path d="M6.16553 20.8827L18.2302 0L23.5567 8.84733L32.45 9.40712C32.45 9.40712 24.7365 10.5881 20.2012 12.247L18.2029 9.20914L15.3112 14.5271C15.3112 14.5339 8.18426 18.664 6.16553 20.8827Z" fill="#F3A53B"/>
<path d="M7.39294 21.4765C7.39294 21.4765 4.98546 24.0433 2.59162 23.0398C3.42367 24.0433 2.72802 29.136 0 32.126L0.545604 32.6039L4.77404 27.7024L4.92408 27.8526L0.688826 32.7336L0.927528 32.9725C0.927528 32.9725 5.38784 28.7127 9.69812 29.2247C6.77914 22.3093 28.9375 10.3354 44.2894 11.3731C44.2894 11.3731 22.6494 6.74458 7.39294 21.4765ZM4.91726 26.5009C4.8968 25.3062 6.77232 25.3062 6.75868 26.5009C6.77232 27.6956 4.8968 27.6956 4.91726 26.5009Z" fill="#F3A53B"/>
<path d="M27.2666 15.4077C27.2666 15.4077 18.7074 18.5889 18.0322 20.002C18.0322 20.002 22.854 18.6162 23.5292 18.6504L31.5359 32.3856L37.1488 32.3924L27.2666 15.4077Z" fill="#F3A53B"/>
<path d="M70.9353 32.3923H67.5594V30.474C66.9592 31.3273 66.2568 31.9622 65.452 32.3786C64.6472 32.7951 63.7265 32.9999 62.6899 32.9999C60.603 32.9999 58.9593 32.2831 57.7658 30.8563C56.5655 29.4295 55.9653 27.4703 55.9653 24.9922C55.9653 22.637 56.5791 20.7324 57.7999 19.2851C59.0207 17.8379 60.6234 17.1143 62.5944 17.1143C63.7947 17.1143 64.8314 17.3668 65.6839 17.872C66.5432 18.3772 67.1638 19.1008 67.5594 20.0429V17.6263H70.9353V32.3923ZM67.6481 24.9581C67.6481 23.4289 67.2934 22.2411 66.5841 21.3877C65.8749 20.5344 64.8791 20.1112 63.6038 20.1112C62.3284 20.1112 61.3259 20.5481 60.5893 21.4287C59.8596 22.3093 59.4913 23.5245 59.4913 25.081C59.4913 26.6511 59.8459 27.8594 60.5484 28.7127C61.2509 29.5661 62.2534 29.9893 63.5356 29.9893C64.7495 29.9893 65.7385 29.5251 66.5023 28.6035C67.2661 27.6819 67.6481 26.4668 67.6481 24.9581Z" fill="#A3A3A3"/>
<path d="M73.5474 32.3923L85.1619 12.7316H75.4979V9.58447H90.8635L79.3581 29.0745H90.9999V32.3923H73.5474Z" fill="#A3A3A3"/>
<path d="M51.6413 19.2853C50.4205 17.838 48.8314 17.1144 46.8741 17.1144C45.6669 17.1144 44.6371 17.367 43.7709 17.879C42.9048 18.391 42.2773 19.1078 41.8818 20.043V11.7486C41.5067 11.7418 40.8929 11.7555 39.8903 11.8237C39.2697 11.8647 38.8264 11.933 38.499 12.0081V32.3924H41.875V30.4741C42.4751 31.3275 43.1776 31.9623 43.9823 32.3788C44.7871 32.7952 45.7078 33 46.7445 33C48.8314 33 50.475 32.2832 51.6686 30.8564C52.8689 29.4297 53.4691 27.4704 53.4691 24.9923C53.4691 22.6371 52.8621 20.7325 51.6413 19.2853ZM48.886 28.7197C48.1835 29.573 47.1946 29.9963 45.9192 29.9963C44.6916 29.9963 43.6959 29.5321 42.9252 28.6105C42.1546 27.6889 41.7658 26.4737 41.7658 24.965C41.7658 23.4359 42.1273 22.248 42.8434 21.3947C43.5595 20.5414 44.5552 20.1181 45.8306 20.1181C47.1059 20.1181 48.1085 20.555 48.8451 21.4357C49.5748 22.3163 49.9431 23.5314 49.9431 25.0879C49.9363 26.6512 49.5884 27.8664 48.886 28.7197Z" fill="#A3A3A3"/>
<path d="M41.875 8.24658H38.499V10.3082C39.5016 10.3628 41.1316 10.513 41.875 10.5813V8.24658Z" fill="#A3A3A3"/>
<path d="M37.6884 12.5609L37.6813 12.4448C37.6599 12.5131 37.6884 12.5609 37.6884 12.5609Z" fill="black"/>
</g>
<defs>
<clipPath id="clip0_404_241">
<rect width="91" height="33" fill="white"/>
</clipPath>
</defs>
</svg>
