<svg width="784" height="462" viewBox="0 0 784 462" fill="none" xmlns="http://www.w3.org/2000/svg">
<mask id="mask0_354_11790" style="mask-type:alpha" maskUnits="userSpaceOnUse" x="0" y="-22" width="784" height="506">
<path d="M779.57 -19.5732L781.785 -21.7889L784 -19.5732L781.785 -17.3575L779.57 -19.5732Z" fill="white"/>
<path d="M751.729 -19.5732L753.943 -21.7889L756.158 -19.5732L753.943 -17.3575L751.729 -19.5732Z" fill="white"/>
<path d="M723.887 -19.5732L726.102 -21.7889L728.317 -19.5732L726.102 -17.3575L723.887 -19.5732Z" fill="white"/>
<path d="M696.045 -19.5732L698.26 -21.7889L700.475 -19.5732L698.26 -17.3575L696.045 -19.5732Z" fill="white"/>
<path d="M668.204 -19.5732L670.418 -21.7889L672.633 -19.5732L670.418 -17.3575L668.204 -19.5732Z" fill="white"/>
<path d="M640.362 -19.5732L642.577 -21.7889L644.792 -19.5732L642.577 -17.3575L640.362 -19.5732Z" fill="white"/>
<path d="M612.52 -19.5732L614.735 -21.7889L616.95 -19.5732L614.735 -17.3575L612.52 -19.5732Z" fill="white"/>
<path d="M584.679 -19.5732L586.894 -21.7889L589.108 -19.5732L586.894 -17.3575L584.679 -19.5732Z" fill="white"/>
<path d="M556.837 -19.5732L559.052 -21.7889L561.267 -19.5732L559.052 -17.3575L556.837 -19.5732Z" fill="white"/>
<path d="M528.995 -19.5732L531.21 -21.7889L533.425 -19.5732L531.21 -17.3575L528.995 -19.5732Z" fill="white"/>
<path d="M501.154 -19.5732L503.369 -21.7889L505.583 -19.5732L503.369 -17.3575L501.154 -19.5732Z" fill="white"/>
<path d="M473.312 -19.5732L475.527 -21.7889L477.742 -19.5732L475.527 -17.3575L473.312 -19.5732Z" fill="white"/>
<path d="M445.47 -19.5732L447.685 -21.7889L449.9 -19.5732L447.685 -17.3575L445.47 -19.5732Z" fill="white"/>
<path d="M417.629 -19.5732L419.843 -21.7889L422.058 -19.5732L419.843 -17.3575L417.629 -19.5732Z" fill="white"/>
<path d="M389.787 -19.5732L392.002 -21.7889L394.216 -19.5732L392.002 -17.3575L389.787 -19.5732Z" fill="white"/>
<path d="M361.945 -19.5732L364.16 -21.7889L366.375 -19.5732L364.16 -17.3575L361.945 -19.5732Z" fill="white"/>
<path d="M334.104 -19.5732L336.318 -21.7889L338.533 -19.5732L336.318 -17.3575L334.104 -19.5732Z" fill="white"/>
<path d="M306.262 -19.5732L308.477 -21.7889L310.692 -19.5732L308.477 -17.3575L306.262 -19.5732Z" fill="white"/>
<path d="M278.42 -19.5732L280.635 -21.7889L282.85 -19.5732L280.635 -17.3575L278.42 -19.5732Z" fill="white"/>
<path d="M779.57 8.28005L781.785 6.06435L784 8.28005L781.785 10.4958L779.57 8.28005Z" fill="white"/>
<path d="M751.729 8.28005L753.943 6.06435L756.158 8.28005L753.943 10.4958L751.729 8.28005Z" fill="white"/>
<path d="M723.887 8.28005L726.102 6.06435L728.317 8.28005L726.102 10.4958L723.887 8.28005Z" fill="white"/>
<path d="M696.045 8.28005L698.26 6.06435L700.475 8.28005L698.26 10.4958L696.045 8.28005Z" fill="white"/>
<path d="M668.204 8.28005L670.418 6.06435L672.633 8.28005L670.418 10.4958L668.204 8.28005Z" fill="white"/>
<path d="M640.362 8.28005L642.577 6.06435L644.792 8.28005L642.577 10.4958L640.362 8.28005Z" fill="white"/>
<path d="M612.52 8.28005L614.735 6.06435L616.95 8.28005L614.735 10.4958L612.52 8.28005Z" fill="white"/>
<path d="M584.679 8.28005L586.894 6.06435L589.108 8.28005L586.894 10.4958L584.679 8.28005Z" fill="white"/>
<path d="M556.837 8.28005L559.052 6.06435L561.267 8.28005L559.052 10.4958L556.837 8.28005Z" fill="white"/>
<path d="M528.995 8.28005L531.21 6.06435L533.425 8.28005L531.21 10.4958L528.995 8.28005Z" fill="white"/>
<path d="M501.154 8.28005L503.369 6.06435L505.583 8.28005L503.369 10.4958L501.154 8.28005Z" fill="white"/>
<path d="M473.312 8.28005L475.527 6.06435L477.742 8.28005L475.527 10.4958L473.312 8.28005Z" fill="white"/>
<path d="M445.47 8.28005L447.685 6.06435L449.9 8.28005L447.685 10.4958L445.47 8.28005Z" fill="white"/>
<path d="M417.629 8.28005L419.843 6.06435L422.058 8.28005L419.843 10.4958L417.629 8.28005Z" fill="white"/>
<path d="M389.787 8.28005L392.002 6.06435L394.216 8.28005L392.002 10.4958L389.787 8.28005Z" fill="white"/>
<path d="M361.945 8.28005L364.16 6.06435L366.375 8.28005L364.16 10.4958L361.945 8.28005Z" fill="white"/>
<path d="M334.104 8.28005L336.318 6.06435L338.533 8.28005L336.318 10.4958L334.104 8.28005Z" fill="white"/>
<path d="M306.262 8.28005L308.477 6.06435L310.692 8.28005L308.477 10.4958L306.262 8.28005Z" fill="white"/>
<path d="M278.42 8.28005L280.635 6.06435L282.85 8.28005L280.635 10.4958L278.42 8.28005Z" fill="white"/>
<path d="M779.57 36.1334L781.785 33.9176L784 36.1334L781.785 38.3491L779.57 36.1334Z" fill="white"/>
<path d="M751.729 36.1334L753.943 33.9176L756.158 36.1334L753.943 38.3491L751.729 36.1334Z" fill="white"/>
<path d="M723.887 36.1334L726.102 33.9176L728.317 36.1334L726.102 38.3491L723.887 36.1334Z" fill="white"/>
<path d="M696.045 36.1334L698.26 33.9176L700.475 36.1334L698.26 38.3491L696.045 36.1334Z" fill="white"/>
<path d="M668.204 36.1334L670.418 33.9176L672.633 36.1334L670.418 38.3491L668.204 36.1334Z" fill="white"/>
<path d="M640.362 36.1334L642.577 33.9176L644.792 36.1334L642.577 38.3491L640.362 36.1334Z" fill="white"/>
<path d="M612.52 36.1334L614.735 33.9176L616.95 36.1334L614.735 38.3491L612.52 36.1334Z" fill="white"/>
<path d="M584.679 36.1334L586.894 33.9176L589.108 36.1334L586.894 38.3491L584.679 36.1334Z" fill="white"/>
<path d="M556.837 36.1334L559.052 33.9176L561.267 36.1334L559.052 38.3491L556.837 36.1334Z" fill="white"/>
<path d="M528.995 36.1334L531.21 33.9176L533.425 36.1334L531.21 38.3491L528.995 36.1334Z" fill="white"/>
<path d="M501.154 36.1334L503.369 33.9176L505.583 36.1334L503.369 38.3491L501.154 36.1334Z" fill="white"/>
<path d="M473.312 36.1334L475.527 33.9176L477.742 36.1334L475.527 38.3491L473.312 36.1334Z" fill="white"/>
<path d="M445.47 36.1334L447.685 33.9176L449.9 36.1334L447.685 38.3491L445.47 36.1334Z" fill="white"/>
<path d="M417.629 36.1334L419.843 33.9176L422.058 36.1334L419.843 38.3491L417.629 36.1334Z" fill="white"/>
<path d="M389.787 36.1334L392.002 33.9176L394.216 36.1334L392.002 38.3491L389.787 36.1334Z" fill="white"/>
<path d="M361.945 36.1334L364.16 33.9176L366.375 36.1334L364.16 38.3491L361.945 36.1334Z" fill="white"/>
<path d="M334.104 36.1334L336.318 33.9176L338.533 36.1334L336.318 38.3491L334.104 36.1334Z" fill="white"/>
<path d="M306.262 36.1334L308.477 33.9176L310.692 36.1334L308.477 38.3491L306.262 36.1334Z" fill="white"/>
<path d="M278.42 36.1334L280.635 33.9176L282.85 36.1334L280.635 38.3491L278.42 36.1334Z" fill="white"/>
<path d="M779.57 63.9866L781.785 61.7709L784 63.9866L781.785 66.2023L779.57 63.9866Z" fill="white"/>
<path d="M751.729 63.9866L753.943 61.7709L756.158 63.9866L753.943 66.2023L751.729 63.9866Z" fill="white"/>
<path d="M723.887 63.9866L726.102 61.7709L728.317 63.9866L726.102 66.2023L723.887 63.9866Z" fill="white"/>
<path d="M696.045 63.9866L698.26 61.7709L700.475 63.9866L698.26 66.2023L696.045 63.9866Z" fill="white"/>
<path d="M668.204 63.9866L670.418 61.7709L672.633 63.9866L670.418 66.2023L668.204 63.9866Z" fill="white"/>
<path d="M640.362 63.9866L642.577 61.7709L644.792 63.9866L642.577 66.2023L640.362 63.9866Z" fill="white"/>
<path d="M612.52 63.9866L614.735 61.7709L616.95 63.9866L614.735 66.2023L612.52 63.9866Z" fill="white"/>
<path d="M584.679 63.9866L586.894 61.7709L589.108 63.9866L586.894 66.2023L584.679 63.9866Z" fill="white"/>
<path d="M556.837 63.9866L559.052 61.7709L561.267 63.9866L559.052 66.2023L556.837 63.9866Z" fill="white"/>
<path d="M528.995 63.9866L531.21 61.7709L533.425 63.9866L531.21 66.2023L528.995 63.9866Z" fill="white"/>
<path d="M501.154 63.9866L503.369 61.7709L505.583 63.9866L503.369 66.2023L501.154 63.9866Z" fill="white"/>
<path d="M473.312 63.9866L475.527 61.7709L477.742 63.9866L475.527 66.2023L473.312 63.9866Z" fill="white"/>
<path d="M445.47 63.9866L447.685 61.7709L449.9 63.9866L447.685 66.2023L445.47 63.9866Z" fill="white"/>
<path d="M417.629 63.9866L419.843 61.7709L422.058 63.9866L419.843 66.2023L417.629 63.9866Z" fill="white"/>
<path d="M389.787 63.9866L392.002 61.7709L394.216 63.9866L392.002 66.2023L389.787 63.9866Z" fill="white"/>
<path d="M361.945 63.9866L364.16 61.7709L366.375 63.9866L364.16 66.2023L361.945 63.9866Z" fill="white"/>
<path d="M334.104 63.9866L336.318 61.7709L338.533 63.9866L336.318 66.2023L334.104 63.9866Z" fill="white"/>
<path d="M306.262 63.9866L308.477 61.7709L310.692 63.9866L308.477 66.2023L306.262 63.9866Z" fill="white"/>
<path d="M278.42 63.9866L280.635 61.7709L282.85 63.9866L280.635 66.2023L278.42 63.9866Z" fill="white"/>
<path d="M779.57 91.8396L781.785 89.6239L784 91.8396L781.785 94.0553L779.57 91.8396Z" fill="white"/>
<path d="M751.729 91.8396L753.943 89.6239L756.158 91.8396L753.943 94.0553L751.729 91.8396Z" fill="white"/>
<path d="M723.887 91.8396L726.102 89.6239L728.317 91.8396L726.102 94.0553L723.887 91.8396Z" fill="white"/>
<path d="M696.045 91.8396L698.26 89.6239L700.475 91.8396L698.26 94.0553L696.045 91.8396Z" fill="white"/>
<path d="M668.204 91.8396L670.418 89.6239L672.633 91.8396L670.418 94.0553L668.204 91.8396Z" fill="white"/>
<path d="M640.362 91.8396L642.577 89.6239L644.792 91.8396L642.577 94.0553L640.362 91.8396Z" fill="white"/>
<path d="M612.52 91.8396L614.735 89.6239L616.95 91.8396L614.735 94.0553L612.52 91.8396Z" fill="white"/>
<path d="M584.679 91.8396L586.894 89.6239L589.108 91.8396L586.894 94.0553L584.679 91.8396Z" fill="white"/>
<path d="M556.837 91.8396L559.052 89.6239L561.267 91.8396L559.052 94.0553L556.837 91.8396Z" fill="white"/>
<path d="M528.995 91.8396L531.21 89.6239L533.425 91.8396L531.21 94.0553L528.995 91.8396Z" fill="white"/>
<path d="M501.154 91.8396L503.369 89.6239L505.583 91.8396L503.369 94.0553L501.154 91.8396Z" fill="white"/>
<path d="M473.312 91.8396L475.527 89.6239L477.742 91.8396L475.527 94.0553L473.312 91.8396Z" fill="white"/>
<path d="M445.47 91.8396L447.685 89.6239L449.9 91.8396L447.685 94.0553L445.47 91.8396Z" fill="white"/>
<path d="M417.629 91.8396L419.843 89.6239L422.058 91.8396L419.843 94.0553L417.629 91.8396Z" fill="white"/>
<path d="M389.787 91.8396L392.002 89.6239L394.216 91.8396L392.002 94.0553L389.787 91.8396Z" fill="white"/>
<path d="M361.945 91.8396L364.16 89.6239L366.375 91.8396L364.16 94.0553L361.945 91.8396Z" fill="white"/>
<path d="M334.104 91.8396L336.318 89.6239L338.533 91.8396L336.318 94.0553L334.104 91.8396Z" fill="white"/>
<path d="M306.262 91.8396L308.477 89.6239L310.692 91.8396L308.477 94.0553L306.262 91.8396Z" fill="white"/>
<path d="M278.42 91.8396L280.635 89.6239L282.85 91.8396L280.635 94.0553L278.42 91.8396Z" fill="white"/>
<path d="M779.57 119.693L781.785 117.477L784 119.693L781.785 121.909L779.57 119.693Z" fill="white"/>
<path d="M751.729 119.693L753.943 117.477L756.158 119.693L753.943 121.909L751.729 119.693Z" fill="white"/>
<path d="M723.887 119.693L726.102 117.477L728.317 119.693L726.102 121.909L723.887 119.693Z" fill="white"/>
<path d="M696.045 119.693L698.26 117.477L700.475 119.693L698.26 121.909L696.045 119.693Z" fill="white"/>
<path d="M668.204 119.693L670.418 117.477L672.633 119.693L670.418 121.909L668.204 119.693Z" fill="white"/>
<path d="M640.362 119.693L642.577 117.477L644.792 119.693L642.577 121.909L640.362 119.693Z" fill="white"/>
<path d="M612.52 119.693L614.735 117.477L616.95 119.693L614.735 121.909L612.52 119.693Z" fill="white"/>
<path d="M584.679 119.693L586.894 117.477L589.108 119.693L586.894 121.909L584.679 119.693Z" fill="white"/>
<path d="M556.837 119.693L559.052 117.477L561.267 119.693L559.052 121.909L556.837 119.693Z" fill="white"/>
<path d="M528.995 119.693L531.21 117.477L533.425 119.693L531.21 121.909L528.995 119.693Z" fill="white"/>
<path d="M501.154 119.693L503.369 117.477L505.583 119.693L503.369 121.909L501.154 119.693Z" fill="white"/>
<path d="M473.312 119.693L475.527 117.477L477.742 119.693L475.527 121.909L473.312 119.693Z" fill="white"/>
<path d="M445.47 119.693L447.685 117.477L449.9 119.693L447.685 121.909L445.47 119.693Z" fill="white"/>
<path d="M417.629 119.693L419.843 117.477L422.058 119.693L419.843 121.909L417.629 119.693Z" fill="white"/>
<path d="M389.787 119.693L392.002 117.477L394.216 119.693L392.002 121.909L389.787 119.693Z" fill="white"/>
<path d="M361.945 119.693L364.16 117.477L366.375 119.693L364.16 121.909L361.945 119.693Z" fill="white"/>
<path d="M334.104 119.693L336.318 117.477L338.533 119.693L336.318 121.909L334.104 119.693Z" fill="white"/>
<path d="M306.262 119.693L308.477 117.477L310.692 119.693L308.477 121.909L306.262 119.693Z" fill="white"/>
<path d="M278.42 119.693L280.635 117.477L282.85 119.693L280.635 121.909L278.42 119.693Z" fill="white"/>
<path d="M779.57 147.546L781.785 145.33L784 147.546L781.785 149.762L779.57 147.546Z" fill="white"/>
<path d="M751.729 147.546L753.943 145.33L756.158 147.546L753.943 149.762L751.729 147.546Z" fill="white"/>
<path d="M723.887 147.546L726.102 145.33L728.317 147.546L726.102 149.762L723.887 147.546Z" fill="white"/>
<path d="M696.045 147.546L698.26 145.33L700.475 147.546L698.26 149.762L696.045 147.546Z" fill="white"/>
<path d="M668.204 147.546L670.418 145.33L672.633 147.546L670.418 149.762L668.204 147.546Z" fill="white"/>
<path d="M640.362 147.546L642.577 145.33L644.792 147.546L642.577 149.762L640.362 147.546Z" fill="white"/>
<path d="M612.52 147.546L614.735 145.33L616.95 147.546L614.735 149.762L612.52 147.546Z" fill="white"/>
<path d="M584.679 147.546L586.894 145.33L589.108 147.546L586.894 149.762L584.679 147.546Z" fill="white"/>
<path d="M556.837 147.546L559.052 145.33L561.267 147.546L559.052 149.762L556.837 147.546Z" fill="white"/>
<path d="M528.995 147.546L531.21 145.33L533.425 147.546L531.21 149.762L528.995 147.546Z" fill="white"/>
<path d="M501.154 147.546L503.369 145.33L505.583 147.546L503.369 149.762L501.154 147.546Z" fill="white"/>
<path d="M473.312 147.546L475.527 145.33L477.742 147.546L475.527 149.762L473.312 147.546Z" fill="white"/>
<path d="M445.47 147.546L447.685 145.33L449.9 147.546L447.685 149.762L445.47 147.546Z" fill="white"/>
<path d="M417.629 147.546L419.843 145.33L422.058 147.546L419.843 149.762L417.629 147.546Z" fill="white"/>
<path d="M389.787 147.546L392.002 145.33L394.216 147.546L392.002 149.762L389.787 147.546Z" fill="white"/>
<path d="M361.945 147.546L364.16 145.33L366.375 147.546L364.16 149.762L361.945 147.546Z" fill="white"/>
<path d="M334.104 147.546L336.318 145.33L338.533 147.546L336.318 149.762L334.104 147.546Z" fill="white"/>
<path d="M306.262 147.546L308.477 145.33L310.692 147.546L308.477 149.762L306.262 147.546Z" fill="white"/>
<path d="M278.42 147.546L280.635 145.33L282.85 147.546L280.635 149.762L278.42 147.546Z" fill="white"/>
<path d="M779.57 175.399L781.785 173.183L784 175.399L781.785 177.615L779.57 175.399Z" fill="white"/>
<path d="M751.729 175.399L753.943 173.183L756.158 175.399L753.943 177.615L751.729 175.399Z" fill="white"/>
<path d="M723.887 175.399L726.102 173.183L728.317 175.399L726.102 177.615L723.887 175.399Z" fill="white"/>
<path d="M696.045 175.399L698.26 173.183L700.475 175.399L698.26 177.615L696.045 175.399Z" fill="white"/>
<path d="M668.204 175.399L670.418 173.183L672.633 175.399L670.418 177.615L668.204 175.399Z" fill="white"/>
<path d="M640.362 175.399L642.577 173.183L644.792 175.399L642.577 177.615L640.362 175.399Z" fill="white"/>
<path d="M612.52 175.399L614.735 173.183L616.95 175.399L614.735 177.615L612.52 175.399Z" fill="white"/>
<path d="M584.679 175.399L586.894 173.183L589.108 175.399L586.894 177.615L584.679 175.399Z" fill="white"/>
<path d="M556.837 175.399L559.052 173.183L561.267 175.399L559.052 177.615L556.837 175.399Z" fill="white"/>
<path d="M528.995 175.399L531.21 173.183L533.425 175.399L531.21 177.615L528.995 175.399Z" fill="white"/>
<path d="M501.154 175.399L503.369 173.183L505.583 175.399L503.369 177.615L501.154 175.399Z" fill="white"/>
<path d="M473.312 175.399L475.527 173.183L477.742 175.399L475.527 177.615L473.312 175.399Z" fill="white"/>
<path d="M445.47 175.399L447.685 173.183L449.9 175.399L447.685 177.615L445.47 175.399Z" fill="white"/>
<path d="M417.629 175.399L419.843 173.183L422.058 175.399L419.843 177.615L417.629 175.399Z" fill="white"/>
<path d="M389.787 175.399L392.002 173.183L394.216 175.399L392.002 177.615L389.787 175.399Z" fill="white"/>
<path d="M361.945 175.399L364.16 173.183L366.375 175.399L364.16 177.615L361.945 175.399Z" fill="white"/>
<path d="M334.104 175.399L336.318 173.183L338.533 175.399L336.318 177.615L334.104 175.399Z" fill="white"/>
<path d="M306.262 175.399L308.477 173.183L310.692 175.399L308.477 177.615L306.262 175.399Z" fill="white"/>
<path d="M278.42 175.399L280.635 173.183L282.85 175.399L280.635 177.615L278.42 175.399Z" fill="white"/>
<path d="M779.57 203.252L781.785 201.037L784 203.252L781.785 205.468L779.57 203.252Z" fill="white"/>
<path d="M751.729 203.252L753.943 201.037L756.158 203.252L753.943 205.468L751.729 203.252Z" fill="white"/>
<path d="M723.887 203.252L726.102 201.037L728.317 203.252L726.102 205.468L723.887 203.252Z" fill="white"/>
<path d="M696.045 203.252L698.26 201.037L700.475 203.252L698.26 205.468L696.045 203.252Z" fill="white"/>
<path d="M668.204 203.252L670.418 201.037L672.633 203.252L670.418 205.468L668.204 203.252Z" fill="white"/>
<path d="M640.362 203.252L642.577 201.037L644.792 203.252L642.577 205.468L640.362 203.252Z" fill="white"/>
<path d="M612.52 203.252L614.735 201.037L616.95 203.252L614.735 205.468L612.52 203.252Z" fill="white"/>
<path d="M584.679 203.252L586.894 201.037L589.108 203.252L586.894 205.468L584.679 203.252Z" fill="white"/>
<path d="M556.837 203.252L559.052 201.037L561.267 203.252L559.052 205.468L556.837 203.252Z" fill="white"/>
<path d="M528.995 203.252L531.21 201.037L533.425 203.252L531.21 205.468L528.995 203.252Z" fill="white"/>
<path d="M501.154 203.252L503.369 201.037L505.583 203.252L503.369 205.468L501.154 203.252Z" fill="white"/>
<path d="M473.312 203.252L475.527 201.037L477.742 203.252L475.527 205.468L473.312 203.252Z" fill="white"/>
<path d="M445.47 203.252L447.685 201.037L449.9 203.252L447.685 205.468L445.47 203.252Z" fill="white"/>
<path d="M417.629 203.252L419.843 201.037L422.058 203.252L419.843 205.468L417.629 203.252Z" fill="white"/>
<path d="M389.787 203.252L392.002 201.037L394.216 203.252L392.002 205.468L389.787 203.252Z" fill="white"/>
<path d="M361.945 203.252L364.16 201.037L366.375 203.252L364.16 205.468L361.945 203.252Z" fill="white"/>
<path d="M334.104 203.252L336.318 201.037L338.533 203.252L336.318 205.468L334.104 203.252Z" fill="white"/>
<path d="M306.262 203.252L308.477 201.037L310.692 203.252L308.477 205.468L306.262 203.252Z" fill="white"/>
<path d="M278.42 203.252L280.635 201.037L282.85 203.252L280.635 205.468L278.42 203.252Z" fill="white"/>
<path d="M779.57 231.106L781.785 228.89L784 231.106L781.785 233.321L779.57 231.106Z" fill="white"/>
<path d="M751.729 231.106L753.943 228.89L756.158 231.106L753.943 233.321L751.729 231.106Z" fill="white"/>
<path d="M723.887 231.106L726.102 228.89L728.317 231.106L726.102 233.321L723.887 231.106Z" fill="white"/>
<path d="M696.045 231.106L698.26 228.89L700.475 231.106L698.26 233.321L696.045 231.106Z" fill="white"/>
<path d="M668.204 231.106L670.418 228.89L672.633 231.106L670.418 233.321L668.204 231.106Z" fill="white"/>
<path d="M640.362 231.106L642.577 228.89L644.792 231.106L642.577 233.321L640.362 231.106Z" fill="white"/>
<path d="M612.52 231.106L614.735 228.89L616.95 231.106L614.735 233.321L612.52 231.106Z" fill="white"/>
<path d="M584.679 231.106L586.894 228.89L589.108 231.106L586.894 233.321L584.679 231.106Z" fill="white"/>
<path d="M556.837 231.106L559.052 228.89L561.267 231.106L559.052 233.321L556.837 231.106Z" fill="white"/>
<path d="M528.995 231.106L531.21 228.89L533.425 231.106L531.21 233.321L528.995 231.106Z" fill="white"/>
<path d="M501.154 231.106L503.369 228.89L505.583 231.106L503.369 233.321L501.154 231.106Z" fill="white"/>
<path d="M473.312 231.106L475.527 228.89L477.742 231.106L475.527 233.321L473.312 231.106Z" fill="white"/>
<path d="M445.47 231.106L447.685 228.89L449.9 231.106L447.685 233.321L445.47 231.106Z" fill="white"/>
<path d="M417.629 231.106L419.843 228.89L422.058 231.106L419.843 233.321L417.629 231.106Z" fill="white"/>
<path d="M389.787 231.106L392.002 228.89L394.216 231.106L392.002 233.321L389.787 231.106Z" fill="white"/>
<path d="M361.945 231.106L364.16 228.89L366.375 231.106L364.16 233.321L361.945 231.106Z" fill="white"/>
<path d="M334.104 231.106L336.318 228.89L338.533 231.106L336.318 233.321L334.104 231.106Z" fill="white"/>
<path d="M306.262 231.106L308.477 228.89L310.692 231.106L308.477 233.321L306.262 231.106Z" fill="white"/>
<path d="M278.42 231.106L280.635 228.89L282.85 231.106L280.635 233.321L278.42 231.106Z" fill="white"/>
<path d="M779.57 258.959L781.785 256.743L784 258.959L781.785 261.174L779.57 258.959Z" fill="white"/>
<path d="M751.729 258.959L753.943 256.743L756.158 258.959L753.943 261.174L751.729 258.959Z" fill="white"/>
<path d="M723.887 258.959L726.102 256.743L728.317 258.959L726.102 261.174L723.887 258.959Z" fill="white"/>
<path d="M696.045 258.959L698.26 256.743L700.475 258.959L698.26 261.174L696.045 258.959Z" fill="white"/>
<path d="M668.204 258.959L670.418 256.743L672.633 258.959L670.418 261.174L668.204 258.959Z" fill="white"/>
<path d="M640.362 258.959L642.577 256.743L644.792 258.959L642.577 261.174L640.362 258.959Z" fill="white"/>
<path d="M612.52 258.959L614.735 256.743L616.95 258.959L614.735 261.174L612.52 258.959Z" fill="white"/>
<path d="M584.679 258.959L586.894 256.743L589.108 258.959L586.894 261.174L584.679 258.959Z" fill="white"/>
<path d="M556.837 258.959L559.052 256.743L561.267 258.959L559.052 261.174L556.837 258.959Z" fill="white"/>
<path d="M528.995 258.959L531.21 256.743L533.425 258.959L531.21 261.174L528.995 258.959Z" fill="white"/>
<path d="M501.154 258.959L503.369 256.743L505.583 258.959L503.369 261.174L501.154 258.959Z" fill="white"/>
<path d="M473.312 258.959L475.527 256.743L477.742 258.959L475.527 261.174L473.312 258.959Z" fill="white"/>
<path d="M445.47 258.959L447.685 256.743L449.9 258.959L447.685 261.174L445.47 258.959Z" fill="white"/>
<path d="M417.629 258.959L419.843 256.743L422.058 258.959L419.843 261.174L417.629 258.959Z" fill="white"/>
<path d="M389.787 258.959L392.002 256.743L394.216 258.959L392.002 261.174L389.787 258.959Z" fill="white"/>
<path d="M361.945 258.959L364.16 256.743L366.375 258.959L364.16 261.174L361.945 258.959Z" fill="white"/>
<path d="M334.104 258.959L336.318 256.743L338.533 258.959L336.318 261.174L334.104 258.959Z" fill="white"/>
<path d="M306.262 258.959L308.477 256.743L310.692 258.959L308.477 261.174L306.262 258.959Z" fill="white"/>
<path d="M278.42 258.959L280.635 256.743L282.85 258.959L280.635 261.174L278.42 258.959Z" fill="white"/>
<path d="M779.57 286.812L781.785 284.596L784 286.812L781.785 289.027L779.57 286.812Z" fill="white"/>
<path d="M751.729 286.812L753.943 284.596L756.158 286.812L753.943 289.027L751.729 286.812Z" fill="white"/>
<path d="M723.887 286.812L726.102 284.596L728.317 286.812L726.102 289.027L723.887 286.812Z" fill="white"/>
<path d="M696.045 286.812L698.26 284.596L700.475 286.812L698.26 289.027L696.045 286.812Z" fill="white"/>
<path d="M668.204 286.812L670.418 284.596L672.633 286.812L670.418 289.027L668.204 286.812Z" fill="white"/>
<path d="M640.362 286.812L642.577 284.596L644.792 286.812L642.577 289.027L640.362 286.812Z" fill="white"/>
<path d="M612.52 286.812L614.735 284.596L616.95 286.812L614.735 289.027L612.52 286.812Z" fill="white"/>
<path d="M584.679 286.812L586.894 284.596L589.108 286.812L586.894 289.027L584.679 286.812Z" fill="white"/>
<path d="M556.837 286.812L559.052 284.596L561.267 286.812L559.052 289.027L556.837 286.812Z" fill="white"/>
<path d="M528.995 286.812L531.21 284.596L533.425 286.812L531.21 289.027L528.995 286.812Z" fill="white"/>
<path d="M501.154 286.812L503.369 284.596L505.583 286.812L503.369 289.027L501.154 286.812Z" fill="white"/>
<path d="M473.312 286.812L475.527 284.596L477.742 286.812L475.527 289.027L473.312 286.812Z" fill="white"/>
<path d="M445.47 286.812L447.685 284.596L449.9 286.812L447.685 289.027L445.47 286.812Z" fill="white"/>
<path d="M417.629 286.812L419.843 284.596L422.058 286.812L419.843 289.027L417.629 286.812Z" fill="white"/>
<path d="M389.787 286.812L392.002 284.596L394.216 286.812L392.002 289.027L389.787 286.812Z" fill="white"/>
<path d="M361.945 286.812L364.16 284.596L366.375 286.812L364.16 289.027L361.945 286.812Z" fill="white"/>
<path d="M334.104 286.812L336.318 284.596L338.533 286.812L336.318 289.027L334.104 286.812Z" fill="white"/>
<path d="M306.262 286.812L308.477 284.596L310.692 286.812L308.477 289.027L306.262 286.812Z" fill="white"/>
<path d="M278.42 286.812L280.635 284.596L282.85 286.812L280.635 289.027L278.42 286.812Z" fill="white"/>
<path d="M779.57 314.665L781.785 312.45L784 314.665L781.785 316.881L779.57 314.665Z" fill="white"/>
<path d="M751.729 314.665L753.943 312.45L756.158 314.665L753.943 316.881L751.729 314.665Z" fill="white"/>
<path d="M723.887 314.665L726.102 312.45L728.317 314.665L726.102 316.881L723.887 314.665Z" fill="white"/>
<path d="M696.045 314.665L698.26 312.45L700.475 314.665L698.26 316.881L696.045 314.665Z" fill="white"/>
<path d="M668.204 314.665L670.418 312.45L672.633 314.665L670.418 316.881L668.204 314.665Z" fill="white"/>
<path d="M640.362 314.665L642.577 312.45L644.792 314.665L642.577 316.881L640.362 314.665Z" fill="white"/>
<path d="M612.52 314.665L614.735 312.45L616.95 314.665L614.735 316.881L612.52 314.665Z" fill="white"/>
<path d="M584.679 314.665L586.894 312.45L589.108 314.665L586.894 316.881L584.679 314.665Z" fill="white"/>
<path d="M556.837 314.665L559.052 312.45L561.267 314.665L559.052 316.881L556.837 314.665Z" fill="white"/>
<path d="M528.995 314.665L531.21 312.45L533.425 314.665L531.21 316.881L528.995 314.665Z" fill="white"/>
<path d="M501.154 314.665L503.369 312.45L505.583 314.665L503.369 316.881L501.154 314.665Z" fill="white"/>
<path d="M473.312 314.665L475.527 312.45L477.742 314.665L475.527 316.881L473.312 314.665Z" fill="white"/>
<path d="M445.47 314.665L447.685 312.45L449.9 314.665L447.685 316.881L445.47 314.665Z" fill="white"/>
<path d="M417.629 314.665L419.843 312.45L422.058 314.665L419.843 316.881L417.629 314.665Z" fill="white"/>
<path d="M389.787 314.665L392.002 312.45L394.216 314.665L392.002 316.881L389.787 314.665Z" fill="white"/>
<path d="M361.945 314.665L364.16 312.45L366.375 314.665L364.16 316.881L361.945 314.665Z" fill="white"/>
<path d="M334.104 314.665L336.318 312.45L338.533 314.665L336.318 316.881L334.104 314.665Z" fill="white"/>
<path d="M306.262 314.665L308.477 312.45L310.692 314.665L308.477 316.881L306.262 314.665Z" fill="white"/>
<path d="M278.42 314.665L280.635 312.45L282.85 314.665L280.635 316.881L278.42 314.665Z" fill="white"/>
<path d="M779.57 342.518L781.785 340.302L784 342.518L781.785 344.734L779.57 342.518Z" fill="white"/>
<path d="M751.729 342.518L753.943 340.302L756.158 342.518L753.943 344.734L751.729 342.518Z" fill="white"/>
<path d="M723.887 342.518L726.102 340.302L728.317 342.518L726.102 344.734L723.887 342.518Z" fill="white"/>
<path d="M696.045 342.518L698.26 340.302L700.475 342.518L698.26 344.734L696.045 342.518Z" fill="white"/>
<path d="M668.204 342.518L670.418 340.302L672.633 342.518L670.418 344.734L668.204 342.518Z" fill="white"/>
<path d="M640.362 342.518L642.577 340.302L644.792 342.518L642.577 344.734L640.362 342.518Z" fill="white"/>
<path d="M612.52 342.518L614.735 340.302L616.95 342.518L614.735 344.734L612.52 342.518Z" fill="white"/>
<path d="M584.679 342.518L586.894 340.302L589.108 342.518L586.894 344.734L584.679 342.518Z" fill="white"/>
<path d="M556.837 342.518L559.052 340.302L561.267 342.518L559.052 344.734L556.837 342.518Z" fill="white"/>
<path d="M528.995 342.518L531.21 340.302L533.425 342.518L531.21 344.734L528.995 342.518Z" fill="white"/>
<path d="M501.154 342.518L503.369 340.302L505.583 342.518L503.369 344.734L501.154 342.518Z" fill="white"/>
<path d="M473.312 342.518L475.527 340.302L477.742 342.518L475.527 344.734L473.312 342.518Z" fill="white"/>
<path d="M445.47 342.518L447.685 340.302L449.9 342.518L447.685 344.734L445.47 342.518Z" fill="white"/>
<path d="M417.629 342.518L419.843 340.302L422.058 342.518L419.843 344.734L417.629 342.518Z" fill="white"/>
<path d="M389.787 342.518L392.002 340.302L394.216 342.518L392.002 344.734L389.787 342.518Z" fill="white"/>
<path d="M361.945 342.518L364.16 340.302L366.375 342.518L364.16 344.734L361.945 342.518Z" fill="white"/>
<path d="M334.104 342.518L336.318 340.302L338.533 342.518L336.318 344.734L334.104 342.518Z" fill="white"/>
<path d="M306.262 342.518L308.477 340.302L310.692 342.518L308.477 344.734L306.262 342.518Z" fill="white"/>
<path d="M278.42 342.518L280.635 340.302L282.85 342.518L280.635 344.734L278.42 342.518Z" fill="white"/>
<path d="M779.57 370.371L781.785 368.155L784 370.371L781.785 372.587L779.57 370.371Z" fill="white"/>
<path d="M751.729 370.371L753.943 368.155L756.158 370.371L753.943 372.587L751.729 370.371Z" fill="white"/>
<path d="M723.887 370.371L726.102 368.155L728.317 370.371L726.102 372.587L723.887 370.371Z" fill="white"/>
<path d="M696.045 370.371L698.26 368.155L700.475 370.371L698.26 372.587L696.045 370.371Z" fill="white"/>
<path d="M668.204 370.371L670.418 368.155L672.633 370.371L670.418 372.587L668.204 370.371Z" fill="white"/>
<path d="M640.362 370.371L642.577 368.155L644.792 370.371L642.577 372.587L640.362 370.371Z" fill="white"/>
<path d="M612.52 370.371L614.735 368.155L616.95 370.371L614.735 372.587L612.52 370.371Z" fill="white"/>
<path d="M584.679 370.371L586.894 368.155L589.108 370.371L586.894 372.587L584.679 370.371Z" fill="white"/>
<path d="M556.837 370.371L559.052 368.155L561.267 370.371L559.052 372.587L556.837 370.371Z" fill="white"/>
<path d="M528.995 370.371L531.21 368.155L533.425 370.371L531.21 372.587L528.995 370.371Z" fill="white"/>
<path d="M501.154 370.371L503.369 368.155L505.583 370.371L503.369 372.587L501.154 370.371Z" fill="white"/>
<path d="M473.312 370.371L475.527 368.155L477.742 370.371L475.527 372.587L473.312 370.371Z" fill="white"/>
<path d="M445.47 370.371L447.685 368.155L449.9 370.371L447.685 372.587L445.47 370.371Z" fill="white"/>
<path d="M417.629 370.371L419.843 368.155L422.058 370.371L419.843 372.587L417.629 370.371Z" fill="white"/>
<path d="M389.787 370.371L392.002 368.155L394.216 370.371L392.002 372.587L389.787 370.371Z" fill="white"/>
<path d="M361.945 370.371L364.16 368.155L366.375 370.371L364.16 372.587L361.945 370.371Z" fill="white"/>
<path d="M334.104 370.371L336.318 368.155L338.533 370.371L336.318 372.587L334.104 370.371Z" fill="white"/>
<path d="M306.262 370.371L308.477 368.155L310.692 370.371L308.477 372.587L306.262 370.371Z" fill="white"/>
<path d="M278.42 370.371L280.635 368.155L282.85 370.371L280.635 372.587L278.42 370.371Z" fill="white"/>
<path d="M779.57 398.225L781.785 396.009L784 398.225L781.785 400.44L779.57 398.225Z" fill="white"/>
<path d="M751.729 398.225L753.943 396.009L756.158 398.225L753.943 400.44L751.729 398.225Z" fill="white"/>
<path d="M723.887 398.225L726.102 396.009L728.317 398.225L726.102 400.44L723.887 398.225Z" fill="white"/>
<path d="M696.045 398.225L698.26 396.009L700.475 398.225L698.26 400.44L696.045 398.225Z" fill="white"/>
<path d="M668.204 398.225L670.418 396.009L672.633 398.225L670.418 400.44L668.204 398.225Z" fill="white"/>
<path d="M640.362 398.225L642.577 396.009L644.792 398.225L642.577 400.44L640.362 398.225Z" fill="white"/>
<path d="M612.52 398.225L614.735 396.009L616.95 398.225L614.735 400.44L612.52 398.225Z" fill="white"/>
<path d="M584.679 398.225L586.894 396.009L589.108 398.225L586.894 400.44L584.679 398.225Z" fill="white"/>
<path d="M556.837 398.225L559.052 396.009L561.267 398.225L559.052 400.44L556.837 398.225Z" fill="white"/>
<path d="M528.995 398.225L531.21 396.009L533.425 398.225L531.21 400.44L528.995 398.225Z" fill="white"/>
<path d="M501.154 398.225L503.369 396.009L505.583 398.225L503.369 400.44L501.154 398.225Z" fill="white"/>
<path d="M473.312 398.225L475.527 396.009L477.742 398.225L475.527 400.44L473.312 398.225Z" fill="white"/>
<path d="M445.47 398.225L447.685 396.009L449.9 398.225L447.685 400.44L445.47 398.225Z" fill="white"/>
<path d="M417.629 398.225L419.843 396.009L422.058 398.225L419.843 400.44L417.629 398.225Z" fill="white"/>
<path d="M389.787 398.225L392.002 396.009L394.216 398.225L392.002 400.44L389.787 398.225Z" fill="white"/>
<path d="M361.945 398.225L364.16 396.009L366.375 398.225L364.16 400.44L361.945 398.225Z" fill="white"/>
<path d="M334.104 398.225L336.318 396.009L338.533 398.225L336.318 400.44L334.104 398.225Z" fill="white"/>
<path d="M306.262 398.225L308.477 396.009L310.692 398.225L308.477 400.44L306.262 398.225Z" fill="white"/>
<path d="M278.42 398.225L280.635 396.009L282.85 398.225L280.635 400.44L278.42 398.225Z" fill="white"/>
<path d="M779.57 426.078L781.785 423.862L784 426.078L781.785 428.293L779.57 426.078Z" fill="white"/>
<path d="M751.729 426.078L753.943 423.862L756.158 426.078L753.943 428.293L751.729 426.078Z" fill="white"/>
<path d="M723.887 426.078L726.102 423.862L728.317 426.078L726.102 428.293L723.887 426.078Z" fill="white"/>
<path d="M696.045 426.078L698.26 423.862L700.475 426.078L698.26 428.293L696.045 426.078Z" fill="white"/>
<path d="M668.204 426.078L670.418 423.862L672.633 426.078L670.418 428.293L668.204 426.078Z" fill="white"/>
<path d="M640.362 426.078L642.577 423.862L644.792 426.078L642.577 428.293L640.362 426.078Z" fill="white"/>
<path d="M612.52 426.078L614.735 423.862L616.95 426.078L614.735 428.293L612.52 426.078Z" fill="white"/>
<path d="M584.679 426.078L586.894 423.862L589.108 426.078L586.894 428.293L584.679 426.078Z" fill="white"/>
<path d="M556.837 426.078L559.052 423.862L561.267 426.078L559.052 428.293L556.837 426.078Z" fill="white"/>
<path d="M528.995 426.078L531.21 423.862L533.425 426.078L531.21 428.293L528.995 426.078Z" fill="white"/>
<path d="M501.154 426.078L503.369 423.862L505.583 426.078L503.369 428.293L501.154 426.078Z" fill="white"/>
<path d="M473.312 426.078L475.527 423.862L477.742 426.078L475.527 428.293L473.312 426.078Z" fill="white"/>
<path d="M445.47 426.078L447.685 423.862L449.9 426.078L447.685 428.293L445.47 426.078Z" fill="white"/>
<path d="M417.629 426.078L419.843 423.862L422.058 426.078L419.843 428.293L417.629 426.078Z" fill="white"/>
<path d="M389.787 426.078L392.002 423.862L394.216 426.078L392.002 428.293L389.787 426.078Z" fill="white"/>
<path d="M361.945 426.078L364.16 423.862L366.375 426.078L364.16 428.293L361.945 426.078Z" fill="white"/>
<path d="M334.104 426.078L336.318 423.862L338.533 426.078L336.318 428.293L334.104 426.078Z" fill="white"/>
<path d="M306.262 426.078L308.477 423.862L310.692 426.078L308.477 428.293L306.262 426.078Z" fill="white"/>
<path d="M278.42 426.078L280.635 423.862L282.85 426.078L280.635 428.293L278.42 426.078Z" fill="white"/>
<path d="M779.57 453.931L781.785 451.715L784 453.931L781.785 456.146L779.57 453.931Z" fill="white"/>
<path d="M751.729 453.931L753.943 451.715L756.158 453.931L753.943 456.146L751.729 453.931Z" fill="white"/>
<path d="M723.887 453.931L726.102 451.715L728.317 453.931L726.102 456.146L723.887 453.931Z" fill="white"/>
<path d="M696.045 453.931L698.26 451.715L700.475 453.931L698.26 456.146L696.045 453.931Z" fill="white"/>
<path d="M668.204 453.931L670.418 451.715L672.633 453.931L670.418 456.146L668.204 453.931Z" fill="white"/>
<path d="M640.362 453.931L642.577 451.715L644.792 453.931L642.577 456.146L640.362 453.931Z" fill="white"/>
<path d="M612.52 453.931L614.735 451.715L616.95 453.931L614.735 456.146L612.52 453.931Z" fill="white"/>
<path d="M584.679 453.931L586.894 451.715L589.108 453.931L586.894 456.146L584.679 453.931Z" fill="white"/>
<path d="M556.837 453.931L559.052 451.715L561.267 453.931L559.052 456.146L556.837 453.931Z" fill="white"/>
<path d="M528.995 453.931L531.21 451.715L533.425 453.931L531.21 456.146L528.995 453.931Z" fill="white"/>
<path d="M501.154 453.931L503.369 451.715L505.583 453.931L503.369 456.146L501.154 453.931Z" fill="white"/>
<path d="M473.312 453.931L475.527 451.715L477.742 453.931L475.527 456.146L473.312 453.931Z" fill="white"/>
<path d="M445.47 453.931L447.685 451.715L449.9 453.931L447.685 456.146L445.47 453.931Z" fill="white"/>
<path d="M417.629 453.931L419.843 451.715L422.058 453.931L419.843 456.146L417.629 453.931Z" fill="white"/>
<path d="M389.787 453.931L392.002 451.715L394.216 453.931L392.002 456.146L389.787 453.931Z" fill="white"/>
<path d="M361.945 453.931L364.16 451.715L366.375 453.931L364.16 456.146L361.945 453.931Z" fill="white"/>
<path d="M334.104 453.931L336.318 451.715L338.533 453.931L336.318 456.146L334.104 453.931Z" fill="white"/>
<path d="M306.262 453.931L308.477 451.715L310.692 453.931L308.477 456.146L306.262 453.931Z" fill="white"/>
<path d="M278.42 453.931L280.635 451.715L282.85 453.931L280.635 456.146L278.42 453.931Z" fill="white"/>
<path d="M779.57 481.784L781.785 479.569L784 481.784L781.785 484L779.57 481.784Z" fill="white"/>
<path d="M751.729 481.784L753.943 479.569L756.158 481.784L753.943 484L751.729 481.784Z" fill="white"/>
<path d="M723.887 481.784L726.102 479.569L728.317 481.784L726.102 484L723.887 481.784Z" fill="white"/>
<path d="M696.045 481.784L698.26 479.569L700.475 481.784L698.26 484L696.045 481.784Z" fill="white"/>
<path d="M668.204 481.784L670.418 479.569L672.633 481.784L670.418 484L668.204 481.784Z" fill="white"/>
<path d="M640.362 481.784L642.577 479.569L644.792 481.784L642.577 484L640.362 481.784Z" fill="white"/>
<path d="M612.52 481.784L614.735 479.569L616.95 481.784L614.735 484L612.52 481.784Z" fill="white"/>
<path d="M584.679 481.784L586.894 479.569L589.108 481.784L586.894 484L584.679 481.784Z" fill="white"/>
<path d="M556.837 481.784L559.052 479.569L561.267 481.784L559.052 484L556.837 481.784Z" fill="white"/>
<path d="M528.995 481.784L531.21 479.569L533.425 481.784L531.21 484L528.995 481.784Z" fill="white"/>
<path d="M501.154 481.784L503.369 479.569L505.583 481.784L503.369 484L501.154 481.784Z" fill="white"/>
<path d="M473.312 481.784L475.527 479.569L477.742 481.784L475.527 484L473.312 481.784Z" fill="white"/>
<path d="M445.47 481.784L447.685 479.569L449.9 481.784L447.685 484L445.47 481.784Z" fill="white"/>
<path d="M417.629 481.784L419.843 479.569L422.058 481.784L419.843 484L417.629 481.784Z" fill="white"/>
<path d="M389.787 481.784L392.002 479.569L394.216 481.784L392.002 484L389.787 481.784Z" fill="white"/>
<path d="M361.945 481.784L364.16 479.569L366.375 481.784L364.16 484L361.945 481.784Z" fill="white"/>
<path d="M334.104 481.784L336.318 479.569L338.533 481.784L336.318 484L334.104 481.784Z" fill="white"/>
<path d="M306.262 481.784L308.477 479.569L310.692 481.784L308.477 484L306.262 481.784Z" fill="white"/>
<path d="M278.42 481.784L280.635 479.569L282.85 481.784L280.635 484L278.42 481.784Z" fill="white"/>
<path d="M501.15 -19.5733L503.365 -21.789L505.58 -19.5733L503.365 -17.3575L501.15 -19.5733Z" fill="white"/>
<path d="M473.308 -19.5733L475.523 -21.789L477.738 -19.5733L475.523 -17.3575L473.308 -19.5733Z" fill="white"/>
<path d="M445.467 -19.5733L447.681 -21.789L449.896 -19.5733L447.681 -17.3575L445.467 -19.5733Z" fill="white"/>
<path d="M417.625 -19.5733L419.84 -21.789L422.055 -19.5733L419.84 -17.3575L417.625 -19.5733Z" fill="white"/>
<path d="M389.783 -19.5733L391.998 -21.789L394.213 -19.5733L391.998 -17.3575L389.783 -19.5733Z" fill="white"/>
<path d="M361.942 -19.5733L364.156 -21.789L366.371 -19.5733L364.156 -17.3575L361.942 -19.5733Z" fill="white"/>
<path d="M334.1 -19.5733L336.315 -21.789L338.529 -19.5733L336.315 -17.3575L334.1 -19.5733Z" fill="white"/>
<path d="M306.258 -19.5733L308.473 -21.789L310.688 -19.5733L308.473 -17.3575L306.258 -19.5733Z" fill="white"/>
<path d="M278.417 -19.5733L280.631 -21.789L282.846 -19.5733L280.631 -17.3575L278.417 -19.5733Z" fill="white"/>
<path d="M250.575 -19.5733L252.79 -21.789L255.004 -19.5733L252.79 -17.3575L250.575 -19.5733Z" fill="white"/>
<path d="M222.733 -19.5733L224.948 -21.789L227.163 -19.5733L224.948 -17.3575L222.733 -19.5733Z" fill="white"/>
<path d="M194.892 -19.5733L197.106 -21.789L199.321 -19.5733L197.106 -17.3575L194.892 -19.5733Z" fill="white"/>
<path d="M167.05 -19.5733L169.265 -21.789L171.479 -19.5733L169.265 -17.3575L167.05 -19.5733Z" fill="white"/>
<path d="M139.208 -19.5733L141.423 -21.789L143.638 -19.5733L141.423 -17.3575L139.208 -19.5733Z" fill="white"/>
<path d="M111.366 -19.5733L113.581 -21.789L115.796 -19.5733L113.581 -17.3575L111.366 -19.5733Z" fill="white"/>
<path d="M83.525 -19.5733L85.7397 -21.789L87.9545 -19.5733L85.7397 -17.3575L83.525 -19.5733Z" fill="white"/>
<path d="M55.6832 -19.5733L57.8979 -21.789L60.1128 -19.5733L57.8979 -17.3575L55.6832 -19.5733Z" fill="white"/>
<path d="M27.8417 -19.5733L30.0565 -21.789L32.2712 -19.5733L30.0565 -17.3575L27.8417 -19.5733Z" fill="white"/>
<path d="M-6.10352e-05 -19.5733L2.21472 -21.789L4.4295 -19.5733L2.21472 -17.3575L-6.10352e-05 -19.5733Z" fill="white"/>
<path d="M501.15 8.28003L503.365 6.06432L505.58 8.28003L503.365 10.4957L501.15 8.28003Z" fill="white"/>
<path d="M473.308 8.28003L475.523 6.06432L477.738 8.28003L475.523 10.4957L473.308 8.28003Z" fill="white"/>
<path d="M445.467 8.28003L447.681 6.06432L449.896 8.28003L447.681 10.4957L445.467 8.28003Z" fill="white"/>
<path d="M417.625 8.28003L419.84 6.06432L422.055 8.28003L419.84 10.4957L417.625 8.28003Z" fill="white"/>
<path d="M389.783 8.28003L391.998 6.06432L394.213 8.28003L391.998 10.4957L389.783 8.28003Z" fill="white"/>
<path d="M361.942 8.28003L364.156 6.06432L366.371 8.28003L364.156 10.4957L361.942 8.28003Z" fill="white"/>
<path d="M334.1 8.28003L336.315 6.06432L338.529 8.28003L336.315 10.4957L334.1 8.28003Z" fill="white"/>
<path d="M306.258 8.28003L308.473 6.06432L310.688 8.28003L308.473 10.4957L306.258 8.28003Z" fill="white"/>
<path d="M278.417 8.28003L280.631 6.06432L282.846 8.28003L280.631 10.4957L278.417 8.28003Z" fill="white"/>
<path d="M250.575 8.28003L252.79 6.06432L255.004 8.28003L252.79 10.4957L250.575 8.28003Z" fill="white"/>
<path d="M222.733 8.28003L224.948 6.06432L227.163 8.28003L224.948 10.4957L222.733 8.28003Z" fill="white"/>
<path d="M194.892 8.28003L197.106 6.06432L199.321 8.28003L197.106 10.4957L194.892 8.28003Z" fill="white"/>
<path d="M167.05 8.28003L169.265 6.06432L171.479 8.28003L169.265 10.4957L167.05 8.28003Z" fill="white"/>
<path d="M139.208 8.28003L141.423 6.06432L143.638 8.28003L141.423 10.4957L139.208 8.28003Z" fill="white"/>
<path d="M111.366 8.28003L113.581 6.06432L115.796 8.28003L113.581 10.4957L111.366 8.28003Z" fill="white"/>
<path d="M83.525 8.28003L85.7397 6.06432L87.9545 8.28003L85.7397 10.4957L83.525 8.28003Z" fill="white"/>
<path d="M55.6832 8.28003L57.8979 6.06432L60.1128 8.28003L57.8979 10.4957L55.6832 8.28003Z" fill="white"/>
<path d="M27.8417 8.28003L30.0565 6.06432L32.2712 8.28003L30.0565 10.4957L27.8417 8.28003Z" fill="white"/>
<path d="M-6.10352e-05 8.28003L2.21472 6.06432L4.4295 8.28003L2.21472 10.4957L-6.10352e-05 8.28003Z" fill="white"/>
<path d="M501.15 36.1333L503.365 33.9176L505.58 36.1333L503.365 38.349L501.15 36.1333Z" fill="white"/>
<path d="M473.308 36.1333L475.523 33.9176L477.738 36.1333L475.523 38.349L473.308 36.1333Z" fill="white"/>
<path d="M445.467 36.1333L447.681 33.9176L449.896 36.1333L447.681 38.349L445.467 36.1333Z" fill="white"/>
<path d="M417.625 36.1333L419.84 33.9176L422.055 36.1333L419.84 38.349L417.625 36.1333Z" fill="white"/>
<path d="M389.783 36.1333L391.998 33.9176L394.213 36.1333L391.998 38.349L389.783 36.1333Z" fill="white"/>
<path d="M361.942 36.1333L364.156 33.9176L366.371 36.1333L364.156 38.349L361.942 36.1333Z" fill="white"/>
<path d="M334.1 36.1333L336.315 33.9176L338.529 36.1333L336.315 38.349L334.1 36.1333Z" fill="white"/>
<path d="M306.258 36.1333L308.473 33.9176L310.688 36.1333L308.473 38.349L306.258 36.1333Z" fill="white"/>
<path d="M278.417 36.1333L280.631 33.9176L282.846 36.1333L280.631 38.349L278.417 36.1333Z" fill="white"/>
<path d="M250.575 36.1333L252.79 33.9176L255.004 36.1333L252.79 38.349L250.575 36.1333Z" fill="white"/>
<path d="M222.733 36.1333L224.948 33.9176L227.163 36.1333L224.948 38.349L222.733 36.1333Z" fill="white"/>
<path d="M194.892 36.1333L197.106 33.9176L199.321 36.1333L197.106 38.349L194.892 36.1333Z" fill="white"/>
<path d="M167.05 36.1333L169.265 33.9176L171.479 36.1333L169.265 38.349L167.05 36.1333Z" fill="white"/>
<path d="M139.208 36.1333L141.423 33.9176L143.638 36.1333L141.423 38.349L139.208 36.1333Z" fill="white"/>
<path d="M111.366 36.1333L113.581 33.9176L115.796 36.1333L113.581 38.349L111.366 36.1333Z" fill="white"/>
<path d="M83.525 36.1333L85.7397 33.9176L87.9545 36.1333L85.7397 38.349L83.525 36.1333Z" fill="white"/>
<path d="M55.6832 36.1333L57.8979 33.9176L60.1128 36.1333L57.8979 38.349L55.6832 36.1333Z" fill="white"/>
<path d="M27.8417 36.1333L30.0565 33.9176L32.2712 36.1333L30.0565 38.349L27.8417 36.1333Z" fill="white"/>
<path d="M-6.10352e-05 36.1333L2.21472 33.9176L4.4295 36.1333L2.21472 38.349L-6.10352e-05 36.1333Z" fill="white"/>
<path d="M501.15 63.9866L503.365 61.7709L505.58 63.9866L503.365 66.2023L501.15 63.9866Z" fill="white"/>
<path d="M473.308 63.9866L475.523 61.7709L477.738 63.9866L475.523 66.2023L473.308 63.9866Z" fill="white"/>
<path d="M445.467 63.9866L447.681 61.7709L449.896 63.9866L447.681 66.2023L445.467 63.9866Z" fill="white"/>
<path d="M417.625 63.9866L419.84 61.7709L422.055 63.9866L419.84 66.2023L417.625 63.9866Z" fill="white"/>
<path d="M389.783 63.9866L391.998 61.7709L394.213 63.9866L391.998 66.2023L389.783 63.9866Z" fill="white"/>
<path d="M361.942 63.9866L364.156 61.7709L366.371 63.9866L364.156 66.2023L361.942 63.9866Z" fill="white"/>
<path d="M334.1 63.9866L336.315 61.7709L338.529 63.9866L336.315 66.2023L334.1 63.9866Z" fill="white"/>
<path d="M306.258 63.9866L308.473 61.7709L310.688 63.9866L308.473 66.2023L306.258 63.9866Z" fill="white"/>
<path d="M278.417 63.9866L280.631 61.7709L282.846 63.9866L280.631 66.2023L278.417 63.9866Z" fill="white"/>
<path d="M250.575 63.9866L252.79 61.7709L255.004 63.9866L252.79 66.2023L250.575 63.9866Z" fill="white"/>
<path d="M222.733 63.9866L224.948 61.7709L227.163 63.9866L224.948 66.2023L222.733 63.9866Z" fill="white"/>
<path d="M194.892 63.9866L197.106 61.7709L199.321 63.9866L197.106 66.2023L194.892 63.9866Z" fill="white"/>
<path d="M167.05 63.9866L169.265 61.7709L171.479 63.9866L169.265 66.2023L167.05 63.9866Z" fill="white"/>
<path d="M139.208 63.9866L141.423 61.7709L143.638 63.9866L141.423 66.2023L139.208 63.9866Z" fill="white"/>
<path d="M111.366 63.9866L113.581 61.7709L115.796 63.9866L113.581 66.2023L111.366 63.9866Z" fill="white"/>
<path d="M83.525 63.9866L85.7397 61.7709L87.9545 63.9866L85.7397 66.2023L83.525 63.9866Z" fill="white"/>
<path d="M55.6832 63.9866L57.8979 61.7709L60.1128 63.9866L57.8979 66.2023L55.6832 63.9866Z" fill="white"/>
<path d="M27.8417 63.9866L30.0565 61.7709L32.2712 63.9866L30.0565 66.2023L27.8417 63.9866Z" fill="white"/>
<path d="M-6.10352e-05 63.9866L2.21472 61.7709L4.4295 63.9866L2.21472 66.2023L-6.10352e-05 63.9866Z" fill="white"/>
<path d="M501.15 91.8396L503.365 89.6239L505.58 91.8396L503.365 94.0553L501.15 91.8396Z" fill="white"/>
<path d="M473.308 91.8396L475.523 89.6239L477.738 91.8396L475.523 94.0553L473.308 91.8396Z" fill="white"/>
<path d="M445.467 91.8396L447.681 89.6239L449.896 91.8396L447.681 94.0553L445.467 91.8396Z" fill="white"/>
<path d="M417.625 91.8396L419.84 89.6239L422.055 91.8396L419.84 94.0553L417.625 91.8396Z" fill="white"/>
<path d="M389.783 91.8396L391.998 89.6239L394.213 91.8396L391.998 94.0553L389.783 91.8396Z" fill="white"/>
<path d="M361.942 91.8396L364.156 89.6239L366.371 91.8396L364.156 94.0553L361.942 91.8396Z" fill="white"/>
<path d="M334.1 91.8396L336.315 89.6239L338.529 91.8396L336.315 94.0553L334.1 91.8396Z" fill="white"/>
<path d="M306.258 91.8396L308.473 89.6239L310.688 91.8396L308.473 94.0553L306.258 91.8396Z" fill="white"/>
<path d="M278.417 91.8396L280.631 89.6239L282.846 91.8396L280.631 94.0553L278.417 91.8396Z" fill="white"/>
<path d="M250.575 91.8396L252.79 89.6239L255.004 91.8396L252.79 94.0553L250.575 91.8396Z" fill="white"/>
<path d="M222.733 91.8396L224.948 89.6239L227.163 91.8396L224.948 94.0553L222.733 91.8396Z" fill="white"/>
<path d="M194.892 91.8396L197.106 89.6239L199.321 91.8396L197.106 94.0553L194.892 91.8396Z" fill="white"/>
<path d="M167.05 91.8396L169.265 89.6239L171.479 91.8396L169.265 94.0553L167.05 91.8396Z" fill="white"/>
<path d="M139.208 91.8396L141.423 89.6239L143.638 91.8396L141.423 94.0553L139.208 91.8396Z" fill="white"/>
<path d="M111.366 91.8396L113.581 89.6239L115.796 91.8396L113.581 94.0553L111.366 91.8396Z" fill="white"/>
<path d="M83.525 91.8396L85.7397 89.6239L87.9545 91.8396L85.7397 94.0553L83.525 91.8396Z" fill="white"/>
<path d="M55.6832 91.8396L57.8979 89.6239L60.1128 91.8396L57.8979 94.0553L55.6832 91.8396Z" fill="white"/>
<path d="M27.8417 91.8396L30.0565 89.6239L32.2712 91.8396L30.0565 94.0553L27.8417 91.8396Z" fill="white"/>
<path d="M-6.10352e-05 91.8396L2.21472 89.6239L4.4295 91.8396L2.21472 94.0553L-6.10352e-05 91.8396Z" fill="white"/>
<path d="M501.15 119.693L503.365 117.477L505.58 119.693L503.365 121.909L501.15 119.693Z" fill="white"/>
<path d="M473.308 119.693L475.523 117.477L477.738 119.693L475.523 121.909L473.308 119.693Z" fill="white"/>
<path d="M445.467 119.693L447.681 117.477L449.896 119.693L447.681 121.909L445.467 119.693Z" fill="white"/>
<path d="M417.625 119.693L419.84 117.477L422.055 119.693L419.84 121.909L417.625 119.693Z" fill="white"/>
<path d="M389.783 119.693L391.998 117.477L394.213 119.693L391.998 121.909L389.783 119.693Z" fill="white"/>
<path d="M361.942 119.693L364.156 117.477L366.371 119.693L364.156 121.909L361.942 119.693Z" fill="white"/>
<path d="M334.1 119.693L336.315 117.477L338.529 119.693L336.315 121.909L334.1 119.693Z" fill="white"/>
<path d="M306.258 119.693L308.473 117.477L310.688 119.693L308.473 121.909L306.258 119.693Z" fill="white"/>
<path d="M278.417 119.693L280.631 117.477L282.846 119.693L280.631 121.909L278.417 119.693Z" fill="white"/>
<path d="M250.575 119.693L252.79 117.477L255.004 119.693L252.79 121.909L250.575 119.693Z" fill="white"/>
<path d="M222.733 119.693L224.948 117.477L227.163 119.693L224.948 121.909L222.733 119.693Z" fill="white"/>
<path d="M194.892 119.693L197.106 117.477L199.321 119.693L197.106 121.909L194.892 119.693Z" fill="white"/>
<path d="M167.05 119.693L169.265 117.477L171.479 119.693L169.265 121.909L167.05 119.693Z" fill="white"/>
<path d="M139.208 119.693L141.423 117.477L143.638 119.693L141.423 121.909L139.208 119.693Z" fill="white"/>
<path d="M111.366 119.693L113.581 117.477L115.796 119.693L113.581 121.909L111.366 119.693Z" fill="white"/>
<path d="M83.525 119.693L85.7397 117.477L87.9545 119.693L85.7397 121.909L83.525 119.693Z" fill="white"/>
<path d="M55.6832 119.693L57.8979 117.477L60.1128 119.693L57.8979 121.909L55.6832 119.693Z" fill="white"/>
<path d="M27.8417 119.693L30.0565 117.477L32.2712 119.693L30.0565 121.909L27.8417 119.693Z" fill="white"/>
<path d="M-6.10352e-05 119.693L2.21472 117.477L4.4295 119.693L2.21472 121.909L-6.10352e-05 119.693Z" fill="white"/>
<path d="M501.15 147.546L503.365 145.33L505.58 147.546L503.365 149.762L501.15 147.546Z" fill="white"/>
<path d="M473.308 147.546L475.523 145.33L477.738 147.546L475.523 149.762L473.308 147.546Z" fill="white"/>
<path d="M445.467 147.546L447.681 145.33L449.896 147.546L447.681 149.762L445.467 147.546Z" fill="white"/>
<path d="M417.625 147.546L419.84 145.33L422.055 147.546L419.84 149.762L417.625 147.546Z" fill="white"/>
<path d="M389.783 147.546L391.998 145.33L394.213 147.546L391.998 149.762L389.783 147.546Z" fill="white"/>
<path d="M361.942 147.546L364.156 145.33L366.371 147.546L364.156 149.762L361.942 147.546Z" fill="white"/>
<path d="M334.1 147.546L336.315 145.33L338.529 147.546L336.315 149.762L334.1 147.546Z" fill="white"/>
<path d="M306.258 147.546L308.473 145.33L310.688 147.546L308.473 149.762L306.258 147.546Z" fill="white"/>
<path d="M278.417 147.546L280.631 145.33L282.846 147.546L280.631 149.762L278.417 147.546Z" fill="white"/>
<path d="M250.575 147.546L252.79 145.33L255.004 147.546L252.79 149.762L250.575 147.546Z" fill="white"/>
<path d="M222.733 147.546L224.948 145.33L227.163 147.546L224.948 149.762L222.733 147.546Z" fill="white"/>
<path d="M194.892 147.546L197.106 145.33L199.321 147.546L197.106 149.762L194.892 147.546Z" fill="white"/>
<path d="M167.05 147.546L169.265 145.33L171.479 147.546L169.265 149.762L167.05 147.546Z" fill="white"/>
<path d="M139.208 147.546L141.423 145.33L143.638 147.546L141.423 149.762L139.208 147.546Z" fill="white"/>
<path d="M111.366 147.546L113.581 145.33L115.796 147.546L113.581 149.762L111.366 147.546Z" fill="white"/>
<path d="M83.525 147.546L85.7397 145.33L87.9545 147.546L85.7397 149.762L83.525 147.546Z" fill="white"/>
<path d="M55.6832 147.546L57.8979 145.33L60.1128 147.546L57.8979 149.762L55.6832 147.546Z" fill="white"/>
<path d="M27.8417 147.546L30.0565 145.33L32.2712 147.546L30.0565 149.762L27.8417 147.546Z" fill="white"/>
<path d="M-6.10352e-05 147.546L2.21472 145.33L4.4295 147.546L2.21472 149.762L-6.10352e-05 147.546Z" fill="white"/>
<path d="M501.15 175.399L503.365 173.183L505.58 175.399L503.365 177.614L501.15 175.399Z" fill="white"/>
<path d="M473.308 175.399L475.523 173.183L477.738 175.399L475.523 177.614L473.308 175.399Z" fill="white"/>
<path d="M445.467 175.399L447.681 173.183L449.896 175.399L447.681 177.614L445.467 175.399Z" fill="white"/>
<path d="M417.625 175.399L419.84 173.183L422.055 175.399L419.84 177.614L417.625 175.399Z" fill="white"/>
<path d="M389.783 175.399L391.998 173.183L394.213 175.399L391.998 177.614L389.783 175.399Z" fill="white"/>
<path d="M361.942 175.399L364.156 173.183L366.371 175.399L364.156 177.614L361.942 175.399Z" fill="white"/>
<path d="M334.1 175.399L336.315 173.183L338.529 175.399L336.315 177.614L334.1 175.399Z" fill="white"/>
<path d="M306.258 175.399L308.473 173.183L310.688 175.399L308.473 177.614L306.258 175.399Z" fill="white"/>
<path d="M278.417 175.399L280.631 173.183L282.846 175.399L280.631 177.614L278.417 175.399Z" fill="white"/>
<path d="M250.575 175.399L252.79 173.183L255.004 175.399L252.79 177.614L250.575 175.399Z" fill="white"/>
<path d="M222.733 175.399L224.948 173.183L227.163 175.399L224.948 177.614L222.733 175.399Z" fill="white"/>
<path d="M194.892 175.399L197.106 173.183L199.321 175.399L197.106 177.614L194.892 175.399Z" fill="white"/>
<path d="M167.05 175.399L169.265 173.183L171.479 175.399L169.265 177.614L167.05 175.399Z" fill="white"/>
<path d="M139.208 175.399L141.423 173.183L143.638 175.399L141.423 177.614L139.208 175.399Z" fill="white"/>
<path d="M111.366 175.399L113.581 173.183L115.796 175.399L113.581 177.614L111.366 175.399Z" fill="white"/>
<path d="M83.525 175.399L85.7397 173.183L87.9545 175.399L85.7397 177.614L83.525 175.399Z" fill="white"/>
<path d="M55.6832 175.399L57.8979 173.183L60.1128 175.399L57.8979 177.614L55.6832 175.399Z" fill="white"/>
<path d="M27.8417 175.399L30.0565 173.183L32.2712 175.399L30.0565 177.614L27.8417 175.399Z" fill="white"/>
<path d="M-6.10352e-05 175.399L2.21472 173.183L4.4295 175.399L2.21472 177.614L-6.10352e-05 175.399Z" fill="white"/>
<path d="M501.15 203.252L503.365 201.037L505.58 203.252L503.365 205.468L501.15 203.252Z" fill="white"/>
<path d="M473.308 203.252L475.523 201.037L477.738 203.252L475.523 205.468L473.308 203.252Z" fill="white"/>
<path d="M445.467 203.252L447.681 201.037L449.896 203.252L447.681 205.468L445.467 203.252Z" fill="white"/>
<path d="M417.625 203.252L419.84 201.037L422.055 203.252L419.84 205.468L417.625 203.252Z" fill="white"/>
<path d="M389.783 203.252L391.998 201.037L394.213 203.252L391.998 205.468L389.783 203.252Z" fill="white"/>
<path d="M361.942 203.252L364.156 201.037L366.371 203.252L364.156 205.468L361.942 203.252Z" fill="white"/>
<path d="M334.1 203.252L336.315 201.037L338.529 203.252L336.315 205.468L334.1 203.252Z" fill="white"/>
<path d="M306.258 203.252L308.473 201.037L310.688 203.252L308.473 205.468L306.258 203.252Z" fill="white"/>
<path d="M278.417 203.252L280.631 201.037L282.846 203.252L280.631 205.468L278.417 203.252Z" fill="white"/>
<path d="M250.575 203.252L252.79 201.037L255.004 203.252L252.79 205.468L250.575 203.252Z" fill="white"/>
<path d="M222.733 203.252L224.948 201.037L227.163 203.252L224.948 205.468L222.733 203.252Z" fill="white"/>
<path d="M194.892 203.252L197.106 201.037L199.321 203.252L197.106 205.468L194.892 203.252Z" fill="white"/>
<path d="M167.05 203.252L169.265 201.037L171.479 203.252L169.265 205.468L167.05 203.252Z" fill="white"/>
<path d="M139.208 203.252L141.423 201.037L143.638 203.252L141.423 205.468L139.208 203.252Z" fill="white"/>
<path d="M111.366 203.252L113.581 201.037L115.796 203.252L113.581 205.468L111.366 203.252Z" fill="white"/>
<path d="M83.525 203.252L85.7397 201.037L87.9545 203.252L85.7397 205.468L83.525 203.252Z" fill="white"/>
<path d="M55.6832 203.252L57.8979 201.037L60.1128 203.252L57.8979 205.468L55.6832 203.252Z" fill="white"/>
<path d="M27.8417 203.252L30.0565 201.037L32.2712 203.252L30.0565 205.468L27.8417 203.252Z" fill="white"/>
<path d="M-6.10352e-05 203.252L2.21472 201.037L4.4295 203.252L2.21472 205.468L-6.10352e-05 203.252Z" fill="white"/>
<path d="M501.15 231.106L503.365 228.89L505.58 231.106L503.365 233.321L501.15 231.106Z" fill="white"/>
<path d="M473.308 231.106L475.523 228.89L477.738 231.106L475.523 233.321L473.308 231.106Z" fill="white"/>
<path d="M445.467 231.106L447.681 228.89L449.896 231.106L447.681 233.321L445.467 231.106Z" fill="white"/>
<path d="M417.625 231.106L419.84 228.89L422.055 231.106L419.84 233.321L417.625 231.106Z" fill="white"/>
<path d="M389.783 231.106L391.998 228.89L394.213 231.106L391.998 233.321L389.783 231.106Z" fill="white"/>
<path d="M361.942 231.106L364.156 228.89L366.371 231.106L364.156 233.321L361.942 231.106Z" fill="white"/>
<path d="M334.1 231.106L336.315 228.89L338.529 231.106L336.315 233.321L334.1 231.106Z" fill="white"/>
<path d="M306.258 231.106L308.473 228.89L310.688 231.106L308.473 233.321L306.258 231.106Z" fill="white"/>
<path d="M278.417 231.106L280.631 228.89L282.846 231.106L280.631 233.321L278.417 231.106Z" fill="white"/>
<path d="M250.575 231.106L252.79 228.89L255.004 231.106L252.79 233.321L250.575 231.106Z" fill="white"/>
<path d="M222.733 231.106L224.948 228.89L227.163 231.106L224.948 233.321L222.733 231.106Z" fill="white"/>
<path d="M194.892 231.106L197.106 228.89L199.321 231.106L197.106 233.321L194.892 231.106Z" fill="white"/>
<path d="M167.05 231.106L169.265 228.89L171.479 231.106L169.265 233.321L167.05 231.106Z" fill="white"/>
<path d="M139.208 231.106L141.423 228.89L143.638 231.106L141.423 233.321L139.208 231.106Z" fill="white"/>
<path d="M111.366 231.106L113.581 228.89L115.796 231.106L113.581 233.321L111.366 231.106Z" fill="white"/>
<path d="M83.525 231.106L85.7397 228.89L87.9545 231.106L85.7397 233.321L83.525 231.106Z" fill="white"/>
<path d="M55.6832 231.106L57.8979 228.89L60.1128 231.106L57.8979 233.321L55.6832 231.106Z" fill="white"/>
<path d="M27.8417 231.106L30.0565 228.89L32.2712 231.106L30.0565 233.321L27.8417 231.106Z" fill="white"/>
<path d="M-6.10352e-05 231.106L2.21472 228.89L4.4295 231.106L2.21472 233.321L-6.10352e-05 231.106Z" fill="white"/>
<path d="M501.15 258.959L503.365 256.743L505.58 258.959L503.365 261.174L501.15 258.959Z" fill="white"/>
<path d="M473.308 258.959L475.523 256.743L477.738 258.959L475.523 261.174L473.308 258.959Z" fill="white"/>
<path d="M445.467 258.959L447.681 256.743L449.896 258.959L447.681 261.174L445.467 258.959Z" fill="white"/>
<path d="M417.625 258.959L419.84 256.743L422.055 258.959L419.84 261.174L417.625 258.959Z" fill="white"/>
<path d="M389.783 258.959L391.998 256.743L394.213 258.959L391.998 261.174L389.783 258.959Z" fill="white"/>
<path d="M361.942 258.959L364.156 256.743L366.371 258.959L364.156 261.174L361.942 258.959Z" fill="white"/>
<path d="M334.1 258.959L336.315 256.743L338.529 258.959L336.315 261.174L334.1 258.959Z" fill="white"/>
<path d="M306.258 258.959L308.473 256.743L310.688 258.959L308.473 261.174L306.258 258.959Z" fill="white"/>
<path d="M278.417 258.959L280.631 256.743L282.846 258.959L280.631 261.174L278.417 258.959Z" fill="white"/>
<path d="M250.575 258.959L252.79 256.743L255.004 258.959L252.79 261.174L250.575 258.959Z" fill="white"/>
<path d="M222.733 258.959L224.948 256.743L227.163 258.959L224.948 261.174L222.733 258.959Z" fill="white"/>
<path d="M194.892 258.959L197.106 256.743L199.321 258.959L197.106 261.174L194.892 258.959Z" fill="white"/>
<path d="M167.05 258.959L169.265 256.743L171.479 258.959L169.265 261.174L167.05 258.959Z" fill="white"/>
<path d="M139.208 258.959L141.423 256.743L143.638 258.959L141.423 261.174L139.208 258.959Z" fill="white"/>
<path d="M111.366 258.959L113.581 256.743L115.796 258.959L113.581 261.174L111.366 258.959Z" fill="white"/>
<path d="M83.525 258.959L85.7397 256.743L87.9545 258.959L85.7397 261.174L83.525 258.959Z" fill="white"/>
<path d="M55.6832 258.959L57.8979 256.743L60.1128 258.959L57.8979 261.174L55.6832 258.959Z" fill="white"/>
<path d="M27.8417 258.959L30.0565 256.743L32.2712 258.959L30.0565 261.174L27.8417 258.959Z" fill="white"/>
<path d="M-6.10352e-05 258.959L2.21472 256.743L4.4295 258.959L2.21472 261.174L-6.10352e-05 258.959Z" fill="white"/>
<path d="M501.15 286.812L503.365 284.596L505.58 286.812L503.365 289.027L501.15 286.812Z" fill="white"/>
<path d="M473.308 286.812L475.523 284.596L477.738 286.812L475.523 289.027L473.308 286.812Z" fill="white"/>
<path d="M445.467 286.812L447.681 284.596L449.896 286.812L447.681 289.027L445.467 286.812Z" fill="white"/>
<path d="M417.625 286.812L419.84 284.596L422.055 286.812L419.84 289.027L417.625 286.812Z" fill="white"/>
<path d="M389.783 286.812L391.998 284.596L394.213 286.812L391.998 289.027L389.783 286.812Z" fill="white"/>
<path d="M361.942 286.812L364.156 284.596L366.371 286.812L364.156 289.027L361.942 286.812Z" fill="white"/>
<path d="M334.1 286.812L336.315 284.596L338.529 286.812L336.315 289.027L334.1 286.812Z" fill="white"/>
<path d="M306.258 286.812L308.473 284.596L310.688 286.812L308.473 289.027L306.258 286.812Z" fill="white"/>
<path d="M278.417 286.812L280.631 284.596L282.846 286.812L280.631 289.027L278.417 286.812Z" fill="white"/>
<path d="M250.575 286.812L252.79 284.596L255.004 286.812L252.79 289.027L250.575 286.812Z" fill="white"/>
<path d="M222.733 286.812L224.948 284.596L227.163 286.812L224.948 289.027L222.733 286.812Z" fill="white"/>
<path d="M194.892 286.812L197.106 284.596L199.321 286.812L197.106 289.027L194.892 286.812Z" fill="white"/>
<path d="M167.05 286.812L169.265 284.596L171.479 286.812L169.265 289.027L167.05 286.812Z" fill="white"/>
<path d="M139.208 286.812L141.423 284.596L143.638 286.812L141.423 289.027L139.208 286.812Z" fill="white"/>
<path d="M111.366 286.812L113.581 284.596L115.796 286.812L113.581 289.027L111.366 286.812Z" fill="white"/>
<path d="M83.525 286.812L85.7397 284.596L87.9545 286.812L85.7397 289.027L83.525 286.812Z" fill="white"/>
<path d="M55.6832 286.812L57.8979 284.596L60.1128 286.812L57.8979 289.027L55.6832 286.812Z" fill="white"/>
<path d="M27.8417 286.812L30.0565 284.596L32.2712 286.812L30.0565 289.027L27.8417 286.812Z" fill="white"/>
<path d="M-6.10352e-05 286.812L2.21472 284.596L4.4295 286.812L2.21472 289.027L-6.10352e-05 286.812Z" fill="white"/>
<path d="M501.15 314.665L503.365 312.45L505.58 314.665L503.365 316.881L501.15 314.665Z" fill="white"/>
<path d="M473.308 314.665L475.523 312.45L477.738 314.665L475.523 316.881L473.308 314.665Z" fill="white"/>
<path d="M445.467 314.665L447.681 312.45L449.896 314.665L447.681 316.881L445.467 314.665Z" fill="white"/>
<path d="M417.625 314.665L419.84 312.45L422.055 314.665L419.84 316.881L417.625 314.665Z" fill="white"/>
<path d="M389.783 314.665L391.998 312.45L394.213 314.665L391.998 316.881L389.783 314.665Z" fill="white"/>
<path d="M361.942 314.665L364.156 312.45L366.371 314.665L364.156 316.881L361.942 314.665Z" fill="white"/>
<path d="M334.1 314.665L336.315 312.45L338.529 314.665L336.315 316.881L334.1 314.665Z" fill="white"/>
<path d="M306.258 314.665L308.473 312.45L310.688 314.665L308.473 316.881L306.258 314.665Z" fill="white"/>
<path d="M278.417 314.665L280.631 312.45L282.846 314.665L280.631 316.881L278.417 314.665Z" fill="white"/>
<path d="M250.575 314.665L252.79 312.45L255.004 314.665L252.79 316.881L250.575 314.665Z" fill="white"/>
<path d="M222.733 314.665L224.948 312.45L227.163 314.665L224.948 316.881L222.733 314.665Z" fill="white"/>
<path d="M194.892 314.665L197.106 312.45L199.321 314.665L197.106 316.881L194.892 314.665Z" fill="white"/>
<path d="M167.05 314.665L169.265 312.45L171.479 314.665L169.265 316.881L167.05 314.665Z" fill="white"/>
<path d="M139.208 314.665L141.423 312.45L143.638 314.665L141.423 316.881L139.208 314.665Z" fill="white"/>
<path d="M111.366 314.665L113.581 312.45L115.796 314.665L113.581 316.881L111.366 314.665Z" fill="white"/>
<path d="M83.525 314.665L85.7397 312.45L87.9545 314.665L85.7397 316.881L83.525 314.665Z" fill="white"/>
<path d="M55.6832 314.665L57.8979 312.45L60.1128 314.665L57.8979 316.881L55.6832 314.665Z" fill="white"/>
<path d="M27.8417 314.665L30.0565 312.45L32.2712 314.665L30.0565 316.881L27.8417 314.665Z" fill="white"/>
<path d="M-6.10352e-05 314.665L2.21472 312.45L4.4295 314.665L2.21472 316.881L-6.10352e-05 314.665Z" fill="white"/>
<path d="M501.15 342.518L503.365 340.302L505.58 342.518L503.365 344.734L501.15 342.518Z" fill="white"/>
<path d="M473.308 342.518L475.523 340.302L477.738 342.518L475.523 344.734L473.308 342.518Z" fill="white"/>
<path d="M445.467 342.518L447.681 340.302L449.896 342.518L447.681 344.734L445.467 342.518Z" fill="white"/>
<path d="M417.625 342.518L419.84 340.302L422.055 342.518L419.84 344.734L417.625 342.518Z" fill="white"/>
<path d="M389.783 342.518L391.998 340.302L394.213 342.518L391.998 344.734L389.783 342.518Z" fill="white"/>
<path d="M361.942 342.518L364.156 340.302L366.371 342.518L364.156 344.734L361.942 342.518Z" fill="white"/>
<path d="M334.1 342.518L336.315 340.302L338.529 342.518L336.315 344.734L334.1 342.518Z" fill="white"/>
<path d="M306.258 342.518L308.473 340.302L310.688 342.518L308.473 344.734L306.258 342.518Z" fill="white"/>
<path d="M278.417 342.518L280.631 340.302L282.846 342.518L280.631 344.734L278.417 342.518Z" fill="white"/>
<path d="M250.575 342.518L252.79 340.302L255.004 342.518L252.79 344.734L250.575 342.518Z" fill="white"/>
<path d="M222.733 342.518L224.948 340.302L227.163 342.518L224.948 344.734L222.733 342.518Z" fill="white"/>
<path d="M194.892 342.518L197.106 340.302L199.321 342.518L197.106 344.734L194.892 342.518Z" fill="white"/>
<path d="M167.05 342.518L169.265 340.302L171.479 342.518L169.265 344.734L167.05 342.518Z" fill="white"/>
<path d="M139.208 342.518L141.423 340.302L143.638 342.518L141.423 344.734L139.208 342.518Z" fill="white"/>
<path d="M111.366 342.518L113.581 340.302L115.796 342.518L113.581 344.734L111.366 342.518Z" fill="white"/>
<path d="M83.525 342.518L85.7397 340.302L87.9545 342.518L85.7397 344.734L83.525 342.518Z" fill="white"/>
<path d="M55.6832 342.518L57.8979 340.302L60.1128 342.518L57.8979 344.734L55.6832 342.518Z" fill="white"/>
<path d="M27.8417 342.518L30.0565 340.302L32.2712 342.518L30.0565 344.734L27.8417 342.518Z" fill="white"/>
<path d="M-6.10352e-05 342.518L2.21472 340.302L4.4295 342.518L2.21472 344.734L-6.10352e-05 342.518Z" fill="white"/>
<path d="M501.15 370.371L503.365 368.155L505.58 370.371L503.365 372.587L501.15 370.371Z" fill="white"/>
<path d="M473.308 370.371L475.523 368.155L477.738 370.371L475.523 372.587L473.308 370.371Z" fill="white"/>
<path d="M445.467 370.371L447.681 368.155L449.896 370.371L447.681 372.587L445.467 370.371Z" fill="white"/>
<path d="M417.625 370.371L419.84 368.155L422.055 370.371L419.84 372.587L417.625 370.371Z" fill="white"/>
<path d="M389.783 370.371L391.998 368.155L394.213 370.371L391.998 372.587L389.783 370.371Z" fill="white"/>
<path d="M361.942 370.371L364.156 368.155L366.371 370.371L364.156 372.587L361.942 370.371Z" fill="white"/>
<path d="M334.1 370.371L336.315 368.155L338.529 370.371L336.315 372.587L334.1 370.371Z" fill="white"/>
<path d="M306.258 370.371L308.473 368.155L310.688 370.371L308.473 372.587L306.258 370.371Z" fill="white"/>
<path d="M278.417 370.371L280.631 368.155L282.846 370.371L280.631 372.587L278.417 370.371Z" fill="white"/>
<path d="M250.575 370.371L252.79 368.155L255.004 370.371L252.79 372.587L250.575 370.371Z" fill="white"/>
<path d="M222.733 370.371L224.948 368.155L227.163 370.371L224.948 372.587L222.733 370.371Z" fill="white"/>
<path d="M194.892 370.371L197.106 368.155L199.321 370.371L197.106 372.587L194.892 370.371Z" fill="white"/>
<path d="M167.05 370.371L169.265 368.155L171.479 370.371L169.265 372.587L167.05 370.371Z" fill="white"/>
<path d="M139.208 370.371L141.423 368.155L143.638 370.371L141.423 372.587L139.208 370.371Z" fill="white"/>
<path d="M111.366 370.371L113.581 368.155L115.796 370.371L113.581 372.587L111.366 370.371Z" fill="white"/>
<path d="M83.525 370.371L85.7397 368.155L87.9545 370.371L85.7397 372.587L83.525 370.371Z" fill="white"/>
<path d="M55.6832 370.371L57.8979 368.155L60.1128 370.371L57.8979 372.587L55.6832 370.371Z" fill="white"/>
<path d="M27.8417 370.371L30.0565 368.155L32.2712 370.371L30.0565 372.587L27.8417 370.371Z" fill="white"/>
<path d="M-6.10352e-05 370.371L2.21472 368.155L4.4295 370.371L2.21472 372.587L-6.10352e-05 370.371Z" fill="white"/>
<path d="M501.15 398.225L503.365 396.009L505.58 398.225L503.365 400.44L501.15 398.225Z" fill="white"/>
<path d="M473.308 398.225L475.523 396.009L477.738 398.225L475.523 400.44L473.308 398.225Z" fill="white"/>
<path d="M445.467 398.225L447.681 396.009L449.896 398.225L447.681 400.44L445.467 398.225Z" fill="white"/>
<path d="M417.625 398.225L419.84 396.009L422.055 398.225L419.84 400.44L417.625 398.225Z" fill="white"/>
<path d="M389.783 398.225L391.998 396.009L394.213 398.225L391.998 400.44L389.783 398.225Z" fill="white"/>
<path d="M361.942 398.225L364.156 396.009L366.371 398.225L364.156 400.44L361.942 398.225Z" fill="white"/>
<path d="M334.1 398.225L336.315 396.009L338.529 398.225L336.315 400.44L334.1 398.225Z" fill="white"/>
<path d="M306.258 398.225L308.473 396.009L310.688 398.225L308.473 400.44L306.258 398.225Z" fill="white"/>
<path d="M278.417 398.225L280.631 396.009L282.846 398.225L280.631 400.44L278.417 398.225Z" fill="white"/>
<path d="M250.575 398.225L252.79 396.009L255.004 398.225L252.79 400.44L250.575 398.225Z" fill="white"/>
<path d="M222.733 398.225L224.948 396.009L227.163 398.225L224.948 400.44L222.733 398.225Z" fill="white"/>
<path d="M194.892 398.225L197.106 396.009L199.321 398.225L197.106 400.44L194.892 398.225Z" fill="white"/>
<path d="M167.05 398.225L169.265 396.009L171.479 398.225L169.265 400.44L167.05 398.225Z" fill="white"/>
<path d="M139.208 398.225L141.423 396.009L143.638 398.225L141.423 400.44L139.208 398.225Z" fill="white"/>
<path d="M111.366 398.225L113.581 396.009L115.796 398.225L113.581 400.44L111.366 398.225Z" fill="white"/>
<path d="M83.525 398.225L85.7397 396.009L87.9545 398.225L85.7397 400.44L83.525 398.225Z" fill="white"/>
<path d="M55.6832 398.225L57.8979 396.009L60.1128 398.225L57.8979 400.44L55.6832 398.225Z" fill="white"/>
<path d="M27.8417 398.225L30.0565 396.009L32.2712 398.225L30.0565 400.44L27.8417 398.225Z" fill="white"/>
<path d="M-6.10352e-05 398.225L2.21472 396.009L4.4295 398.225L2.21472 400.44L-6.10352e-05 398.225Z" fill="white"/>
<path d="M501.15 426.078L503.365 423.862L505.58 426.078L503.365 428.293L501.15 426.078Z" fill="white"/>
<path d="M473.308 426.078L475.523 423.862L477.738 426.078L475.523 428.293L473.308 426.078Z" fill="white"/>
<path d="M445.467 426.078L447.681 423.862L449.896 426.078L447.681 428.293L445.467 426.078Z" fill="white"/>
<path d="M417.625 426.078L419.84 423.862L422.055 426.078L419.84 428.293L417.625 426.078Z" fill="white"/>
<path d="M389.783 426.078L391.998 423.862L394.213 426.078L391.998 428.293L389.783 426.078Z" fill="white"/>
<path d="M361.942 426.078L364.156 423.862L366.371 426.078L364.156 428.293L361.942 426.078Z" fill="white"/>
<path d="M334.1 426.078L336.315 423.862L338.529 426.078L336.315 428.293L334.1 426.078Z" fill="white"/>
<path d="M306.258 426.078L308.473 423.862L310.688 426.078L308.473 428.293L306.258 426.078Z" fill="white"/>
<path d="M278.417 426.078L280.631 423.862L282.846 426.078L280.631 428.293L278.417 426.078Z" fill="white"/>
<path d="M250.575 426.078L252.79 423.862L255.004 426.078L252.79 428.293L250.575 426.078Z" fill="white"/>
<path d="M222.733 426.078L224.948 423.862L227.163 426.078L224.948 428.293L222.733 426.078Z" fill="white"/>
<path d="M194.892 426.078L197.106 423.862L199.321 426.078L197.106 428.293L194.892 426.078Z" fill="white"/>
<path d="M167.05 426.078L169.265 423.862L171.479 426.078L169.265 428.293L167.05 426.078Z" fill="white"/>
<path d="M139.208 426.078L141.423 423.862L143.638 426.078L141.423 428.293L139.208 426.078Z" fill="white"/>
<path d="M111.366 426.078L113.581 423.862L115.796 426.078L113.581 428.293L111.366 426.078Z" fill="white"/>
<path d="M83.525 426.078L85.7397 423.862L87.9545 426.078L85.7397 428.293L83.525 426.078Z" fill="white"/>
<path d="M55.6832 426.078L57.8979 423.862L60.1128 426.078L57.8979 428.293L55.6832 426.078Z" fill="white"/>
<path d="M27.8417 426.078L30.0565 423.862L32.2712 426.078L30.0565 428.293L27.8417 426.078Z" fill="white"/>
<path d="M-6.10352e-05 426.078L2.21472 423.862L4.4295 426.078L2.21472 428.293L-6.10352e-05 426.078Z" fill="white"/>
<path d="M501.15 453.931L503.365 451.715L505.58 453.931L503.365 456.146L501.15 453.931Z" fill="white"/>
<path d="M473.308 453.931L475.523 451.715L477.738 453.931L475.523 456.146L473.308 453.931Z" fill="white"/>
<path d="M445.467 453.931L447.681 451.715L449.896 453.931L447.681 456.146L445.467 453.931Z" fill="white"/>
<path d="M417.625 453.931L419.84 451.715L422.055 453.931L419.84 456.146L417.625 453.931Z" fill="white"/>
<path d="M389.783 453.931L391.998 451.715L394.213 453.931L391.998 456.146L389.783 453.931Z" fill="white"/>
<path d="M361.942 453.931L364.156 451.715L366.371 453.931L364.156 456.146L361.942 453.931Z" fill="white"/>
<path d="M334.1 453.931L336.315 451.715L338.529 453.931L336.315 456.146L334.1 453.931Z" fill="white"/>
<path d="M306.258 453.931L308.473 451.715L310.688 453.931L308.473 456.146L306.258 453.931Z" fill="white"/>
<path d="M278.417 453.931L280.631 451.715L282.846 453.931L280.631 456.146L278.417 453.931Z" fill="white"/>
<path d="M250.575 453.931L252.79 451.715L255.004 453.931L252.79 456.146L250.575 453.931Z" fill="white"/>
<path d="M222.733 453.931L224.948 451.715L227.163 453.931L224.948 456.146L222.733 453.931Z" fill="white"/>
<path d="M194.892 453.931L197.106 451.715L199.321 453.931L197.106 456.146L194.892 453.931Z" fill="white"/>
<path d="M167.05 453.931L169.265 451.715L171.479 453.931L169.265 456.146L167.05 453.931Z" fill="white"/>
<path d="M139.208 453.931L141.423 451.715L143.638 453.931L141.423 456.146L139.208 453.931Z" fill="white"/>
<path d="M111.366 453.931L113.581 451.715L115.796 453.931L113.581 456.146L111.366 453.931Z" fill="white"/>
<path d="M83.525 453.931L85.7397 451.715L87.9545 453.931L85.7397 456.146L83.525 453.931Z" fill="white"/>
<path d="M55.6832 453.931L57.8979 451.715L60.1128 453.931L57.8979 456.146L55.6832 453.931Z" fill="white"/>
<path d="M27.8417 453.931L30.0565 451.715L32.2712 453.931L30.0565 456.146L27.8417 453.931Z" fill="white"/>
<path d="M-6.10352e-05 453.931L2.21472 451.715L4.4295 453.931L2.21472 456.146L-6.10352e-05 453.931Z" fill="white"/>
<path d="M501.15 481.784L503.365 479.569L505.58 481.784L503.365 484L501.15 481.784Z" fill="white"/>
<path d="M473.308 481.784L475.523 479.569L477.738 481.784L475.523 484L473.308 481.784Z" fill="white"/>
<path d="M445.467 481.784L447.681 479.569L449.896 481.784L447.681 484L445.467 481.784Z" fill="white"/>
<path d="M417.625 481.784L419.84 479.569L422.055 481.784L419.84 484L417.625 481.784Z" fill="white"/>
<path d="M389.783 481.784L391.998 479.569L394.213 481.784L391.998 484L389.783 481.784Z" fill="white"/>
<path d="M361.942 481.784L364.156 479.569L366.371 481.784L364.156 484L361.942 481.784Z" fill="white"/>
<path d="M334.1 481.784L336.315 479.569L338.529 481.784L336.315 484L334.1 481.784Z" fill="white"/>
<path d="M306.258 481.784L308.473 479.569L310.688 481.784L308.473 484L306.258 481.784Z" fill="white"/>
<path d="M278.417 481.784L280.631 479.569L282.846 481.784L280.631 484L278.417 481.784Z" fill="white"/>
<path d="M250.575 481.784L252.79 479.569L255.004 481.784L252.79 484L250.575 481.784Z" fill="white"/>
<path d="M222.733 481.784L224.948 479.569L227.163 481.784L224.948 484L222.733 481.784Z" fill="white"/>
<path d="M194.892 481.784L197.106 479.569L199.321 481.784L197.106 484L194.892 481.784Z" fill="white"/>
<path d="M167.05 481.784L169.265 479.569L171.479 481.784L169.265 484L167.05 481.784Z" fill="white"/>
<path d="M139.208 481.784L141.423 479.569L143.638 481.784L141.423 484L139.208 481.784Z" fill="white"/>
<path d="M111.366 481.784L113.581 479.569L115.796 481.784L113.581 484L111.366 481.784Z" fill="white"/>
<path d="M83.525 481.784L85.7397 479.569L87.9545 481.784L85.7397 484L83.525 481.784Z" fill="white"/>
<path d="M55.6832 481.784L57.8979 479.569L60.1128 481.784L57.8979 484L55.6832 481.784Z" fill="white"/>
<path d="M27.8417 481.784L30.0565 479.569L32.2712 481.784L30.0565 484L27.8417 481.784Z" fill="white"/>
<path d="M-6.10352e-05 481.784L2.21472 479.569L4.4295 481.784L2.21472 484L-6.10352e-05 481.784Z" fill="white"/>
</mask>
<g mask="url(#mask0_354_11790)">
<ellipse cx="473.575" cy="243.56" rx="473.575" ry="243.56" transform="matrix(-0.866025 0.5 0.5 0.866025 728.698 -243.274)" fill="url(#paint0_radial_354_11790)" fill-opacity="0.2"/>
</g>
<defs>
<radialGradient id="paint0_radial_354_11790" cx="0" cy="0" r="1" gradientUnits="userSpaceOnUse" gradientTransform="translate(473.409 243.424) rotate(86.6495) scale(248.185 483.13)">
<stop stop-color="white"/>
<stop offset="1" stop-opacity="0"/>
</radialGradient>
</defs>
</svg>
