<svg width="375" height="573" viewBox="0 0 375 573" fill="none" xmlns="http://www.w3.org/2000/svg">
<mask id="mask0_404_309" style="mask-type:alpha" maskUnits="userSpaceOnUse" x="0" y="0" width="375" height="573">
<path d="M372.881 2.51016L373.941 2.70834e-05L375 2.51016L373.941 5.0203L372.881 2.51016Z" fill="white"/>
<path d="M359.564 2.51016L360.623 2.70834e-05L361.683 2.51016L360.623 5.0203L359.564 2.51016Z" fill="white"/>
<path d="M346.247 2.51016L347.306 2.70834e-05L348.366 2.51016L347.306 5.0203L346.247 2.51016Z" fill="white"/>
<path d="M332.93 2.51016L333.989 2.70834e-05L335.049 2.51016L333.989 5.0203L332.93 2.51016Z" fill="white"/>
<path d="M319.613 2.51016L320.672 2.70834e-05L321.731 2.51016L320.672 5.0203L319.613 2.51016Z" fill="white"/>
<path d="M306.296 2.51016L307.355 2.70834e-05L308.414 2.51016L307.355 5.0203L306.296 2.51016Z" fill="white"/>
<path d="M292.978 2.51016L294.038 2.70834e-05L295.097 2.51016L294.038 5.0203L292.978 2.51016Z" fill="white"/>
<path d="M279.661 2.51016L280.721 2.70834e-05L281.78 2.51016L280.721 5.0203L279.661 2.51016Z" fill="white"/>
<path d="M266.344 2.51016L267.404 2.70834e-05L268.463 2.51016L267.404 5.0203L266.344 2.51016Z" fill="white"/>
<path d="M253.027 2.51016L254.086 2.70834e-05L255.146 2.51016L254.086 5.0203L253.027 2.51016Z" fill="white"/>
<path d="M239.71 2.51016L240.769 2.70834e-05L241.829 2.51016L240.769 5.0203L239.71 2.51016Z" fill="white"/>
<path d="M226.393 2.51016L227.452 2.70834e-05L228.512 2.51016L227.452 5.0203L226.393 2.51016Z" fill="white"/>
<path d="M213.076 2.51016L214.135 2.70834e-05L215.194 2.51016L214.135 5.0203L213.076 2.51016Z" fill="white"/>
<path d="M199.759 2.51016L200.818 2.70834e-05L201.877 2.51016L200.818 5.0203L199.759 2.51016Z" fill="white"/>
<path d="M186.441 2.51016L187.501 2.70834e-05L188.56 2.51016L187.501 5.0203L186.441 2.51016Z" fill="white"/>
<path d="M173.124 2.51016L174.184 2.70834e-05L175.243 2.51016L174.184 5.0203L173.124 2.51016Z" fill="white"/>
<path d="M159.807 2.51016L160.867 2.70834e-05L161.926 2.51016L160.867 5.0203L159.807 2.51016Z" fill="white"/>
<path d="M146.49 2.51016L147.55 2.70834e-05L148.609 2.51016L147.55 5.0203L146.49 2.51016Z" fill="white"/>
<path d="M133.173 2.51016L134.232 2.70834e-05L135.292 2.51016L134.232 5.0203L133.173 2.51016Z" fill="white"/>
<path d="M372.881 34.0647L373.941 31.5546L375 34.0647L373.941 36.5748L372.881 34.0647Z" fill="white"/>
<path d="M359.564 34.0647L360.623 31.5546L361.683 34.0647L360.623 36.5748L359.564 34.0647Z" fill="white"/>
<path d="M346.247 34.0647L347.306 31.5546L348.366 34.0647L347.306 36.5748L346.247 34.0647Z" fill="white"/>
<path d="M332.93 34.0647L333.989 31.5546L335.049 34.0647L333.989 36.5748L332.93 34.0647Z" fill="white"/>
<path d="M319.613 34.0647L320.672 31.5546L321.731 34.0647L320.672 36.5748L319.613 34.0647Z" fill="white"/>
<path d="M306.296 34.0647L307.355 31.5546L308.414 34.0647L307.355 36.5748L306.296 34.0647Z" fill="white"/>
<path d="M292.978 34.0647L294.038 31.5546L295.097 34.0647L294.038 36.5748L292.978 34.0647Z" fill="white"/>
<path d="M279.661 34.0647L280.721 31.5546L281.78 34.0647L280.721 36.5748L279.661 34.0647Z" fill="white"/>
<path d="M266.344 34.0647L267.404 31.5546L268.463 34.0647L267.404 36.5748L266.344 34.0647Z" fill="white"/>
<path d="M253.027 34.0647L254.086 31.5546L255.146 34.0647L254.086 36.5748L253.027 34.0647Z" fill="white"/>
<path d="M239.71 34.0647L240.769 31.5546L241.829 34.0647L240.769 36.5748L239.71 34.0647Z" fill="white"/>
<path d="M226.393 34.0647L227.452 31.5546L228.512 34.0647L227.452 36.5748L226.393 34.0647Z" fill="white"/>
<path d="M213.076 34.0647L214.135 31.5546L215.194 34.0647L214.135 36.5748L213.076 34.0647Z" fill="white"/>
<path d="M199.759 34.0647L200.818 31.5546L201.877 34.0647L200.818 36.5748L199.759 34.0647Z" fill="white"/>
<path d="M186.441 34.0647L187.501 31.5546L188.56 34.0647L187.501 36.5748L186.441 34.0647Z" fill="white"/>
<path d="M173.124 34.0647L174.184 31.5546L175.243 34.0647L174.184 36.5748L173.124 34.0647Z" fill="white"/>
<path d="M159.807 34.0647L160.867 31.5546L161.926 34.0647L160.867 36.5748L159.807 34.0647Z" fill="white"/>
<path d="M146.49 34.0647L147.55 31.5546L148.609 34.0647L147.55 36.5748L146.49 34.0647Z" fill="white"/>
<path d="M133.173 34.0647L134.232 31.5546L135.292 34.0647L134.232 36.5748L133.173 34.0647Z" fill="white"/>
<path d="M372.881 65.6192L373.941 63.1091L375 65.6192L373.941 68.1294L372.881 65.6192Z" fill="white"/>
<path d="M359.564 65.6192L360.623 63.1091L361.683 65.6192L360.623 68.1294L359.564 65.6192Z" fill="white"/>
<path d="M346.247 65.6192L347.306 63.1091L348.366 65.6192L347.306 68.1294L346.247 65.6192Z" fill="white"/>
<path d="M332.93 65.6192L333.989 63.1091L335.049 65.6192L333.989 68.1294L332.93 65.6192Z" fill="white"/>
<path d="M319.613 65.6192L320.672 63.1091L321.731 65.6192L320.672 68.1294L319.613 65.6192Z" fill="white"/>
<path d="M306.296 65.6192L307.355 63.1091L308.414 65.6192L307.355 68.1294L306.296 65.6192Z" fill="white"/>
<path d="M292.978 65.6192L294.038 63.1091L295.097 65.6192L294.038 68.1294L292.978 65.6192Z" fill="white"/>
<path d="M279.661 65.6192L280.721 63.1091L281.78 65.6192L280.721 68.1294L279.661 65.6192Z" fill="white"/>
<path d="M266.344 65.6192L267.404 63.1091L268.463 65.6192L267.404 68.1294L266.344 65.6192Z" fill="white"/>
<path d="M253.027 65.6192L254.086 63.1091L255.146 65.6192L254.086 68.1294L253.027 65.6192Z" fill="white"/>
<path d="M239.71 65.6192L240.769 63.1091L241.829 65.6192L240.769 68.1294L239.71 65.6192Z" fill="white"/>
<path d="M226.393 65.6192L227.452 63.1091L228.512 65.6192L227.452 68.1294L226.393 65.6192Z" fill="white"/>
<path d="M213.076 65.6192L214.135 63.1091L215.194 65.6192L214.135 68.1294L213.076 65.6192Z" fill="white"/>
<path d="M199.759 65.6192L200.818 63.1091L201.877 65.6192L200.818 68.1294L199.759 65.6192Z" fill="white"/>
<path d="M186.441 65.6192L187.501 63.1091L188.56 65.6192L187.501 68.1294L186.441 65.6192Z" fill="white"/>
<path d="M173.124 65.6192L174.184 63.1091L175.243 65.6192L174.184 68.1294L173.124 65.6192Z" fill="white"/>
<path d="M159.807 65.6192L160.867 63.1091L161.926 65.6192L160.867 68.1294L159.807 65.6192Z" fill="white"/>
<path d="M146.49 65.6192L147.55 63.1091L148.609 65.6192L147.55 68.1294L146.49 65.6192Z" fill="white"/>
<path d="M133.173 65.6192L134.232 63.1091L135.292 65.6192L134.232 68.1294L133.173 65.6192Z" fill="white"/>
<path d="M372.881 97.1738L373.941 94.6636L375 97.1738L373.941 99.6839L372.881 97.1738Z" fill="white"/>
<path d="M359.564 97.1738L360.623 94.6636L361.683 97.1738L360.623 99.6839L359.564 97.1738Z" fill="white"/>
<path d="M346.247 97.1738L347.306 94.6636L348.366 97.1738L347.306 99.6839L346.247 97.1738Z" fill="white"/>
<path d="M332.93 97.1738L333.989 94.6636L335.049 97.1738L333.989 99.6839L332.93 97.1738Z" fill="white"/>
<path d="M319.613 97.1738L320.672 94.6636L321.731 97.1738L320.672 99.6839L319.613 97.1738Z" fill="white"/>
<path d="M306.296 97.1738L307.355 94.6636L308.414 97.1738L307.355 99.6839L306.296 97.1738Z" fill="white"/>
<path d="M292.978 97.1738L294.038 94.6636L295.097 97.1738L294.038 99.6839L292.978 97.1738Z" fill="white"/>
<path d="M279.661 97.1738L280.721 94.6636L281.78 97.1738L280.721 99.6839L279.661 97.1738Z" fill="white"/>
<path d="M266.344 97.1738L267.404 94.6636L268.463 97.1738L267.404 99.6839L266.344 97.1738Z" fill="white"/>
<path d="M253.027 97.1738L254.086 94.6636L255.146 97.1738L254.086 99.6839L253.027 97.1738Z" fill="white"/>
<path d="M239.71 97.1738L240.769 94.6636L241.829 97.1738L240.769 99.6839L239.71 97.1738Z" fill="white"/>
<path d="M226.393 97.1738L227.452 94.6636L228.512 97.1738L227.452 99.6839L226.393 97.1738Z" fill="white"/>
<path d="M213.076 97.1738L214.135 94.6636L215.194 97.1738L214.135 99.6839L213.076 97.1738Z" fill="white"/>
<path d="M199.759 97.1738L200.818 94.6636L201.877 97.1738L200.818 99.6839L199.759 97.1738Z" fill="white"/>
<path d="M186.441 97.1738L187.501 94.6636L188.56 97.1738L187.501 99.6839L186.441 97.1738Z" fill="white"/>
<path d="M173.124 97.1738L174.184 94.6636L175.243 97.1738L174.184 99.6839L173.124 97.1738Z" fill="white"/>
<path d="M159.807 97.1738L160.867 94.6636L161.926 97.1738L160.867 99.6839L159.807 97.1738Z" fill="white"/>
<path d="M146.49 97.1738L147.55 94.6636L148.609 97.1738L147.55 99.6839L146.49 97.1738Z" fill="white"/>
<path d="M133.173 97.1738L134.232 94.6636L135.292 97.1738L134.232 99.6839L133.173 97.1738Z" fill="white"/>
<path d="M372.881 128.728L373.941 126.218L375 128.728L373.941 131.238L372.881 128.728Z" fill="white"/>
<path d="M359.564 128.728L360.623 126.218L361.683 128.728L360.623 131.238L359.564 128.728Z" fill="white"/>
<path d="M346.247 128.728L347.306 126.218L348.366 128.728L347.306 131.238L346.247 128.728Z" fill="white"/>
<path d="M332.93 128.728L333.989 126.218L335.049 128.728L333.989 131.238L332.93 128.728Z" fill="white"/>
<path d="M319.613 128.728L320.672 126.218L321.731 128.728L320.672 131.238L319.613 128.728Z" fill="white"/>
<path d="M306.296 128.728L307.355 126.218L308.414 128.728L307.355 131.238L306.296 128.728Z" fill="white"/>
<path d="M292.978 128.728L294.038 126.218L295.097 128.728L294.038 131.238L292.978 128.728Z" fill="white"/>
<path d="M279.661 128.728L280.721 126.218L281.78 128.728L280.721 131.238L279.661 128.728Z" fill="white"/>
<path d="M266.344 128.728L267.404 126.218L268.463 128.728L267.404 131.238L266.344 128.728Z" fill="white"/>
<path d="M253.027 128.728L254.086 126.218L255.146 128.728L254.086 131.238L253.027 128.728Z" fill="white"/>
<path d="M239.71 128.728L240.769 126.218L241.829 128.728L240.769 131.238L239.71 128.728Z" fill="white"/>
<path d="M226.393 128.728L227.452 126.218L228.512 128.728L227.452 131.238L226.393 128.728Z" fill="white"/>
<path d="M213.076 128.728L214.135 126.218L215.194 128.728L214.135 131.238L213.076 128.728Z" fill="white"/>
<path d="M199.759 128.728L200.818 126.218L201.877 128.728L200.818 131.238L199.759 128.728Z" fill="white"/>
<path d="M186.441 128.728L187.501 126.218L188.56 128.728L187.501 131.238L186.441 128.728Z" fill="white"/>
<path d="M173.124 128.728L174.184 126.218L175.243 128.728L174.184 131.238L173.124 128.728Z" fill="white"/>
<path d="M159.807 128.728L160.867 126.218L161.926 128.728L160.867 131.238L159.807 128.728Z" fill="white"/>
<path d="M146.49 128.728L147.55 126.218L148.609 128.728L147.55 131.238L146.49 128.728Z" fill="white"/>
<path d="M133.173 128.728L134.232 126.218L135.292 128.728L134.232 131.238L133.173 128.728Z" fill="white"/>
<path d="M372.881 160.282L373.941 157.772L375 160.282L373.941 162.793L372.881 160.282Z" fill="white"/>
<path d="M359.564 160.282L360.623 157.772L361.683 160.282L360.623 162.793L359.564 160.282Z" fill="white"/>
<path d="M346.247 160.282L347.306 157.772L348.366 160.282L347.306 162.793L346.247 160.282Z" fill="white"/>
<path d="M332.93 160.282L333.989 157.772L335.049 160.282L333.989 162.793L332.93 160.282Z" fill="white"/>
<path d="M319.613 160.282L320.672 157.772L321.731 160.282L320.672 162.793L319.613 160.282Z" fill="white"/>
<path d="M306.296 160.282L307.355 157.772L308.414 160.282L307.355 162.793L306.296 160.282Z" fill="white"/>
<path d="M292.978 160.282L294.038 157.772L295.097 160.282L294.038 162.793L292.978 160.282Z" fill="white"/>
<path d="M279.661 160.282L280.721 157.772L281.78 160.282L280.721 162.793L279.661 160.282Z" fill="white"/>
<path d="M266.344 160.282L267.404 157.772L268.463 160.282L267.404 162.793L266.344 160.282Z" fill="white"/>
<path d="M253.027 160.282L254.086 157.772L255.146 160.282L254.086 162.793L253.027 160.282Z" fill="white"/>
<path d="M239.71 160.282L240.769 157.772L241.829 160.282L240.769 162.793L239.71 160.282Z" fill="white"/>
<path d="M226.393 160.282L227.452 157.772L228.512 160.282L227.452 162.793L226.393 160.282Z" fill="white"/>
<path d="M213.076 160.282L214.135 157.772L215.194 160.282L214.135 162.793L213.076 160.282Z" fill="white"/>
<path d="M199.759 160.282L200.818 157.772L201.877 160.282L200.818 162.793L199.759 160.282Z" fill="white"/>
<path d="M186.441 160.282L187.501 157.772L188.56 160.282L187.501 162.793L186.441 160.282Z" fill="white"/>
<path d="M173.124 160.282L174.184 157.772L175.243 160.282L174.184 162.793L173.124 160.282Z" fill="white"/>
<path d="M159.807 160.282L160.867 157.772L161.926 160.282L160.867 162.793L159.807 160.282Z" fill="white"/>
<path d="M146.49 160.282L147.55 157.772L148.609 160.282L147.55 162.793L146.49 160.282Z" fill="white"/>
<path d="M133.173 160.282L134.232 157.772L135.292 160.282L134.232 162.793L133.173 160.282Z" fill="white"/>
<path d="M372.881 191.837L373.941 189.327L375 191.837L373.941 194.347L372.881 191.837Z" fill="white"/>
<path d="M359.564 191.837L360.623 189.327L361.683 191.837L360.623 194.347L359.564 191.837Z" fill="white"/>
<path d="M346.247 191.837L347.306 189.327L348.366 191.837L347.306 194.347L346.247 191.837Z" fill="white"/>
<path d="M332.93 191.837L333.989 189.327L335.049 191.837L333.989 194.347L332.93 191.837Z" fill="white"/>
<path d="M319.613 191.837L320.672 189.327L321.731 191.837L320.672 194.347L319.613 191.837Z" fill="white"/>
<path d="M306.296 191.837L307.355 189.327L308.414 191.837L307.355 194.347L306.296 191.837Z" fill="white"/>
<path d="M292.978 191.837L294.038 189.327L295.097 191.837L294.038 194.347L292.978 191.837Z" fill="white"/>
<path d="M279.661 191.837L280.721 189.327L281.78 191.837L280.721 194.347L279.661 191.837Z" fill="white"/>
<path d="M266.344 191.837L267.404 189.327L268.463 191.837L267.404 194.347L266.344 191.837Z" fill="white"/>
<path d="M253.027 191.837L254.086 189.327L255.146 191.837L254.086 194.347L253.027 191.837Z" fill="white"/>
<path d="M239.71 191.837L240.769 189.327L241.829 191.837L240.769 194.347L239.71 191.837Z" fill="white"/>
<path d="M226.393 191.837L227.452 189.327L228.512 191.837L227.452 194.347L226.393 191.837Z" fill="white"/>
<path d="M213.076 191.837L214.135 189.327L215.194 191.837L214.135 194.347L213.076 191.837Z" fill="white"/>
<path d="M199.759 191.837L200.818 189.327L201.877 191.837L200.818 194.347L199.759 191.837Z" fill="white"/>
<path d="M186.441 191.837L187.501 189.327L188.56 191.837L187.501 194.347L186.441 191.837Z" fill="white"/>
<path d="M173.124 191.837L174.184 189.327L175.243 191.837L174.184 194.347L173.124 191.837Z" fill="white"/>
<path d="M159.807 191.837L160.867 189.327L161.926 191.837L160.867 194.347L159.807 191.837Z" fill="white"/>
<path d="M146.49 191.837L147.55 189.327L148.609 191.837L147.55 194.347L146.49 191.837Z" fill="white"/>
<path d="M133.173 191.837L134.232 189.327L135.292 191.837L134.232 194.347L133.173 191.837Z" fill="white"/>
<path d="M372.881 223.391L373.941 220.881L375 223.391L373.941 225.901L372.881 223.391Z" fill="white"/>
<path d="M359.564 223.391L360.623 220.881L361.683 223.391L360.623 225.901L359.564 223.391Z" fill="white"/>
<path d="M346.247 223.391L347.306 220.881L348.366 223.391L347.306 225.901L346.247 223.391Z" fill="white"/>
<path d="M332.93 223.391L333.989 220.881L335.049 223.391L333.989 225.901L332.93 223.391Z" fill="white"/>
<path d="M319.613 223.391L320.672 220.881L321.731 223.391L320.672 225.901L319.613 223.391Z" fill="white"/>
<path d="M306.296 223.391L307.355 220.881L308.414 223.391L307.355 225.901L306.296 223.391Z" fill="white"/>
<path d="M292.978 223.391L294.038 220.881L295.097 223.391L294.038 225.901L292.978 223.391Z" fill="white"/>
<path d="M279.661 223.391L280.721 220.881L281.78 223.391L280.721 225.901L279.661 223.391Z" fill="white"/>
<path d="M266.344 223.391L267.404 220.881L268.463 223.391L267.404 225.901L266.344 223.391Z" fill="white"/>
<path d="M253.027 223.391L254.086 220.881L255.146 223.391L254.086 225.901L253.027 223.391Z" fill="white"/>
<path d="M239.71 223.391L240.769 220.881L241.829 223.391L240.769 225.901L239.71 223.391Z" fill="white"/>
<path d="M226.393 223.391L227.452 220.881L228.512 223.391L227.452 225.901L226.393 223.391Z" fill="white"/>
<path d="M213.076 223.391L214.135 220.881L215.194 223.391L214.135 225.901L213.076 223.391Z" fill="white"/>
<path d="M199.759 223.391L200.818 220.881L201.877 223.391L200.818 225.901L199.759 223.391Z" fill="white"/>
<path d="M186.441 223.391L187.501 220.881L188.56 223.391L187.501 225.901L186.441 223.391Z" fill="white"/>
<path d="M173.124 223.391L174.184 220.881L175.243 223.391L174.184 225.901L173.124 223.391Z" fill="white"/>
<path d="M159.807 223.391L160.867 220.881L161.926 223.391L160.867 225.901L159.807 223.391Z" fill="white"/>
<path d="M146.49 223.391L147.55 220.881L148.609 223.391L147.55 225.901L146.49 223.391Z" fill="white"/>
<path d="M133.173 223.391L134.232 220.881L135.292 223.391L134.232 225.901L133.173 223.391Z" fill="white"/>
<path d="M372.881 254.946L373.941 252.436L375 254.946L373.941 257.456L372.881 254.946Z" fill="white"/>
<path d="M359.564 254.946L360.623 252.436L361.683 254.946L360.623 257.456L359.564 254.946Z" fill="white"/>
<path d="M346.247 254.946L347.306 252.436L348.366 254.946L347.306 257.456L346.247 254.946Z" fill="white"/>
<path d="M332.93 254.946L333.989 252.436L335.049 254.946L333.989 257.456L332.93 254.946Z" fill="white"/>
<path d="M319.613 254.946L320.672 252.436L321.731 254.946L320.672 257.456L319.613 254.946Z" fill="white"/>
<path d="M306.296 254.946L307.355 252.436L308.414 254.946L307.355 257.456L306.296 254.946Z" fill="white"/>
<path d="M292.978 254.946L294.038 252.436L295.097 254.946L294.038 257.456L292.978 254.946Z" fill="white"/>
<path d="M279.661 254.946L280.721 252.436L281.78 254.946L280.721 257.456L279.661 254.946Z" fill="white"/>
<path d="M266.344 254.946L267.404 252.436L268.463 254.946L267.404 257.456L266.344 254.946Z" fill="white"/>
<path d="M253.027 254.946L254.086 252.436L255.146 254.946L254.086 257.456L253.027 254.946Z" fill="white"/>
<path d="M239.71 254.946L240.769 252.436L241.829 254.946L240.769 257.456L239.71 254.946Z" fill="white"/>
<path d="M226.393 254.946L227.452 252.436L228.512 254.946L227.452 257.456L226.393 254.946Z" fill="white"/>
<path d="M213.076 254.946L214.135 252.436L215.194 254.946L214.135 257.456L213.076 254.946Z" fill="white"/>
<path d="M199.759 254.946L200.818 252.436L201.877 254.946L200.818 257.456L199.759 254.946Z" fill="white"/>
<path d="M186.441 254.946L187.501 252.436L188.56 254.946L187.501 257.456L186.441 254.946Z" fill="white"/>
<path d="M173.124 254.946L174.184 252.436L175.243 254.946L174.184 257.456L173.124 254.946Z" fill="white"/>
<path d="M159.807 254.946L160.867 252.436L161.926 254.946L160.867 257.456L159.807 254.946Z" fill="white"/>
<path d="M146.49 254.946L147.55 252.436L148.609 254.946L147.55 257.456L146.49 254.946Z" fill="white"/>
<path d="M133.173 254.946L134.232 252.436L135.292 254.946L134.232 257.456L133.173 254.946Z" fill="white"/>
<path d="M372.881 286.5L373.941 283.99L375 286.5L373.941 289.01L372.881 286.5Z" fill="white"/>
<path d="M359.564 286.5L360.623 283.99L361.683 286.5L360.623 289.01L359.564 286.5Z" fill="white"/>
<path d="M346.247 286.5L347.306 283.99L348.366 286.5L347.306 289.01L346.247 286.5Z" fill="white"/>
<path d="M332.93 286.5L333.989 283.99L335.049 286.5L333.989 289.01L332.93 286.5Z" fill="white"/>
<path d="M319.613 286.5L320.672 283.99L321.731 286.5L320.672 289.01L319.613 286.5Z" fill="white"/>
<path d="M306.296 286.5L307.355 283.99L308.414 286.5L307.355 289.01L306.296 286.5Z" fill="white"/>
<path d="M292.978 286.5L294.038 283.99L295.097 286.5L294.038 289.01L292.978 286.5Z" fill="white"/>
<path d="M279.661 286.5L280.721 283.99L281.78 286.5L280.721 289.01L279.661 286.5Z" fill="white"/>
<path d="M266.344 286.5L267.404 283.99L268.463 286.5L267.404 289.01L266.344 286.5Z" fill="white"/>
<path d="M253.027 286.5L254.086 283.99L255.146 286.5L254.086 289.01L253.027 286.5Z" fill="white"/>
<path d="M239.71 286.5L240.769 283.99L241.829 286.5L240.769 289.01L239.71 286.5Z" fill="white"/>
<path d="M226.393 286.5L227.452 283.99L228.512 286.5L227.452 289.01L226.393 286.5Z" fill="white"/>
<path d="M213.076 286.5L214.135 283.99L215.194 286.5L214.135 289.01L213.076 286.5Z" fill="white"/>
<path d="M199.759 286.5L200.818 283.99L201.877 286.5L200.818 289.01L199.759 286.5Z" fill="white"/>
<path d="M186.441 286.5L187.501 283.99L188.56 286.5L187.501 289.01L186.441 286.5Z" fill="white"/>
<path d="M173.124 286.5L174.184 283.99L175.243 286.5L174.184 289.01L173.124 286.5Z" fill="white"/>
<path d="M159.807 286.5L160.867 283.99L161.926 286.5L160.867 289.01L159.807 286.5Z" fill="white"/>
<path d="M146.49 286.5L147.55 283.99L148.609 286.5L147.55 289.01L146.49 286.5Z" fill="white"/>
<path d="M133.173 286.5L134.232 283.99L135.292 286.5L134.232 289.01L133.173 286.5Z" fill="white"/>
<path d="M372.881 318.054L373.941 315.544L375 318.054L373.941 320.565L372.881 318.054Z" fill="white"/>
<path d="M359.564 318.054L360.623 315.544L361.683 318.054L360.623 320.565L359.564 318.054Z" fill="white"/>
<path d="M346.247 318.054L347.306 315.544L348.366 318.054L347.306 320.565L346.247 318.054Z" fill="white"/>
<path d="M332.93 318.054L333.989 315.544L335.049 318.054L333.989 320.565L332.93 318.054Z" fill="white"/>
<path d="M319.613 318.054L320.672 315.544L321.731 318.054L320.672 320.565L319.613 318.054Z" fill="white"/>
<path d="M306.296 318.054L307.355 315.544L308.414 318.054L307.355 320.565L306.296 318.054Z" fill="white"/>
<path d="M292.978 318.054L294.038 315.544L295.097 318.054L294.038 320.565L292.978 318.054Z" fill="white"/>
<path d="M279.661 318.054L280.721 315.544L281.78 318.054L280.721 320.565L279.661 318.054Z" fill="white"/>
<path d="M266.344 318.054L267.404 315.544L268.463 318.054L267.404 320.565L266.344 318.054Z" fill="white"/>
<path d="M253.027 318.054L254.086 315.544L255.146 318.054L254.086 320.565L253.027 318.054Z" fill="white"/>
<path d="M239.71 318.054L240.769 315.544L241.829 318.054L240.769 320.565L239.71 318.054Z" fill="white"/>
<path d="M226.393 318.054L227.452 315.544L228.512 318.054L227.452 320.565L226.393 318.054Z" fill="white"/>
<path d="M213.076 318.054L214.135 315.544L215.194 318.054L214.135 320.565L213.076 318.054Z" fill="white"/>
<path d="M199.759 318.054L200.818 315.544L201.877 318.054L200.818 320.565L199.759 318.054Z" fill="white"/>
<path d="M186.441 318.054L187.501 315.544L188.56 318.054L187.501 320.565L186.441 318.054Z" fill="white"/>
<path d="M173.124 318.054L174.184 315.544L175.243 318.054L174.184 320.565L173.124 318.054Z" fill="white"/>
<path d="M159.807 318.054L160.867 315.544L161.926 318.054L160.867 320.565L159.807 318.054Z" fill="white"/>
<path d="M146.49 318.054L147.55 315.544L148.609 318.054L147.55 320.565L146.49 318.054Z" fill="white"/>
<path d="M133.173 318.054L134.232 315.544L135.292 318.054L134.232 320.565L133.173 318.054Z" fill="white"/>
<path d="M372.881 349.608L373.941 347.098L375 349.608L373.941 352.119L372.881 349.608Z" fill="white"/>
<path d="M359.564 349.608L360.623 347.098L361.683 349.608L360.623 352.119L359.564 349.608Z" fill="white"/>
<path d="M346.247 349.608L347.306 347.098L348.366 349.608L347.306 352.119L346.247 349.608Z" fill="white"/>
<path d="M332.93 349.608L333.989 347.098L335.049 349.608L333.989 352.119L332.93 349.608Z" fill="white"/>
<path d="M319.613 349.608L320.672 347.098L321.731 349.608L320.672 352.119L319.613 349.608Z" fill="white"/>
<path d="M306.296 349.608L307.355 347.098L308.414 349.608L307.355 352.119L306.296 349.608Z" fill="white"/>
<path d="M292.978 349.608L294.038 347.098L295.097 349.608L294.038 352.119L292.978 349.608Z" fill="white"/>
<path d="M279.661 349.608L280.721 347.098L281.78 349.608L280.721 352.119L279.661 349.608Z" fill="white"/>
<path d="M266.344 349.608L267.404 347.098L268.463 349.608L267.404 352.119L266.344 349.608Z" fill="white"/>
<path d="M253.027 349.608L254.086 347.098L255.146 349.608L254.086 352.119L253.027 349.608Z" fill="white"/>
<path d="M239.71 349.608L240.769 347.098L241.829 349.608L240.769 352.119L239.71 349.608Z" fill="white"/>
<path d="M226.393 349.608L227.452 347.098L228.512 349.608L227.452 352.119L226.393 349.608Z" fill="white"/>
<path d="M213.076 349.608L214.135 347.098L215.194 349.608L214.135 352.119L213.076 349.608Z" fill="white"/>
<path d="M199.759 349.608L200.818 347.098L201.877 349.608L200.818 352.119L199.759 349.608Z" fill="white"/>
<path d="M186.441 349.608L187.501 347.098L188.56 349.608L187.501 352.119L186.441 349.608Z" fill="white"/>
<path d="M173.124 349.608L174.184 347.098L175.243 349.608L174.184 352.119L173.124 349.608Z" fill="white"/>
<path d="M159.807 349.608L160.867 347.098L161.926 349.608L160.867 352.119L159.807 349.608Z" fill="white"/>
<path d="M146.49 349.608L147.55 347.098L148.609 349.608L147.55 352.119L146.49 349.608Z" fill="white"/>
<path d="M133.173 349.608L134.232 347.098L135.292 349.608L134.232 352.119L133.173 349.608Z" fill="white"/>
<path d="M372.881 381.163L373.941 378.653L375 381.163L373.941 383.674L372.881 381.163Z" fill="white"/>
<path d="M359.564 381.163L360.623 378.653L361.683 381.163L360.623 383.674L359.564 381.163Z" fill="white"/>
<path d="M346.247 381.163L347.306 378.653L348.366 381.163L347.306 383.674L346.247 381.163Z" fill="white"/>
<path d="M332.93 381.163L333.989 378.653L335.049 381.163L333.989 383.674L332.93 381.163Z" fill="white"/>
<path d="M319.613 381.163L320.672 378.653L321.731 381.163L320.672 383.674L319.613 381.163Z" fill="white"/>
<path d="M306.296 381.163L307.355 378.653L308.414 381.163L307.355 383.674L306.296 381.163Z" fill="white"/>
<path d="M292.978 381.163L294.038 378.653L295.097 381.163L294.038 383.674L292.978 381.163Z" fill="white"/>
<path d="M279.661 381.163L280.721 378.653L281.78 381.163L280.721 383.674L279.661 381.163Z" fill="white"/>
<path d="M266.344 381.163L267.404 378.653L268.463 381.163L267.404 383.674L266.344 381.163Z" fill="white"/>
<path d="M253.027 381.163L254.086 378.653L255.146 381.163L254.086 383.674L253.027 381.163Z" fill="white"/>
<path d="M239.71 381.163L240.769 378.653L241.829 381.163L240.769 383.674L239.71 381.163Z" fill="white"/>
<path d="M226.393 381.163L227.452 378.653L228.512 381.163L227.452 383.674L226.393 381.163Z" fill="white"/>
<path d="M213.076 381.163L214.135 378.653L215.194 381.163L214.135 383.674L213.076 381.163Z" fill="white"/>
<path d="M199.759 381.163L200.818 378.653L201.877 381.163L200.818 383.674L199.759 381.163Z" fill="white"/>
<path d="M186.441 381.163L187.501 378.653L188.56 381.163L187.501 383.674L186.441 381.163Z" fill="white"/>
<path d="M173.124 381.163L174.184 378.653L175.243 381.163L174.184 383.674L173.124 381.163Z" fill="white"/>
<path d="M159.807 381.163L160.867 378.653L161.926 381.163L160.867 383.674L159.807 381.163Z" fill="white"/>
<path d="M146.49 381.163L147.55 378.653L148.609 381.163L147.55 383.674L146.49 381.163Z" fill="white"/>
<path d="M133.173 381.163L134.232 378.653L135.292 381.163L134.232 383.674L133.173 381.163Z" fill="white"/>
<path d="M372.881 412.718L373.941 410.207L375 412.718L373.941 415.228L372.881 412.718Z" fill="white"/>
<path d="M359.564 412.718L360.623 410.207L361.683 412.718L360.623 415.228L359.564 412.718Z" fill="white"/>
<path d="M346.247 412.718L347.306 410.207L348.366 412.718L347.306 415.228L346.247 412.718Z" fill="white"/>
<path d="M332.93 412.718L333.989 410.207L335.049 412.718L333.989 415.228L332.93 412.718Z" fill="white"/>
<path d="M319.613 412.718L320.672 410.207L321.731 412.718L320.672 415.228L319.613 412.718Z" fill="white"/>
<path d="M306.296 412.718L307.355 410.207L308.414 412.718L307.355 415.228L306.296 412.718Z" fill="white"/>
<path d="M292.978 412.718L294.038 410.207L295.097 412.718L294.038 415.228L292.978 412.718Z" fill="white"/>
<path d="M279.661 412.718L280.721 410.207L281.78 412.718L280.721 415.228L279.661 412.718Z" fill="white"/>
<path d="M266.344 412.718L267.404 410.207L268.463 412.718L267.404 415.228L266.344 412.718Z" fill="white"/>
<path d="M253.027 412.718L254.086 410.207L255.146 412.718L254.086 415.228L253.027 412.718Z" fill="white"/>
<path d="M239.71 412.718L240.769 410.207L241.829 412.718L240.769 415.228L239.71 412.718Z" fill="white"/>
<path d="M226.393 412.718L227.452 410.207L228.512 412.718L227.452 415.228L226.393 412.718Z" fill="white"/>
<path d="M213.076 412.718L214.135 410.207L215.194 412.718L214.135 415.228L213.076 412.718Z" fill="white"/>
<path d="M199.759 412.718L200.818 410.207L201.877 412.718L200.818 415.228L199.759 412.718Z" fill="white"/>
<path d="M186.441 412.718L187.501 410.207L188.56 412.718L187.501 415.228L186.441 412.718Z" fill="white"/>
<path d="M173.124 412.718L174.184 410.207L175.243 412.718L174.184 415.228L173.124 412.718Z" fill="white"/>
<path d="M159.807 412.718L160.867 410.207L161.926 412.718L160.867 415.228L159.807 412.718Z" fill="white"/>
<path d="M146.49 412.718L147.55 410.207L148.609 412.718L147.55 415.228L146.49 412.718Z" fill="white"/>
<path d="M133.173 412.718L134.232 410.207L135.292 412.718L134.232 415.228L133.173 412.718Z" fill="white"/>
<path d="M372.881 444.272L373.941 441.762L375 444.272L373.941 446.782L372.881 444.272Z" fill="white"/>
<path d="M359.564 444.272L360.623 441.762L361.683 444.272L360.623 446.782L359.564 444.272Z" fill="white"/>
<path d="M346.247 444.272L347.306 441.762L348.366 444.272L347.306 446.782L346.247 444.272Z" fill="white"/>
<path d="M332.93 444.272L333.989 441.762L335.049 444.272L333.989 446.782L332.93 444.272Z" fill="white"/>
<path d="M319.613 444.272L320.672 441.762L321.731 444.272L320.672 446.782L319.613 444.272Z" fill="white"/>
<path d="M306.296 444.272L307.355 441.762L308.414 444.272L307.355 446.782L306.296 444.272Z" fill="white"/>
<path d="M292.978 444.272L294.038 441.762L295.097 444.272L294.038 446.782L292.978 444.272Z" fill="white"/>
<path d="M279.661 444.272L280.721 441.762L281.78 444.272L280.721 446.782L279.661 444.272Z" fill="white"/>
<path d="M266.344 444.272L267.404 441.762L268.463 444.272L267.404 446.782L266.344 444.272Z" fill="white"/>
<path d="M253.027 444.272L254.086 441.762L255.146 444.272L254.086 446.782L253.027 444.272Z" fill="white"/>
<path d="M239.71 444.272L240.769 441.762L241.829 444.272L240.769 446.782L239.71 444.272Z" fill="white"/>
<path d="M226.393 444.272L227.452 441.762L228.512 444.272L227.452 446.782L226.393 444.272Z" fill="white"/>
<path d="M213.076 444.272L214.135 441.762L215.194 444.272L214.135 446.782L213.076 444.272Z" fill="white"/>
<path d="M199.759 444.272L200.818 441.762L201.877 444.272L200.818 446.782L199.759 444.272Z" fill="white"/>
<path d="M186.441 444.272L187.501 441.762L188.56 444.272L187.501 446.782L186.441 444.272Z" fill="white"/>
<path d="M173.124 444.272L174.184 441.762L175.243 444.272L174.184 446.782L173.124 444.272Z" fill="white"/>
<path d="M159.807 444.272L160.867 441.762L161.926 444.272L160.867 446.782L159.807 444.272Z" fill="white"/>
<path d="M146.49 444.272L147.55 441.762L148.609 444.272L147.55 446.782L146.49 444.272Z" fill="white"/>
<path d="M133.173 444.272L134.232 441.762L135.292 444.272L134.232 446.782L133.173 444.272Z" fill="white"/>
<path d="M372.881 475.827L373.941 473.316L375 475.827L373.941 478.337L372.881 475.827Z" fill="white"/>
<path d="M359.564 475.827L360.623 473.316L361.683 475.827L360.623 478.337L359.564 475.827Z" fill="white"/>
<path d="M346.247 475.827L347.306 473.316L348.366 475.827L347.306 478.337L346.247 475.827Z" fill="white"/>
<path d="M332.93 475.827L333.989 473.316L335.049 475.827L333.989 478.337L332.93 475.827Z" fill="white"/>
<path d="M319.613 475.827L320.672 473.316L321.731 475.827L320.672 478.337L319.613 475.827Z" fill="white"/>
<path d="M306.296 475.827L307.355 473.316L308.414 475.827L307.355 478.337L306.296 475.827Z" fill="white"/>
<path d="M292.978 475.827L294.038 473.316L295.097 475.827L294.038 478.337L292.978 475.827Z" fill="white"/>
<path d="M279.661 475.827L280.721 473.316L281.78 475.827L280.721 478.337L279.661 475.827Z" fill="white"/>
<path d="M266.344 475.827L267.404 473.316L268.463 475.827L267.404 478.337L266.344 475.827Z" fill="white"/>
<path d="M253.027 475.827L254.086 473.316L255.146 475.827L254.086 478.337L253.027 475.827Z" fill="white"/>
<path d="M239.71 475.827L240.769 473.316L241.829 475.827L240.769 478.337L239.71 475.827Z" fill="white"/>
<path d="M226.393 475.827L227.452 473.316L228.512 475.827L227.452 478.337L226.393 475.827Z" fill="white"/>
<path d="M213.076 475.827L214.135 473.316L215.194 475.827L214.135 478.337L213.076 475.827Z" fill="white"/>
<path d="M199.759 475.827L200.818 473.316L201.877 475.827L200.818 478.337L199.759 475.827Z" fill="white"/>
<path d="M186.441 475.827L187.501 473.316L188.56 475.827L187.501 478.337L186.441 475.827Z" fill="white"/>
<path d="M173.124 475.827L174.184 473.316L175.243 475.827L174.184 478.337L173.124 475.827Z" fill="white"/>
<path d="M159.807 475.827L160.867 473.316L161.926 475.827L160.867 478.337L159.807 475.827Z" fill="white"/>
<path d="M146.49 475.827L147.55 473.316L148.609 475.827L147.55 478.337L146.49 475.827Z" fill="white"/>
<path d="M133.173 475.827L134.232 473.316L135.292 475.827L134.232 478.337L133.173 475.827Z" fill="white"/>
<path d="M372.881 507.381L373.941 504.871L375 507.381L373.941 509.891L372.881 507.381Z" fill="white"/>
<path d="M359.564 507.381L360.623 504.871L361.683 507.381L360.623 509.891L359.564 507.381Z" fill="white"/>
<path d="M346.247 507.381L347.306 504.871L348.366 507.381L347.306 509.891L346.247 507.381Z" fill="white"/>
<path d="M332.93 507.381L333.989 504.871L335.049 507.381L333.989 509.891L332.93 507.381Z" fill="white"/>
<path d="M319.613 507.381L320.672 504.871L321.731 507.381L320.672 509.891L319.613 507.381Z" fill="white"/>
<path d="M306.296 507.381L307.355 504.871L308.414 507.381L307.355 509.891L306.296 507.381Z" fill="white"/>
<path d="M292.978 507.381L294.038 504.871L295.097 507.381L294.038 509.891L292.978 507.381Z" fill="white"/>
<path d="M279.661 507.381L280.721 504.871L281.78 507.381L280.721 509.891L279.661 507.381Z" fill="white"/>
<path d="M266.344 507.381L267.404 504.871L268.463 507.381L267.404 509.891L266.344 507.381Z" fill="white"/>
<path d="M253.027 507.381L254.086 504.871L255.146 507.381L254.086 509.891L253.027 507.381Z" fill="white"/>
<path d="M239.71 507.381L240.769 504.871L241.829 507.381L240.769 509.891L239.71 507.381Z" fill="white"/>
<path d="M226.393 507.381L227.452 504.871L228.512 507.381L227.452 509.891L226.393 507.381Z" fill="white"/>
<path d="M213.076 507.381L214.135 504.871L215.194 507.381L214.135 509.891L213.076 507.381Z" fill="white"/>
<path d="M199.759 507.381L200.818 504.871L201.877 507.381L200.818 509.891L199.759 507.381Z" fill="white"/>
<path d="M186.441 507.381L187.501 504.871L188.56 507.381L187.501 509.891L186.441 507.381Z" fill="white"/>
<path d="M173.124 507.381L174.184 504.871L175.243 507.381L174.184 509.891L173.124 507.381Z" fill="white"/>
<path d="M159.807 507.381L160.867 504.871L161.926 507.381L160.867 509.891L159.807 507.381Z" fill="white"/>
<path d="M146.49 507.381L147.55 504.871L148.609 507.381L147.55 509.891L146.49 507.381Z" fill="white"/>
<path d="M133.173 507.381L134.232 504.871L135.292 507.381L134.232 509.891L133.173 507.381Z" fill="white"/>
<path d="M372.881 538.935L373.941 536.425L375 538.935L373.941 541.445L372.881 538.935Z" fill="white"/>
<path d="M359.564 538.935L360.623 536.425L361.683 538.935L360.623 541.445L359.564 538.935Z" fill="white"/>
<path d="M346.247 538.935L347.306 536.425L348.366 538.935L347.306 541.445L346.247 538.935Z" fill="white"/>
<path d="M332.93 538.935L333.989 536.425L335.049 538.935L333.989 541.445L332.93 538.935Z" fill="white"/>
<path d="M319.613 538.935L320.672 536.425L321.731 538.935L320.672 541.445L319.613 538.935Z" fill="white"/>
<path d="M306.296 538.935L307.355 536.425L308.414 538.935L307.355 541.445L306.296 538.935Z" fill="white"/>
<path d="M292.978 538.935L294.038 536.425L295.097 538.935L294.038 541.445L292.978 538.935Z" fill="white"/>
<path d="M279.661 538.935L280.721 536.425L281.78 538.935L280.721 541.445L279.661 538.935Z" fill="white"/>
<path d="M266.344 538.935L267.404 536.425L268.463 538.935L267.404 541.445L266.344 538.935Z" fill="white"/>
<path d="M253.027 538.935L254.086 536.425L255.146 538.935L254.086 541.445L253.027 538.935Z" fill="white"/>
<path d="M239.71 538.935L240.769 536.425L241.829 538.935L240.769 541.445L239.71 538.935Z" fill="white"/>
<path d="M226.393 538.935L227.452 536.425L228.512 538.935L227.452 541.445L226.393 538.935Z" fill="white"/>
<path d="M213.076 538.935L214.135 536.425L215.194 538.935L214.135 541.445L213.076 538.935Z" fill="white"/>
<path d="M199.759 538.935L200.818 536.425L201.877 538.935L200.818 541.445L199.759 538.935Z" fill="white"/>
<path d="M186.441 538.935L187.501 536.425L188.56 538.935L187.501 541.445L186.441 538.935Z" fill="white"/>
<path d="M173.124 538.935L174.184 536.425L175.243 538.935L174.184 541.445L173.124 538.935Z" fill="white"/>
<path d="M159.807 538.935L160.867 536.425L161.926 538.935L160.867 541.445L159.807 538.935Z" fill="white"/>
<path d="M146.49 538.935L147.55 536.425L148.609 538.935L147.55 541.445L146.49 538.935Z" fill="white"/>
<path d="M133.173 538.935L134.232 536.425L135.292 538.935L134.232 541.445L133.173 538.935Z" fill="white"/>
<path d="M372.881 570.49L373.941 567.98L375 570.49L373.941 573L372.881 570.49Z" fill="white"/>
<path d="M359.564 570.49L360.623 567.98L361.683 570.49L360.623 573L359.564 570.49Z" fill="white"/>
<path d="M346.247 570.49L347.306 567.98L348.366 570.49L347.306 573L346.247 570.49Z" fill="white"/>
<path d="M332.93 570.49L333.989 567.98L335.049 570.49L333.989 573L332.93 570.49Z" fill="white"/>
<path d="M319.613 570.49L320.672 567.98L321.731 570.49L320.672 573L319.613 570.49Z" fill="white"/>
<path d="M306.296 570.49L307.355 567.98L308.414 570.49L307.355 573L306.296 570.49Z" fill="white"/>
<path d="M292.978 570.49L294.038 567.98L295.097 570.49L294.038 573L292.978 570.49Z" fill="white"/>
<path d="M279.661 570.49L280.721 567.98L281.78 570.49L280.721 573L279.661 570.49Z" fill="white"/>
<path d="M266.344 570.49L267.404 567.98L268.463 570.49L267.404 573L266.344 570.49Z" fill="white"/>
<path d="M253.027 570.49L254.086 567.98L255.146 570.49L254.086 573L253.027 570.49Z" fill="white"/>
<path d="M239.71 570.49L240.769 567.98L241.829 570.49L240.769 573L239.71 570.49Z" fill="white"/>
<path d="M226.393 570.49L227.452 567.98L228.512 570.49L227.452 573L226.393 570.49Z" fill="white"/>
<path d="M213.076 570.49L214.135 567.98L215.194 570.49L214.135 573L213.076 570.49Z" fill="white"/>
<path d="M199.759 570.49L200.818 567.98L201.877 570.49L200.818 573L199.759 570.49Z" fill="white"/>
<path d="M186.441 570.49L187.501 567.98L188.56 570.49L187.501 573L186.441 570.49Z" fill="white"/>
<path d="M173.124 570.49L174.184 567.98L175.243 570.49L174.184 573L173.124 570.49Z" fill="white"/>
<path d="M159.807 570.49L160.867 567.98L161.926 570.49L160.867 573L159.807 570.49Z" fill="white"/>
<path d="M146.49 570.49L147.55 567.98L148.609 570.49L147.55 573L146.49 570.49Z" fill="white"/>
<path d="M133.173 570.49L134.232 567.98L135.292 570.49L134.232 573L133.173 570.49Z" fill="white"/>
<path d="M239.708 2.51014L240.768 0L241.827 2.51014L240.768 5.02027L239.708 2.51014Z" fill="white"/>
<path d="M226.391 2.51014L227.45 0L228.51 2.51014L227.45 5.02027L226.391 2.51014Z" fill="white"/>
<path d="M213.074 2.51014L214.133 0L215.193 2.51014L214.133 5.02027L213.074 2.51014Z" fill="white"/>
<path d="M199.757 2.51014L200.816 0L201.876 2.51014L200.816 5.02027L199.757 2.51014Z" fill="white"/>
<path d="M186.44 2.51014L187.499 0L188.558 2.51014L187.499 5.02027L186.44 2.51014Z" fill="white"/>
<path d="M173.123 2.51014L174.182 0L175.241 2.51014L174.182 5.02027L173.123 2.51014Z" fill="white"/>
<path d="M159.805 2.51014L160.865 0L161.924 2.51014L160.865 5.02027L159.805 2.51014Z" fill="white"/>
<path d="M146.488 2.51014L147.548 0L148.607 2.51014L147.548 5.02027L146.488 2.51014Z" fill="white"/>
<path d="M133.171 2.51014L134.231 0L135.29 2.51014L134.231 5.02027L133.171 2.51014Z" fill="white"/>
<path d="M119.854 2.51014L120.913 0L121.973 2.51014L120.913 5.02027L119.854 2.51014Z" fill="white"/>
<path d="M106.537 2.51014L107.596 0L108.656 2.51014L107.596 5.02027L106.537 2.51014Z" fill="white"/>
<path d="M93.2198 2.51014L94.2792 0L95.3385 2.51014L94.2792 5.02027L93.2198 2.51014Z" fill="white"/>
<path d="M79.9026 2.51014L80.962 0L82.0214 2.51014L80.962 5.02027L79.9026 2.51014Z" fill="white"/>
<path d="M66.5856 2.51014L67.6449 0L68.7043 2.51014L67.6449 5.02027L66.5856 2.51014Z" fill="white"/>
<path d="M53.2684 2.51014L54.3278 0L55.3871 2.51014L54.3278 5.02027L53.2684 2.51014Z" fill="white"/>
<path d="M39.9514 2.51014L41.0107 0L42.0701 2.51014L41.0107 5.02027L39.9514 2.51014Z" fill="white"/>
<path d="M26.6342 2.51014L27.6936 0L28.7529 2.51014L27.6936 5.02027L26.6342 2.51014Z" fill="white"/>
<path d="M13.3172 2.51014L14.3765 0L15.4359 2.51014L14.3765 5.02027L13.3172 2.51014Z" fill="white"/>
<path d="M0 2.51014L1.05939 0L2.11871 2.51014L1.05939 5.02027L0 2.51014Z" fill="white"/>
<path d="M239.708 34.0647L240.768 31.5545L241.827 34.0647L240.768 36.5748L239.708 34.0647Z" fill="white"/>
<path d="M226.391 34.0647L227.45 31.5545L228.51 34.0647L227.45 36.5748L226.391 34.0647Z" fill="white"/>
<path d="M213.074 34.0647L214.133 31.5545L215.193 34.0647L214.133 36.5748L213.074 34.0647Z" fill="white"/>
<path d="M199.757 34.0647L200.816 31.5545L201.876 34.0647L200.816 36.5748L199.757 34.0647Z" fill="white"/>
<path d="M186.44 34.0647L187.499 31.5545L188.558 34.0647L187.499 36.5748L186.44 34.0647Z" fill="white"/>
<path d="M173.123 34.0647L174.182 31.5545L175.241 34.0647L174.182 36.5748L173.123 34.0647Z" fill="white"/>
<path d="M159.805 34.0647L160.865 31.5545L161.924 34.0647L160.865 36.5748L159.805 34.0647Z" fill="white"/>
<path d="M146.488 34.0647L147.548 31.5545L148.607 34.0647L147.548 36.5748L146.488 34.0647Z" fill="white"/>
<path d="M133.171 34.0647L134.231 31.5545L135.29 34.0647L134.231 36.5748L133.171 34.0647Z" fill="white"/>
<path d="M119.854 34.0647L120.913 31.5545L121.973 34.0647L120.913 36.5748L119.854 34.0647Z" fill="white"/>
<path d="M106.537 34.0647L107.596 31.5545L108.656 34.0647L107.596 36.5748L106.537 34.0647Z" fill="white"/>
<path d="M93.2198 34.0647L94.2792 31.5545L95.3385 34.0647L94.2792 36.5748L93.2198 34.0647Z" fill="white"/>
<path d="M79.9026 34.0647L80.962 31.5545L82.0214 34.0647L80.962 36.5748L79.9026 34.0647Z" fill="white"/>
<path d="M66.5856 34.0647L67.6449 31.5545L68.7043 34.0647L67.6449 36.5748L66.5856 34.0647Z" fill="white"/>
<path d="M53.2684 34.0647L54.3278 31.5545L55.3871 34.0647L54.3278 36.5748L53.2684 34.0647Z" fill="white"/>
<path d="M39.9514 34.0647L41.0107 31.5545L42.0701 34.0647L41.0107 36.5748L39.9514 34.0647Z" fill="white"/>
<path d="M26.6342 34.0647L27.6936 31.5545L28.7529 34.0647L27.6936 36.5748L26.6342 34.0647Z" fill="white"/>
<path d="M13.3172 34.0647L14.3765 31.5545L15.4359 34.0647L14.3765 36.5748L13.3172 34.0647Z" fill="white"/>
<path d="M0 34.0647L1.05939 31.5545L2.11871 34.0647L1.05939 36.5748L0 34.0647Z" fill="white"/>
<path d="M239.708 65.6192L240.768 63.1091L241.827 65.6192L240.768 68.1293L239.708 65.6192Z" fill="white"/>
<path d="M226.391 65.6192L227.45 63.1091L228.51 65.6192L227.45 68.1293L226.391 65.6192Z" fill="white"/>
<path d="M213.074 65.6192L214.133 63.1091L215.193 65.6192L214.133 68.1293L213.074 65.6192Z" fill="white"/>
<path d="M199.757 65.6192L200.816 63.1091L201.876 65.6192L200.816 68.1293L199.757 65.6192Z" fill="white"/>
<path d="M186.44 65.6192L187.499 63.1091L188.558 65.6192L187.499 68.1293L186.44 65.6192Z" fill="white"/>
<path d="M173.123 65.6192L174.182 63.1091L175.241 65.6192L174.182 68.1293L173.123 65.6192Z" fill="white"/>
<path d="M159.805 65.6192L160.865 63.1091L161.924 65.6192L160.865 68.1293L159.805 65.6192Z" fill="white"/>
<path d="M146.488 65.6192L147.548 63.1091L148.607 65.6192L147.548 68.1293L146.488 65.6192Z" fill="white"/>
<path d="M133.171 65.6192L134.231 63.1091L135.29 65.6192L134.231 68.1293L133.171 65.6192Z" fill="white"/>
<path d="M119.854 65.6192L120.913 63.1091L121.973 65.6192L120.913 68.1293L119.854 65.6192Z" fill="white"/>
<path d="M106.537 65.6192L107.596 63.1091L108.656 65.6192L107.596 68.1293L106.537 65.6192Z" fill="white"/>
<path d="M93.2198 65.6192L94.2792 63.1091L95.3385 65.6192L94.2792 68.1293L93.2198 65.6192Z" fill="white"/>
<path d="M79.9026 65.6192L80.962 63.1091L82.0214 65.6192L80.962 68.1293L79.9026 65.6192Z" fill="white"/>
<path d="M66.5856 65.6192L67.6449 63.1091L68.7043 65.6192L67.6449 68.1293L66.5856 65.6192Z" fill="white"/>
<path d="M53.2684 65.6192L54.3278 63.1091L55.3871 65.6192L54.3278 68.1293L53.2684 65.6192Z" fill="white"/>
<path d="M39.9514 65.6192L41.0107 63.1091L42.0701 65.6192L41.0107 68.1293L39.9514 65.6192Z" fill="white"/>
<path d="M26.6342 65.6192L27.6936 63.1091L28.7529 65.6192L27.6936 68.1293L26.6342 65.6192Z" fill="white"/>
<path d="M13.3172 65.6192L14.3765 63.1091L15.4359 65.6192L14.3765 68.1293L13.3172 65.6192Z" fill="white"/>
<path d="M0 65.6192L1.05939 63.1091L2.11871 65.6192L1.05939 68.1293L0 65.6192Z" fill="white"/>
<path d="M239.708 97.1737L240.768 94.6636L241.827 97.1737L240.768 99.6839L239.708 97.1737Z" fill="white"/>
<path d="M226.391 97.1737L227.45 94.6636L228.51 97.1737L227.45 99.6839L226.391 97.1737Z" fill="white"/>
<path d="M213.074 97.1737L214.133 94.6636L215.193 97.1737L214.133 99.6839L213.074 97.1737Z" fill="white"/>
<path d="M199.757 97.1737L200.816 94.6636L201.876 97.1737L200.816 99.6839L199.757 97.1737Z" fill="white"/>
<path d="M186.44 97.1737L187.499 94.6636L188.558 97.1737L187.499 99.6839L186.44 97.1737Z" fill="white"/>
<path d="M173.123 97.1737L174.182 94.6636L175.241 97.1737L174.182 99.6839L173.123 97.1737Z" fill="white"/>
<path d="M159.805 97.1737L160.865 94.6636L161.924 97.1737L160.865 99.6839L159.805 97.1737Z" fill="white"/>
<path d="M146.488 97.1737L147.548 94.6636L148.607 97.1737L147.548 99.6839L146.488 97.1737Z" fill="white"/>
<path d="M133.171 97.1737L134.231 94.6636L135.29 97.1737L134.231 99.6839L133.171 97.1737Z" fill="white"/>
<path d="M119.854 97.1737L120.913 94.6636L121.973 97.1737L120.913 99.6839L119.854 97.1737Z" fill="white"/>
<path d="M106.537 97.1737L107.596 94.6636L108.656 97.1737L107.596 99.6839L106.537 97.1737Z" fill="white"/>
<path d="M93.2198 97.1737L94.2792 94.6636L95.3385 97.1737L94.2792 99.6839L93.2198 97.1737Z" fill="white"/>
<path d="M79.9026 97.1737L80.962 94.6636L82.0214 97.1737L80.962 99.6839L79.9026 97.1737Z" fill="white"/>
<path d="M66.5856 97.1737L67.6449 94.6636L68.7043 97.1737L67.6449 99.6839L66.5856 97.1737Z" fill="white"/>
<path d="M53.2684 97.1737L54.3278 94.6636L55.3871 97.1737L54.3278 99.6839L53.2684 97.1737Z" fill="white"/>
<path d="M39.9514 97.1737L41.0107 94.6636L42.0701 97.1737L41.0107 99.6839L39.9514 97.1737Z" fill="white"/>
<path d="M26.6342 97.1737L27.6936 94.6636L28.7529 97.1737L27.6936 99.6839L26.6342 97.1737Z" fill="white"/>
<path d="M13.3172 97.1737L14.3765 94.6636L15.4359 97.1737L14.3765 99.6839L13.3172 97.1737Z" fill="white"/>
<path d="M0 97.1737L1.05939 94.6636L2.11871 97.1737L1.05939 99.6839L0 97.1737Z" fill="white"/>
<path d="M239.708 128.728L240.768 126.218L241.827 128.728L240.768 131.238L239.708 128.728Z" fill="white"/>
<path d="M226.391 128.728L227.45 126.218L228.51 128.728L227.45 131.238L226.391 128.728Z" fill="white"/>
<path d="M213.074 128.728L214.133 126.218L215.193 128.728L214.133 131.238L213.074 128.728Z" fill="white"/>
<path d="M199.757 128.728L200.816 126.218L201.876 128.728L200.816 131.238L199.757 128.728Z" fill="white"/>
<path d="M186.44 128.728L187.499 126.218L188.558 128.728L187.499 131.238L186.44 128.728Z" fill="white"/>
<path d="M173.123 128.728L174.182 126.218L175.241 128.728L174.182 131.238L173.123 128.728Z" fill="white"/>
<path d="M159.805 128.728L160.865 126.218L161.924 128.728L160.865 131.238L159.805 128.728Z" fill="white"/>
<path d="M146.488 128.728L147.548 126.218L148.607 128.728L147.548 131.238L146.488 128.728Z" fill="white"/>
<path d="M133.171 128.728L134.231 126.218L135.29 128.728L134.231 131.238L133.171 128.728Z" fill="white"/>
<path d="M119.854 128.728L120.913 126.218L121.973 128.728L120.913 131.238L119.854 128.728Z" fill="white"/>
<path d="M106.537 128.728L107.596 126.218L108.656 128.728L107.596 131.238L106.537 128.728Z" fill="white"/>
<path d="M93.2198 128.728L94.2792 126.218L95.3385 128.728L94.2792 131.238L93.2198 128.728Z" fill="white"/>
<path d="M79.9026 128.728L80.962 126.218L82.0214 128.728L80.962 131.238L79.9026 128.728Z" fill="white"/>
<path d="M66.5856 128.728L67.6449 126.218L68.7043 128.728L67.6449 131.238L66.5856 128.728Z" fill="white"/>
<path d="M53.2684 128.728L54.3278 126.218L55.3871 128.728L54.3278 131.238L53.2684 128.728Z" fill="white"/>
<path d="M39.9514 128.728L41.0107 126.218L42.0701 128.728L41.0107 131.238L39.9514 128.728Z" fill="white"/>
<path d="M26.6342 128.728L27.6936 126.218L28.7529 128.728L27.6936 131.238L26.6342 128.728Z" fill="white"/>
<path d="M13.3172 128.728L14.3765 126.218L15.4359 128.728L14.3765 131.238L13.3172 128.728Z" fill="white"/>
<path d="M0 128.728L1.05939 126.218L2.11871 128.728L1.05939 131.238L0 128.728Z" fill="white"/>
<path d="M239.708 160.282L240.768 157.772L241.827 160.282L240.768 162.793L239.708 160.282Z" fill="white"/>
<path d="M226.391 160.282L227.45 157.772L228.51 160.282L227.45 162.793L226.391 160.282Z" fill="white"/>
<path d="M213.074 160.282L214.133 157.772L215.193 160.282L214.133 162.793L213.074 160.282Z" fill="white"/>
<path d="M199.757 160.282L200.816 157.772L201.876 160.282L200.816 162.793L199.757 160.282Z" fill="white"/>
<path d="M186.44 160.282L187.499 157.772L188.558 160.282L187.499 162.793L186.44 160.282Z" fill="white"/>
<path d="M173.123 160.282L174.182 157.772L175.241 160.282L174.182 162.793L173.123 160.282Z" fill="white"/>
<path d="M159.805 160.282L160.865 157.772L161.924 160.282L160.865 162.793L159.805 160.282Z" fill="white"/>
<path d="M146.488 160.282L147.548 157.772L148.607 160.282L147.548 162.793L146.488 160.282Z" fill="white"/>
<path d="M133.171 160.282L134.231 157.772L135.29 160.282L134.231 162.793L133.171 160.282Z" fill="white"/>
<path d="M119.854 160.282L120.913 157.772L121.973 160.282L120.913 162.793L119.854 160.282Z" fill="white"/>
<path d="M106.537 160.282L107.596 157.772L108.656 160.282L107.596 162.793L106.537 160.282Z" fill="white"/>
<path d="M93.2198 160.282L94.2792 157.772L95.3385 160.282L94.2792 162.793L93.2198 160.282Z" fill="white"/>
<path d="M79.9026 160.282L80.962 157.772L82.0214 160.282L80.962 162.793L79.9026 160.282Z" fill="white"/>
<path d="M66.5856 160.282L67.6449 157.772L68.7043 160.282L67.6449 162.793L66.5856 160.282Z" fill="white"/>
<path d="M53.2684 160.282L54.3278 157.772L55.3871 160.282L54.3278 162.793L53.2684 160.282Z" fill="white"/>
<path d="M39.9514 160.282L41.0107 157.772L42.0701 160.282L41.0107 162.793L39.9514 160.282Z" fill="white"/>
<path d="M26.6342 160.282L27.6936 157.772L28.7529 160.282L27.6936 162.793L26.6342 160.282Z" fill="white"/>
<path d="M13.3172 160.282L14.3765 157.772L15.4359 160.282L14.3765 162.793L13.3172 160.282Z" fill="white"/>
<path d="M0 160.282L1.05939 157.772L2.11871 160.282L1.05939 162.793L0 160.282Z" fill="white"/>
<path d="M239.708 191.837L240.768 189.327L241.827 191.837L240.768 194.347L239.708 191.837Z" fill="white"/>
<path d="M226.391 191.837L227.45 189.327L228.51 191.837L227.45 194.347L226.391 191.837Z" fill="white"/>
<path d="M213.074 191.837L214.133 189.327L215.193 191.837L214.133 194.347L213.074 191.837Z" fill="white"/>
<path d="M199.757 191.837L200.816 189.327L201.876 191.837L200.816 194.347L199.757 191.837Z" fill="white"/>
<path d="M186.44 191.837L187.499 189.327L188.558 191.837L187.499 194.347L186.44 191.837Z" fill="white"/>
<path d="M173.123 191.837L174.182 189.327L175.241 191.837L174.182 194.347L173.123 191.837Z" fill="white"/>
<path d="M159.805 191.837L160.865 189.327L161.924 191.837L160.865 194.347L159.805 191.837Z" fill="white"/>
<path d="M146.488 191.837L147.548 189.327L148.607 191.837L147.548 194.347L146.488 191.837Z" fill="white"/>
<path d="M133.171 191.837L134.231 189.327L135.29 191.837L134.231 194.347L133.171 191.837Z" fill="white"/>
<path d="M119.854 191.837L120.913 189.327L121.973 191.837L120.913 194.347L119.854 191.837Z" fill="white"/>
<path d="M106.537 191.837L107.596 189.327L108.656 191.837L107.596 194.347L106.537 191.837Z" fill="white"/>
<path d="M93.2198 191.837L94.2792 189.327L95.3385 191.837L94.2792 194.347L93.2198 191.837Z" fill="white"/>
<path d="M79.9026 191.837L80.962 189.327L82.0214 191.837L80.962 194.347L79.9026 191.837Z" fill="white"/>
<path d="M66.5856 191.837L67.6449 189.327L68.7043 191.837L67.6449 194.347L66.5856 191.837Z" fill="white"/>
<path d="M53.2684 191.837L54.3278 189.327L55.3871 191.837L54.3278 194.347L53.2684 191.837Z" fill="white"/>
<path d="M39.9514 191.837L41.0107 189.327L42.0701 191.837L41.0107 194.347L39.9514 191.837Z" fill="white"/>
<path d="M26.6342 191.837L27.6936 189.327L28.7529 191.837L27.6936 194.347L26.6342 191.837Z" fill="white"/>
<path d="M13.3172 191.837L14.3765 189.327L15.4359 191.837L14.3765 194.347L13.3172 191.837Z" fill="white"/>
<path d="M0 191.837L1.05939 189.327L2.11871 191.837L1.05939 194.347L0 191.837Z" fill="white"/>
<path d="M239.708 223.391L240.768 220.881L241.827 223.391L240.768 225.901L239.708 223.391Z" fill="white"/>
<path d="M226.391 223.391L227.45 220.881L228.51 223.391L227.45 225.901L226.391 223.391Z" fill="white"/>
<path d="M213.074 223.391L214.133 220.881L215.193 223.391L214.133 225.901L213.074 223.391Z" fill="white"/>
<path d="M199.757 223.391L200.816 220.881L201.876 223.391L200.816 225.901L199.757 223.391Z" fill="white"/>
<path d="M186.44 223.391L187.499 220.881L188.558 223.391L187.499 225.901L186.44 223.391Z" fill="white"/>
<path d="M173.123 223.391L174.182 220.881L175.241 223.391L174.182 225.901L173.123 223.391Z" fill="white"/>
<path d="M159.805 223.391L160.865 220.881L161.924 223.391L160.865 225.901L159.805 223.391Z" fill="white"/>
<path d="M146.488 223.391L147.548 220.881L148.607 223.391L147.548 225.901L146.488 223.391Z" fill="white"/>
<path d="M133.171 223.391L134.231 220.881L135.29 223.391L134.231 225.901L133.171 223.391Z" fill="white"/>
<path d="M119.854 223.391L120.913 220.881L121.973 223.391L120.913 225.901L119.854 223.391Z" fill="white"/>
<path d="M106.537 223.391L107.596 220.881L108.656 223.391L107.596 225.901L106.537 223.391Z" fill="white"/>
<path d="M93.2198 223.391L94.2792 220.881L95.3385 223.391L94.2792 225.901L93.2198 223.391Z" fill="white"/>
<path d="M79.9026 223.391L80.962 220.881L82.0214 223.391L80.962 225.901L79.9026 223.391Z" fill="white"/>
<path d="M66.5856 223.391L67.6449 220.881L68.7043 223.391L67.6449 225.901L66.5856 223.391Z" fill="white"/>
<path d="M53.2684 223.391L54.3278 220.881L55.3871 223.391L54.3278 225.901L53.2684 223.391Z" fill="white"/>
<path d="M39.9514 223.391L41.0107 220.881L42.0701 223.391L41.0107 225.901L39.9514 223.391Z" fill="white"/>
<path d="M26.6342 223.391L27.6936 220.881L28.7529 223.391L27.6936 225.901L26.6342 223.391Z" fill="white"/>
<path d="M13.3172 223.391L14.3765 220.881L15.4359 223.391L14.3765 225.901L13.3172 223.391Z" fill="white"/>
<path d="M0 223.391L1.05939 220.881L2.11871 223.391L1.05939 225.901L0 223.391Z" fill="white"/>
<path d="M239.708 254.946L240.768 252.436L241.827 254.946L240.768 257.456L239.708 254.946Z" fill="white"/>
<path d="M226.391 254.946L227.45 252.436L228.51 254.946L227.45 257.456L226.391 254.946Z" fill="white"/>
<path d="M213.074 254.946L214.133 252.436L215.193 254.946L214.133 257.456L213.074 254.946Z" fill="white"/>
<path d="M199.757 254.946L200.816 252.436L201.876 254.946L200.816 257.456L199.757 254.946Z" fill="white"/>
<path d="M186.44 254.946L187.499 252.436L188.558 254.946L187.499 257.456L186.44 254.946Z" fill="white"/>
<path d="M173.123 254.946L174.182 252.436L175.241 254.946L174.182 257.456L173.123 254.946Z" fill="white"/>
<path d="M159.805 254.946L160.865 252.436L161.924 254.946L160.865 257.456L159.805 254.946Z" fill="white"/>
<path d="M146.488 254.946L147.548 252.436L148.607 254.946L147.548 257.456L146.488 254.946Z" fill="white"/>
<path d="M133.171 254.946L134.231 252.436L135.29 254.946L134.231 257.456L133.171 254.946Z" fill="white"/>
<path d="M119.854 254.946L120.913 252.436L121.973 254.946L120.913 257.456L119.854 254.946Z" fill="white"/>
<path d="M106.537 254.946L107.596 252.436L108.656 254.946L107.596 257.456L106.537 254.946Z" fill="white"/>
<path d="M93.2198 254.946L94.2792 252.436L95.3385 254.946L94.2792 257.456L93.2198 254.946Z" fill="white"/>
<path d="M79.9026 254.946L80.962 252.436L82.0214 254.946L80.962 257.456L79.9026 254.946Z" fill="white"/>
<path d="M66.5856 254.946L67.6449 252.436L68.7043 254.946L67.6449 257.456L66.5856 254.946Z" fill="white"/>
<path d="M53.2684 254.946L54.3278 252.436L55.3871 254.946L54.3278 257.456L53.2684 254.946Z" fill="white"/>
<path d="M39.9514 254.946L41.0107 252.436L42.0701 254.946L41.0107 257.456L39.9514 254.946Z" fill="white"/>
<path d="M26.6342 254.946L27.6936 252.436L28.7529 254.946L27.6936 257.456L26.6342 254.946Z" fill="white"/>
<path d="M13.3172 254.946L14.3765 252.436L15.4359 254.946L14.3765 257.456L13.3172 254.946Z" fill="white"/>
<path d="M0 254.946L1.05939 252.436L2.11871 254.946L1.05939 257.456L0 254.946Z" fill="white"/>
<path d="M239.708 286.5L240.768 283.99L241.827 286.5L240.768 289.01L239.708 286.5Z" fill="white"/>
<path d="M226.391 286.5L227.45 283.99L228.51 286.5L227.45 289.01L226.391 286.5Z" fill="white"/>
<path d="M213.074 286.5L214.133 283.99L215.193 286.5L214.133 289.01L213.074 286.5Z" fill="white"/>
<path d="M199.757 286.5L200.816 283.99L201.876 286.5L200.816 289.01L199.757 286.5Z" fill="white"/>
<path d="M186.44 286.5L187.499 283.99L188.558 286.5L187.499 289.01L186.44 286.5Z" fill="white"/>
<path d="M173.123 286.5L174.182 283.99L175.241 286.5L174.182 289.01L173.123 286.5Z" fill="white"/>
<path d="M159.805 286.5L160.865 283.99L161.924 286.5L160.865 289.01L159.805 286.5Z" fill="white"/>
<path d="M146.488 286.5L147.548 283.99L148.607 286.5L147.548 289.01L146.488 286.5Z" fill="white"/>
<path d="M133.171 286.5L134.231 283.99L135.29 286.5L134.231 289.01L133.171 286.5Z" fill="white"/>
<path d="M119.854 286.5L120.913 283.99L121.973 286.5L120.913 289.01L119.854 286.5Z" fill="white"/>
<path d="M106.537 286.5L107.596 283.99L108.656 286.5L107.596 289.01L106.537 286.5Z" fill="white"/>
<path d="M93.2198 286.5L94.2792 283.99L95.3385 286.5L94.2792 289.01L93.2198 286.5Z" fill="white"/>
<path d="M79.9026 286.5L80.962 283.99L82.0214 286.5L80.962 289.01L79.9026 286.5Z" fill="white"/>
<path d="M66.5856 286.5L67.6449 283.99L68.7043 286.5L67.6449 289.01L66.5856 286.5Z" fill="white"/>
<path d="M53.2684 286.5L54.3278 283.99L55.3871 286.5L54.3278 289.01L53.2684 286.5Z" fill="white"/>
<path d="M39.9514 286.5L41.0107 283.99L42.0701 286.5L41.0107 289.01L39.9514 286.5Z" fill="white"/>
<path d="M26.6342 286.5L27.6936 283.99L28.7529 286.5L27.6936 289.01L26.6342 286.5Z" fill="white"/>
<path d="M13.3172 286.5L14.3765 283.99L15.4359 286.5L14.3765 289.01L13.3172 286.5Z" fill="white"/>
<path d="M0 286.5L1.05939 283.99L2.11871 286.5L1.05939 289.01L0 286.5Z" fill="white"/>
<path d="M239.708 318.054L240.768 315.544L241.827 318.054L240.768 320.564L239.708 318.054Z" fill="white"/>
<path d="M226.391 318.054L227.45 315.544L228.51 318.054L227.45 320.564L226.391 318.054Z" fill="white"/>
<path d="M213.074 318.054L214.133 315.544L215.193 318.054L214.133 320.564L213.074 318.054Z" fill="white"/>
<path d="M199.757 318.054L200.816 315.544L201.876 318.054L200.816 320.564L199.757 318.054Z" fill="white"/>
<path d="M186.44 318.054L187.499 315.544L188.558 318.054L187.499 320.564L186.44 318.054Z" fill="white"/>
<path d="M173.123 318.054L174.182 315.544L175.241 318.054L174.182 320.564L173.123 318.054Z" fill="white"/>
<path d="M159.805 318.054L160.865 315.544L161.924 318.054L160.865 320.564L159.805 318.054Z" fill="white"/>
<path d="M146.488 318.054L147.548 315.544L148.607 318.054L147.548 320.564L146.488 318.054Z" fill="white"/>
<path d="M133.171 318.054L134.231 315.544L135.29 318.054L134.231 320.564L133.171 318.054Z" fill="white"/>
<path d="M119.854 318.054L120.913 315.544L121.973 318.054L120.913 320.564L119.854 318.054Z" fill="white"/>
<path d="M106.537 318.054L107.596 315.544L108.656 318.054L107.596 320.564L106.537 318.054Z" fill="white"/>
<path d="M93.2198 318.054L94.2792 315.544L95.3385 318.054L94.2792 320.564L93.2198 318.054Z" fill="white"/>
<path d="M79.9026 318.054L80.962 315.544L82.0214 318.054L80.962 320.564L79.9026 318.054Z" fill="white"/>
<path d="M66.5856 318.054L67.6449 315.544L68.7043 318.054L67.6449 320.564L66.5856 318.054Z" fill="white"/>
<path d="M53.2684 318.054L54.3278 315.544L55.3871 318.054L54.3278 320.564L53.2684 318.054Z" fill="white"/>
<path d="M39.9514 318.054L41.0107 315.544L42.0701 318.054L41.0107 320.564L39.9514 318.054Z" fill="white"/>
<path d="M26.6342 318.054L27.6936 315.544L28.7529 318.054L27.6936 320.564L26.6342 318.054Z" fill="white"/>
<path d="M13.3172 318.054L14.3765 315.544L15.4359 318.054L14.3765 320.564L13.3172 318.054Z" fill="white"/>
<path d="M0 318.054L1.05939 315.544L2.11871 318.054L1.05939 320.564L0 318.054Z" fill="white"/>
<path d="M239.708 349.608L240.768 347.098L241.827 349.608L240.768 352.119L239.708 349.608Z" fill="white"/>
<path d="M226.391 349.608L227.45 347.098L228.51 349.608L227.45 352.119L226.391 349.608Z" fill="white"/>
<path d="M213.074 349.608L214.133 347.098L215.193 349.608L214.133 352.119L213.074 349.608Z" fill="white"/>
<path d="M199.757 349.608L200.816 347.098L201.876 349.608L200.816 352.119L199.757 349.608Z" fill="white"/>
<path d="M186.44 349.608L187.499 347.098L188.558 349.608L187.499 352.119L186.44 349.608Z" fill="white"/>
<path d="M173.123 349.608L174.182 347.098L175.241 349.608L174.182 352.119L173.123 349.608Z" fill="white"/>
<path d="M159.805 349.608L160.865 347.098L161.924 349.608L160.865 352.119L159.805 349.608Z" fill="white"/>
<path d="M146.488 349.608L147.548 347.098L148.607 349.608L147.548 352.119L146.488 349.608Z" fill="white"/>
<path d="M133.171 349.608L134.231 347.098L135.29 349.608L134.231 352.119L133.171 349.608Z" fill="white"/>
<path d="M119.854 349.608L120.913 347.098L121.973 349.608L120.913 352.119L119.854 349.608Z" fill="white"/>
<path d="M106.537 349.608L107.596 347.098L108.656 349.608L107.596 352.119L106.537 349.608Z" fill="white"/>
<path d="M93.2198 349.608L94.2792 347.098L95.3385 349.608L94.2792 352.119L93.2198 349.608Z" fill="white"/>
<path d="M79.9026 349.608L80.962 347.098L82.0214 349.608L80.962 352.119L79.9026 349.608Z" fill="white"/>
<path d="M66.5856 349.608L67.6449 347.098L68.7043 349.608L67.6449 352.119L66.5856 349.608Z" fill="white"/>
<path d="M53.2684 349.608L54.3278 347.098L55.3871 349.608L54.3278 352.119L53.2684 349.608Z" fill="white"/>
<path d="M39.9514 349.608L41.0107 347.098L42.0701 349.608L41.0107 352.119L39.9514 349.608Z" fill="white"/>
<path d="M26.6342 349.608L27.6936 347.098L28.7529 349.608L27.6936 352.119L26.6342 349.608Z" fill="white"/>
<path d="M13.3172 349.608L14.3765 347.098L15.4359 349.608L14.3765 352.119L13.3172 349.608Z" fill="white"/>
<path d="M0 349.608L1.05939 347.098L2.11871 349.608L1.05939 352.119L0 349.608Z" fill="white"/>
<path d="M239.708 381.163L240.768 378.653L241.827 381.163L240.768 383.674L239.708 381.163Z" fill="white"/>
<path d="M226.391 381.163L227.45 378.653L228.51 381.163L227.45 383.674L226.391 381.163Z" fill="white"/>
<path d="M213.074 381.163L214.133 378.653L215.193 381.163L214.133 383.674L213.074 381.163Z" fill="white"/>
<path d="M199.757 381.163L200.816 378.653L201.876 381.163L200.816 383.674L199.757 381.163Z" fill="white"/>
<path d="M186.44 381.163L187.499 378.653L188.558 381.163L187.499 383.674L186.44 381.163Z" fill="white"/>
<path d="M173.123 381.163L174.182 378.653L175.241 381.163L174.182 383.674L173.123 381.163Z" fill="white"/>
<path d="M159.805 381.163L160.865 378.653L161.924 381.163L160.865 383.674L159.805 381.163Z" fill="white"/>
<path d="M146.488 381.163L147.548 378.653L148.607 381.163L147.548 383.674L146.488 381.163Z" fill="white"/>
<path d="M133.171 381.163L134.231 378.653L135.29 381.163L134.231 383.674L133.171 381.163Z" fill="white"/>
<path d="M119.854 381.163L120.913 378.653L121.973 381.163L120.913 383.674L119.854 381.163Z" fill="white"/>
<path d="M106.537 381.163L107.596 378.653L108.656 381.163L107.596 383.674L106.537 381.163Z" fill="white"/>
<path d="M93.2198 381.163L94.2792 378.653L95.3385 381.163L94.2792 383.674L93.2198 381.163Z" fill="white"/>
<path d="M79.9026 381.163L80.962 378.653L82.0214 381.163L80.962 383.674L79.9026 381.163Z" fill="white"/>
<path d="M66.5856 381.163L67.6449 378.653L68.7043 381.163L67.6449 383.674L66.5856 381.163Z" fill="white"/>
<path d="M53.2684 381.163L54.3278 378.653L55.3871 381.163L54.3278 383.674L53.2684 381.163Z" fill="white"/>
<path d="M39.9514 381.163L41.0107 378.653L42.0701 381.163L41.0107 383.674L39.9514 381.163Z" fill="white"/>
<path d="M26.6342 381.163L27.6936 378.653L28.7529 381.163L27.6936 383.674L26.6342 381.163Z" fill="white"/>
<path d="M13.3172 381.163L14.3765 378.653L15.4359 381.163L14.3765 383.674L13.3172 381.163Z" fill="white"/>
<path d="M0 381.163L1.05939 378.653L2.11871 381.163L1.05939 383.674L0 381.163Z" fill="white"/>
<path d="M239.708 412.718L240.768 410.207L241.827 412.718L240.768 415.228L239.708 412.718Z" fill="white"/>
<path d="M226.391 412.718L227.45 410.207L228.51 412.718L227.45 415.228L226.391 412.718Z" fill="white"/>
<path d="M213.074 412.718L214.133 410.207L215.193 412.718L214.133 415.228L213.074 412.718Z" fill="white"/>
<path d="M199.757 412.718L200.816 410.207L201.876 412.718L200.816 415.228L199.757 412.718Z" fill="white"/>
<path d="M186.44 412.718L187.499 410.207L188.558 412.718L187.499 415.228L186.44 412.718Z" fill="white"/>
<path d="M173.123 412.718L174.182 410.207L175.241 412.718L174.182 415.228L173.123 412.718Z" fill="white"/>
<path d="M159.805 412.718L160.865 410.207L161.924 412.718L160.865 415.228L159.805 412.718Z" fill="white"/>
<path d="M146.488 412.718L147.548 410.207L148.607 412.718L147.548 415.228L146.488 412.718Z" fill="white"/>
<path d="M133.171 412.718L134.231 410.207L135.29 412.718L134.231 415.228L133.171 412.718Z" fill="white"/>
<path d="M119.854 412.718L120.913 410.207L121.973 412.718L120.913 415.228L119.854 412.718Z" fill="white"/>
<path d="M106.537 412.718L107.596 410.207L108.656 412.718L107.596 415.228L106.537 412.718Z" fill="white"/>
<path d="M93.2198 412.718L94.2792 410.207L95.3385 412.718L94.2792 415.228L93.2198 412.718Z" fill="white"/>
<path d="M79.9026 412.718L80.962 410.207L82.0214 412.718L80.962 415.228L79.9026 412.718Z" fill="white"/>
<path d="M66.5856 412.718L67.6449 410.207L68.7043 412.718L67.6449 415.228L66.5856 412.718Z" fill="white"/>
<path d="M53.2684 412.718L54.3278 410.207L55.3871 412.718L54.3278 415.228L53.2684 412.718Z" fill="white"/>
<path d="M39.9514 412.718L41.0107 410.207L42.0701 412.718L41.0107 415.228L39.9514 412.718Z" fill="white"/>
<path d="M26.6342 412.718L27.6936 410.207L28.7529 412.718L27.6936 415.228L26.6342 412.718Z" fill="white"/>
<path d="M13.3172 412.718L14.3765 410.207L15.4359 412.718L14.3765 415.228L13.3172 412.718Z" fill="white"/>
<path d="M0 412.718L1.05939 410.207L2.11871 412.718L1.05939 415.228L0 412.718Z" fill="white"/>
<path d="M239.708 444.272L240.768 441.762L241.827 444.272L240.768 446.782L239.708 444.272Z" fill="white"/>
<path d="M226.391 444.272L227.45 441.762L228.51 444.272L227.45 446.782L226.391 444.272Z" fill="white"/>
<path d="M213.074 444.272L214.133 441.762L215.193 444.272L214.133 446.782L213.074 444.272Z" fill="white"/>
<path d="M199.757 444.272L200.816 441.762L201.876 444.272L200.816 446.782L199.757 444.272Z" fill="white"/>
<path d="M186.44 444.272L187.499 441.762L188.558 444.272L187.499 446.782L186.44 444.272Z" fill="white"/>
<path d="M173.123 444.272L174.182 441.762L175.241 444.272L174.182 446.782L173.123 444.272Z" fill="white"/>
<path d="M159.805 444.272L160.865 441.762L161.924 444.272L160.865 446.782L159.805 444.272Z" fill="white"/>
<path d="M146.488 444.272L147.548 441.762L148.607 444.272L147.548 446.782L146.488 444.272Z" fill="white"/>
<path d="M133.171 444.272L134.231 441.762L135.29 444.272L134.231 446.782L133.171 444.272Z" fill="white"/>
<path d="M119.854 444.272L120.913 441.762L121.973 444.272L120.913 446.782L119.854 444.272Z" fill="white"/>
<path d="M106.537 444.272L107.596 441.762L108.656 444.272L107.596 446.782L106.537 444.272Z" fill="white"/>
<path d="M93.2198 444.272L94.2792 441.762L95.3385 444.272L94.2792 446.782L93.2198 444.272Z" fill="white"/>
<path d="M79.9026 444.272L80.962 441.762L82.0214 444.272L80.962 446.782L79.9026 444.272Z" fill="white"/>
<path d="M66.5856 444.272L67.6449 441.762L68.7043 444.272L67.6449 446.782L66.5856 444.272Z" fill="white"/>
<path d="M53.2684 444.272L54.3278 441.762L55.3871 444.272L54.3278 446.782L53.2684 444.272Z" fill="white"/>
<path d="M39.9514 444.272L41.0107 441.762L42.0701 444.272L41.0107 446.782L39.9514 444.272Z" fill="white"/>
<path d="M26.6342 444.272L27.6936 441.762L28.7529 444.272L27.6936 446.782L26.6342 444.272Z" fill="white"/>
<path d="M13.3172 444.272L14.3765 441.762L15.4359 444.272L14.3765 446.782L13.3172 444.272Z" fill="white"/>
<path d="M0 444.272L1.05939 441.762L2.11871 444.272L1.05939 446.782L0 444.272Z" fill="white"/>
<path d="M239.708 475.827L240.768 473.316L241.827 475.827L240.768 478.337L239.708 475.827Z" fill="white"/>
<path d="M226.391 475.827L227.45 473.316L228.51 475.827L227.45 478.337L226.391 475.827Z" fill="white"/>
<path d="M213.074 475.827L214.133 473.316L215.193 475.827L214.133 478.337L213.074 475.827Z" fill="white"/>
<path d="M199.757 475.827L200.816 473.316L201.876 475.827L200.816 478.337L199.757 475.827Z" fill="white"/>
<path d="M186.44 475.827L187.499 473.316L188.558 475.827L187.499 478.337L186.44 475.827Z" fill="white"/>
<path d="M173.123 475.827L174.182 473.316L175.241 475.827L174.182 478.337L173.123 475.827Z" fill="white"/>
<path d="M159.805 475.827L160.865 473.316L161.924 475.827L160.865 478.337L159.805 475.827Z" fill="white"/>
<path d="M146.488 475.827L147.548 473.316L148.607 475.827L147.548 478.337L146.488 475.827Z" fill="white"/>
<path d="M133.171 475.827L134.231 473.316L135.29 475.827L134.231 478.337L133.171 475.827Z" fill="white"/>
<path d="M119.854 475.827L120.913 473.316L121.973 475.827L120.913 478.337L119.854 475.827Z" fill="white"/>
<path d="M106.537 475.827L107.596 473.316L108.656 475.827L107.596 478.337L106.537 475.827Z" fill="white"/>
<path d="M93.2198 475.827L94.2792 473.316L95.3385 475.827L94.2792 478.337L93.2198 475.827Z" fill="white"/>
<path d="M79.9026 475.827L80.962 473.316L82.0214 475.827L80.962 478.337L79.9026 475.827Z" fill="white"/>
<path d="M66.5856 475.827L67.6449 473.316L68.7043 475.827L67.6449 478.337L66.5856 475.827Z" fill="white"/>
<path d="M53.2684 475.827L54.3278 473.316L55.3871 475.827L54.3278 478.337L53.2684 475.827Z" fill="white"/>
<path d="M39.9514 475.827L41.0107 473.316L42.0701 475.827L41.0107 478.337L39.9514 475.827Z" fill="white"/>
<path d="M26.6342 475.827L27.6936 473.316L28.7529 475.827L27.6936 478.337L26.6342 475.827Z" fill="white"/>
<path d="M13.3172 475.827L14.3765 473.316L15.4359 475.827L14.3765 478.337L13.3172 475.827Z" fill="white"/>
<path d="M0 475.827L1.05939 473.316L2.11871 475.827L1.05939 478.337L0 475.827Z" fill="white"/>
<path d="M239.708 507.381L240.768 504.871L241.827 507.381L240.768 509.891L239.708 507.381Z" fill="white"/>
<path d="M226.391 507.381L227.45 504.871L228.51 507.381L227.45 509.891L226.391 507.381Z" fill="white"/>
<path d="M213.074 507.381L214.133 504.871L215.193 507.381L214.133 509.891L213.074 507.381Z" fill="white"/>
<path d="M199.757 507.381L200.816 504.871L201.876 507.381L200.816 509.891L199.757 507.381Z" fill="white"/>
<path d="M186.44 507.381L187.499 504.871L188.558 507.381L187.499 509.891L186.44 507.381Z" fill="white"/>
<path d="M173.123 507.381L174.182 504.871L175.241 507.381L174.182 509.891L173.123 507.381Z" fill="white"/>
<path d="M159.805 507.381L160.865 504.871L161.924 507.381L160.865 509.891L159.805 507.381Z" fill="white"/>
<path d="M146.488 507.381L147.548 504.871L148.607 507.381L147.548 509.891L146.488 507.381Z" fill="white"/>
<path d="M133.171 507.381L134.231 504.871L135.29 507.381L134.231 509.891L133.171 507.381Z" fill="white"/>
<path d="M119.854 507.381L120.913 504.871L121.973 507.381L120.913 509.891L119.854 507.381Z" fill="white"/>
<path d="M106.537 507.381L107.596 504.871L108.656 507.381L107.596 509.891L106.537 507.381Z" fill="white"/>
<path d="M93.2198 507.381L94.2792 504.871L95.3385 507.381L94.2792 509.891L93.2198 507.381Z" fill="white"/>
<path d="M79.9026 507.381L80.962 504.871L82.0214 507.381L80.962 509.891L79.9026 507.381Z" fill="white"/>
<path d="M66.5856 507.381L67.6449 504.871L68.7043 507.381L67.6449 509.891L66.5856 507.381Z" fill="white"/>
<path d="M53.2684 507.381L54.3278 504.871L55.3871 507.381L54.3278 509.891L53.2684 507.381Z" fill="white"/>
<path d="M39.9514 507.381L41.0107 504.871L42.0701 507.381L41.0107 509.891L39.9514 507.381Z" fill="white"/>
<path d="M26.6342 507.381L27.6936 504.871L28.7529 507.381L27.6936 509.891L26.6342 507.381Z" fill="white"/>
<path d="M13.3172 507.381L14.3765 504.871L15.4359 507.381L14.3765 509.891L13.3172 507.381Z" fill="white"/>
<path d="M0 507.381L1.05939 504.871L2.11871 507.381L1.05939 509.891L0 507.381Z" fill="white"/>
<path d="M239.708 538.935L240.768 536.425L241.827 538.935L240.768 541.445L239.708 538.935Z" fill="white"/>
<path d="M226.391 538.935L227.45 536.425L228.51 538.935L227.45 541.445L226.391 538.935Z" fill="white"/>
<path d="M213.074 538.935L214.133 536.425L215.193 538.935L214.133 541.445L213.074 538.935Z" fill="white"/>
<path d="M199.757 538.935L200.816 536.425L201.876 538.935L200.816 541.445L199.757 538.935Z" fill="white"/>
<path d="M186.44 538.935L187.499 536.425L188.558 538.935L187.499 541.445L186.44 538.935Z" fill="white"/>
<path d="M173.123 538.935L174.182 536.425L175.241 538.935L174.182 541.445L173.123 538.935Z" fill="white"/>
<path d="M159.805 538.935L160.865 536.425L161.924 538.935L160.865 541.445L159.805 538.935Z" fill="white"/>
<path d="M146.488 538.935L147.548 536.425L148.607 538.935L147.548 541.445L146.488 538.935Z" fill="white"/>
<path d="M133.171 538.935L134.231 536.425L135.29 538.935L134.231 541.445L133.171 538.935Z" fill="white"/>
<path d="M119.854 538.935L120.913 536.425L121.973 538.935L120.913 541.445L119.854 538.935Z" fill="white"/>
<path d="M106.537 538.935L107.596 536.425L108.656 538.935L107.596 541.445L106.537 538.935Z" fill="white"/>
<path d="M93.2198 538.935L94.2792 536.425L95.3385 538.935L94.2792 541.445L93.2198 538.935Z" fill="white"/>
<path d="M79.9026 538.935L80.962 536.425L82.0214 538.935L80.962 541.445L79.9026 538.935Z" fill="white"/>
<path d="M66.5856 538.935L67.6449 536.425L68.7043 538.935L67.6449 541.445L66.5856 538.935Z" fill="white"/>
<path d="M53.2684 538.935L54.3278 536.425L55.3871 538.935L54.3278 541.445L53.2684 538.935Z" fill="white"/>
<path d="M39.9514 538.935L41.0107 536.425L42.0701 538.935L41.0107 541.445L39.9514 538.935Z" fill="white"/>
<path d="M26.6342 538.935L27.6936 536.425L28.7529 538.935L27.6936 541.445L26.6342 538.935Z" fill="white"/>
<path d="M13.3172 538.935L14.3765 536.425L15.4359 538.935L14.3765 541.445L13.3172 538.935Z" fill="white"/>
<path d="M0 538.935L1.05939 536.425L2.11871 538.935L1.05939 541.445L0 538.935Z" fill="white"/>
<path d="M239.708 570.49L240.768 567.98L241.827 570.49L240.768 573L239.708 570.49Z" fill="white"/>
<path d="M226.391 570.49L227.45 567.98L228.51 570.49L227.45 573L226.391 570.49Z" fill="white"/>
<path d="M213.074 570.49L214.133 567.98L215.193 570.49L214.133 573L213.074 570.49Z" fill="white"/>
<path d="M199.757 570.49L200.816 567.98L201.876 570.49L200.816 573L199.757 570.49Z" fill="white"/>
<path d="M186.44 570.49L187.499 567.98L188.558 570.49L187.499 573L186.44 570.49Z" fill="white"/>
<path d="M173.123 570.49L174.182 567.98L175.241 570.49L174.182 573L173.123 570.49Z" fill="white"/>
<path d="M159.805 570.49L160.865 567.98L161.924 570.49L160.865 573L159.805 570.49Z" fill="white"/>
<path d="M146.488 570.49L147.548 567.98L148.607 570.49L147.548 573L146.488 570.49Z" fill="white"/>
<path d="M133.171 570.49L134.231 567.98L135.29 570.49L134.231 573L133.171 570.49Z" fill="white"/>
<path d="M119.854 570.49L120.913 567.98L121.973 570.49L120.913 573L119.854 570.49Z" fill="white"/>
<path d="M106.537 570.49L107.596 567.98L108.656 570.49L107.596 573L106.537 570.49Z" fill="white"/>
<path d="M93.2198 570.49L94.2792 567.98L95.3385 570.49L94.2792 573L93.2198 570.49Z" fill="white"/>
<path d="M79.9026 570.49L80.962 567.98L82.0214 570.49L80.962 573L79.9026 570.49Z" fill="white"/>
<path d="M66.5856 570.49L67.6449 567.98L68.7043 570.49L67.6449 573L66.5856 570.49Z" fill="white"/>
<path d="M53.2684 570.49L54.3278 567.98L55.3871 570.49L54.3278 573L53.2684 570.49Z" fill="white"/>
<path d="M39.9514 570.49L41.0107 567.98L42.0701 570.49L41.0107 573L39.9514 570.49Z" fill="white"/>
<path d="M26.6342 570.49L27.6936 567.98L28.7529 570.49L27.6936 573L26.6342 570.49Z" fill="white"/>
<path d="M13.3172 570.49L14.3765 567.98L15.4359 570.49L14.3765 573L13.3172 570.49Z" fill="white"/>
<path d="M0 570.49L1.05939 567.98L2.11871 570.49L1.05939 573L0 570.49Z" fill="white"/>
</mask>
<g mask="url(#mask0_404_309)">
<ellipse cx="332.329" cy="245.955" rx="332.329" ry="245.955" transform="matrix(-0.590291 0.80719 0.236829 0.971551 348.548 -275.84)" fill="url(#paint0_radial_404_309)"/>
</g>
<defs>
<radialGradient id="paint0_radial_404_309" cx="0" cy="0" r="1" gradientUnits="userSpaceOnUse" gradientTransform="translate(332.212 245.818) rotate(87.6703) scale(250.404 339.334)">
<stop stop-color="white"/>
<stop offset="1" stop-opacity="0"/>
</radialGradient>
</defs>
</svg>
