<svg width="1440" height="929" viewBox="0 0 1440 929" fill="none" xmlns="http://www.w3.org/2000/svg">
<mask id="mask0_404_200" style="mask-type:alpha" maskUnits="userSpaceOnUse" x="0" y="0" width="1440" height="929">
<path d="M1431.86 4.06971L1435.93 4.391e-05L1440 4.06971L1435.93 8.13937L1431.86 4.06971Z" fill="white"/>
<path d="M1380.73 4.06971L1384.79 4.391e-05L1388.86 4.06971L1384.79 8.13937L1380.73 4.06971Z" fill="white"/>
<path d="M1329.59 4.06971L1333.66 4.391e-05L1337.72 4.06971L1333.66 8.13937L1329.59 4.06971Z" fill="white"/>
<path d="M1278.45 4.06971L1282.52 4.391e-05L1286.59 4.06971L1282.52 8.13937L1278.45 4.06971Z" fill="white"/>
<path d="M1227.31 4.06971L1231.38 4.391e-05L1235.45 4.06971L1231.38 8.13937L1227.31 4.06971Z" fill="white"/>
<path d="M1176.18 4.06971L1180.24 4.391e-05L1184.31 4.06971L1180.24 8.13937L1176.18 4.06971Z" fill="white"/>
<path d="M1125.04 4.06971L1129.11 4.391e-05L1133.17 4.06971L1129.11 8.13937L1125.04 4.06971Z" fill="white"/>
<path d="M1073.9 4.06971L1077.97 4.391e-05L1082.04 4.06971L1077.97 8.13937L1073.9 4.06971Z" fill="white"/>
<path d="M1022.76 4.06971L1026.83 4.391e-05L1030.9 4.06971L1026.83 8.13937L1022.76 4.06971Z" fill="white"/>
<path d="M971.624 4.06971L975.692 4.391e-05L979.76 4.06971L975.692 8.13937L971.624 4.06971Z" fill="white"/>
<path d="M920.487 4.06971L924.555 4.391e-05L928.622 4.06971L924.555 8.13937L920.487 4.06971Z" fill="white"/>
<path d="M869.349 4.06971L873.417 4.391e-05L877.484 4.06971L873.417 8.13937L869.349 4.06971Z" fill="white"/>
<path d="M818.211 4.06971L822.279 4.391e-05L826.347 4.06971L822.279 8.13937L818.211 4.06971Z" fill="white"/>
<path d="M767.073 4.06971L771.141 4.391e-05L775.209 4.06971L771.141 8.13937L767.073 4.06971Z" fill="white"/>
<path d="M715.935 4.06971L720.003 4.391e-05L724.071 4.06971L720.003 8.13937L715.935 4.06971Z" fill="white"/>
<path d="M664.798 4.06971L668.866 4.391e-05L672.934 4.06971L668.866 8.13937L664.798 4.06971Z" fill="white"/>
<path d="M613.66 4.06971L617.728 4.391e-05L621.796 4.06971L617.728 8.13937L613.66 4.06971Z" fill="white"/>
<path d="M562.522 4.06971L566.59 4.391e-05L570.658 4.06971L566.59 8.13937L562.522 4.06971Z" fill="white"/>
<path d="M511.384 4.06971L515.452 4.391e-05L519.52 4.06971L515.452 8.13937L511.384 4.06971Z" fill="white"/>
<path d="M1431.86 55.2288L1435.93 51.1591L1440 55.2288L1435.93 59.2984L1431.86 55.2288Z" fill="white"/>
<path d="M1380.73 55.2288L1384.79 51.1591L1388.86 55.2288L1384.79 59.2984L1380.73 55.2288Z" fill="white"/>
<path d="M1329.59 55.2288L1333.66 51.1591L1337.72 55.2288L1333.66 59.2984L1329.59 55.2288Z" fill="white"/>
<path d="M1278.45 55.2288L1282.52 51.1591L1286.59 55.2288L1282.52 59.2984L1278.45 55.2288Z" fill="white"/>
<path d="M1227.31 55.2288L1231.38 51.1591L1235.45 55.2288L1231.38 59.2984L1227.31 55.2288Z" fill="white"/>
<path d="M1176.18 55.2288L1180.24 51.1591L1184.31 55.2288L1180.24 59.2984L1176.18 55.2288Z" fill="white"/>
<path d="M1125.04 55.2288L1129.11 51.1591L1133.17 55.2288L1129.11 59.2984L1125.04 55.2288Z" fill="white"/>
<path d="M1073.9 55.2288L1077.97 51.1591L1082.04 55.2288L1077.97 59.2984L1073.9 55.2288Z" fill="white"/>
<path d="M1022.76 55.2288L1026.83 51.1591L1030.9 55.2288L1026.83 59.2984L1022.76 55.2288Z" fill="white"/>
<path d="M971.624 55.2288L975.692 51.1591L979.76 55.2288L975.692 59.2984L971.624 55.2288Z" fill="white"/>
<path d="M920.487 55.2288L924.555 51.1591L928.622 55.2288L924.555 59.2984L920.487 55.2288Z" fill="white"/>
<path d="M869.349 55.2288L873.417 51.1591L877.484 55.2288L873.417 59.2984L869.349 55.2288Z" fill="white"/>
<path d="M818.211 55.2288L822.279 51.1591L826.347 55.2288L822.279 59.2984L818.211 55.2288Z" fill="white"/>
<path d="M767.073 55.2288L771.141 51.1591L775.209 55.2288L771.141 59.2984L767.073 55.2288Z" fill="white"/>
<path d="M715.935 55.2288L720.003 51.1591L724.071 55.2288L720.003 59.2984L715.935 55.2288Z" fill="white"/>
<path d="M664.798 55.2288L668.866 51.1591L672.934 55.2288L668.866 59.2984L664.798 55.2288Z" fill="white"/>
<path d="M613.66 55.2288L617.728 51.1591L621.796 55.2288L617.728 59.2984L613.66 55.2288Z" fill="white"/>
<path d="M562.522 55.2288L566.59 51.1591L570.658 55.2288L566.59 59.2984L562.522 55.2288Z" fill="white"/>
<path d="M511.384 55.2288L515.452 51.1591L519.52 55.2288L515.452 59.2984L511.384 55.2288Z" fill="white"/>
<path d="M1431.86 106.388L1435.93 102.318L1440 106.388L1435.93 110.458L1431.86 106.388Z" fill="white"/>
<path d="M1380.73 106.388L1384.79 102.318L1388.86 106.388L1384.79 110.458L1380.73 106.388Z" fill="white"/>
<path d="M1329.59 106.388L1333.66 102.318L1337.72 106.388L1333.66 110.458L1329.59 106.388Z" fill="white"/>
<path d="M1278.45 106.388L1282.52 102.318L1286.59 106.388L1282.52 110.458L1278.45 106.388Z" fill="white"/>
<path d="M1227.31 106.388L1231.38 102.318L1235.45 106.388L1231.38 110.458L1227.31 106.388Z" fill="white"/>
<path d="M1176.18 106.388L1180.24 102.318L1184.31 106.388L1180.24 110.458L1176.18 106.388Z" fill="white"/>
<path d="M1125.04 106.388L1129.11 102.318L1133.17 106.388L1129.11 110.458L1125.04 106.388Z" fill="white"/>
<path d="M1073.9 106.388L1077.97 102.318L1082.04 106.388L1077.97 110.458L1073.9 106.388Z" fill="white"/>
<path d="M1022.76 106.388L1026.83 102.318L1030.9 106.388L1026.83 110.458L1022.76 106.388Z" fill="white"/>
<path d="M971.624 106.388L975.692 102.318L979.76 106.388L975.692 110.458L971.624 106.388Z" fill="white"/>
<path d="M920.487 106.388L924.555 102.318L928.622 106.388L924.555 110.458L920.487 106.388Z" fill="white"/>
<path d="M869.349 106.388L873.417 102.318L877.484 106.388L873.417 110.458L869.349 106.388Z" fill="white"/>
<path d="M818.211 106.388L822.279 102.318L826.347 106.388L822.279 110.458L818.211 106.388Z" fill="white"/>
<path d="M767.073 106.388L771.141 102.318L775.209 106.388L771.141 110.458L767.073 106.388Z" fill="white"/>
<path d="M715.935 106.388L720.003 102.318L724.071 106.388L720.003 110.458L715.935 106.388Z" fill="white"/>
<path d="M664.798 106.388L668.866 102.318L672.934 106.388L668.866 110.458L664.798 106.388Z" fill="white"/>
<path d="M613.66 106.388L617.728 102.318L621.796 106.388L617.728 110.458L613.66 106.388Z" fill="white"/>
<path d="M562.522 106.388L566.59 102.318L570.658 106.388L566.59 110.458L562.522 106.388Z" fill="white"/>
<path d="M511.384 106.388L515.452 102.318L519.52 106.388L515.452 110.458L511.384 106.388Z" fill="white"/>
<path d="M1431.86 157.547L1435.93 153.477L1440 157.547L1435.93 161.617L1431.86 157.547Z" fill="white"/>
<path d="M1380.73 157.547L1384.79 153.477L1388.86 157.547L1384.79 161.617L1380.73 157.547Z" fill="white"/>
<path d="M1329.59 157.547L1333.66 153.477L1337.72 157.547L1333.66 161.617L1329.59 157.547Z" fill="white"/>
<path d="M1278.45 157.547L1282.52 153.477L1286.59 157.547L1282.52 161.617L1278.45 157.547Z" fill="white"/>
<path d="M1227.31 157.547L1231.38 153.477L1235.45 157.547L1231.38 161.617L1227.31 157.547Z" fill="white"/>
<path d="M1176.18 157.547L1180.24 153.477L1184.31 157.547L1180.24 161.617L1176.18 157.547Z" fill="white"/>
<path d="M1125.04 157.547L1129.11 153.477L1133.17 157.547L1129.11 161.617L1125.04 157.547Z" fill="white"/>
<path d="M1073.9 157.547L1077.97 153.477L1082.04 157.547L1077.97 161.617L1073.9 157.547Z" fill="white"/>
<path d="M1022.76 157.547L1026.83 153.477L1030.9 157.547L1026.83 161.617L1022.76 157.547Z" fill="white"/>
<path d="M971.624 157.547L975.692 153.477L979.76 157.547L975.692 161.617L971.624 157.547Z" fill="white"/>
<path d="M920.487 157.547L924.555 153.477L928.622 157.547L924.555 161.617L920.487 157.547Z" fill="white"/>
<path d="M869.349 157.547L873.417 153.477L877.484 157.547L873.417 161.617L869.349 157.547Z" fill="white"/>
<path d="M818.211 157.547L822.279 153.477L826.347 157.547L822.279 161.617L818.211 157.547Z" fill="white"/>
<path d="M767.073 157.547L771.141 153.477L775.209 157.547L771.141 161.617L767.073 157.547Z" fill="white"/>
<path d="M715.935 157.547L720.003 153.477L724.071 157.547L720.003 161.617L715.935 157.547Z" fill="white"/>
<path d="M664.798 157.547L668.866 153.477L672.934 157.547L668.866 161.617L664.798 157.547Z" fill="white"/>
<path d="M613.66 157.547L617.728 153.477L621.796 157.547L617.728 161.617L613.66 157.547Z" fill="white"/>
<path d="M562.522 157.547L566.59 153.477L570.658 157.547L566.59 161.617L562.522 157.547Z" fill="white"/>
<path d="M511.384 157.547L515.452 153.477L519.52 157.547L515.452 161.617L511.384 157.547Z" fill="white"/>
<path d="M1431.86 208.705L1435.93 204.636L1440 208.705L1435.93 212.775L1431.86 208.705Z" fill="white"/>
<path d="M1380.73 208.705L1384.79 204.636L1388.86 208.705L1384.79 212.775L1380.73 208.705Z" fill="white"/>
<path d="M1329.59 208.705L1333.66 204.636L1337.72 208.705L1333.66 212.775L1329.59 208.705Z" fill="white"/>
<path d="M1278.45 208.705L1282.52 204.636L1286.59 208.705L1282.52 212.775L1278.45 208.705Z" fill="white"/>
<path d="M1227.31 208.705L1231.38 204.636L1235.45 208.705L1231.38 212.775L1227.31 208.705Z" fill="white"/>
<path d="M1176.18 208.705L1180.24 204.636L1184.31 208.705L1180.24 212.775L1176.18 208.705Z" fill="white"/>
<path d="M1125.04 208.705L1129.11 204.636L1133.17 208.705L1129.11 212.775L1125.04 208.705Z" fill="white"/>
<path d="M1073.9 208.705L1077.97 204.636L1082.04 208.705L1077.97 212.775L1073.9 208.705Z" fill="white"/>
<path d="M1022.76 208.705L1026.83 204.636L1030.9 208.705L1026.83 212.775L1022.76 208.705Z" fill="white"/>
<path d="M971.624 208.705L975.692 204.636L979.76 208.705L975.692 212.775L971.624 208.705Z" fill="white"/>
<path d="M920.487 208.705L924.555 204.636L928.622 208.705L924.555 212.775L920.487 208.705Z" fill="white"/>
<path d="M869.349 208.705L873.417 204.636L877.484 208.705L873.417 212.775L869.349 208.705Z" fill="white"/>
<path d="M818.211 208.705L822.279 204.636L826.347 208.705L822.279 212.775L818.211 208.705Z" fill="white"/>
<path d="M767.073 208.705L771.141 204.636L775.209 208.705L771.141 212.775L767.073 208.705Z" fill="white"/>
<path d="M715.935 208.705L720.003 204.636L724.071 208.705L720.003 212.775L715.935 208.705Z" fill="white"/>
<path d="M664.798 208.705L668.866 204.636L672.934 208.705L668.866 212.775L664.798 208.705Z" fill="white"/>
<path d="M613.66 208.705L617.728 204.636L621.796 208.705L617.728 212.775L613.66 208.705Z" fill="white"/>
<path d="M562.522 208.705L566.59 204.636L570.658 208.705L566.59 212.775L562.522 208.705Z" fill="white"/>
<path d="M511.384 208.705L515.452 204.636L519.52 208.705L515.452 212.775L511.384 208.705Z" fill="white"/>
<path d="M1431.86 259.865L1435.93 255.795L1440 259.865L1435.93 263.934L1431.86 259.865Z" fill="white"/>
<path d="M1380.73 259.865L1384.79 255.795L1388.86 259.865L1384.79 263.934L1380.73 259.865Z" fill="white"/>
<path d="M1329.59 259.865L1333.66 255.795L1337.72 259.865L1333.66 263.934L1329.59 259.865Z" fill="white"/>
<path d="M1278.45 259.865L1282.52 255.795L1286.59 259.865L1282.52 263.934L1278.45 259.865Z" fill="white"/>
<path d="M1227.31 259.865L1231.38 255.795L1235.45 259.865L1231.38 263.934L1227.31 259.865Z" fill="white"/>
<path d="M1176.18 259.865L1180.24 255.795L1184.31 259.865L1180.24 263.934L1176.18 259.865Z" fill="white"/>
<path d="M1125.04 259.865L1129.11 255.795L1133.17 259.865L1129.11 263.934L1125.04 259.865Z" fill="white"/>
<path d="M1073.9 259.865L1077.97 255.795L1082.04 259.865L1077.97 263.934L1073.9 259.865Z" fill="white"/>
<path d="M1022.76 259.865L1026.83 255.795L1030.9 259.865L1026.83 263.934L1022.76 259.865Z" fill="white"/>
<path d="M971.624 259.865L975.692 255.795L979.76 259.865L975.692 263.934L971.624 259.865Z" fill="white"/>
<path d="M920.487 259.865L924.555 255.795L928.622 259.865L924.555 263.934L920.487 259.865Z" fill="white"/>
<path d="M869.349 259.865L873.417 255.795L877.484 259.865L873.417 263.934L869.349 259.865Z" fill="white"/>
<path d="M818.211 259.865L822.279 255.795L826.347 259.865L822.279 263.934L818.211 259.865Z" fill="white"/>
<path d="M767.073 259.865L771.141 255.795L775.209 259.865L771.141 263.934L767.073 259.865Z" fill="white"/>
<path d="M715.935 259.865L720.003 255.795L724.071 259.865L720.003 263.934L715.935 259.865Z" fill="white"/>
<path d="M664.798 259.865L668.866 255.795L672.934 259.865L668.866 263.934L664.798 259.865Z" fill="white"/>
<path d="M613.66 259.865L617.728 255.795L621.796 259.865L617.728 263.934L613.66 259.865Z" fill="white"/>
<path d="M562.522 259.865L566.59 255.795L570.658 259.865L566.59 263.934L562.522 259.865Z" fill="white"/>
<path d="M511.384 259.865L515.452 255.795L519.52 259.865L515.452 263.934L511.384 259.865Z" fill="white"/>
<path d="M1431.86 311.024L1435.93 306.954L1440 311.024L1435.93 315.093L1431.86 311.024Z" fill="white"/>
<path d="M1380.73 311.024L1384.79 306.954L1388.86 311.024L1384.79 315.093L1380.73 311.024Z" fill="white"/>
<path d="M1329.59 311.024L1333.66 306.954L1337.72 311.024L1333.66 315.093L1329.59 311.024Z" fill="white"/>
<path d="M1278.45 311.024L1282.52 306.954L1286.59 311.024L1282.52 315.093L1278.45 311.024Z" fill="white"/>
<path d="M1227.31 311.024L1231.38 306.954L1235.45 311.024L1231.38 315.093L1227.31 311.024Z" fill="white"/>
<path d="M1176.18 311.024L1180.24 306.954L1184.31 311.024L1180.24 315.093L1176.18 311.024Z" fill="white"/>
<path d="M1125.04 311.024L1129.11 306.954L1133.17 311.024L1129.11 315.093L1125.04 311.024Z" fill="white"/>
<path d="M1073.9 311.024L1077.97 306.954L1082.04 311.024L1077.97 315.093L1073.9 311.024Z" fill="white"/>
<path d="M1022.76 311.024L1026.83 306.954L1030.9 311.024L1026.83 315.093L1022.76 311.024Z" fill="white"/>
<path d="M971.624 311.024L975.692 306.954L979.76 311.024L975.692 315.093L971.624 311.024Z" fill="white"/>
<path d="M920.487 311.024L924.555 306.954L928.622 311.024L924.555 315.093L920.487 311.024Z" fill="white"/>
<path d="M869.349 311.024L873.417 306.954L877.484 311.024L873.417 315.093L869.349 311.024Z" fill="white"/>
<path d="M818.211 311.024L822.279 306.954L826.347 311.024L822.279 315.093L818.211 311.024Z" fill="white"/>
<path d="M767.073 311.024L771.141 306.954L775.209 311.024L771.141 315.093L767.073 311.024Z" fill="white"/>
<path d="M715.935 311.024L720.003 306.954L724.071 311.024L720.003 315.093L715.935 311.024Z" fill="white"/>
<path d="M664.798 311.024L668.866 306.954L672.934 311.024L668.866 315.093L664.798 311.024Z" fill="white"/>
<path d="M613.66 311.024L617.728 306.954L621.796 311.024L617.728 315.093L613.66 311.024Z" fill="white"/>
<path d="M562.522 311.024L566.59 306.954L570.658 311.024L566.59 315.093L562.522 311.024Z" fill="white"/>
<path d="M511.384 311.024L515.452 306.954L519.52 311.024L515.452 315.093L511.384 311.024Z" fill="white"/>
<path d="M1431.86 362.182L1435.93 358.112L1440 362.182L1435.93 366.251L1431.86 362.182Z" fill="white"/>
<path d="M1380.73 362.182L1384.79 358.112L1388.86 362.182L1384.79 366.251L1380.73 362.182Z" fill="white"/>
<path d="M1329.59 362.182L1333.66 358.112L1337.72 362.182L1333.66 366.251L1329.59 362.182Z" fill="white"/>
<path d="M1278.45 362.182L1282.52 358.112L1286.59 362.182L1282.52 366.251L1278.45 362.182Z" fill="white"/>
<path d="M1227.31 362.182L1231.38 358.112L1235.45 362.182L1231.38 366.251L1227.31 362.182Z" fill="white"/>
<path d="M1176.18 362.182L1180.24 358.112L1184.31 362.182L1180.24 366.251L1176.18 362.182Z" fill="white"/>
<path d="M1125.04 362.182L1129.11 358.112L1133.17 362.182L1129.11 366.251L1125.04 362.182Z" fill="white"/>
<path d="M1073.9 362.182L1077.97 358.112L1082.04 362.182L1077.97 366.251L1073.9 362.182Z" fill="white"/>
<path d="M1022.76 362.182L1026.83 358.112L1030.9 362.182L1026.83 366.251L1022.76 362.182Z" fill="white"/>
<path d="M971.624 362.182L975.692 358.112L979.76 362.182L975.692 366.251L971.624 362.182Z" fill="white"/>
<path d="M920.487 362.182L924.555 358.112L928.622 362.182L924.555 366.251L920.487 362.182Z" fill="white"/>
<path d="M869.349 362.182L873.417 358.112L877.484 362.182L873.417 366.251L869.349 362.182Z" fill="white"/>
<path d="M818.211 362.182L822.279 358.112L826.347 362.182L822.279 366.251L818.211 362.182Z" fill="white"/>
<path d="M767.073 362.182L771.141 358.112L775.209 362.182L771.141 366.251L767.073 362.182Z" fill="white"/>
<path d="M715.935 362.182L720.003 358.112L724.071 362.182L720.003 366.251L715.935 362.182Z" fill="white"/>
<path d="M664.798 362.182L668.866 358.112L672.934 362.182L668.866 366.251L664.798 362.182Z" fill="white"/>
<path d="M613.66 362.182L617.728 358.112L621.796 362.182L617.728 366.251L613.66 362.182Z" fill="white"/>
<path d="M562.522 362.182L566.59 358.112L570.658 362.182L566.59 366.251L562.522 362.182Z" fill="white"/>
<path d="M511.384 362.182L515.452 358.112L519.52 362.182L515.452 366.251L511.384 362.182Z" fill="white"/>
<path d="M1431.86 413.341L1435.93 409.272L1440 413.341L1435.93 417.411L1431.86 413.341Z" fill="white"/>
<path d="M1380.73 413.341L1384.79 409.272L1388.86 413.341L1384.79 417.411L1380.73 413.341Z" fill="white"/>
<path d="M1329.59 413.341L1333.66 409.272L1337.72 413.341L1333.66 417.411L1329.59 413.341Z" fill="white"/>
<path d="M1278.45 413.341L1282.52 409.272L1286.59 413.341L1282.52 417.411L1278.45 413.341Z" fill="white"/>
<path d="M1227.31 413.341L1231.38 409.272L1235.45 413.341L1231.38 417.411L1227.31 413.341Z" fill="white"/>
<path d="M1176.18 413.341L1180.24 409.272L1184.31 413.341L1180.24 417.411L1176.18 413.341Z" fill="white"/>
<path d="M1125.04 413.341L1129.11 409.272L1133.17 413.341L1129.11 417.411L1125.04 413.341Z" fill="white"/>
<path d="M1073.9 413.341L1077.97 409.272L1082.04 413.341L1077.97 417.411L1073.9 413.341Z" fill="white"/>
<path d="M1022.76 413.341L1026.83 409.272L1030.9 413.341L1026.83 417.411L1022.76 413.341Z" fill="white"/>
<path d="M971.624 413.341L975.692 409.272L979.76 413.341L975.692 417.411L971.624 413.341Z" fill="white"/>
<path d="M920.487 413.341L924.555 409.272L928.622 413.341L924.555 417.411L920.487 413.341Z" fill="white"/>
<path d="M869.349 413.341L873.417 409.272L877.484 413.341L873.417 417.411L869.349 413.341Z" fill="white"/>
<path d="M818.211 413.341L822.279 409.272L826.347 413.341L822.279 417.411L818.211 413.341Z" fill="white"/>
<path d="M767.073 413.341L771.141 409.272L775.209 413.341L771.141 417.411L767.073 413.341Z" fill="white"/>
<path d="M715.935 413.341L720.003 409.272L724.071 413.341L720.003 417.411L715.935 413.341Z" fill="white"/>
<path d="M664.798 413.341L668.866 409.272L672.934 413.341L668.866 417.411L664.798 413.341Z" fill="white"/>
<path d="M613.66 413.341L617.728 409.272L621.796 413.341L617.728 417.411L613.66 413.341Z" fill="white"/>
<path d="M562.522 413.341L566.59 409.272L570.658 413.341L566.59 417.411L562.522 413.341Z" fill="white"/>
<path d="M511.384 413.341L515.452 409.272L519.52 413.341L515.452 417.411L511.384 413.341Z" fill="white"/>
<path d="M1431.86 464.5L1435.93 460.431L1440 464.5L1435.93 468.57L1431.86 464.5Z" fill="white"/>
<path d="M1380.73 464.5L1384.79 460.431L1388.86 464.5L1384.79 468.57L1380.73 464.5Z" fill="white"/>
<path d="M1329.59 464.5L1333.66 460.431L1337.72 464.5L1333.66 468.57L1329.59 464.5Z" fill="white"/>
<path d="M1278.45 464.5L1282.52 460.431L1286.59 464.5L1282.52 468.57L1278.45 464.5Z" fill="white"/>
<path d="M1227.31 464.5L1231.38 460.431L1235.45 464.5L1231.38 468.57L1227.31 464.5Z" fill="white"/>
<path d="M1176.18 464.5L1180.24 460.431L1184.31 464.5L1180.24 468.57L1176.18 464.5Z" fill="white"/>
<path d="M1125.04 464.5L1129.11 460.431L1133.17 464.5L1129.11 468.57L1125.04 464.5Z" fill="white"/>
<path d="M1073.9 464.5L1077.97 460.431L1082.04 464.5L1077.97 468.57L1073.9 464.5Z" fill="white"/>
<path d="M1022.76 464.5L1026.83 460.431L1030.9 464.5L1026.83 468.57L1022.76 464.5Z" fill="white"/>
<path d="M971.624 464.5L975.692 460.431L979.76 464.5L975.692 468.57L971.624 464.5Z" fill="white"/>
<path d="M920.487 464.5L924.555 460.431L928.622 464.5L924.555 468.57L920.487 464.5Z" fill="white"/>
<path d="M869.349 464.5L873.417 460.431L877.484 464.5L873.417 468.57L869.349 464.5Z" fill="white"/>
<path d="M818.211 464.5L822.279 460.431L826.347 464.5L822.279 468.57L818.211 464.5Z" fill="white"/>
<path d="M767.073 464.5L771.141 460.431L775.209 464.5L771.141 468.57L767.073 464.5Z" fill="white"/>
<path d="M715.935 464.5L720.003 460.431L724.071 464.5L720.003 468.57L715.935 464.5Z" fill="white"/>
<path d="M664.798 464.5L668.866 460.431L672.934 464.5L668.866 468.57L664.798 464.5Z" fill="white"/>
<path d="M613.66 464.5L617.728 460.431L621.796 464.5L617.728 468.57L613.66 464.5Z" fill="white"/>
<path d="M562.522 464.5L566.59 460.431L570.658 464.5L566.59 468.57L562.522 464.5Z" fill="white"/>
<path d="M511.384 464.5L515.452 460.431L519.52 464.5L515.452 468.57L511.384 464.5Z" fill="white"/>
<path d="M1431.86 515.659L1435.93 511.589L1440 515.659L1435.93 519.728L1431.86 515.659Z" fill="white"/>
<path d="M1380.73 515.659L1384.79 511.589L1388.86 515.659L1384.79 519.728L1380.73 515.659Z" fill="white"/>
<path d="M1329.59 515.659L1333.66 511.589L1337.72 515.659L1333.66 519.728L1329.59 515.659Z" fill="white"/>
<path d="M1278.45 515.659L1282.52 511.589L1286.59 515.659L1282.52 519.728L1278.45 515.659Z" fill="white"/>
<path d="M1227.31 515.659L1231.38 511.589L1235.45 515.659L1231.38 519.728L1227.31 515.659Z" fill="white"/>
<path d="M1176.18 515.659L1180.24 511.589L1184.31 515.659L1180.24 519.728L1176.18 515.659Z" fill="white"/>
<path d="M1125.04 515.659L1129.11 511.589L1133.17 515.659L1129.11 519.728L1125.04 515.659Z" fill="white"/>
<path d="M1073.9 515.659L1077.97 511.589L1082.04 515.659L1077.97 519.728L1073.9 515.659Z" fill="white"/>
<path d="M1022.76 515.659L1026.83 511.589L1030.9 515.659L1026.83 519.728L1022.76 515.659Z" fill="white"/>
<path d="M971.624 515.659L975.692 511.589L979.76 515.659L975.692 519.728L971.624 515.659Z" fill="white"/>
<path d="M920.487 515.659L924.555 511.589L928.622 515.659L924.555 519.728L920.487 515.659Z" fill="white"/>
<path d="M869.349 515.659L873.417 511.589L877.484 515.659L873.417 519.728L869.349 515.659Z" fill="white"/>
<path d="M818.211 515.659L822.279 511.589L826.347 515.659L822.279 519.728L818.211 515.659Z" fill="white"/>
<path d="M767.073 515.659L771.141 511.589L775.209 515.659L771.141 519.728L767.073 515.659Z" fill="white"/>
<path d="M715.935 515.659L720.003 511.589L724.071 515.659L720.003 519.728L715.935 515.659Z" fill="white"/>
<path d="M664.798 515.659L668.866 511.589L672.934 515.659L668.866 519.728L664.798 515.659Z" fill="white"/>
<path d="M613.66 515.659L617.728 511.589L621.796 515.659L617.728 519.728L613.66 515.659Z" fill="white"/>
<path d="M562.522 515.659L566.59 511.589L570.658 515.659L566.59 519.728L562.522 515.659Z" fill="white"/>
<path d="M511.384 515.659L515.452 511.589L519.52 515.659L515.452 519.728L511.384 515.659Z" fill="white"/>
<path d="M1431.86 566.817L1435.93 562.748L1440 566.817L1435.93 570.887L1431.86 566.817Z" fill="white"/>
<path d="M1380.73 566.817L1384.79 562.748L1388.86 566.817L1384.79 570.887L1380.73 566.817Z" fill="white"/>
<path d="M1329.59 566.817L1333.66 562.748L1337.72 566.817L1333.66 570.887L1329.59 566.817Z" fill="white"/>
<path d="M1278.45 566.817L1282.52 562.748L1286.59 566.817L1282.52 570.887L1278.45 566.817Z" fill="white"/>
<path d="M1227.31 566.817L1231.38 562.748L1235.45 566.817L1231.38 570.887L1227.31 566.817Z" fill="white"/>
<path d="M1176.18 566.817L1180.24 562.748L1184.31 566.817L1180.24 570.887L1176.18 566.817Z" fill="white"/>
<path d="M1125.04 566.817L1129.11 562.748L1133.17 566.817L1129.11 570.887L1125.04 566.817Z" fill="white"/>
<path d="M1073.9 566.817L1077.97 562.748L1082.04 566.817L1077.97 570.887L1073.9 566.817Z" fill="white"/>
<path d="M1022.76 566.817L1026.83 562.748L1030.9 566.817L1026.83 570.887L1022.76 566.817Z" fill="white"/>
<path d="M971.624 566.817L975.692 562.748L979.76 566.817L975.692 570.887L971.624 566.817Z" fill="white"/>
<path d="M920.487 566.817L924.555 562.748L928.622 566.817L924.555 570.887L920.487 566.817Z" fill="white"/>
<path d="M869.349 566.817L873.417 562.748L877.484 566.817L873.417 570.887L869.349 566.817Z" fill="white"/>
<path d="M818.211 566.817L822.279 562.748L826.347 566.817L822.279 570.887L818.211 566.817Z" fill="white"/>
<path d="M767.073 566.817L771.141 562.748L775.209 566.817L771.141 570.887L767.073 566.817Z" fill="white"/>
<path d="M715.935 566.817L720.003 562.748L724.071 566.817L720.003 570.887L715.935 566.817Z" fill="white"/>
<path d="M664.798 566.817L668.866 562.748L672.934 566.817L668.866 570.887L664.798 566.817Z" fill="white"/>
<path d="M613.66 566.817L617.728 562.748L621.796 566.817L617.728 570.887L613.66 566.817Z" fill="white"/>
<path d="M562.522 566.817L566.59 562.748L570.658 566.817L566.59 570.887L562.522 566.817Z" fill="white"/>
<path d="M511.384 566.817L515.452 562.748L519.52 566.817L515.452 570.887L511.384 566.817Z" fill="white"/>
<path d="M1431.86 617.977L1435.93 613.907L1440 617.977L1435.93 622.047L1431.86 617.977Z" fill="white"/>
<path d="M1380.73 617.977L1384.79 613.907L1388.86 617.977L1384.79 622.047L1380.73 617.977Z" fill="white"/>
<path d="M1329.59 617.977L1333.66 613.907L1337.72 617.977L1333.66 622.047L1329.59 617.977Z" fill="white"/>
<path d="M1278.45 617.977L1282.52 613.907L1286.59 617.977L1282.52 622.047L1278.45 617.977Z" fill="white"/>
<path d="M1227.31 617.977L1231.38 613.907L1235.45 617.977L1231.38 622.047L1227.31 617.977Z" fill="white"/>
<path d="M1176.18 617.977L1180.24 613.907L1184.31 617.977L1180.24 622.047L1176.18 617.977Z" fill="white"/>
<path d="M1125.04 617.977L1129.11 613.907L1133.17 617.977L1129.11 622.047L1125.04 617.977Z" fill="white"/>
<path d="M1073.9 617.977L1077.97 613.907L1082.04 617.977L1077.97 622.047L1073.9 617.977Z" fill="white"/>
<path d="M1022.76 617.977L1026.83 613.907L1030.9 617.977L1026.83 622.047L1022.76 617.977Z" fill="white"/>
<path d="M971.624 617.977L975.692 613.907L979.76 617.977L975.692 622.047L971.624 617.977Z" fill="white"/>
<path d="M920.487 617.977L924.555 613.907L928.622 617.977L924.555 622.047L920.487 617.977Z" fill="white"/>
<path d="M869.349 617.977L873.417 613.907L877.484 617.977L873.417 622.047L869.349 617.977Z" fill="white"/>
<path d="M818.211 617.977L822.279 613.907L826.347 617.977L822.279 622.047L818.211 617.977Z" fill="white"/>
<path d="M767.073 617.977L771.141 613.907L775.209 617.977L771.141 622.047L767.073 617.977Z" fill="white"/>
<path d="M715.935 617.977L720.003 613.907L724.071 617.977L720.003 622.047L715.935 617.977Z" fill="white"/>
<path d="M664.798 617.977L668.866 613.907L672.934 617.977L668.866 622.047L664.798 617.977Z" fill="white"/>
<path d="M613.66 617.977L617.728 613.907L621.796 617.977L617.728 622.047L613.66 617.977Z" fill="white"/>
<path d="M562.522 617.977L566.59 613.907L570.658 617.977L566.59 622.047L562.522 617.977Z" fill="white"/>
<path d="M511.384 617.977L515.452 613.907L519.52 617.977L515.452 622.047L511.384 617.977Z" fill="white"/>
<path d="M1431.86 669.135L1435.93 665.066L1440 669.135L1435.93 673.205L1431.86 669.135Z" fill="white"/>
<path d="M1380.73 669.135L1384.79 665.066L1388.86 669.135L1384.79 673.205L1380.73 669.135Z" fill="white"/>
<path d="M1329.59 669.135L1333.66 665.066L1337.72 669.135L1333.66 673.205L1329.59 669.135Z" fill="white"/>
<path d="M1278.45 669.135L1282.52 665.066L1286.59 669.135L1282.52 673.205L1278.45 669.135Z" fill="white"/>
<path d="M1227.31 669.135L1231.38 665.066L1235.45 669.135L1231.38 673.205L1227.31 669.135Z" fill="white"/>
<path d="M1176.18 669.135L1180.24 665.066L1184.31 669.135L1180.24 673.205L1176.18 669.135Z" fill="white"/>
<path d="M1125.04 669.135L1129.11 665.066L1133.17 669.135L1129.11 673.205L1125.04 669.135Z" fill="white"/>
<path d="M1073.9 669.135L1077.97 665.066L1082.04 669.135L1077.97 673.205L1073.9 669.135Z" fill="white"/>
<path d="M1022.76 669.135L1026.83 665.066L1030.9 669.135L1026.83 673.205L1022.76 669.135Z" fill="white"/>
<path d="M971.624 669.135L975.692 665.066L979.76 669.135L975.692 673.205L971.624 669.135Z" fill="white"/>
<path d="M920.487 669.135L924.555 665.066L928.622 669.135L924.555 673.205L920.487 669.135Z" fill="white"/>
<path d="M869.349 669.135L873.417 665.066L877.484 669.135L873.417 673.205L869.349 669.135Z" fill="white"/>
<path d="M818.211 669.135L822.279 665.066L826.347 669.135L822.279 673.205L818.211 669.135Z" fill="white"/>
<path d="M767.073 669.135L771.141 665.066L775.209 669.135L771.141 673.205L767.073 669.135Z" fill="white"/>
<path d="M715.935 669.135L720.003 665.066L724.071 669.135L720.003 673.205L715.935 669.135Z" fill="white"/>
<path d="M664.798 669.135L668.866 665.066L672.934 669.135L668.866 673.205L664.798 669.135Z" fill="white"/>
<path d="M613.66 669.135L617.728 665.066L621.796 669.135L617.728 673.205L613.66 669.135Z" fill="white"/>
<path d="M562.522 669.135L566.59 665.066L570.658 669.135L566.59 673.205L562.522 669.135Z" fill="white"/>
<path d="M511.384 669.135L515.452 665.066L519.52 669.135L515.452 673.205L511.384 669.135Z" fill="white"/>
<path d="M1431.86 720.294L1435.93 716.224L1440 720.294L1435.93 724.364L1431.86 720.294Z" fill="white"/>
<path d="M1380.73 720.294L1384.79 716.224L1388.86 720.294L1384.79 724.364L1380.73 720.294Z" fill="white"/>
<path d="M1329.59 720.294L1333.66 716.224L1337.72 720.294L1333.66 724.364L1329.59 720.294Z" fill="white"/>
<path d="M1278.45 720.294L1282.52 716.224L1286.59 720.294L1282.52 724.364L1278.45 720.294Z" fill="white"/>
<path d="M1227.31 720.294L1231.38 716.224L1235.45 720.294L1231.38 724.364L1227.31 720.294Z" fill="white"/>
<path d="M1176.18 720.294L1180.24 716.224L1184.31 720.294L1180.24 724.364L1176.18 720.294Z" fill="white"/>
<path d="M1125.04 720.294L1129.11 716.224L1133.17 720.294L1129.11 724.364L1125.04 720.294Z" fill="white"/>
<path d="M1073.9 720.294L1077.97 716.224L1082.04 720.294L1077.97 724.364L1073.9 720.294Z" fill="white"/>
<path d="M1022.76 720.294L1026.83 716.224L1030.9 720.294L1026.83 724.364L1022.76 720.294Z" fill="white"/>
<path d="M971.624 720.294L975.692 716.224L979.76 720.294L975.692 724.364L971.624 720.294Z" fill="white"/>
<path d="M920.487 720.294L924.555 716.224L928.622 720.294L924.555 724.364L920.487 720.294Z" fill="white"/>
<path d="M869.349 720.294L873.417 716.224L877.484 720.294L873.417 724.364L869.349 720.294Z" fill="white"/>
<path d="M818.211 720.294L822.279 716.224L826.347 720.294L822.279 724.364L818.211 720.294Z" fill="white"/>
<path d="M767.073 720.294L771.141 716.224L775.209 720.294L771.141 724.364L767.073 720.294Z" fill="white"/>
<path d="M715.935 720.294L720.003 716.224L724.071 720.294L720.003 724.364L715.935 720.294Z" fill="white"/>
<path d="M664.798 720.294L668.866 716.224L672.934 720.294L668.866 724.364L664.798 720.294Z" fill="white"/>
<path d="M613.66 720.294L617.728 716.224L621.796 720.294L617.728 724.364L613.66 720.294Z" fill="white"/>
<path d="M562.522 720.294L566.59 716.224L570.658 720.294L566.59 724.364L562.522 720.294Z" fill="white"/>
<path d="M511.384 720.294L515.452 716.224L519.52 720.294L515.452 724.364L511.384 720.294Z" fill="white"/>
<path d="M1431.86 771.454L1435.93 767.384L1440 771.454L1435.93 775.523L1431.86 771.454Z" fill="white"/>
<path d="M1380.73 771.454L1384.79 767.384L1388.86 771.454L1384.79 775.523L1380.73 771.454Z" fill="white"/>
<path d="M1329.59 771.454L1333.66 767.384L1337.72 771.454L1333.66 775.523L1329.59 771.454Z" fill="white"/>
<path d="M1278.45 771.454L1282.52 767.384L1286.59 771.454L1282.52 775.523L1278.45 771.454Z" fill="white"/>
<path d="M1227.31 771.454L1231.38 767.384L1235.45 771.454L1231.38 775.523L1227.31 771.454Z" fill="white"/>
<path d="M1176.18 771.454L1180.24 767.384L1184.31 771.454L1180.24 775.523L1176.18 771.454Z" fill="white"/>
<path d="M1125.04 771.454L1129.11 767.384L1133.17 771.454L1129.11 775.523L1125.04 771.454Z" fill="white"/>
<path d="M1073.9 771.454L1077.97 767.384L1082.04 771.454L1077.97 775.523L1073.9 771.454Z" fill="white"/>
<path d="M1022.76 771.454L1026.83 767.384L1030.9 771.454L1026.83 775.523L1022.76 771.454Z" fill="white"/>
<path d="M971.624 771.454L975.692 767.384L979.76 771.454L975.692 775.523L971.624 771.454Z" fill="white"/>
<path d="M920.487 771.454L924.555 767.384L928.622 771.454L924.555 775.523L920.487 771.454Z" fill="white"/>
<path d="M869.349 771.454L873.417 767.384L877.484 771.454L873.417 775.523L869.349 771.454Z" fill="white"/>
<path d="M818.211 771.454L822.279 767.384L826.347 771.454L822.279 775.523L818.211 771.454Z" fill="white"/>
<path d="M767.073 771.454L771.141 767.384L775.209 771.454L771.141 775.523L767.073 771.454Z" fill="white"/>
<path d="M715.935 771.454L720.003 767.384L724.071 771.454L720.003 775.523L715.935 771.454Z" fill="white"/>
<path d="M664.798 771.454L668.866 767.384L672.934 771.454L668.866 775.523L664.798 771.454Z" fill="white"/>
<path d="M613.66 771.454L617.728 767.384L621.796 771.454L617.728 775.523L613.66 771.454Z" fill="white"/>
<path d="M562.522 771.454L566.59 767.384L570.658 771.454L566.59 775.523L562.522 771.454Z" fill="white"/>
<path d="M511.384 771.454L515.452 767.384L519.52 771.454L515.452 775.523L511.384 771.454Z" fill="white"/>
<path d="M1431.86 822.612L1435.93 818.542L1440 822.612L1435.93 826.682L1431.86 822.612Z" fill="white"/>
<path d="M1380.73 822.612L1384.79 818.542L1388.86 822.612L1384.79 826.682L1380.73 822.612Z" fill="white"/>
<path d="M1329.59 822.612L1333.66 818.542L1337.72 822.612L1333.66 826.682L1329.59 822.612Z" fill="white"/>
<path d="M1278.45 822.612L1282.52 818.542L1286.59 822.612L1282.52 826.682L1278.45 822.612Z" fill="white"/>
<path d="M1227.31 822.612L1231.38 818.542L1235.45 822.612L1231.38 826.682L1227.31 822.612Z" fill="white"/>
<path d="M1176.18 822.612L1180.24 818.542L1184.31 822.612L1180.24 826.682L1176.18 822.612Z" fill="white"/>
<path d="M1125.04 822.612L1129.11 818.542L1133.17 822.612L1129.11 826.682L1125.04 822.612Z" fill="white"/>
<path d="M1073.9 822.612L1077.97 818.542L1082.04 822.612L1077.97 826.682L1073.9 822.612Z" fill="white"/>
<path d="M1022.76 822.612L1026.83 818.542L1030.9 822.612L1026.83 826.682L1022.76 822.612Z" fill="white"/>
<path d="M971.624 822.612L975.692 818.542L979.76 822.612L975.692 826.682L971.624 822.612Z" fill="white"/>
<path d="M920.487 822.612L924.555 818.542L928.622 822.612L924.555 826.682L920.487 822.612Z" fill="white"/>
<path d="M869.349 822.612L873.417 818.542L877.484 822.612L873.417 826.682L869.349 822.612Z" fill="white"/>
<path d="M818.211 822.612L822.279 818.542L826.347 822.612L822.279 826.682L818.211 822.612Z" fill="white"/>
<path d="M767.073 822.612L771.141 818.542L775.209 822.612L771.141 826.682L767.073 822.612Z" fill="white"/>
<path d="M715.935 822.612L720.003 818.542L724.071 822.612L720.003 826.682L715.935 822.612Z" fill="white"/>
<path d="M664.798 822.612L668.866 818.542L672.934 822.612L668.866 826.682L664.798 822.612Z" fill="white"/>
<path d="M613.66 822.612L617.728 818.542L621.796 822.612L617.728 826.682L613.66 822.612Z" fill="white"/>
<path d="M562.522 822.612L566.59 818.542L570.658 822.612L566.59 826.682L562.522 822.612Z" fill="white"/>
<path d="M511.384 822.612L515.452 818.542L519.52 822.612L515.452 826.682L511.384 822.612Z" fill="white"/>
<path d="M1431.86 873.771L1435.93 869.701L1440 873.771L1435.93 877.84L1431.86 873.771Z" fill="white"/>
<path d="M1380.73 873.771L1384.79 869.701L1388.86 873.771L1384.79 877.84L1380.73 873.771Z" fill="white"/>
<path d="M1329.59 873.771L1333.66 869.701L1337.72 873.771L1333.66 877.84L1329.59 873.771Z" fill="white"/>
<path d="M1278.45 873.771L1282.52 869.701L1286.59 873.771L1282.52 877.84L1278.45 873.771Z" fill="white"/>
<path d="M1227.31 873.771L1231.38 869.701L1235.45 873.771L1231.38 877.84L1227.31 873.771Z" fill="white"/>
<path d="M1176.18 873.771L1180.24 869.701L1184.31 873.771L1180.24 877.84L1176.18 873.771Z" fill="white"/>
<path d="M1125.04 873.771L1129.11 869.701L1133.17 873.771L1129.11 877.84L1125.04 873.771Z" fill="white"/>
<path d="M1073.9 873.771L1077.97 869.701L1082.04 873.771L1077.97 877.84L1073.9 873.771Z" fill="white"/>
<path d="M1022.76 873.771L1026.83 869.701L1030.9 873.771L1026.83 877.84L1022.76 873.771Z" fill="white"/>
<path d="M971.624 873.771L975.692 869.701L979.76 873.771L975.692 877.84L971.624 873.771Z" fill="white"/>
<path d="M920.487 873.771L924.555 869.701L928.622 873.771L924.555 877.84L920.487 873.771Z" fill="white"/>
<path d="M869.349 873.771L873.417 869.701L877.484 873.771L873.417 877.84L869.349 873.771Z" fill="white"/>
<path d="M818.211 873.771L822.279 869.701L826.347 873.771L822.279 877.84L818.211 873.771Z" fill="white"/>
<path d="M767.073 873.771L771.141 869.701L775.209 873.771L771.141 877.84L767.073 873.771Z" fill="white"/>
<path d="M715.935 873.771L720.003 869.701L724.071 873.771L720.003 877.84L715.935 873.771Z" fill="white"/>
<path d="M664.798 873.771L668.866 869.701L672.934 873.771L668.866 877.84L664.798 873.771Z" fill="white"/>
<path d="M613.66 873.771L617.728 869.701L621.796 873.771L617.728 877.84L613.66 873.771Z" fill="white"/>
<path d="M562.522 873.771L566.59 869.701L570.658 873.771L566.59 877.84L562.522 873.771Z" fill="white"/>
<path d="M511.384 873.771L515.452 869.701L519.52 873.771L515.452 877.84L511.384 873.771Z" fill="white"/>
<path d="M1431.86 924.93L1435.93 920.861L1440 924.93L1435.93 929L1431.86 924.93Z" fill="white"/>
<path d="M1380.73 924.93L1384.79 920.861L1388.86 924.93L1384.79 929L1380.73 924.93Z" fill="white"/>
<path d="M1329.59 924.93L1333.66 920.861L1337.72 924.93L1333.66 929L1329.59 924.93Z" fill="white"/>
<path d="M1278.45 924.93L1282.52 920.861L1286.59 924.93L1282.52 929L1278.45 924.93Z" fill="white"/>
<path d="M1227.31 924.93L1231.38 920.861L1235.45 924.93L1231.38 929L1227.31 924.93Z" fill="white"/>
<path d="M1176.18 924.93L1180.24 920.861L1184.31 924.93L1180.24 929L1176.18 924.93Z" fill="white"/>
<path d="M1125.04 924.93L1129.11 920.861L1133.17 924.93L1129.11 929L1125.04 924.93Z" fill="white"/>
<path d="M1073.9 924.93L1077.97 920.861L1082.04 924.93L1077.97 929L1073.9 924.93Z" fill="white"/>
<path d="M1022.76 924.93L1026.83 920.861L1030.9 924.93L1026.83 929L1022.76 924.93Z" fill="white"/>
<path d="M971.624 924.93L975.692 920.861L979.76 924.93L975.692 929L971.624 924.93Z" fill="white"/>
<path d="M920.487 924.93L924.555 920.861L928.622 924.93L924.555 929L920.487 924.93Z" fill="white"/>
<path d="M869.349 924.93L873.417 920.861L877.484 924.93L873.417 929L869.349 924.93Z" fill="white"/>
<path d="M818.211 924.93L822.279 920.861L826.347 924.93L822.279 929L818.211 924.93Z" fill="white"/>
<path d="M767.073 924.93L771.141 920.861L775.209 924.93L771.141 929L767.073 924.93Z" fill="white"/>
<path d="M715.935 924.93L720.003 920.861L724.071 924.93L720.003 929L715.935 924.93Z" fill="white"/>
<path d="M664.798 924.93L668.866 920.861L672.934 924.93L668.866 929L664.798 924.93Z" fill="white"/>
<path d="M613.66 924.93L617.728 920.861L621.796 924.93L617.728 929L613.66 924.93Z" fill="white"/>
<path d="M562.522 924.93L566.59 920.861L570.658 924.93L566.59 929L562.522 924.93Z" fill="white"/>
<path d="M511.384 924.93L515.452 920.861L519.52 924.93L515.452 929L511.384 924.93Z" fill="white"/>
<path d="M920.48 4.06966L924.548 0L928.616 4.06966L924.548 8.13933L920.48 4.06966Z" fill="white"/>
<path d="M869.342 4.06966L873.41 0L877.478 4.06966L873.41 8.13933L869.342 4.06966Z" fill="white"/>
<path d="M818.204 4.06966L822.272 0L826.34 4.06966L822.272 8.13933L818.204 4.06966Z" fill="white"/>
<path d="M767.066 4.06966L771.134 0L775.202 4.06966L771.134 8.13933L767.066 4.06966Z" fill="white"/>
<path d="M715.928 4.06966L719.996 0L724.064 4.06966L719.996 8.13933L715.928 4.06966Z" fill="white"/>
<path d="M664.791 4.06966L668.859 0L672.927 4.06966L668.859 8.13933L664.791 4.06966Z" fill="white"/>
<path d="M613.653 4.06966L617.721 0L621.789 4.06966L617.721 8.13933L613.653 4.06966Z" fill="white"/>
<path d="M562.516 4.06966L566.583 0L570.651 4.06966L566.583 8.13933L562.516 4.06966Z" fill="white"/>
<path d="M511.378 4.06966L515.446 0L519.514 4.06966L515.446 8.13933L511.378 4.06966Z" fill="white"/>
<path d="M460.24 4.06966L464.307 0L468.375 4.06966L464.307 8.13933L460.24 4.06966Z" fill="white"/>
<path d="M409.102 4.06966L413.17 0L417.238 4.06966L413.17 8.13933L409.102 4.06966Z" fill="white"/>
<path d="M357.964 4.06966L362.032 0L366.1 4.06966L362.032 8.13933L357.964 4.06966Z" fill="white"/>
<path d="M306.826 4.06966L310.894 0L314.962 4.06966L310.894 8.13933L306.826 4.06966Z" fill="white"/>
<path d="M255.689 4.06966L259.757 0L263.825 4.06966L259.757 8.13933L255.689 4.06966Z" fill="white"/>
<path d="M204.551 4.06966L208.619 0L212.687 4.06966L208.619 8.13933L204.551 4.06966Z" fill="white"/>
<path d="M153.413 4.06966L157.481 0L161.549 4.06966L157.481 8.13933L153.413 4.06966Z" fill="white"/>
<path d="M102.275 4.06966L106.343 0L110.411 4.06966L106.343 8.13933L102.275 4.06966Z" fill="white"/>
<path d="M51.1379 4.06966L55.2059 0L59.2738 4.06966L55.2059 8.13933L51.1379 4.06966Z" fill="white"/>
<path d="M0 4.06966L4.06799 0L8.13586 4.06966L4.06799 8.13933L0 4.06966Z" fill="white"/>
<path d="M920.48 55.2287L924.548 51.1591L928.616 55.2287L924.548 59.2984L920.48 55.2287Z" fill="white"/>
<path d="M869.342 55.2287L873.41 51.1591L877.478 55.2287L873.41 59.2984L869.342 55.2287Z" fill="white"/>
<path d="M818.204 55.2287L822.272 51.1591L826.34 55.2287L822.272 59.2984L818.204 55.2287Z" fill="white"/>
<path d="M767.066 55.2287L771.134 51.1591L775.202 55.2287L771.134 59.2984L767.066 55.2287Z" fill="white"/>
<path d="M715.928 55.2287L719.996 51.1591L724.064 55.2287L719.996 59.2984L715.928 55.2287Z" fill="white"/>
<path d="M664.791 55.2287L668.859 51.1591L672.927 55.2287L668.859 59.2984L664.791 55.2287Z" fill="white"/>
<path d="M613.653 55.2287L617.721 51.1591L621.789 55.2287L617.721 59.2984L613.653 55.2287Z" fill="white"/>
<path d="M562.516 55.2287L566.583 51.1591L570.651 55.2287L566.583 59.2984L562.516 55.2287Z" fill="white"/>
<path d="M511.378 55.2287L515.446 51.1591L519.514 55.2287L515.446 59.2984L511.378 55.2287Z" fill="white"/>
<path d="M460.24 55.2287L464.307 51.1591L468.375 55.2287L464.307 59.2984L460.24 55.2287Z" fill="white"/>
<path d="M409.102 55.2287L413.17 51.1591L417.238 55.2287L413.17 59.2984L409.102 55.2287Z" fill="white"/>
<path d="M357.964 55.2287L362.032 51.1591L366.1 55.2287L362.032 59.2984L357.964 55.2287Z" fill="white"/>
<path d="M306.826 55.2287L310.894 51.1591L314.962 55.2287L310.894 59.2984L306.826 55.2287Z" fill="white"/>
<path d="M255.689 55.2287L259.757 51.1591L263.825 55.2287L259.757 59.2984L255.689 55.2287Z" fill="white"/>
<path d="M204.551 55.2287L208.619 51.1591L212.687 55.2287L208.619 59.2984L204.551 55.2287Z" fill="white"/>
<path d="M153.413 55.2287L157.481 51.1591L161.549 55.2287L157.481 59.2984L153.413 55.2287Z" fill="white"/>
<path d="M102.275 55.2287L106.343 51.1591L110.411 55.2287L106.343 59.2984L102.275 55.2287Z" fill="white"/>
<path d="M51.1379 55.2287L55.2059 51.1591L59.2738 55.2287L55.2059 59.2984L51.1379 55.2287Z" fill="white"/>
<path d="M0 55.2287L4.06799 51.1591L8.13586 55.2287L4.06799 59.2984L0 55.2287Z" fill="white"/>
<path d="M920.48 106.388L924.548 102.318L928.616 106.388L924.548 110.458L920.48 106.388Z" fill="white"/>
<path d="M869.342 106.388L873.41 102.318L877.478 106.388L873.41 110.458L869.342 106.388Z" fill="white"/>
<path d="M818.204 106.388L822.272 102.318L826.34 106.388L822.272 110.458L818.204 106.388Z" fill="white"/>
<path d="M767.066 106.388L771.134 102.318L775.202 106.388L771.134 110.458L767.066 106.388Z" fill="white"/>
<path d="M715.928 106.388L719.996 102.318L724.064 106.388L719.996 110.458L715.928 106.388Z" fill="white"/>
<path d="M664.791 106.388L668.859 102.318L672.927 106.388L668.859 110.458L664.791 106.388Z" fill="white"/>
<path d="M613.653 106.388L617.721 102.318L621.789 106.388L617.721 110.458L613.653 106.388Z" fill="white"/>
<path d="M562.516 106.388L566.583 102.318L570.651 106.388L566.583 110.458L562.516 106.388Z" fill="white"/>
<path d="M511.378 106.388L515.446 102.318L519.514 106.388L515.446 110.458L511.378 106.388Z" fill="white"/>
<path d="M460.24 106.388L464.307 102.318L468.375 106.388L464.307 110.458L460.24 106.388Z" fill="white"/>
<path d="M409.102 106.388L413.17 102.318L417.238 106.388L413.17 110.458L409.102 106.388Z" fill="white"/>
<path d="M357.964 106.388L362.032 102.318L366.1 106.388L362.032 110.458L357.964 106.388Z" fill="white"/>
<path d="M306.826 106.388L310.894 102.318L314.962 106.388L310.894 110.458L306.826 106.388Z" fill="white"/>
<path d="M255.689 106.388L259.757 102.318L263.825 106.388L259.757 110.458L255.689 106.388Z" fill="white"/>
<path d="M204.551 106.388L208.619 102.318L212.687 106.388L208.619 110.458L204.551 106.388Z" fill="white"/>
<path d="M153.413 106.388L157.481 102.318L161.549 106.388L157.481 110.458L153.413 106.388Z" fill="white"/>
<path d="M102.275 106.388L106.343 102.318L110.411 106.388L106.343 110.458L102.275 106.388Z" fill="white"/>
<path d="M51.1379 106.388L55.2059 102.318L59.2738 106.388L55.2059 110.458L51.1379 106.388Z" fill="white"/>
<path d="M0 106.388L4.06799 102.318L8.13586 106.388L4.06799 110.458L0 106.388Z" fill="white"/>
<path d="M920.48 157.547L924.548 153.477L928.616 157.547L924.548 161.617L920.48 157.547Z" fill="white"/>
<path d="M869.342 157.547L873.41 153.477L877.478 157.547L873.41 161.617L869.342 157.547Z" fill="white"/>
<path d="M818.204 157.547L822.272 153.477L826.34 157.547L822.272 161.617L818.204 157.547Z" fill="white"/>
<path d="M767.066 157.547L771.134 153.477L775.202 157.547L771.134 161.617L767.066 157.547Z" fill="white"/>
<path d="M715.928 157.547L719.996 153.477L724.064 157.547L719.996 161.617L715.928 157.547Z" fill="white"/>
<path d="M664.791 157.547L668.859 153.477L672.927 157.547L668.859 161.617L664.791 157.547Z" fill="white"/>
<path d="M613.653 157.547L617.721 153.477L621.789 157.547L617.721 161.617L613.653 157.547Z" fill="white"/>
<path d="M562.516 157.547L566.583 153.477L570.651 157.547L566.583 161.617L562.516 157.547Z" fill="white"/>
<path d="M511.378 157.547L515.446 153.477L519.514 157.547L515.446 161.617L511.378 157.547Z" fill="white"/>
<path d="M460.24 157.547L464.307 153.477L468.375 157.547L464.307 161.617L460.24 157.547Z" fill="white"/>
<path d="M409.102 157.547L413.17 153.477L417.238 157.547L413.17 161.617L409.102 157.547Z" fill="white"/>
<path d="M357.964 157.547L362.032 153.477L366.1 157.547L362.032 161.617L357.964 157.547Z" fill="white"/>
<path d="M306.826 157.547L310.894 153.477L314.962 157.547L310.894 161.617L306.826 157.547Z" fill="white"/>
<path d="M255.689 157.547L259.757 153.477L263.825 157.547L259.757 161.617L255.689 157.547Z" fill="white"/>
<path d="M204.551 157.547L208.619 153.477L212.687 157.547L208.619 161.617L204.551 157.547Z" fill="white"/>
<path d="M153.413 157.547L157.481 153.477L161.549 157.547L157.481 161.617L153.413 157.547Z" fill="white"/>
<path d="M102.275 157.547L106.343 153.477L110.411 157.547L106.343 161.617L102.275 157.547Z" fill="white"/>
<path d="M51.1379 157.547L55.2059 153.477L59.2738 157.547L55.2059 161.617L51.1379 157.547Z" fill="white"/>
<path d="M0 157.547L4.06799 153.477L8.13586 157.547L4.06799 161.617L0 157.547Z" fill="white"/>
<path d="M920.48 208.705L924.548 204.636L928.616 208.705L924.548 212.775L920.48 208.705Z" fill="white"/>
<path d="M869.342 208.705L873.41 204.636L877.478 208.705L873.41 212.775L869.342 208.705Z" fill="white"/>
<path d="M818.204 208.705L822.272 204.636L826.34 208.705L822.272 212.775L818.204 208.705Z" fill="white"/>
<path d="M767.066 208.705L771.134 204.636L775.202 208.705L771.134 212.775L767.066 208.705Z" fill="white"/>
<path d="M715.928 208.705L719.996 204.636L724.064 208.705L719.996 212.775L715.928 208.705Z" fill="white"/>
<path d="M664.791 208.705L668.859 204.636L672.927 208.705L668.859 212.775L664.791 208.705Z" fill="white"/>
<path d="M613.653 208.705L617.721 204.636L621.789 208.705L617.721 212.775L613.653 208.705Z" fill="white"/>
<path d="M562.516 208.705L566.583 204.636L570.651 208.705L566.583 212.775L562.516 208.705Z" fill="white"/>
<path d="M511.378 208.705L515.446 204.636L519.514 208.705L515.446 212.775L511.378 208.705Z" fill="white"/>
<path d="M460.24 208.705L464.307 204.636L468.375 208.705L464.307 212.775L460.24 208.705Z" fill="white"/>
<path d="M409.102 208.705L413.17 204.636L417.238 208.705L413.17 212.775L409.102 208.705Z" fill="white"/>
<path d="M357.964 208.705L362.032 204.636L366.1 208.705L362.032 212.775L357.964 208.705Z" fill="white"/>
<path d="M306.826 208.705L310.894 204.636L314.962 208.705L310.894 212.775L306.826 208.705Z" fill="white"/>
<path d="M255.689 208.705L259.757 204.636L263.825 208.705L259.757 212.775L255.689 208.705Z" fill="white"/>
<path d="M204.551 208.705L208.619 204.636L212.687 208.705L208.619 212.775L204.551 208.705Z" fill="white"/>
<path d="M153.413 208.705L157.481 204.636L161.549 208.705L157.481 212.775L153.413 208.705Z" fill="white"/>
<path d="M102.275 208.705L106.343 204.636L110.411 208.705L106.343 212.775L102.275 208.705Z" fill="white"/>
<path d="M51.1379 208.705L55.2059 204.636L59.2738 208.705L55.2059 212.775L51.1379 208.705Z" fill="white"/>
<path d="M0 208.705L4.06799 204.636L8.13586 208.705L4.06799 212.775L0 208.705Z" fill="white"/>
<path d="M920.48 259.865L924.548 255.795L928.616 259.865L924.548 263.934L920.48 259.865Z" fill="white"/>
<path d="M869.342 259.865L873.41 255.795L877.478 259.865L873.41 263.934L869.342 259.865Z" fill="white"/>
<path d="M818.204 259.865L822.272 255.795L826.34 259.865L822.272 263.934L818.204 259.865Z" fill="white"/>
<path d="M767.066 259.865L771.134 255.795L775.202 259.865L771.134 263.934L767.066 259.865Z" fill="white"/>
<path d="M715.928 259.865L719.996 255.795L724.064 259.865L719.996 263.934L715.928 259.865Z" fill="white"/>
<path d="M664.791 259.865L668.859 255.795L672.927 259.865L668.859 263.934L664.791 259.865Z" fill="white"/>
<path d="M613.653 259.865L617.721 255.795L621.789 259.865L617.721 263.934L613.653 259.865Z" fill="white"/>
<path d="M562.516 259.865L566.583 255.795L570.651 259.865L566.583 263.934L562.516 259.865Z" fill="white"/>
<path d="M511.378 259.865L515.446 255.795L519.514 259.865L515.446 263.934L511.378 259.865Z" fill="white"/>
<path d="M460.24 259.865L464.307 255.795L468.375 259.865L464.307 263.934L460.24 259.865Z" fill="white"/>
<path d="M409.102 259.865L413.17 255.795L417.238 259.865L413.17 263.934L409.102 259.865Z" fill="white"/>
<path d="M357.964 259.865L362.032 255.795L366.1 259.865L362.032 263.934L357.964 259.865Z" fill="white"/>
<path d="M306.826 259.865L310.894 255.795L314.962 259.865L310.894 263.934L306.826 259.865Z" fill="white"/>
<path d="M255.689 259.865L259.757 255.795L263.825 259.865L259.757 263.934L255.689 259.865Z" fill="white"/>
<path d="M204.551 259.865L208.619 255.795L212.687 259.865L208.619 263.934L204.551 259.865Z" fill="white"/>
<path d="M153.413 259.865L157.481 255.795L161.549 259.865L157.481 263.934L153.413 259.865Z" fill="white"/>
<path d="M102.275 259.865L106.343 255.795L110.411 259.865L106.343 263.934L102.275 259.865Z" fill="white"/>
<path d="M51.1379 259.865L55.2059 255.795L59.2738 259.865L55.2059 263.934L51.1379 259.865Z" fill="white"/>
<path d="M0 259.865L4.06799 255.795L8.13586 259.865L4.06799 263.934L0 259.865Z" fill="white"/>
<path d="M920.48 311.024L924.548 306.954L928.616 311.024L924.548 315.093L920.48 311.024Z" fill="white"/>
<path d="M869.342 311.024L873.41 306.954L877.478 311.024L873.41 315.093L869.342 311.024Z" fill="white"/>
<path d="M818.204 311.024L822.272 306.954L826.34 311.024L822.272 315.093L818.204 311.024Z" fill="white"/>
<path d="M767.066 311.024L771.134 306.954L775.202 311.024L771.134 315.093L767.066 311.024Z" fill="white"/>
<path d="M715.928 311.024L719.996 306.954L724.064 311.024L719.996 315.093L715.928 311.024Z" fill="white"/>
<path d="M664.791 311.024L668.859 306.954L672.927 311.024L668.859 315.093L664.791 311.024Z" fill="white"/>
<path d="M613.653 311.024L617.721 306.954L621.789 311.024L617.721 315.093L613.653 311.024Z" fill="white"/>
<path d="M562.516 311.024L566.583 306.954L570.651 311.024L566.583 315.093L562.516 311.024Z" fill="white"/>
<path d="M511.378 311.024L515.446 306.954L519.514 311.024L515.446 315.093L511.378 311.024Z" fill="white"/>
<path d="M460.24 311.024L464.307 306.954L468.375 311.024L464.307 315.093L460.24 311.024Z" fill="white"/>
<path d="M409.102 311.024L413.17 306.954L417.238 311.024L413.17 315.093L409.102 311.024Z" fill="white"/>
<path d="M357.964 311.024L362.032 306.954L366.1 311.024L362.032 315.093L357.964 311.024Z" fill="white"/>
<path d="M306.826 311.024L310.894 306.954L314.962 311.024L310.894 315.093L306.826 311.024Z" fill="white"/>
<path d="M255.689 311.024L259.757 306.954L263.825 311.024L259.757 315.093L255.689 311.024Z" fill="white"/>
<path d="M204.551 311.024L208.619 306.954L212.687 311.024L208.619 315.093L204.551 311.024Z" fill="white"/>
<path d="M153.413 311.024L157.481 306.954L161.549 311.024L157.481 315.093L153.413 311.024Z" fill="white"/>
<path d="M102.275 311.024L106.343 306.954L110.411 311.024L106.343 315.093L102.275 311.024Z" fill="white"/>
<path d="M51.1379 311.024L55.2059 306.954L59.2738 311.024L55.2059 315.093L51.1379 311.024Z" fill="white"/>
<path d="M0 311.024L4.06799 306.954L8.13586 311.024L4.06799 315.093L0 311.024Z" fill="white"/>
<path d="M920.48 362.182L924.548 358.112L928.616 362.182L924.548 366.251L920.48 362.182Z" fill="white"/>
<path d="M869.342 362.182L873.41 358.112L877.478 362.182L873.41 366.251L869.342 362.182Z" fill="white"/>
<path d="M818.204 362.182L822.272 358.112L826.34 362.182L822.272 366.251L818.204 362.182Z" fill="white"/>
<path d="M767.066 362.182L771.134 358.112L775.202 362.182L771.134 366.251L767.066 362.182Z" fill="white"/>
<path d="M715.928 362.182L719.996 358.112L724.064 362.182L719.996 366.251L715.928 362.182Z" fill="white"/>
<path d="M664.791 362.182L668.859 358.112L672.927 362.182L668.859 366.251L664.791 362.182Z" fill="white"/>
<path d="M613.653 362.182L617.721 358.112L621.789 362.182L617.721 366.251L613.653 362.182Z" fill="white"/>
<path d="M562.516 362.182L566.583 358.112L570.651 362.182L566.583 366.251L562.516 362.182Z" fill="white"/>
<path d="M511.378 362.182L515.446 358.112L519.514 362.182L515.446 366.251L511.378 362.182Z" fill="white"/>
<path d="M460.24 362.182L464.307 358.112L468.375 362.182L464.307 366.251L460.24 362.182Z" fill="white"/>
<path d="M409.102 362.182L413.17 358.112L417.238 362.182L413.17 366.251L409.102 362.182Z" fill="white"/>
<path d="M357.964 362.182L362.032 358.112L366.1 362.182L362.032 366.251L357.964 362.182Z" fill="white"/>
<path d="M306.826 362.182L310.894 358.112L314.962 362.182L310.894 366.251L306.826 362.182Z" fill="white"/>
<path d="M255.689 362.182L259.757 358.112L263.825 362.182L259.757 366.251L255.689 362.182Z" fill="white"/>
<path d="M204.551 362.182L208.619 358.112L212.687 362.182L208.619 366.251L204.551 362.182Z" fill="white"/>
<path d="M153.413 362.182L157.481 358.112L161.549 362.182L157.481 366.251L153.413 362.182Z" fill="white"/>
<path d="M102.275 362.182L106.343 358.112L110.411 362.182L106.343 366.251L102.275 362.182Z" fill="white"/>
<path d="M51.1379 362.182L55.2059 358.112L59.2738 362.182L55.2059 366.251L51.1379 362.182Z" fill="white"/>
<path d="M0 362.182L4.06799 358.112L8.13586 362.182L4.06799 366.251L0 362.182Z" fill="white"/>
<path d="M920.48 413.341L924.548 409.272L928.616 413.341L924.548 417.411L920.48 413.341Z" fill="white"/>
<path d="M869.342 413.341L873.41 409.272L877.478 413.341L873.41 417.411L869.342 413.341Z" fill="white"/>
<path d="M818.204 413.341L822.272 409.272L826.34 413.341L822.272 417.411L818.204 413.341Z" fill="white"/>
<path d="M767.066 413.341L771.134 409.272L775.202 413.341L771.134 417.411L767.066 413.341Z" fill="white"/>
<path d="M715.928 413.341L719.996 409.272L724.064 413.341L719.996 417.411L715.928 413.341Z" fill="white"/>
<path d="M664.791 413.341L668.859 409.272L672.927 413.341L668.859 417.411L664.791 413.341Z" fill="white"/>
<path d="M613.653 413.341L617.721 409.272L621.789 413.341L617.721 417.411L613.653 413.341Z" fill="white"/>
<path d="M562.516 413.341L566.583 409.272L570.651 413.341L566.583 417.411L562.516 413.341Z" fill="white"/>
<path d="M511.378 413.341L515.446 409.272L519.514 413.341L515.446 417.411L511.378 413.341Z" fill="white"/>
<path d="M460.24 413.341L464.307 409.272L468.375 413.341L464.307 417.411L460.24 413.341Z" fill="white"/>
<path d="M409.102 413.341L413.17 409.272L417.238 413.341L413.17 417.411L409.102 413.341Z" fill="white"/>
<path d="M357.964 413.341L362.032 409.272L366.1 413.341L362.032 417.411L357.964 413.341Z" fill="white"/>
<path d="M306.826 413.341L310.894 409.272L314.962 413.341L310.894 417.411L306.826 413.341Z" fill="white"/>
<path d="M255.689 413.341L259.757 409.272L263.825 413.341L259.757 417.411L255.689 413.341Z" fill="white"/>
<path d="M204.551 413.341L208.619 409.272L212.687 413.341L208.619 417.411L204.551 413.341Z" fill="white"/>
<path d="M153.413 413.341L157.481 409.272L161.549 413.341L157.481 417.411L153.413 413.341Z" fill="white"/>
<path d="M102.275 413.341L106.343 409.272L110.411 413.341L106.343 417.411L102.275 413.341Z" fill="white"/>
<path d="M51.1379 413.341L55.2059 409.272L59.2738 413.341L55.2059 417.411L51.1379 413.341Z" fill="white"/>
<path d="M0 413.341L4.06799 409.272L8.13586 413.341L4.06799 417.411L0 413.341Z" fill="white"/>
<path d="M920.48 464.5L924.548 460.431L928.616 464.5L924.548 468.57L920.48 464.5Z" fill="white"/>
<path d="M869.342 464.5L873.41 460.431L877.478 464.5L873.41 468.57L869.342 464.5Z" fill="white"/>
<path d="M818.204 464.5L822.272 460.431L826.34 464.5L822.272 468.57L818.204 464.5Z" fill="white"/>
<path d="M767.066 464.5L771.134 460.431L775.202 464.5L771.134 468.57L767.066 464.5Z" fill="white"/>
<path d="M715.928 464.5L719.996 460.431L724.064 464.5L719.996 468.57L715.928 464.5Z" fill="white"/>
<path d="M664.791 464.5L668.859 460.431L672.927 464.5L668.859 468.57L664.791 464.5Z" fill="white"/>
<path d="M613.653 464.5L617.721 460.431L621.789 464.5L617.721 468.57L613.653 464.5Z" fill="white"/>
<path d="M562.516 464.5L566.583 460.431L570.651 464.5L566.583 468.57L562.516 464.5Z" fill="white"/>
<path d="M511.378 464.5L515.446 460.431L519.514 464.5L515.446 468.57L511.378 464.5Z" fill="white"/>
<path d="M460.24 464.5L464.307 460.431L468.375 464.5L464.307 468.57L460.24 464.5Z" fill="white"/>
<path d="M409.102 464.5L413.17 460.431L417.238 464.5L413.17 468.57L409.102 464.5Z" fill="white"/>
<path d="M357.964 464.5L362.032 460.431L366.1 464.5L362.032 468.57L357.964 464.5Z" fill="white"/>
<path d="M306.826 464.5L310.894 460.431L314.962 464.5L310.894 468.57L306.826 464.5Z" fill="white"/>
<path d="M255.689 464.5L259.757 460.431L263.825 464.5L259.757 468.57L255.689 464.5Z" fill="white"/>
<path d="M204.551 464.5L208.619 460.431L212.687 464.5L208.619 468.57L204.551 464.5Z" fill="white"/>
<path d="M153.413 464.5L157.481 460.431L161.549 464.5L157.481 468.57L153.413 464.5Z" fill="white"/>
<path d="M102.275 464.5L106.343 460.431L110.411 464.5L106.343 468.57L102.275 464.5Z" fill="white"/>
<path d="M51.1379 464.5L55.2059 460.431L59.2738 464.5L55.2059 468.57L51.1379 464.5Z" fill="white"/>
<path d="M0 464.5L4.06799 460.431L8.13586 464.5L4.06799 468.57L0 464.5Z" fill="white"/>
<path d="M920.48 515.659L924.548 511.589L928.616 515.659L924.548 519.728L920.48 515.659Z" fill="white"/>
<path d="M869.342 515.659L873.41 511.589L877.478 515.659L873.41 519.728L869.342 515.659Z" fill="white"/>
<path d="M818.204 515.659L822.272 511.589L826.34 515.659L822.272 519.728L818.204 515.659Z" fill="white"/>
<path d="M767.066 515.659L771.134 511.589L775.202 515.659L771.134 519.728L767.066 515.659Z" fill="white"/>
<path d="M715.928 515.659L719.996 511.589L724.064 515.659L719.996 519.728L715.928 515.659Z" fill="white"/>
<path d="M664.791 515.659L668.859 511.589L672.927 515.659L668.859 519.728L664.791 515.659Z" fill="white"/>
<path d="M613.653 515.659L617.721 511.589L621.789 515.659L617.721 519.728L613.653 515.659Z" fill="white"/>
<path d="M562.516 515.659L566.583 511.589L570.651 515.659L566.583 519.728L562.516 515.659Z" fill="white"/>
<path d="M511.378 515.659L515.446 511.589L519.514 515.659L515.446 519.728L511.378 515.659Z" fill="white"/>
<path d="M460.24 515.659L464.307 511.589L468.375 515.659L464.307 519.728L460.24 515.659Z" fill="white"/>
<path d="M409.102 515.659L413.17 511.589L417.238 515.659L413.17 519.728L409.102 515.659Z" fill="white"/>
<path d="M357.964 515.659L362.032 511.589L366.1 515.659L362.032 519.728L357.964 515.659Z" fill="white"/>
<path d="M306.826 515.659L310.894 511.589L314.962 515.659L310.894 519.728L306.826 515.659Z" fill="white"/>
<path d="M255.689 515.659L259.757 511.589L263.825 515.659L259.757 519.728L255.689 515.659Z" fill="white"/>
<path d="M204.551 515.659L208.619 511.589L212.687 515.659L208.619 519.728L204.551 515.659Z" fill="white"/>
<path d="M153.413 515.659L157.481 511.589L161.549 515.659L157.481 519.728L153.413 515.659Z" fill="white"/>
<path d="M102.275 515.659L106.343 511.589L110.411 515.659L106.343 519.728L102.275 515.659Z" fill="white"/>
<path d="M51.1379 515.659L55.2059 511.589L59.2738 515.659L55.2059 519.728L51.1379 515.659Z" fill="white"/>
<path d="M0 515.659L4.06799 511.589L8.13586 515.659L4.06799 519.728L0 515.659Z" fill="white"/>
<path d="M920.48 566.817L924.548 562.748L928.616 566.817L924.548 570.887L920.48 566.817Z" fill="white"/>
<path d="M869.342 566.817L873.41 562.748L877.478 566.817L873.41 570.887L869.342 566.817Z" fill="white"/>
<path d="M818.204 566.817L822.272 562.748L826.34 566.817L822.272 570.887L818.204 566.817Z" fill="white"/>
<path d="M767.066 566.817L771.134 562.748L775.202 566.817L771.134 570.887L767.066 566.817Z" fill="white"/>
<path d="M715.928 566.817L719.996 562.748L724.064 566.817L719.996 570.887L715.928 566.817Z" fill="white"/>
<path d="M664.791 566.817L668.859 562.748L672.927 566.817L668.859 570.887L664.791 566.817Z" fill="white"/>
<path d="M613.653 566.817L617.721 562.748L621.789 566.817L617.721 570.887L613.653 566.817Z" fill="white"/>
<path d="M562.516 566.817L566.583 562.748L570.651 566.817L566.583 570.887L562.516 566.817Z" fill="white"/>
<path d="M511.378 566.817L515.446 562.748L519.514 566.817L515.446 570.887L511.378 566.817Z" fill="white"/>
<path d="M460.24 566.817L464.307 562.748L468.375 566.817L464.307 570.887L460.24 566.817Z" fill="white"/>
<path d="M409.102 566.817L413.17 562.748L417.238 566.817L413.17 570.887L409.102 566.817Z" fill="white"/>
<path d="M357.964 566.817L362.032 562.748L366.1 566.817L362.032 570.887L357.964 566.817Z" fill="white"/>
<path d="M306.826 566.817L310.894 562.748L314.962 566.817L310.894 570.887L306.826 566.817Z" fill="white"/>
<path d="M255.689 566.817L259.757 562.748L263.825 566.817L259.757 570.887L255.689 566.817Z" fill="white"/>
<path d="M204.551 566.817L208.619 562.748L212.687 566.817L208.619 570.887L204.551 566.817Z" fill="white"/>
<path d="M153.413 566.817L157.481 562.748L161.549 566.817L157.481 570.887L153.413 566.817Z" fill="white"/>
<path d="M102.275 566.817L106.343 562.748L110.411 566.817L106.343 570.887L102.275 566.817Z" fill="white"/>
<path d="M51.1379 566.817L55.2059 562.748L59.2738 566.817L55.2059 570.887L51.1379 566.817Z" fill="white"/>
<path d="M0 566.817L4.06799 562.748L8.13586 566.817L4.06799 570.887L0 566.817Z" fill="white"/>
<path d="M920.48 617.977L924.548 613.907L928.616 617.977L924.548 622.047L920.48 617.977Z" fill="white"/>
<path d="M869.342 617.977L873.41 613.907L877.478 617.977L873.41 622.047L869.342 617.977Z" fill="white"/>
<path d="M818.204 617.977L822.272 613.907L826.34 617.977L822.272 622.047L818.204 617.977Z" fill="white"/>
<path d="M767.066 617.977L771.134 613.907L775.202 617.977L771.134 622.047L767.066 617.977Z" fill="white"/>
<path d="M715.928 617.977L719.996 613.907L724.064 617.977L719.996 622.047L715.928 617.977Z" fill="white"/>
<path d="M664.791 617.977L668.859 613.907L672.927 617.977L668.859 622.047L664.791 617.977Z" fill="white"/>
<path d="M613.653 617.977L617.721 613.907L621.789 617.977L617.721 622.047L613.653 617.977Z" fill="white"/>
<path d="M562.516 617.977L566.583 613.907L570.651 617.977L566.583 622.047L562.516 617.977Z" fill="white"/>
<path d="M511.378 617.977L515.446 613.907L519.514 617.977L515.446 622.047L511.378 617.977Z" fill="white"/>
<path d="M460.24 617.977L464.307 613.907L468.375 617.977L464.307 622.047L460.24 617.977Z" fill="white"/>
<path d="M409.102 617.977L413.17 613.907L417.238 617.977L413.17 622.047L409.102 617.977Z" fill="white"/>
<path d="M357.964 617.977L362.032 613.907L366.1 617.977L362.032 622.047L357.964 617.977Z" fill="white"/>
<path d="M306.826 617.977L310.894 613.907L314.962 617.977L310.894 622.047L306.826 617.977Z" fill="white"/>
<path d="M255.689 617.977L259.757 613.907L263.825 617.977L259.757 622.047L255.689 617.977Z" fill="white"/>
<path d="M204.551 617.977L208.619 613.907L212.687 617.977L208.619 622.047L204.551 617.977Z" fill="white"/>
<path d="M153.413 617.977L157.481 613.907L161.549 617.977L157.481 622.047L153.413 617.977Z" fill="white"/>
<path d="M102.275 617.977L106.343 613.907L110.411 617.977L106.343 622.047L102.275 617.977Z" fill="white"/>
<path d="M51.1379 617.977L55.2059 613.907L59.2738 617.977L55.2059 622.047L51.1379 617.977Z" fill="white"/>
<path d="M0 617.977L4.06799 613.907L8.13586 617.977L4.06799 622.047L0 617.977Z" fill="white"/>
<path d="M920.48 669.135L924.548 665.066L928.616 669.135L924.548 673.205L920.48 669.135Z" fill="white"/>
<path d="M869.342 669.135L873.41 665.066L877.478 669.135L873.41 673.205L869.342 669.135Z" fill="white"/>
<path d="M818.204 669.135L822.272 665.066L826.34 669.135L822.272 673.205L818.204 669.135Z" fill="white"/>
<path d="M767.066 669.135L771.134 665.066L775.202 669.135L771.134 673.205L767.066 669.135Z" fill="white"/>
<path d="M715.928 669.135L719.996 665.066L724.064 669.135L719.996 673.205L715.928 669.135Z" fill="white"/>
<path d="M664.791 669.135L668.859 665.066L672.927 669.135L668.859 673.205L664.791 669.135Z" fill="white"/>
<path d="M613.653 669.135L617.721 665.066L621.789 669.135L617.721 673.205L613.653 669.135Z" fill="white"/>
<path d="M562.516 669.135L566.583 665.066L570.651 669.135L566.583 673.205L562.516 669.135Z" fill="white"/>
<path d="M511.378 669.135L515.446 665.066L519.514 669.135L515.446 673.205L511.378 669.135Z" fill="white"/>
<path d="M460.24 669.135L464.307 665.066L468.375 669.135L464.307 673.205L460.24 669.135Z" fill="white"/>
<path d="M409.102 669.135L413.17 665.066L417.238 669.135L413.17 673.205L409.102 669.135Z" fill="white"/>
<path d="M357.964 669.135L362.032 665.066L366.1 669.135L362.032 673.205L357.964 669.135Z" fill="white"/>
<path d="M306.826 669.135L310.894 665.066L314.962 669.135L310.894 673.205L306.826 669.135Z" fill="white"/>
<path d="M255.689 669.135L259.757 665.066L263.825 669.135L259.757 673.205L255.689 669.135Z" fill="white"/>
<path d="M204.551 669.135L208.619 665.066L212.687 669.135L208.619 673.205L204.551 669.135Z" fill="white"/>
<path d="M153.413 669.135L157.481 665.066L161.549 669.135L157.481 673.205L153.413 669.135Z" fill="white"/>
<path d="M102.275 669.135L106.343 665.066L110.411 669.135L106.343 673.205L102.275 669.135Z" fill="white"/>
<path d="M51.1379 669.135L55.2059 665.066L59.2738 669.135L55.2059 673.205L51.1379 669.135Z" fill="white"/>
<path d="M0 669.135L4.06799 665.066L8.13586 669.135L4.06799 673.205L0 669.135Z" fill="white"/>
<path d="M920.48 720.294L924.548 716.224L928.616 720.294L924.548 724.364L920.48 720.294Z" fill="white"/>
<path d="M869.342 720.294L873.41 716.224L877.478 720.294L873.41 724.364L869.342 720.294Z" fill="white"/>
<path d="M818.204 720.294L822.272 716.224L826.34 720.294L822.272 724.364L818.204 720.294Z" fill="white"/>
<path d="M767.066 720.294L771.134 716.224L775.202 720.294L771.134 724.364L767.066 720.294Z" fill="white"/>
<path d="M715.928 720.294L719.996 716.224L724.064 720.294L719.996 724.364L715.928 720.294Z" fill="white"/>
<path d="M664.791 720.294L668.859 716.224L672.927 720.294L668.859 724.364L664.791 720.294Z" fill="white"/>
<path d="M613.653 720.294L617.721 716.224L621.789 720.294L617.721 724.364L613.653 720.294Z" fill="white"/>
<path d="M562.516 720.294L566.583 716.224L570.651 720.294L566.583 724.364L562.516 720.294Z" fill="white"/>
<path d="M511.378 720.294L515.446 716.224L519.514 720.294L515.446 724.364L511.378 720.294Z" fill="white"/>
<path d="M460.24 720.294L464.307 716.224L468.375 720.294L464.307 724.364L460.24 720.294Z" fill="white"/>
<path d="M409.102 720.294L413.17 716.224L417.238 720.294L413.17 724.364L409.102 720.294Z" fill="white"/>
<path d="M357.964 720.294L362.032 716.224L366.1 720.294L362.032 724.364L357.964 720.294Z" fill="white"/>
<path d="M306.826 720.294L310.894 716.224L314.962 720.294L310.894 724.364L306.826 720.294Z" fill="white"/>
<path d="M255.689 720.294L259.757 716.224L263.825 720.294L259.757 724.364L255.689 720.294Z" fill="white"/>
<path d="M204.551 720.294L208.619 716.224L212.687 720.294L208.619 724.364L204.551 720.294Z" fill="white"/>
<path d="M153.413 720.294L157.481 716.224L161.549 720.294L157.481 724.364L153.413 720.294Z" fill="white"/>
<path d="M102.275 720.294L106.343 716.224L110.411 720.294L106.343 724.364L102.275 720.294Z" fill="white"/>
<path d="M51.1379 720.294L55.2059 716.224L59.2738 720.294L55.2059 724.364L51.1379 720.294Z" fill="white"/>
<path d="M0 720.294L4.06799 716.224L8.13586 720.294L4.06799 724.364L0 720.294Z" fill="white"/>
<path d="M920.48 771.454L924.548 767.384L928.616 771.454L924.548 775.523L920.48 771.454Z" fill="white"/>
<path d="M869.342 771.454L873.41 767.384L877.478 771.454L873.41 775.523L869.342 771.454Z" fill="white"/>
<path d="M818.204 771.454L822.272 767.384L826.34 771.454L822.272 775.523L818.204 771.454Z" fill="white"/>
<path d="M767.066 771.454L771.134 767.384L775.202 771.454L771.134 775.523L767.066 771.454Z" fill="white"/>
<path d="M715.928 771.454L719.996 767.384L724.064 771.454L719.996 775.523L715.928 771.454Z" fill="white"/>
<path d="M664.791 771.454L668.859 767.384L672.927 771.454L668.859 775.523L664.791 771.454Z" fill="white"/>
<path d="M613.653 771.454L617.721 767.384L621.789 771.454L617.721 775.523L613.653 771.454Z" fill="white"/>
<path d="M562.516 771.454L566.583 767.384L570.651 771.454L566.583 775.523L562.516 771.454Z" fill="white"/>
<path d="M511.378 771.454L515.446 767.384L519.514 771.454L515.446 775.523L511.378 771.454Z" fill="white"/>
<path d="M460.24 771.454L464.307 767.384L468.375 771.454L464.307 775.523L460.24 771.454Z" fill="white"/>
<path d="M409.102 771.454L413.17 767.384L417.238 771.454L413.17 775.523L409.102 771.454Z" fill="white"/>
<path d="M357.964 771.454L362.032 767.384L366.1 771.454L362.032 775.523L357.964 771.454Z" fill="white"/>
<path d="M306.826 771.454L310.894 767.384L314.962 771.454L310.894 775.523L306.826 771.454Z" fill="white"/>
<path d="M255.689 771.454L259.757 767.384L263.825 771.454L259.757 775.523L255.689 771.454Z" fill="white"/>
<path d="M204.551 771.454L208.619 767.384L212.687 771.454L208.619 775.523L204.551 771.454Z" fill="white"/>
<path d="M153.413 771.454L157.481 767.384L161.549 771.454L157.481 775.523L153.413 771.454Z" fill="white"/>
<path d="M102.275 771.454L106.343 767.384L110.411 771.454L106.343 775.523L102.275 771.454Z" fill="white"/>
<path d="M51.1379 771.454L55.2059 767.384L59.2738 771.454L55.2059 775.523L51.1379 771.454Z" fill="white"/>
<path d="M0 771.454L4.06799 767.384L8.13586 771.454L4.06799 775.523L0 771.454Z" fill="white"/>
<path d="M920.48 822.612L924.548 818.542L928.616 822.612L924.548 826.682L920.48 822.612Z" fill="white"/>
<path d="M869.342 822.612L873.41 818.542L877.478 822.612L873.41 826.682L869.342 822.612Z" fill="white"/>
<path d="M818.204 822.612L822.272 818.542L826.34 822.612L822.272 826.682L818.204 822.612Z" fill="white"/>
<path d="M767.066 822.612L771.134 818.542L775.202 822.612L771.134 826.682L767.066 822.612Z" fill="white"/>
<path d="M715.928 822.612L719.996 818.542L724.064 822.612L719.996 826.682L715.928 822.612Z" fill="white"/>
<path d="M664.791 822.612L668.859 818.542L672.927 822.612L668.859 826.682L664.791 822.612Z" fill="white"/>
<path d="M613.653 822.612L617.721 818.542L621.789 822.612L617.721 826.682L613.653 822.612Z" fill="white"/>
<path d="M562.516 822.612L566.583 818.542L570.651 822.612L566.583 826.682L562.516 822.612Z" fill="white"/>
<path d="M511.378 822.612L515.446 818.542L519.514 822.612L515.446 826.682L511.378 822.612Z" fill="white"/>
<path d="M460.24 822.612L464.307 818.542L468.375 822.612L464.307 826.682L460.24 822.612Z" fill="white"/>
<path d="M409.102 822.612L413.17 818.542L417.238 822.612L413.17 826.682L409.102 822.612Z" fill="white"/>
<path d="M357.964 822.612L362.032 818.542L366.1 822.612L362.032 826.682L357.964 822.612Z" fill="white"/>
<path d="M306.826 822.612L310.894 818.542L314.962 822.612L310.894 826.682L306.826 822.612Z" fill="white"/>
<path d="M255.689 822.612L259.757 818.542L263.825 822.612L259.757 826.682L255.689 822.612Z" fill="white"/>
<path d="M204.551 822.612L208.619 818.542L212.687 822.612L208.619 826.682L204.551 822.612Z" fill="white"/>
<path d="M153.413 822.612L157.481 818.542L161.549 822.612L157.481 826.682L153.413 822.612Z" fill="white"/>
<path d="M102.275 822.612L106.343 818.542L110.411 822.612L106.343 826.682L102.275 822.612Z" fill="white"/>
<path d="M51.1379 822.612L55.2059 818.542L59.2738 822.612L55.2059 826.682L51.1379 822.612Z" fill="white"/>
<path d="M0 822.612L4.06799 818.542L8.13586 822.612L4.06799 826.682L0 822.612Z" fill="white"/>
<path d="M920.48 873.771L924.548 869.701L928.616 873.771L924.548 877.84L920.48 873.771Z" fill="white"/>
<path d="M869.342 873.771L873.41 869.701L877.478 873.771L873.41 877.84L869.342 873.771Z" fill="white"/>
<path d="M818.204 873.771L822.272 869.701L826.34 873.771L822.272 877.84L818.204 873.771Z" fill="white"/>
<path d="M767.066 873.771L771.134 869.701L775.202 873.771L771.134 877.84L767.066 873.771Z" fill="white"/>
<path d="M715.928 873.771L719.996 869.701L724.064 873.771L719.996 877.84L715.928 873.771Z" fill="white"/>
<path d="M664.791 873.771L668.859 869.701L672.927 873.771L668.859 877.84L664.791 873.771Z" fill="white"/>
<path d="M613.653 873.771L617.721 869.701L621.789 873.771L617.721 877.84L613.653 873.771Z" fill="white"/>
<path d="M562.516 873.771L566.583 869.701L570.651 873.771L566.583 877.84L562.516 873.771Z" fill="white"/>
<path d="M511.378 873.771L515.446 869.701L519.514 873.771L515.446 877.84L511.378 873.771Z" fill="white"/>
<path d="M460.24 873.771L464.307 869.701L468.375 873.771L464.307 877.84L460.24 873.771Z" fill="white"/>
<path d="M409.102 873.771L413.17 869.701L417.238 873.771L413.17 877.84L409.102 873.771Z" fill="white"/>
<path d="M357.964 873.771L362.032 869.701L366.1 873.771L362.032 877.84L357.964 873.771Z" fill="white"/>
<path d="M306.826 873.771L310.894 869.701L314.962 873.771L310.894 877.84L306.826 873.771Z" fill="white"/>
<path d="M255.689 873.771L259.757 869.701L263.825 873.771L259.757 877.84L255.689 873.771Z" fill="white"/>
<path d="M204.551 873.771L208.619 869.701L212.687 873.771L208.619 877.84L204.551 873.771Z" fill="white"/>
<path d="M153.413 873.771L157.481 869.701L161.549 873.771L157.481 877.84L153.413 873.771Z" fill="white"/>
<path d="M102.275 873.771L106.343 869.701L110.411 873.771L106.343 877.84L102.275 873.771Z" fill="white"/>
<path d="M51.1379 873.771L55.2059 869.701L59.2738 873.771L55.2059 877.84L51.1379 873.771Z" fill="white"/>
<path d="M0 873.771L4.06799 869.701L8.13586 873.771L4.06799 877.84L0 873.771Z" fill="white"/>
<path d="M920.48 924.93L924.548 920.861L928.616 924.93L924.548 929L920.48 924.93Z" fill="white"/>
<path d="M869.342 924.93L873.41 920.861L877.478 924.93L873.41 929L869.342 924.93Z" fill="white"/>
<path d="M818.204 924.93L822.272 920.861L826.34 924.93L822.272 929L818.204 924.93Z" fill="white"/>
<path d="M767.066 924.93L771.134 920.861L775.202 924.93L771.134 929L767.066 924.93Z" fill="white"/>
<path d="M715.928 924.93L719.996 920.861L724.064 924.93L719.996 929L715.928 924.93Z" fill="white"/>
<path d="M664.791 924.93L668.859 920.861L672.927 924.93L668.859 929L664.791 924.93Z" fill="white"/>
<path d="M613.653 924.93L617.721 920.861L621.789 924.93L617.721 929L613.653 924.93Z" fill="white"/>
<path d="M562.516 924.93L566.583 920.861L570.651 924.93L566.583 929L562.516 924.93Z" fill="white"/>
<path d="M511.378 924.93L515.446 920.861L519.514 924.93L515.446 929L511.378 924.93Z" fill="white"/>
<path d="M460.24 924.93L464.307 920.861L468.375 924.93L464.307 929L460.24 924.93Z" fill="white"/>
<path d="M409.102 924.93L413.17 920.861L417.238 924.93L413.17 929L409.102 924.93Z" fill="white"/>
<path d="M357.964 924.93L362.032 920.861L366.1 924.93L362.032 929L357.964 924.93Z" fill="white"/>
<path d="M306.826 924.93L310.894 920.861L314.962 924.93L310.894 929L306.826 924.93Z" fill="white"/>
<path d="M255.689 924.93L259.757 920.861L263.825 924.93L259.757 929L255.689 924.93Z" fill="white"/>
<path d="M204.551 924.93L208.619 920.861L212.687 924.93L208.619 929L204.551 924.93Z" fill="white"/>
<path d="M153.413 924.93L157.481 920.861L161.549 924.93L157.481 929L153.413 924.93Z" fill="white"/>
<path d="M102.275 924.93L106.343 920.861L110.411 924.93L106.343 929L102.275 924.93Z" fill="white"/>
<path d="M51.1379 924.93L55.2059 920.861L59.2738 924.93L55.2059 929L51.1379 924.93Z" fill="white"/>
<path d="M0 924.93L4.06799 920.861L8.13586 924.93L4.06799 929L0 924.93Z" fill="white"/>
</mask>
<g mask="url(#mask0_404_200)">
<ellipse cx="869.832" cy="447.354" rx="869.832" ry="447.354" transform="matrix(-0.866025 0.5 0.5 0.866025 1338.42 -447.218)" fill="url(#paint0_radial_404_200)"/>
</g>
<defs>
<radialGradient id="paint0_radial_404_200" cx="0" cy="0" r="1" gradientUnits="userSpaceOnUse" gradientTransform="translate(869.527 447.105) rotate(86.6495) scale(455.85 887.382)">
<stop stop-color="white"/>
<stop offset="1" stop-opacity="0"/>
</radialGradient>
</defs>
</svg>
