<svg width="345" height="291" viewBox="0 0 345 291" fill="none" xmlns="http://www.w3.org/2000/svg">
<mask id="mask0_404_326" style="mask-type:alpha" maskUnits="userSpaceOnUse" x="-219" y="-107" width="784" height="506">
<path d="M560.57 -104.573L562.785 -106.789L565 -104.573L562.785 -102.358L560.57 -104.573Z" fill="white"/>
<path d="M532.729 -104.573L534.943 -106.789L537.158 -104.573L534.943 -102.358L532.729 -104.573Z" fill="white"/>
<path d="M504.887 -104.573L507.102 -106.789L509.317 -104.573L507.102 -102.358L504.887 -104.573Z" fill="white"/>
<path d="M477.045 -104.573L479.26 -106.789L481.475 -104.573L479.26 -102.358L477.045 -104.573Z" fill="white"/>
<path d="M449.204 -104.573L451.418 -106.789L453.633 -104.573L451.418 -102.358L449.204 -104.573Z" fill="white"/>
<path d="M421.362 -104.573L423.577 -106.789L425.792 -104.573L423.577 -102.358L421.362 -104.573Z" fill="white"/>
<path d="M393.52 -104.573L395.735 -106.789L397.95 -104.573L395.735 -102.358L393.52 -104.573Z" fill="white"/>
<path d="M365.679 -104.573L367.894 -106.789L370.108 -104.573L367.894 -102.358L365.679 -104.573Z" fill="white"/>
<path d="M337.837 -104.573L340.052 -106.789L342.267 -104.573L340.052 -102.358L337.837 -104.573Z" fill="white"/>
<path d="M309.995 -104.573L312.21 -106.789L314.425 -104.573L312.21 -102.358L309.995 -104.573Z" fill="white"/>
<path d="M282.154 -104.573L284.369 -106.789L286.583 -104.573L284.369 -102.358L282.154 -104.573Z" fill="white"/>
<path d="M254.312 -104.573L256.527 -106.789L258.742 -104.573L256.527 -102.358L254.312 -104.573Z" fill="white"/>
<path d="M226.47 -104.573L228.685 -106.789L230.9 -104.573L228.685 -102.358L226.47 -104.573Z" fill="white"/>
<path d="M198.629 -104.573L200.843 -106.789L203.058 -104.573L200.843 -102.358L198.629 -104.573Z" fill="white"/>
<path d="M170.787 -104.573L173.002 -106.789L175.216 -104.573L173.002 -102.358L170.787 -104.573Z" fill="white"/>
<path d="M142.945 -104.573L145.16 -106.789L147.375 -104.573L145.16 -102.358L142.945 -104.573Z" fill="white"/>
<path d="M115.104 -104.573L117.318 -106.789L119.533 -104.573L117.318 -102.358L115.104 -104.573Z" fill="white"/>
<path d="M87.2621 -104.573L89.4769 -106.789L91.6917 -104.573L89.4769 -102.358L87.2621 -104.573Z" fill="white"/>
<path d="M59.4204 -104.573L61.6351 -106.789L63.8499 -104.573L61.6351 -102.358L59.4204 -104.573Z" fill="white"/>
<path d="M560.57 -76.7199L562.785 -78.9356L565 -76.7199L562.785 -74.5042L560.57 -76.7199Z" fill="white"/>
<path d="M532.729 -76.7199L534.943 -78.9356L537.158 -76.7199L534.943 -74.5042L532.729 -76.7199Z" fill="white"/>
<path d="M504.887 -76.7199L507.102 -78.9356L509.317 -76.7199L507.102 -74.5042L504.887 -76.7199Z" fill="white"/>
<path d="M477.045 -76.7199L479.26 -78.9356L481.475 -76.7199L479.26 -74.5042L477.045 -76.7199Z" fill="white"/>
<path d="M449.204 -76.7199L451.418 -78.9356L453.633 -76.7199L451.418 -74.5042L449.204 -76.7199Z" fill="white"/>
<path d="M421.362 -76.7199L423.577 -78.9356L425.792 -76.7199L423.577 -74.5042L421.362 -76.7199Z" fill="white"/>
<path d="M393.52 -76.7199L395.735 -78.9356L397.95 -76.7199L395.735 -74.5042L393.52 -76.7199Z" fill="white"/>
<path d="M365.679 -76.7199L367.894 -78.9356L370.108 -76.7199L367.894 -74.5042L365.679 -76.7199Z" fill="white"/>
<path d="M337.837 -76.7199L340.052 -78.9356L342.267 -76.7199L340.052 -74.5042L337.837 -76.7199Z" fill="white"/>
<path d="M309.995 -76.7199L312.21 -78.9356L314.425 -76.7199L312.21 -74.5042L309.995 -76.7199Z" fill="white"/>
<path d="M282.154 -76.7199L284.369 -78.9356L286.583 -76.7199L284.369 -74.5042L282.154 -76.7199Z" fill="white"/>
<path d="M254.312 -76.7199L256.527 -78.9356L258.742 -76.7199L256.527 -74.5042L254.312 -76.7199Z" fill="white"/>
<path d="M226.47 -76.7199L228.685 -78.9356L230.9 -76.7199L228.685 -74.5042L226.47 -76.7199Z" fill="white"/>
<path d="M198.629 -76.7199L200.843 -78.9356L203.058 -76.7199L200.843 -74.5042L198.629 -76.7199Z" fill="white"/>
<path d="M170.787 -76.7199L173.002 -78.9356L175.216 -76.7199L173.002 -74.5042L170.787 -76.7199Z" fill="white"/>
<path d="M142.945 -76.7199L145.16 -78.9356L147.375 -76.7199L145.16 -74.5042L142.945 -76.7199Z" fill="white"/>
<path d="M115.104 -76.7199L117.318 -78.9356L119.533 -76.7199L117.318 -74.5042L115.104 -76.7199Z" fill="white"/>
<path d="M87.2621 -76.7199L89.4769 -78.9356L91.6917 -76.7199L89.4769 -74.5042L87.2621 -76.7199Z" fill="white"/>
<path d="M59.4204 -76.7199L61.6351 -78.9356L63.8499 -76.7199L61.6351 -74.5042L59.4204 -76.7199Z" fill="white"/>
<path d="M560.57 -48.8666L562.785 -51.0823L565 -48.8666L562.785 -46.6509L560.57 -48.8666Z" fill="white"/>
<path d="M532.729 -48.8666L534.943 -51.0823L537.158 -48.8666L534.943 -46.6509L532.729 -48.8666Z" fill="white"/>
<path d="M504.887 -48.8666L507.102 -51.0823L509.317 -48.8666L507.102 -46.6509L504.887 -48.8666Z" fill="white"/>
<path d="M477.045 -48.8666L479.26 -51.0823L481.475 -48.8666L479.26 -46.6509L477.045 -48.8666Z" fill="white"/>
<path d="M449.204 -48.8666L451.418 -51.0823L453.633 -48.8666L451.418 -46.6509L449.204 -48.8666Z" fill="white"/>
<path d="M421.362 -48.8666L423.577 -51.0823L425.792 -48.8666L423.577 -46.6509L421.362 -48.8666Z" fill="white"/>
<path d="M393.52 -48.8666L395.735 -51.0823L397.95 -48.8666L395.735 -46.6509L393.52 -48.8666Z" fill="white"/>
<path d="M365.679 -48.8666L367.894 -51.0823L370.108 -48.8666L367.894 -46.6509L365.679 -48.8666Z" fill="white"/>
<path d="M337.837 -48.8666L340.052 -51.0823L342.267 -48.8666L340.052 -46.6509L337.837 -48.8666Z" fill="white"/>
<path d="M309.995 -48.8666L312.21 -51.0823L314.425 -48.8666L312.21 -46.6509L309.995 -48.8666Z" fill="white"/>
<path d="M282.154 -48.8666L284.369 -51.0823L286.583 -48.8666L284.369 -46.6509L282.154 -48.8666Z" fill="white"/>
<path d="M254.312 -48.8666L256.527 -51.0823L258.742 -48.8666L256.527 -46.6509L254.312 -48.8666Z" fill="white"/>
<path d="M226.47 -48.8666L228.685 -51.0823L230.9 -48.8666L228.685 -46.6509L226.47 -48.8666Z" fill="white"/>
<path d="M198.629 -48.8666L200.843 -51.0823L203.058 -48.8666L200.843 -46.6509L198.629 -48.8666Z" fill="white"/>
<path d="M170.787 -48.8666L173.002 -51.0823L175.216 -48.8666L173.002 -46.6509L170.787 -48.8666Z" fill="white"/>
<path d="M142.945 -48.8666L145.16 -51.0823L147.375 -48.8666L145.16 -46.6509L142.945 -48.8666Z" fill="white"/>
<path d="M115.104 -48.8666L117.318 -51.0823L119.533 -48.8666L117.318 -46.6509L115.104 -48.8666Z" fill="white"/>
<path d="M87.2621 -48.8666L89.4769 -51.0823L91.6917 -48.8666L89.4769 -46.6509L87.2621 -48.8666Z" fill="white"/>
<path d="M59.4204 -48.8666L61.6351 -51.0823L63.8499 -48.8666L61.6351 -46.6509L59.4204 -48.8666Z" fill="white"/>
<path d="M560.57 -21.0134L562.785 -23.2291L565 -21.0134L562.785 -18.7977L560.57 -21.0134Z" fill="white"/>
<path d="M532.729 -21.0134L534.943 -23.2291L537.158 -21.0134L534.943 -18.7977L532.729 -21.0134Z" fill="white"/>
<path d="M504.887 -21.0134L507.102 -23.2291L509.317 -21.0134L507.102 -18.7977L504.887 -21.0134Z" fill="white"/>
<path d="M477.045 -21.0134L479.26 -23.2291L481.475 -21.0134L479.26 -18.7977L477.045 -21.0134Z" fill="white"/>
<path d="M449.204 -21.0134L451.418 -23.2291L453.633 -21.0134L451.418 -18.7977L449.204 -21.0134Z" fill="white"/>
<path d="M421.362 -21.0134L423.577 -23.2291L425.792 -21.0134L423.577 -18.7977L421.362 -21.0134Z" fill="white"/>
<path d="M393.52 -21.0134L395.735 -23.2291L397.95 -21.0134L395.735 -18.7977L393.52 -21.0134Z" fill="white"/>
<path d="M365.679 -21.0134L367.894 -23.2291L370.108 -21.0134L367.894 -18.7977L365.679 -21.0134Z" fill="white"/>
<path d="M337.837 -21.0134L340.052 -23.2291L342.267 -21.0134L340.052 -18.7977L337.837 -21.0134Z" fill="white"/>
<path d="M309.995 -21.0134L312.21 -23.2291L314.425 -21.0134L312.21 -18.7977L309.995 -21.0134Z" fill="white"/>
<path d="M282.154 -21.0134L284.369 -23.2291L286.583 -21.0134L284.369 -18.7977L282.154 -21.0134Z" fill="white"/>
<path d="M254.312 -21.0134L256.527 -23.2291L258.742 -21.0134L256.527 -18.7977L254.312 -21.0134Z" fill="white"/>
<path d="M226.47 -21.0134L228.685 -23.2291L230.9 -21.0134L228.685 -18.7977L226.47 -21.0134Z" fill="white"/>
<path d="M198.629 -21.0134L200.843 -23.2291L203.058 -21.0134L200.843 -18.7977L198.629 -21.0134Z" fill="white"/>
<path d="M170.787 -21.0134L173.002 -23.2291L175.216 -21.0134L173.002 -18.7977L170.787 -21.0134Z" fill="white"/>
<path d="M142.945 -21.0134L145.16 -23.2291L147.375 -21.0134L145.16 -18.7977L142.945 -21.0134Z" fill="white"/>
<path d="M115.104 -21.0134L117.318 -23.2291L119.533 -21.0134L117.318 -18.7977L115.104 -21.0134Z" fill="white"/>
<path d="M87.2621 -21.0134L89.4769 -23.2291L91.6917 -21.0134L89.4769 -18.7977L87.2621 -21.0134Z" fill="white"/>
<path d="M59.4204 -21.0134L61.6351 -23.2291L63.8499 -21.0134L61.6351 -18.7977L59.4204 -21.0134Z" fill="white"/>
<path d="M560.57 6.83961L562.785 4.6239L565 6.83961L562.785 9.05532L560.57 6.83961Z" fill="white"/>
<path d="M532.729 6.83961L534.943 4.6239L537.158 6.83961L534.943 9.05532L532.729 6.83961Z" fill="white"/>
<path d="M504.887 6.83961L507.102 4.6239L509.317 6.83961L507.102 9.05532L504.887 6.83961Z" fill="white"/>
<path d="M477.045 6.83961L479.26 4.6239L481.475 6.83961L479.26 9.05532L477.045 6.83961Z" fill="white"/>
<path d="M449.204 6.83961L451.418 4.6239L453.633 6.83961L451.418 9.05532L449.204 6.83961Z" fill="white"/>
<path d="M421.362 6.83961L423.577 4.6239L425.792 6.83961L423.577 9.05532L421.362 6.83961Z" fill="white"/>
<path d="M393.52 6.83961L395.735 4.6239L397.95 6.83961L395.735 9.05532L393.52 6.83961Z" fill="white"/>
<path d="M365.679 6.83961L367.894 4.6239L370.108 6.83961L367.894 9.05532L365.679 6.83961Z" fill="white"/>
<path d="M337.837 6.83961L340.052 4.6239L342.267 6.83961L340.052 9.05532L337.837 6.83961Z" fill="white"/>
<path d="M309.995 6.83961L312.21 4.6239L314.425 6.83961L312.21 9.05532L309.995 6.83961Z" fill="white"/>
<path d="M282.154 6.83961L284.369 4.6239L286.583 6.83961L284.369 9.05532L282.154 6.83961Z" fill="white"/>
<path d="M254.312 6.83961L256.527 4.6239L258.742 6.83961L256.527 9.05532L254.312 6.83961Z" fill="white"/>
<path d="M226.47 6.83961L228.685 4.6239L230.9 6.83961L228.685 9.05532L226.47 6.83961Z" fill="white"/>
<path d="M198.629 6.83961L200.843 4.6239L203.058 6.83961L200.843 9.05532L198.629 6.83961Z" fill="white"/>
<path d="M170.787 6.83961L173.002 4.6239L175.216 6.83961L173.002 9.05532L170.787 6.83961Z" fill="white"/>
<path d="M142.945 6.83961L145.16 4.6239L147.375 6.83961L145.16 9.05532L142.945 6.83961Z" fill="white"/>
<path d="M115.104 6.83961L117.318 4.6239L119.533 6.83961L117.318 9.05532L115.104 6.83961Z" fill="white"/>
<path d="M87.2621 6.83961L89.4769 4.6239L91.6917 6.83961L89.4769 9.05532L87.2621 6.83961Z" fill="white"/>
<path d="M59.4204 6.83961L61.6351 4.6239L63.8499 6.83961L61.6351 9.05532L59.4204 6.83961Z" fill="white"/>
<path d="M560.57 34.6929L562.785 32.4772L565 34.6929L562.785 36.9086L560.57 34.6929Z" fill="white"/>
<path d="M532.729 34.6929L534.943 32.4772L537.158 34.6929L534.943 36.9086L532.729 34.6929Z" fill="white"/>
<path d="M504.887 34.6929L507.102 32.4772L509.317 34.6929L507.102 36.9086L504.887 34.6929Z" fill="white"/>
<path d="M477.045 34.6929L479.26 32.4772L481.475 34.6929L479.26 36.9086L477.045 34.6929Z" fill="white"/>
<path d="M449.204 34.6929L451.418 32.4772L453.633 34.6929L451.418 36.9086L449.204 34.6929Z" fill="white"/>
<path d="M421.362 34.6929L423.577 32.4772L425.792 34.6929L423.577 36.9086L421.362 34.6929Z" fill="white"/>
<path d="M393.52 34.6929L395.735 32.4772L397.95 34.6929L395.735 36.9086L393.52 34.6929Z" fill="white"/>
<path d="M365.679 34.6929L367.894 32.4772L370.108 34.6929L367.894 36.9086L365.679 34.6929Z" fill="white"/>
<path d="M337.837 34.6929L340.052 32.4772L342.267 34.6929L340.052 36.9086L337.837 34.6929Z" fill="white"/>
<path d="M309.995 34.6929L312.21 32.4772L314.425 34.6929L312.21 36.9086L309.995 34.6929Z" fill="white"/>
<path d="M282.154 34.6929L284.369 32.4772L286.583 34.6929L284.369 36.9086L282.154 34.6929Z" fill="white"/>
<path d="M254.312 34.6929L256.527 32.4772L258.742 34.6929L256.527 36.9086L254.312 34.6929Z" fill="white"/>
<path d="M226.47 34.6929L228.685 32.4772L230.9 34.6929L228.685 36.9086L226.47 34.6929Z" fill="white"/>
<path d="M198.629 34.6929L200.843 32.4772L203.058 34.6929L200.843 36.9086L198.629 34.6929Z" fill="white"/>
<path d="M170.787 34.6929L173.002 32.4772L175.216 34.6929L173.002 36.9086L170.787 34.6929Z" fill="white"/>
<path d="M142.945 34.6929L145.16 32.4772L147.375 34.6929L145.16 36.9086L142.945 34.6929Z" fill="white"/>
<path d="M115.104 34.6929L117.318 32.4772L119.533 34.6929L117.318 36.9086L115.104 34.6929Z" fill="white"/>
<path d="M87.2621 34.6929L89.4769 32.4772L91.6917 34.6929L89.4769 36.9086L87.2621 34.6929Z" fill="white"/>
<path d="M59.4204 34.6929L61.6351 32.4772L63.8499 34.6929L61.6351 36.9086L59.4204 34.6929Z" fill="white"/>
<path d="M560.57 62.5462L562.785 60.3305L565 62.5462L562.785 64.7619L560.57 62.5462Z" fill="white"/>
<path d="M532.729 62.5462L534.943 60.3305L537.158 62.5462L534.943 64.7619L532.729 62.5462Z" fill="white"/>
<path d="M504.887 62.5462L507.102 60.3305L509.317 62.5462L507.102 64.7619L504.887 62.5462Z" fill="white"/>
<path d="M477.045 62.5462L479.26 60.3305L481.475 62.5462L479.26 64.7619L477.045 62.5462Z" fill="white"/>
<path d="M449.204 62.5462L451.418 60.3305L453.633 62.5462L451.418 64.7619L449.204 62.5462Z" fill="white"/>
<path d="M421.362 62.5462L423.577 60.3305L425.792 62.5462L423.577 64.7619L421.362 62.5462Z" fill="white"/>
<path d="M393.52 62.5462L395.735 60.3305L397.95 62.5462L395.735 64.7619L393.52 62.5462Z" fill="white"/>
<path d="M365.679 62.5462L367.894 60.3305L370.108 62.5462L367.894 64.7619L365.679 62.5462Z" fill="white"/>
<path d="M337.837 62.5462L340.052 60.3305L342.267 62.5462L340.052 64.7619L337.837 62.5462Z" fill="white"/>
<path d="M309.995 62.5462L312.21 60.3305L314.425 62.5462L312.21 64.7619L309.995 62.5462Z" fill="white"/>
<path d="M282.154 62.5462L284.369 60.3305L286.583 62.5462L284.369 64.7619L282.154 62.5462Z" fill="white"/>
<path d="M254.312 62.5462L256.527 60.3305L258.742 62.5462L256.527 64.7619L254.312 62.5462Z" fill="white"/>
<path d="M226.47 62.5462L228.685 60.3305L230.9 62.5462L228.685 64.7619L226.47 62.5462Z" fill="white"/>
<path d="M198.629 62.5462L200.843 60.3305L203.058 62.5462L200.843 64.7619L198.629 62.5462Z" fill="white"/>
<path d="M170.787 62.5462L173.002 60.3305L175.216 62.5462L173.002 64.7619L170.787 62.5462Z" fill="white"/>
<path d="M142.945 62.5462L145.16 60.3305L147.375 62.5462L145.16 64.7619L142.945 62.5462Z" fill="white"/>
<path d="M115.104 62.5462L117.318 60.3305L119.533 62.5462L117.318 64.7619L115.104 62.5462Z" fill="white"/>
<path d="M87.2621 62.5462L89.4769 60.3305L91.6917 62.5462L89.4769 64.7619L87.2621 62.5462Z" fill="white"/>
<path d="M59.4204 62.5462L61.6351 60.3305L63.8499 62.5462L61.6351 64.7619L59.4204 62.5462Z" fill="white"/>
<path d="M560.57 90.3988L562.785 88.1831L565 90.3988L562.785 92.6145L560.57 90.3988Z" fill="white"/>
<path d="M532.729 90.3988L534.943 88.1831L537.158 90.3988L534.943 92.6145L532.729 90.3988Z" fill="white"/>
<path d="M504.887 90.3988L507.102 88.1831L509.317 90.3988L507.102 92.6145L504.887 90.3988Z" fill="white"/>
<path d="M477.045 90.3988L479.26 88.1831L481.475 90.3988L479.26 92.6145L477.045 90.3988Z" fill="white"/>
<path d="M449.204 90.3988L451.418 88.1831L453.633 90.3988L451.418 92.6145L449.204 90.3988Z" fill="white"/>
<path d="M421.362 90.3988L423.577 88.1831L425.792 90.3988L423.577 92.6145L421.362 90.3988Z" fill="white"/>
<path d="M393.52 90.3988L395.735 88.1831L397.95 90.3988L395.735 92.6145L393.52 90.3988Z" fill="white"/>
<path d="M365.679 90.3988L367.894 88.1831L370.108 90.3988L367.894 92.6145L365.679 90.3988Z" fill="white"/>
<path d="M337.837 90.3988L340.052 88.1831L342.267 90.3988L340.052 92.6145L337.837 90.3988Z" fill="white"/>
<path d="M309.995 90.3988L312.21 88.1831L314.425 90.3988L312.21 92.6145L309.995 90.3988Z" fill="white"/>
<path d="M282.154 90.3988L284.369 88.1831L286.583 90.3988L284.369 92.6145L282.154 90.3988Z" fill="white"/>
<path d="M254.312 90.3988L256.527 88.1831L258.742 90.3988L256.527 92.6145L254.312 90.3988Z" fill="white"/>
<path d="M226.47 90.3988L228.685 88.1831L230.9 90.3988L228.685 92.6145L226.47 90.3988Z" fill="white"/>
<path d="M198.629 90.3988L200.843 88.1831L203.058 90.3988L200.843 92.6145L198.629 90.3988Z" fill="white"/>
<path d="M170.787 90.3988L173.002 88.1831L175.216 90.3988L173.002 92.6145L170.787 90.3988Z" fill="white"/>
<path d="M142.945 90.3988L145.16 88.1831L147.375 90.3988L145.16 92.6145L142.945 90.3988Z" fill="white"/>
<path d="M115.104 90.3988L117.318 88.1831L119.533 90.3988L117.318 92.6145L115.104 90.3988Z" fill="white"/>
<path d="M87.2621 90.3988L89.4769 88.1831L91.6917 90.3988L89.4769 92.6145L87.2621 90.3988Z" fill="white"/>
<path d="M59.4204 90.3988L61.6351 88.1831L63.8499 90.3988L61.6351 92.6145L59.4204 90.3988Z" fill="white"/>
<path d="M560.57 118.252L562.785 116.037L565 118.252L562.785 120.468L560.57 118.252Z" fill="white"/>
<path d="M532.729 118.252L534.943 116.037L537.158 118.252L534.943 120.468L532.729 118.252Z" fill="white"/>
<path d="M504.887 118.252L507.102 116.037L509.317 118.252L507.102 120.468L504.887 118.252Z" fill="white"/>
<path d="M477.045 118.252L479.26 116.037L481.475 118.252L479.26 120.468L477.045 118.252Z" fill="white"/>
<path d="M449.204 118.252L451.418 116.037L453.633 118.252L451.418 120.468L449.204 118.252Z" fill="white"/>
<path d="M421.362 118.252L423.577 116.037L425.792 118.252L423.577 120.468L421.362 118.252Z" fill="white"/>
<path d="M393.52 118.252L395.735 116.037L397.95 118.252L395.735 120.468L393.52 118.252Z" fill="white"/>
<path d="M365.679 118.252L367.894 116.037L370.108 118.252L367.894 120.468L365.679 118.252Z" fill="white"/>
<path d="M337.837 118.252L340.052 116.037L342.267 118.252L340.052 120.468L337.837 118.252Z" fill="white"/>
<path d="M309.995 118.252L312.21 116.037L314.425 118.252L312.21 120.468L309.995 118.252Z" fill="white"/>
<path d="M282.154 118.252L284.369 116.037L286.583 118.252L284.369 120.468L282.154 118.252Z" fill="white"/>
<path d="M254.312 118.252L256.527 116.037L258.742 118.252L256.527 120.468L254.312 118.252Z" fill="white"/>
<path d="M226.47 118.252L228.685 116.037L230.9 118.252L228.685 120.468L226.47 118.252Z" fill="white"/>
<path d="M198.629 118.252L200.843 116.037L203.058 118.252L200.843 120.468L198.629 118.252Z" fill="white"/>
<path d="M170.787 118.252L173.002 116.037L175.216 118.252L173.002 120.468L170.787 118.252Z" fill="white"/>
<path d="M142.945 118.252L145.16 116.037L147.375 118.252L145.16 120.468L142.945 118.252Z" fill="white"/>
<path d="M115.104 118.252L117.318 116.037L119.533 118.252L117.318 120.468L115.104 118.252Z" fill="white"/>
<path d="M87.2621 118.252L89.4769 116.037L91.6917 118.252L89.4769 120.468L87.2621 118.252Z" fill="white"/>
<path d="M59.4204 118.252L61.6351 116.037L63.8499 118.252L61.6351 120.468L59.4204 118.252Z" fill="white"/>
<path d="M560.57 146.106L562.785 143.89L565 146.106L562.785 148.321L560.57 146.106Z" fill="white"/>
<path d="M532.729 146.106L534.943 143.89L537.158 146.106L534.943 148.321L532.729 146.106Z" fill="white"/>
<path d="M504.887 146.106L507.102 143.89L509.317 146.106L507.102 148.321L504.887 146.106Z" fill="white"/>
<path d="M477.045 146.106L479.26 143.89L481.475 146.106L479.26 148.321L477.045 146.106Z" fill="white"/>
<path d="M449.204 146.106L451.418 143.89L453.633 146.106L451.418 148.321L449.204 146.106Z" fill="white"/>
<path d="M421.362 146.106L423.577 143.89L425.792 146.106L423.577 148.321L421.362 146.106Z" fill="white"/>
<path d="M393.52 146.106L395.735 143.89L397.95 146.106L395.735 148.321L393.52 146.106Z" fill="white"/>
<path d="M365.679 146.106L367.894 143.89L370.108 146.106L367.894 148.321L365.679 146.106Z" fill="white"/>
<path d="M337.837 146.106L340.052 143.89L342.267 146.106L340.052 148.321L337.837 146.106Z" fill="white"/>
<path d="M309.995 146.106L312.21 143.89L314.425 146.106L312.21 148.321L309.995 146.106Z" fill="white"/>
<path d="M282.154 146.106L284.369 143.89L286.583 146.106L284.369 148.321L282.154 146.106Z" fill="white"/>
<path d="M254.312 146.106L256.527 143.89L258.742 146.106L256.527 148.321L254.312 146.106Z" fill="white"/>
<path d="M226.47 146.106L228.685 143.89L230.9 146.106L228.685 148.321L226.47 146.106Z" fill="white"/>
<path d="M198.629 146.106L200.843 143.89L203.058 146.106L200.843 148.321L198.629 146.106Z" fill="white"/>
<path d="M170.787 146.106L173.002 143.89L175.216 146.106L173.002 148.321L170.787 146.106Z" fill="white"/>
<path d="M142.945 146.106L145.16 143.89L147.375 146.106L145.16 148.321L142.945 146.106Z" fill="white"/>
<path d="M115.104 146.106L117.318 143.89L119.533 146.106L117.318 148.321L115.104 146.106Z" fill="white"/>
<path d="M87.2621 146.106L89.4769 143.89L91.6917 146.106L89.4769 148.321L87.2621 146.106Z" fill="white"/>
<path d="M59.4204 146.106L61.6351 143.89L63.8499 146.106L61.6351 148.321L59.4204 146.106Z" fill="white"/>
<path d="M560.57 173.959L562.785 171.743L565 173.959L562.785 176.174L560.57 173.959Z" fill="white"/>
<path d="M532.729 173.959L534.943 171.743L537.158 173.959L534.943 176.174L532.729 173.959Z" fill="white"/>
<path d="M504.887 173.959L507.102 171.743L509.317 173.959L507.102 176.174L504.887 173.959Z" fill="white"/>
<path d="M477.045 173.959L479.26 171.743L481.475 173.959L479.26 176.174L477.045 173.959Z" fill="white"/>
<path d="M449.204 173.959L451.418 171.743L453.633 173.959L451.418 176.174L449.204 173.959Z" fill="white"/>
<path d="M421.362 173.959L423.577 171.743L425.792 173.959L423.577 176.174L421.362 173.959Z" fill="white"/>
<path d="M393.52 173.959L395.735 171.743L397.95 173.959L395.735 176.174L393.52 173.959Z" fill="white"/>
<path d="M365.679 173.959L367.894 171.743L370.108 173.959L367.894 176.174L365.679 173.959Z" fill="white"/>
<path d="M337.837 173.959L340.052 171.743L342.267 173.959L340.052 176.174L337.837 173.959Z" fill="white"/>
<path d="M309.995 173.959L312.21 171.743L314.425 173.959L312.21 176.174L309.995 173.959Z" fill="white"/>
<path d="M282.154 173.959L284.369 171.743L286.583 173.959L284.369 176.174L282.154 173.959Z" fill="white"/>
<path d="M254.312 173.959L256.527 171.743L258.742 173.959L256.527 176.174L254.312 173.959Z" fill="white"/>
<path d="M226.47 173.959L228.685 171.743L230.9 173.959L228.685 176.174L226.47 173.959Z" fill="white"/>
<path d="M198.629 173.959L200.843 171.743L203.058 173.959L200.843 176.174L198.629 173.959Z" fill="white"/>
<path d="M170.787 173.959L173.002 171.743L175.216 173.959L173.002 176.174L170.787 173.959Z" fill="white"/>
<path d="M142.945 173.959L145.16 171.743L147.375 173.959L145.16 176.174L142.945 173.959Z" fill="white"/>
<path d="M115.104 173.959L117.318 171.743L119.533 173.959L117.318 176.174L115.104 173.959Z" fill="white"/>
<path d="M87.2621 173.959L89.4769 171.743L91.6917 173.959L89.4769 176.174L87.2621 173.959Z" fill="white"/>
<path d="M59.4204 173.959L61.6351 171.743L63.8499 173.959L61.6351 176.174L59.4204 173.959Z" fill="white"/>
<path d="M560.57 201.812L562.785 199.596L565 201.812L562.785 204.027L560.57 201.812Z" fill="white"/>
<path d="M532.729 201.812L534.943 199.596L537.158 201.812L534.943 204.027L532.729 201.812Z" fill="white"/>
<path d="M504.887 201.812L507.102 199.596L509.317 201.812L507.102 204.027L504.887 201.812Z" fill="white"/>
<path d="M477.045 201.812L479.26 199.596L481.475 201.812L479.26 204.027L477.045 201.812Z" fill="white"/>
<path d="M449.204 201.812L451.418 199.596L453.633 201.812L451.418 204.027L449.204 201.812Z" fill="white"/>
<path d="M421.362 201.812L423.577 199.596L425.792 201.812L423.577 204.027L421.362 201.812Z" fill="white"/>
<path d="M393.52 201.812L395.735 199.596L397.95 201.812L395.735 204.027L393.52 201.812Z" fill="white"/>
<path d="M365.679 201.812L367.894 199.596L370.108 201.812L367.894 204.027L365.679 201.812Z" fill="white"/>
<path d="M337.837 201.812L340.052 199.596L342.267 201.812L340.052 204.027L337.837 201.812Z" fill="white"/>
<path d="M309.995 201.812L312.21 199.596L314.425 201.812L312.21 204.027L309.995 201.812Z" fill="white"/>
<path d="M282.154 201.812L284.369 199.596L286.583 201.812L284.369 204.027L282.154 201.812Z" fill="white"/>
<path d="M254.312 201.812L256.527 199.596L258.742 201.812L256.527 204.027L254.312 201.812Z" fill="white"/>
<path d="M226.47 201.812L228.685 199.596L230.9 201.812L228.685 204.027L226.47 201.812Z" fill="white"/>
<path d="M198.629 201.812L200.843 199.596L203.058 201.812L200.843 204.027L198.629 201.812Z" fill="white"/>
<path d="M170.787 201.812L173.002 199.596L175.216 201.812L173.002 204.027L170.787 201.812Z" fill="white"/>
<path d="M142.945 201.812L145.16 199.596L147.375 201.812L145.16 204.027L142.945 201.812Z" fill="white"/>
<path d="M115.104 201.812L117.318 199.596L119.533 201.812L117.318 204.027L115.104 201.812Z" fill="white"/>
<path d="M87.2621 201.812L89.4769 199.596L91.6917 201.812L89.4769 204.027L87.2621 201.812Z" fill="white"/>
<path d="M59.4204 201.812L61.6351 199.596L63.8499 201.812L61.6351 204.027L59.4204 201.812Z" fill="white"/>
<path d="M560.57 229.665L562.785 227.45L565 229.665L562.785 231.881L560.57 229.665Z" fill="white"/>
<path d="M532.729 229.665L534.943 227.45L537.158 229.665L534.943 231.881L532.729 229.665Z" fill="white"/>
<path d="M504.887 229.665L507.102 227.45L509.317 229.665L507.102 231.881L504.887 229.665Z" fill="white"/>
<path d="M477.045 229.665L479.26 227.45L481.475 229.665L479.26 231.881L477.045 229.665Z" fill="white"/>
<path d="M449.204 229.665L451.418 227.45L453.633 229.665L451.418 231.881L449.204 229.665Z" fill="white"/>
<path d="M421.362 229.665L423.577 227.45L425.792 229.665L423.577 231.881L421.362 229.665Z" fill="white"/>
<path d="M393.52 229.665L395.735 227.45L397.95 229.665L395.735 231.881L393.52 229.665Z" fill="white"/>
<path d="M365.679 229.665L367.894 227.45L370.108 229.665L367.894 231.881L365.679 229.665Z" fill="white"/>
<path d="M337.837 229.665L340.052 227.45L342.267 229.665L340.052 231.881L337.837 229.665Z" fill="white"/>
<path d="M309.995 229.665L312.21 227.45L314.425 229.665L312.21 231.881L309.995 229.665Z" fill="white"/>
<path d="M282.154 229.665L284.369 227.45L286.583 229.665L284.369 231.881L282.154 229.665Z" fill="white"/>
<path d="M254.312 229.665L256.527 227.45L258.742 229.665L256.527 231.881L254.312 229.665Z" fill="white"/>
<path d="M226.47 229.665L228.685 227.45L230.9 229.665L228.685 231.881L226.47 229.665Z" fill="white"/>
<path d="M198.629 229.665L200.843 227.45L203.058 229.665L200.843 231.881L198.629 229.665Z" fill="white"/>
<path d="M170.787 229.665L173.002 227.45L175.216 229.665L173.002 231.881L170.787 229.665Z" fill="white"/>
<path d="M142.945 229.665L145.16 227.45L147.375 229.665L145.16 231.881L142.945 229.665Z" fill="white"/>
<path d="M115.104 229.665L117.318 227.45L119.533 229.665L117.318 231.881L115.104 229.665Z" fill="white"/>
<path d="M87.2621 229.665L89.4769 227.45L91.6917 229.665L89.4769 231.881L87.2621 229.665Z" fill="white"/>
<path d="M59.4204 229.665L61.6351 227.45L63.8499 229.665L61.6351 231.881L59.4204 229.665Z" fill="white"/>
<path d="M560.57 257.518L562.785 255.302L565 257.518L562.785 259.734L560.57 257.518Z" fill="white"/>
<path d="M532.729 257.518L534.943 255.302L537.158 257.518L534.943 259.734L532.729 257.518Z" fill="white"/>
<path d="M504.887 257.518L507.102 255.302L509.317 257.518L507.102 259.734L504.887 257.518Z" fill="white"/>
<path d="M477.045 257.518L479.26 255.302L481.475 257.518L479.26 259.734L477.045 257.518Z" fill="white"/>
<path d="M449.204 257.518L451.418 255.302L453.633 257.518L451.418 259.734L449.204 257.518Z" fill="white"/>
<path d="M421.362 257.518L423.577 255.302L425.792 257.518L423.577 259.734L421.362 257.518Z" fill="white"/>
<path d="M393.52 257.518L395.735 255.302L397.95 257.518L395.735 259.734L393.52 257.518Z" fill="white"/>
<path d="M365.679 257.518L367.894 255.302L370.108 257.518L367.894 259.734L365.679 257.518Z" fill="white"/>
<path d="M337.837 257.518L340.052 255.302L342.267 257.518L340.052 259.734L337.837 257.518Z" fill="white"/>
<path d="M309.995 257.518L312.21 255.302L314.425 257.518L312.21 259.734L309.995 257.518Z" fill="white"/>
<path d="M282.154 257.518L284.369 255.302L286.583 257.518L284.369 259.734L282.154 257.518Z" fill="white"/>
<path d="M254.312 257.518L256.527 255.302L258.742 257.518L256.527 259.734L254.312 257.518Z" fill="white"/>
<path d="M226.47 257.518L228.685 255.302L230.9 257.518L228.685 259.734L226.47 257.518Z" fill="white"/>
<path d="M198.629 257.518L200.843 255.302L203.058 257.518L200.843 259.734L198.629 257.518Z" fill="white"/>
<path d="M170.787 257.518L173.002 255.302L175.216 257.518L173.002 259.734L170.787 257.518Z" fill="white"/>
<path d="M142.945 257.518L145.16 255.302L147.375 257.518L145.16 259.734L142.945 257.518Z" fill="white"/>
<path d="M115.104 257.518L117.318 255.302L119.533 257.518L117.318 259.734L115.104 257.518Z" fill="white"/>
<path d="M87.2621 257.518L89.4769 255.302L91.6917 257.518L89.4769 259.734L87.2621 257.518Z" fill="white"/>
<path d="M59.4204 257.518L61.6351 255.302L63.8499 257.518L61.6351 259.734L59.4204 257.518Z" fill="white"/>
<path d="M560.57 285.371L562.785 283.155L565 285.371L562.785 287.587L560.57 285.371Z" fill="white"/>
<path d="M532.729 285.371L534.943 283.155L537.158 285.371L534.943 287.587L532.729 285.371Z" fill="white"/>
<path d="M504.887 285.371L507.102 283.155L509.317 285.371L507.102 287.587L504.887 285.371Z" fill="white"/>
<path d="M477.045 285.371L479.26 283.155L481.475 285.371L479.26 287.587L477.045 285.371Z" fill="white"/>
<path d="M449.204 285.371L451.418 283.155L453.633 285.371L451.418 287.587L449.204 285.371Z" fill="white"/>
<path d="M421.362 285.371L423.577 283.155L425.792 285.371L423.577 287.587L421.362 285.371Z" fill="white"/>
<path d="M393.52 285.371L395.735 283.155L397.95 285.371L395.735 287.587L393.52 285.371Z" fill="white"/>
<path d="M365.679 285.371L367.894 283.155L370.108 285.371L367.894 287.587L365.679 285.371Z" fill="white"/>
<path d="M337.837 285.371L340.052 283.155L342.267 285.371L340.052 287.587L337.837 285.371Z" fill="white"/>
<path d="M309.995 285.371L312.21 283.155L314.425 285.371L312.21 287.587L309.995 285.371Z" fill="white"/>
<path d="M282.154 285.371L284.369 283.155L286.583 285.371L284.369 287.587L282.154 285.371Z" fill="white"/>
<path d="M254.312 285.371L256.527 283.155L258.742 285.371L256.527 287.587L254.312 285.371Z" fill="white"/>
<path d="M226.47 285.371L228.685 283.155L230.9 285.371L228.685 287.587L226.47 285.371Z" fill="white"/>
<path d="M198.629 285.371L200.843 283.155L203.058 285.371L200.843 287.587L198.629 285.371Z" fill="white"/>
<path d="M170.787 285.371L173.002 283.155L175.216 285.371L173.002 287.587L170.787 285.371Z" fill="white"/>
<path d="M142.945 285.371L145.16 283.155L147.375 285.371L145.16 287.587L142.945 285.371Z" fill="white"/>
<path d="M115.104 285.371L117.318 283.155L119.533 285.371L117.318 287.587L115.104 285.371Z" fill="white"/>
<path d="M87.2621 285.371L89.4769 283.155L91.6917 285.371L89.4769 287.587L87.2621 285.371Z" fill="white"/>
<path d="M59.4204 285.371L61.6351 283.155L63.8499 285.371L61.6351 287.587L59.4204 285.371Z" fill="white"/>
<path d="M560.57 313.225L562.785 311.009L565 313.225L562.785 315.44L560.57 313.225Z" fill="white"/>
<path d="M532.729 313.225L534.943 311.009L537.158 313.225L534.943 315.44L532.729 313.225Z" fill="white"/>
<path d="M504.887 313.225L507.102 311.009L509.317 313.225L507.102 315.44L504.887 313.225Z" fill="white"/>
<path d="M477.045 313.225L479.26 311.009L481.475 313.225L479.26 315.44L477.045 313.225Z" fill="white"/>
<path d="M449.204 313.225L451.418 311.009L453.633 313.225L451.418 315.44L449.204 313.225Z" fill="white"/>
<path d="M421.362 313.225L423.577 311.009L425.792 313.225L423.577 315.44L421.362 313.225Z" fill="white"/>
<path d="M393.52 313.225L395.735 311.009L397.95 313.225L395.735 315.44L393.52 313.225Z" fill="white"/>
<path d="M365.679 313.225L367.894 311.009L370.108 313.225L367.894 315.44L365.679 313.225Z" fill="white"/>
<path d="M337.837 313.225L340.052 311.009L342.267 313.225L340.052 315.44L337.837 313.225Z" fill="white"/>
<path d="M309.995 313.225L312.21 311.009L314.425 313.225L312.21 315.44L309.995 313.225Z" fill="white"/>
<path d="M282.154 313.225L284.369 311.009L286.583 313.225L284.369 315.44L282.154 313.225Z" fill="white"/>
<path d="M254.312 313.225L256.527 311.009L258.742 313.225L256.527 315.44L254.312 313.225Z" fill="white"/>
<path d="M226.47 313.225L228.685 311.009L230.9 313.225L228.685 315.44L226.47 313.225Z" fill="white"/>
<path d="M198.629 313.225L200.843 311.009L203.058 313.225L200.843 315.44L198.629 313.225Z" fill="white"/>
<path d="M170.787 313.225L173.002 311.009L175.216 313.225L173.002 315.44L170.787 313.225Z" fill="white"/>
<path d="M142.945 313.225L145.16 311.009L147.375 313.225L145.16 315.44L142.945 313.225Z" fill="white"/>
<path d="M115.104 313.225L117.318 311.009L119.533 313.225L117.318 315.44L115.104 313.225Z" fill="white"/>
<path d="M87.2621 313.225L89.4769 311.009L91.6917 313.225L89.4769 315.44L87.2621 313.225Z" fill="white"/>
<path d="M59.4204 313.225L61.6351 311.009L63.8499 313.225L61.6351 315.44L59.4204 313.225Z" fill="white"/>
<path d="M560.57 341.078L562.785 338.862L565 341.078L562.785 343.293L560.57 341.078Z" fill="white"/>
<path d="M532.729 341.078L534.943 338.862L537.158 341.078L534.943 343.293L532.729 341.078Z" fill="white"/>
<path d="M504.887 341.078L507.102 338.862L509.317 341.078L507.102 343.293L504.887 341.078Z" fill="white"/>
<path d="M477.045 341.078L479.26 338.862L481.475 341.078L479.26 343.293L477.045 341.078Z" fill="white"/>
<path d="M449.204 341.078L451.418 338.862L453.633 341.078L451.418 343.293L449.204 341.078Z" fill="white"/>
<path d="M421.362 341.078L423.577 338.862L425.792 341.078L423.577 343.293L421.362 341.078Z" fill="white"/>
<path d="M393.52 341.078L395.735 338.862L397.95 341.078L395.735 343.293L393.52 341.078Z" fill="white"/>
<path d="M365.679 341.078L367.894 338.862L370.108 341.078L367.894 343.293L365.679 341.078Z" fill="white"/>
<path d="M337.837 341.078L340.052 338.862L342.267 341.078L340.052 343.293L337.837 341.078Z" fill="white"/>
<path d="M309.995 341.078L312.21 338.862L314.425 341.078L312.21 343.293L309.995 341.078Z" fill="white"/>
<path d="M282.154 341.078L284.369 338.862L286.583 341.078L284.369 343.293L282.154 341.078Z" fill="white"/>
<path d="M254.312 341.078L256.527 338.862L258.742 341.078L256.527 343.293L254.312 341.078Z" fill="white"/>
<path d="M226.47 341.078L228.685 338.862L230.9 341.078L228.685 343.293L226.47 341.078Z" fill="white"/>
<path d="M198.629 341.078L200.843 338.862L203.058 341.078L200.843 343.293L198.629 341.078Z" fill="white"/>
<path d="M170.787 341.078L173.002 338.862L175.216 341.078L173.002 343.293L170.787 341.078Z" fill="white"/>
<path d="M142.945 341.078L145.16 338.862L147.375 341.078L145.16 343.293L142.945 341.078Z" fill="white"/>
<path d="M115.104 341.078L117.318 338.862L119.533 341.078L117.318 343.293L115.104 341.078Z" fill="white"/>
<path d="M87.2621 341.078L89.4769 338.862L91.6917 341.078L89.4769 343.293L87.2621 341.078Z" fill="white"/>
<path d="M59.4204 341.078L61.6351 338.862L63.8499 341.078L61.6351 343.293L59.4204 341.078Z" fill="white"/>
<path d="M560.57 368.931L562.785 366.715L565 368.931L562.785 371.146L560.57 368.931Z" fill="white"/>
<path d="M532.729 368.931L534.943 366.715L537.158 368.931L534.943 371.146L532.729 368.931Z" fill="white"/>
<path d="M504.887 368.931L507.102 366.715L509.317 368.931L507.102 371.146L504.887 368.931Z" fill="white"/>
<path d="M477.045 368.931L479.26 366.715L481.475 368.931L479.26 371.146L477.045 368.931Z" fill="white"/>
<path d="M449.204 368.931L451.418 366.715L453.633 368.931L451.418 371.146L449.204 368.931Z" fill="white"/>
<path d="M421.362 368.931L423.577 366.715L425.792 368.931L423.577 371.146L421.362 368.931Z" fill="white"/>
<path d="M393.52 368.931L395.735 366.715L397.95 368.931L395.735 371.146L393.52 368.931Z" fill="white"/>
<path d="M365.679 368.931L367.894 366.715L370.108 368.931L367.894 371.146L365.679 368.931Z" fill="white"/>
<path d="M337.837 368.931L340.052 366.715L342.267 368.931L340.052 371.146L337.837 368.931Z" fill="white"/>
<path d="M309.995 368.931L312.21 366.715L314.425 368.931L312.21 371.146L309.995 368.931Z" fill="white"/>
<path d="M282.154 368.931L284.369 366.715L286.583 368.931L284.369 371.146L282.154 368.931Z" fill="white"/>
<path d="M254.312 368.931L256.527 366.715L258.742 368.931L256.527 371.146L254.312 368.931Z" fill="white"/>
<path d="M226.47 368.931L228.685 366.715L230.9 368.931L228.685 371.146L226.47 368.931Z" fill="white"/>
<path d="M198.629 368.931L200.843 366.715L203.058 368.931L200.843 371.146L198.629 368.931Z" fill="white"/>
<path d="M170.787 368.931L173.002 366.715L175.216 368.931L173.002 371.146L170.787 368.931Z" fill="white"/>
<path d="M142.945 368.931L145.16 366.715L147.375 368.931L145.16 371.146L142.945 368.931Z" fill="white"/>
<path d="M115.104 368.931L117.318 366.715L119.533 368.931L117.318 371.146L115.104 368.931Z" fill="white"/>
<path d="M87.2621 368.931L89.4769 366.715L91.6917 368.931L89.4769 371.146L87.2621 368.931Z" fill="white"/>
<path d="M59.4204 368.931L61.6351 366.715L63.8499 368.931L61.6351 371.146L59.4204 368.931Z" fill="white"/>
<path d="M560.57 396.784L562.785 394.569L565 396.784L562.785 399L560.57 396.784Z" fill="white"/>
<path d="M532.729 396.784L534.943 394.569L537.158 396.784L534.943 399L532.729 396.784Z" fill="white"/>
<path d="M504.887 396.784L507.102 394.569L509.317 396.784L507.102 399L504.887 396.784Z" fill="white"/>
<path d="M477.045 396.784L479.26 394.569L481.475 396.784L479.26 399L477.045 396.784Z" fill="white"/>
<path d="M449.204 396.784L451.418 394.569L453.633 396.784L451.418 399L449.204 396.784Z" fill="white"/>
<path d="M421.362 396.784L423.577 394.569L425.792 396.784L423.577 399L421.362 396.784Z" fill="white"/>
<path d="M393.52 396.784L395.735 394.569L397.95 396.784L395.735 399L393.52 396.784Z" fill="white"/>
<path d="M365.679 396.784L367.894 394.569L370.108 396.784L367.894 399L365.679 396.784Z" fill="white"/>
<path d="M337.837 396.784L340.052 394.569L342.267 396.784L340.052 399L337.837 396.784Z" fill="white"/>
<path d="M309.995 396.784L312.21 394.569L314.425 396.784L312.21 399L309.995 396.784Z" fill="white"/>
<path d="M282.154 396.784L284.369 394.569L286.583 396.784L284.369 399L282.154 396.784Z" fill="white"/>
<path d="M254.312 396.784L256.527 394.569L258.742 396.784L256.527 399L254.312 396.784Z" fill="white"/>
<path d="M226.47 396.784L228.685 394.569L230.9 396.784L228.685 399L226.47 396.784Z" fill="white"/>
<path d="M198.629 396.784L200.843 394.569L203.058 396.784L200.843 399L198.629 396.784Z" fill="white"/>
<path d="M170.787 396.784L173.002 394.569L175.216 396.784L173.002 399L170.787 396.784Z" fill="white"/>
<path d="M142.945 396.784L145.16 394.569L147.375 396.784L145.16 399L142.945 396.784Z" fill="white"/>
<path d="M115.104 396.784L117.318 394.569L119.533 396.784L117.318 399L115.104 396.784Z" fill="white"/>
<path d="M87.2621 396.784L89.4769 394.569L91.6917 396.784L89.4769 399L87.2621 396.784Z" fill="white"/>
<path d="M59.4204 396.784L61.6351 394.569L63.8499 396.784L61.6351 399L59.4204 396.784Z" fill="white"/>
<path d="M282.15 -104.573L284.365 -106.789L286.58 -104.573L284.365 -102.358L282.15 -104.573Z" fill="white"/>
<path d="M254.308 -104.573L256.523 -106.789L258.738 -104.573L256.523 -102.358L254.308 -104.573Z" fill="white"/>
<path d="M226.467 -104.573L228.681 -106.789L230.896 -104.573L228.681 -102.358L226.467 -104.573Z" fill="white"/>
<path d="M198.625 -104.573L200.84 -106.789L203.055 -104.573L200.84 -102.358L198.625 -104.573Z" fill="white"/>
<path d="M170.783 -104.573L172.998 -106.789L175.213 -104.573L172.998 -102.358L170.783 -104.573Z" fill="white"/>
<path d="M142.942 -104.573L145.156 -106.789L147.371 -104.573L145.156 -102.358L142.942 -104.573Z" fill="white"/>
<path d="M115.1 -104.573L117.315 -106.789L119.529 -104.573L117.315 -102.358L115.1 -104.573Z" fill="white"/>
<path d="M87.2584 -104.573L89.4732 -106.789L91.688 -104.573L89.4732 -102.358L87.2584 -104.573Z" fill="white"/>
<path d="M59.4167 -104.573L61.6314 -106.789L63.8462 -104.573L61.6314 -102.358L59.4167 -104.573Z" fill="white"/>
<path d="M31.5748 -104.573L33.7896 -106.789L36.0043 -104.573L33.7896 -102.358L31.5748 -104.573Z" fill="white"/>
<path d="M3.73334 -104.573L5.94806 -106.789L8.1629 -104.573L5.94806 -102.358L3.73334 -104.573Z" fill="white"/>
<path d="M-24.1085 -104.573L-21.8937 -106.789L-19.679 -104.573L-21.8937 -102.358L-24.1085 -104.573Z" fill="white"/>
<path d="M-51.9503 -104.573L-49.7355 -106.789L-47.5207 -104.573L-49.7355 -102.358L-51.9503 -104.573Z" fill="white"/>
<path d="M-79.7917 -104.573L-77.577 -106.789L-75.3622 -104.573L-77.577 -102.358L-79.7917 -104.573Z" fill="white"/>
<path d="M-107.634 -104.573L-105.419 -106.789L-103.204 -104.573L-105.419 -102.358L-107.634 -104.573Z" fill="white"/>
<path d="M-135.475 -104.573L-133.26 -106.789L-131.045 -104.573L-133.26 -102.358L-135.475 -104.573Z" fill="white"/>
<path d="M-163.317 -104.573L-161.102 -106.789L-158.887 -104.573L-161.102 -102.358L-163.317 -104.573Z" fill="white"/>
<path d="M-191.158 -104.573L-188.943 -106.789L-186.729 -104.573L-188.943 -102.358L-191.158 -104.573Z" fill="white"/>
<path d="M-219 -104.573L-216.785 -106.789L-214.57 -104.573L-216.785 -102.358L-219 -104.573Z" fill="white"/>
<path d="M282.15 -76.72L284.365 -78.9357L286.58 -76.72L284.365 -74.5042L282.15 -76.72Z" fill="white"/>
<path d="M254.308 -76.72L256.523 -78.9357L258.738 -76.72L256.523 -74.5042L254.308 -76.72Z" fill="white"/>
<path d="M226.467 -76.72L228.681 -78.9357L230.896 -76.72L228.681 -74.5042L226.467 -76.72Z" fill="white"/>
<path d="M198.625 -76.72L200.84 -78.9357L203.055 -76.72L200.84 -74.5042L198.625 -76.72Z" fill="white"/>
<path d="M170.783 -76.72L172.998 -78.9357L175.213 -76.72L172.998 -74.5042L170.783 -76.72Z" fill="white"/>
<path d="M142.942 -76.72L145.156 -78.9357L147.371 -76.72L145.156 -74.5042L142.942 -76.72Z" fill="white"/>
<path d="M115.1 -76.72L117.315 -78.9357L119.529 -76.72L117.315 -74.5042L115.1 -76.72Z" fill="white"/>
<path d="M87.2584 -76.72L89.4732 -78.9357L91.688 -76.72L89.4732 -74.5042L87.2584 -76.72Z" fill="white"/>
<path d="M59.4167 -76.72L61.6314 -78.9357L63.8462 -76.72L61.6314 -74.5042L59.4167 -76.72Z" fill="white"/>
<path d="M31.5748 -76.72L33.7896 -78.9357L36.0043 -76.72L33.7896 -74.5042L31.5748 -76.72Z" fill="white"/>
<path d="M3.73334 -76.72L5.94806 -78.9357L8.1629 -76.72L5.94806 -74.5042L3.73334 -76.72Z" fill="white"/>
<path d="M-24.1085 -76.72L-21.8937 -78.9357L-19.679 -76.72L-21.8937 -74.5042L-24.1085 -76.72Z" fill="white"/>
<path d="M-51.9503 -76.72L-49.7355 -78.9357L-47.5207 -76.72L-49.7355 -74.5042L-51.9503 -76.72Z" fill="white"/>
<path d="M-79.7917 -76.72L-77.577 -78.9357L-75.3622 -76.72L-77.577 -74.5042L-79.7917 -76.72Z" fill="white"/>
<path d="M-107.634 -76.72L-105.419 -78.9357L-103.204 -76.72L-105.419 -74.5042L-107.634 -76.72Z" fill="white"/>
<path d="M-135.475 -76.72L-133.26 -78.9357L-131.045 -76.72L-133.26 -74.5042L-135.475 -76.72Z" fill="white"/>
<path d="M-163.317 -76.72L-161.102 -78.9357L-158.887 -76.72L-161.102 -74.5042L-163.317 -76.72Z" fill="white"/>
<path d="M-191.158 -76.72L-188.943 -78.9357L-186.729 -76.72L-188.943 -74.5042L-191.158 -76.72Z" fill="white"/>
<path d="M-219 -76.72L-216.785 -78.9357L-214.57 -76.72L-216.785 -74.5042L-219 -76.72Z" fill="white"/>
<path d="M282.15 -48.8667L284.365 -51.0824L286.58 -48.8667L284.365 -46.651L282.15 -48.8667Z" fill="white"/>
<path d="M254.308 -48.8667L256.523 -51.0824L258.738 -48.8667L256.523 -46.651L254.308 -48.8667Z" fill="white"/>
<path d="M226.467 -48.8667L228.681 -51.0824L230.896 -48.8667L228.681 -46.651L226.467 -48.8667Z" fill="white"/>
<path d="M198.625 -48.8667L200.84 -51.0824L203.055 -48.8667L200.84 -46.651L198.625 -48.8667Z" fill="white"/>
<path d="M170.783 -48.8667L172.998 -51.0824L175.213 -48.8667L172.998 -46.651L170.783 -48.8667Z" fill="white"/>
<path d="M142.942 -48.8667L145.156 -51.0824L147.371 -48.8667L145.156 -46.651L142.942 -48.8667Z" fill="white"/>
<path d="M115.1 -48.8667L117.315 -51.0824L119.529 -48.8667L117.315 -46.651L115.1 -48.8667Z" fill="white"/>
<path d="M87.2584 -48.8667L89.4732 -51.0824L91.688 -48.8667L89.4732 -46.651L87.2584 -48.8667Z" fill="white"/>
<path d="M59.4167 -48.8667L61.6314 -51.0824L63.8462 -48.8667L61.6314 -46.651L59.4167 -48.8667Z" fill="white"/>
<path d="M31.5748 -48.8667L33.7896 -51.0824L36.0043 -48.8667L33.7896 -46.651L31.5748 -48.8667Z" fill="white"/>
<path d="M3.73334 -48.8667L5.94806 -51.0824L8.1629 -48.8667L5.94806 -46.651L3.73334 -48.8667Z" fill="white"/>
<path d="M-24.1085 -48.8667L-21.8937 -51.0824L-19.679 -48.8667L-21.8937 -46.651L-24.1085 -48.8667Z" fill="white"/>
<path d="M-51.9503 -48.8667L-49.7355 -51.0824L-47.5207 -48.8667L-49.7355 -46.651L-51.9503 -48.8667Z" fill="white"/>
<path d="M-79.7917 -48.8667L-77.577 -51.0824L-75.3622 -48.8667L-77.577 -46.651L-79.7917 -48.8667Z" fill="white"/>
<path d="M-107.634 -48.8667L-105.419 -51.0824L-103.204 -48.8667L-105.419 -46.651L-107.634 -48.8667Z" fill="white"/>
<path d="M-135.475 -48.8667L-133.26 -51.0824L-131.045 -48.8667L-133.26 -46.651L-135.475 -48.8667Z" fill="white"/>
<path d="M-163.317 -48.8667L-161.102 -51.0824L-158.887 -48.8667L-161.102 -46.651L-163.317 -48.8667Z" fill="white"/>
<path d="M-191.158 -48.8667L-188.943 -51.0824L-186.729 -48.8667L-188.943 -46.651L-191.158 -48.8667Z" fill="white"/>
<path d="M-219 -48.8667L-216.785 -51.0824L-214.57 -48.8667L-216.785 -46.651L-219 -48.8667Z" fill="white"/>
<path d="M282.15 -21.0134L284.365 -23.2291L286.58 -21.0134L284.365 -18.7977L282.15 -21.0134Z" fill="white"/>
<path d="M254.308 -21.0134L256.523 -23.2291L258.738 -21.0134L256.523 -18.7977L254.308 -21.0134Z" fill="white"/>
<path d="M226.467 -21.0134L228.681 -23.2291L230.896 -21.0134L228.681 -18.7977L226.467 -21.0134Z" fill="white"/>
<path d="M198.625 -21.0134L200.84 -23.2291L203.055 -21.0134L200.84 -18.7977L198.625 -21.0134Z" fill="white"/>
<path d="M170.783 -21.0134L172.998 -23.2291L175.213 -21.0134L172.998 -18.7977L170.783 -21.0134Z" fill="white"/>
<path d="M142.942 -21.0134L145.156 -23.2291L147.371 -21.0134L145.156 -18.7977L142.942 -21.0134Z" fill="white"/>
<path d="M115.1 -21.0134L117.315 -23.2291L119.529 -21.0134L117.315 -18.7977L115.1 -21.0134Z" fill="white"/>
<path d="M87.2584 -21.0134L89.4732 -23.2291L91.688 -21.0134L89.4732 -18.7977L87.2584 -21.0134Z" fill="white"/>
<path d="M59.4167 -21.0134L61.6314 -23.2291L63.8462 -21.0134L61.6314 -18.7977L59.4167 -21.0134Z" fill="white"/>
<path d="M31.5748 -21.0134L33.7896 -23.2291L36.0043 -21.0134L33.7896 -18.7977L31.5748 -21.0134Z" fill="white"/>
<path d="M3.73334 -21.0134L5.94806 -23.2291L8.1629 -21.0134L5.94806 -18.7977L3.73334 -21.0134Z" fill="white"/>
<path d="M-24.1085 -21.0134L-21.8937 -23.2291L-19.679 -21.0134L-21.8937 -18.7977L-24.1085 -21.0134Z" fill="white"/>
<path d="M-51.9503 -21.0134L-49.7355 -23.2291L-47.5207 -21.0134L-49.7355 -18.7977L-51.9503 -21.0134Z" fill="white"/>
<path d="M-79.7917 -21.0134L-77.577 -23.2291L-75.3622 -21.0134L-77.577 -18.7977L-79.7917 -21.0134Z" fill="white"/>
<path d="M-107.634 -21.0134L-105.419 -23.2291L-103.204 -21.0134L-105.419 -18.7977L-107.634 -21.0134Z" fill="white"/>
<path d="M-135.475 -21.0134L-133.26 -23.2291L-131.045 -21.0134L-133.26 -18.7977L-135.475 -21.0134Z" fill="white"/>
<path d="M-163.317 -21.0134L-161.102 -23.2291L-158.887 -21.0134L-161.102 -18.7977L-163.317 -21.0134Z" fill="white"/>
<path d="M-191.158 -21.0134L-188.943 -23.2291L-186.729 -21.0134L-188.943 -18.7977L-191.158 -21.0134Z" fill="white"/>
<path d="M-219 -21.0134L-216.785 -23.2291L-214.57 -21.0134L-216.785 -18.7977L-219 -21.0134Z" fill="white"/>
<path d="M282.15 6.83958L284.365 4.62388L286.58 6.83958L284.365 9.0553L282.15 6.83958Z" fill="white"/>
<path d="M254.308 6.83958L256.523 4.62388L258.738 6.83958L256.523 9.0553L254.308 6.83958Z" fill="white"/>
<path d="M226.467 6.83958L228.681 4.62388L230.896 6.83958L228.681 9.0553L226.467 6.83958Z" fill="white"/>
<path d="M198.625 6.83958L200.84 4.62388L203.055 6.83958L200.84 9.0553L198.625 6.83958Z" fill="white"/>
<path d="M170.783 6.83958L172.998 4.62388L175.213 6.83958L172.998 9.0553L170.783 6.83958Z" fill="white"/>
<path d="M142.942 6.83958L145.156 4.62388L147.371 6.83958L145.156 9.0553L142.942 6.83958Z" fill="white"/>
<path d="M115.1 6.83958L117.315 4.62388L119.529 6.83958L117.315 9.0553L115.1 6.83958Z" fill="white"/>
<path d="M87.2584 6.83958L89.4732 4.62388L91.688 6.83958L89.4732 9.0553L87.2584 6.83958Z" fill="white"/>
<path d="M59.4167 6.83958L61.6314 4.62388L63.8462 6.83958L61.6314 9.0553L59.4167 6.83958Z" fill="white"/>
<path d="M31.5748 6.83958L33.7896 4.62388L36.0043 6.83958L33.7896 9.0553L31.5748 6.83958Z" fill="white"/>
<path d="M3.73334 6.83958L5.94806 4.62388L8.1629 6.83958L5.94806 9.0553L3.73334 6.83958Z" fill="white"/>
<path d="M-24.1085 6.83958L-21.8937 4.62388L-19.679 6.83958L-21.8937 9.0553L-24.1085 6.83958Z" fill="white"/>
<path d="M-51.9503 6.83958L-49.7355 4.62388L-47.5207 6.83958L-49.7355 9.0553L-51.9503 6.83958Z" fill="white"/>
<path d="M-79.7917 6.83958L-77.577 4.62388L-75.3622 6.83958L-77.577 9.0553L-79.7917 6.83958Z" fill="white"/>
<path d="M-107.634 6.83958L-105.419 4.62388L-103.204 6.83958L-105.419 9.0553L-107.634 6.83958Z" fill="white"/>
<path d="M-135.475 6.83958L-133.26 4.62388L-131.045 6.83958L-133.26 9.0553L-135.475 6.83958Z" fill="white"/>
<path d="M-163.317 6.83958L-161.102 4.62388L-158.887 6.83958L-161.102 9.0553L-163.317 6.83958Z" fill="white"/>
<path d="M-191.158 6.83958L-188.943 4.62388L-186.729 6.83958L-188.943 9.0553L-191.158 6.83958Z" fill="white"/>
<path d="M-219 6.83958L-216.785 4.62388L-214.57 6.83958L-216.785 9.0553L-219 6.83958Z" fill="white"/>
<path d="M282.15 34.6929L284.365 32.4772L286.58 34.6929L284.365 36.9086L282.15 34.6929Z" fill="white"/>
<path d="M254.308 34.6929L256.523 32.4772L258.738 34.6929L256.523 36.9086L254.308 34.6929Z" fill="white"/>
<path d="M226.467 34.6929L228.681 32.4772L230.896 34.6929L228.681 36.9086L226.467 34.6929Z" fill="white"/>
<path d="M198.625 34.6929L200.84 32.4772L203.055 34.6929L200.84 36.9086L198.625 34.6929Z" fill="white"/>
<path d="M170.783 34.6929L172.998 32.4772L175.213 34.6929L172.998 36.9086L170.783 34.6929Z" fill="white"/>
<path d="M142.942 34.6929L145.156 32.4772L147.371 34.6929L145.156 36.9086L142.942 34.6929Z" fill="white"/>
<path d="M115.1 34.6929L117.315 32.4772L119.529 34.6929L117.315 36.9086L115.1 34.6929Z" fill="white"/>
<path d="M87.2584 34.6929L89.4732 32.4772L91.688 34.6929L89.4732 36.9086L87.2584 34.6929Z" fill="white"/>
<path d="M59.4167 34.6929L61.6314 32.4772L63.8462 34.6929L61.6314 36.9086L59.4167 34.6929Z" fill="white"/>
<path d="M31.5748 34.6929L33.7896 32.4772L36.0043 34.6929L33.7896 36.9086L31.5748 34.6929Z" fill="white"/>
<path d="M3.73334 34.6929L5.94806 32.4772L8.1629 34.6929L5.94806 36.9086L3.73334 34.6929Z" fill="white"/>
<path d="M-24.1085 34.6929L-21.8937 32.4772L-19.679 34.6929L-21.8937 36.9086L-24.1085 34.6929Z" fill="white"/>
<path d="M-51.9503 34.6929L-49.7355 32.4772L-47.5207 34.6929L-49.7355 36.9086L-51.9503 34.6929Z" fill="white"/>
<path d="M-79.7917 34.6929L-77.577 32.4772L-75.3622 34.6929L-77.577 36.9086L-79.7917 34.6929Z" fill="white"/>
<path d="M-107.634 34.6929L-105.419 32.4772L-103.204 34.6929L-105.419 36.9086L-107.634 34.6929Z" fill="white"/>
<path d="M-135.475 34.6929L-133.26 32.4772L-131.045 34.6929L-133.26 36.9086L-135.475 34.6929Z" fill="white"/>
<path d="M-163.317 34.6929L-161.102 32.4772L-158.887 34.6929L-161.102 36.9086L-163.317 34.6929Z" fill="white"/>
<path d="M-191.158 34.6929L-188.943 32.4772L-186.729 34.6929L-188.943 36.9086L-191.158 34.6929Z" fill="white"/>
<path d="M-219 34.6929L-216.785 32.4772L-214.57 34.6929L-216.785 36.9086L-219 34.6929Z" fill="white"/>
<path d="M282.15 62.5462L284.365 60.3304L286.58 62.5462L284.365 64.7619L282.15 62.5462Z" fill="white"/>
<path d="M254.308 62.5462L256.523 60.3304L258.738 62.5462L256.523 64.7619L254.308 62.5462Z" fill="white"/>
<path d="M226.467 62.5462L228.681 60.3304L230.896 62.5462L228.681 64.7619L226.467 62.5462Z" fill="white"/>
<path d="M198.625 62.5462L200.84 60.3304L203.055 62.5462L200.84 64.7619L198.625 62.5462Z" fill="white"/>
<path d="M170.783 62.5462L172.998 60.3304L175.213 62.5462L172.998 64.7619L170.783 62.5462Z" fill="white"/>
<path d="M142.942 62.5462L145.156 60.3304L147.371 62.5462L145.156 64.7619L142.942 62.5462Z" fill="white"/>
<path d="M115.1 62.5462L117.315 60.3304L119.529 62.5462L117.315 64.7619L115.1 62.5462Z" fill="white"/>
<path d="M87.2584 62.5462L89.4732 60.3304L91.688 62.5462L89.4732 64.7619L87.2584 62.5462Z" fill="white"/>
<path d="M59.4167 62.5462L61.6314 60.3304L63.8462 62.5462L61.6314 64.7619L59.4167 62.5462Z" fill="white"/>
<path d="M31.5748 62.5462L33.7896 60.3304L36.0043 62.5462L33.7896 64.7619L31.5748 62.5462Z" fill="white"/>
<path d="M3.73334 62.5462L5.94806 60.3304L8.1629 62.5462L5.94806 64.7619L3.73334 62.5462Z" fill="white"/>
<path d="M-24.1085 62.5462L-21.8937 60.3304L-19.679 62.5462L-21.8937 64.7619L-24.1085 62.5462Z" fill="white"/>
<path d="M-51.9503 62.5462L-49.7355 60.3304L-47.5207 62.5462L-49.7355 64.7619L-51.9503 62.5462Z" fill="white"/>
<path d="M-79.7917 62.5462L-77.577 60.3304L-75.3622 62.5462L-77.577 64.7619L-79.7917 62.5462Z" fill="white"/>
<path d="M-107.634 62.5462L-105.419 60.3304L-103.204 62.5462L-105.419 64.7619L-107.634 62.5462Z" fill="white"/>
<path d="M-135.475 62.5462L-133.26 60.3304L-131.045 62.5462L-133.26 64.7619L-135.475 62.5462Z" fill="white"/>
<path d="M-163.317 62.5462L-161.102 60.3304L-158.887 62.5462L-161.102 64.7619L-163.317 62.5462Z" fill="white"/>
<path d="M-191.158 62.5462L-188.943 60.3304L-186.729 62.5462L-188.943 64.7619L-191.158 62.5462Z" fill="white"/>
<path d="M-219 62.5462L-216.785 60.3304L-214.57 62.5462L-216.785 64.7619L-219 62.5462Z" fill="white"/>
<path d="M282.15 90.3988L284.365 88.1831L286.58 90.3988L284.365 92.6145L282.15 90.3988Z" fill="white"/>
<path d="M254.308 90.3988L256.523 88.1831L258.738 90.3988L256.523 92.6145L254.308 90.3988Z" fill="white"/>
<path d="M226.467 90.3988L228.681 88.1831L230.896 90.3988L228.681 92.6145L226.467 90.3988Z" fill="white"/>
<path d="M198.625 90.3988L200.84 88.1831L203.055 90.3988L200.84 92.6145L198.625 90.3988Z" fill="white"/>
<path d="M170.783 90.3988L172.998 88.1831L175.213 90.3988L172.998 92.6145L170.783 90.3988Z" fill="white"/>
<path d="M142.942 90.3988L145.156 88.1831L147.371 90.3988L145.156 92.6145L142.942 90.3988Z" fill="white"/>
<path d="M115.1 90.3988L117.315 88.1831L119.529 90.3988L117.315 92.6145L115.1 90.3988Z" fill="white"/>
<path d="M87.2584 90.3988L89.4732 88.1831L91.688 90.3988L89.4732 92.6145L87.2584 90.3988Z" fill="white"/>
<path d="M59.4167 90.3988L61.6314 88.1831L63.8462 90.3988L61.6314 92.6145L59.4167 90.3988Z" fill="white"/>
<path d="M31.5748 90.3988L33.7896 88.1831L36.0043 90.3988L33.7896 92.6145L31.5748 90.3988Z" fill="white"/>
<path d="M3.73334 90.3988L5.94806 88.1831L8.1629 90.3988L5.94806 92.6145L3.73334 90.3988Z" fill="white"/>
<path d="M-24.1085 90.3988L-21.8937 88.1831L-19.679 90.3988L-21.8937 92.6145L-24.1085 90.3988Z" fill="white"/>
<path d="M-51.9503 90.3988L-49.7355 88.1831L-47.5207 90.3988L-49.7355 92.6145L-51.9503 90.3988Z" fill="white"/>
<path d="M-79.7917 90.3988L-77.577 88.1831L-75.3622 90.3988L-77.577 92.6145L-79.7917 90.3988Z" fill="white"/>
<path d="M-107.634 90.3988L-105.419 88.1831L-103.204 90.3988L-105.419 92.6145L-107.634 90.3988Z" fill="white"/>
<path d="M-135.475 90.3988L-133.26 88.1831L-131.045 90.3988L-133.26 92.6145L-135.475 90.3988Z" fill="white"/>
<path d="M-163.317 90.3988L-161.102 88.1831L-158.887 90.3988L-161.102 92.6145L-163.317 90.3988Z" fill="white"/>
<path d="M-191.158 90.3988L-188.943 88.1831L-186.729 90.3988L-188.943 92.6145L-191.158 90.3988Z" fill="white"/>
<path d="M-219 90.3988L-216.785 88.1831L-214.57 90.3988L-216.785 92.6145L-219 90.3988Z" fill="white"/>
<path d="M282.15 118.252L284.365 116.037L286.58 118.252L284.365 120.468L282.15 118.252Z" fill="white"/>
<path d="M254.308 118.252L256.523 116.037L258.738 118.252L256.523 120.468L254.308 118.252Z" fill="white"/>
<path d="M226.467 118.252L228.681 116.037L230.896 118.252L228.681 120.468L226.467 118.252Z" fill="white"/>
<path d="M198.625 118.252L200.84 116.037L203.055 118.252L200.84 120.468L198.625 118.252Z" fill="white"/>
<path d="M170.783 118.252L172.998 116.037L175.213 118.252L172.998 120.468L170.783 118.252Z" fill="white"/>
<path d="M142.942 118.252L145.156 116.037L147.371 118.252L145.156 120.468L142.942 118.252Z" fill="white"/>
<path d="M115.1 118.252L117.315 116.037L119.529 118.252L117.315 120.468L115.1 118.252Z" fill="white"/>
<path d="M87.2584 118.252L89.4732 116.037L91.688 118.252L89.4732 120.468L87.2584 118.252Z" fill="white"/>
<path d="M59.4167 118.252L61.6314 116.037L63.8462 118.252L61.6314 120.468L59.4167 118.252Z" fill="white"/>
<path d="M31.5748 118.252L33.7896 116.037L36.0043 118.252L33.7896 120.468L31.5748 118.252Z" fill="white"/>
<path d="M3.73334 118.252L5.94806 116.037L8.1629 118.252L5.94806 120.468L3.73334 118.252Z" fill="white"/>
<path d="M-24.1085 118.252L-21.8937 116.037L-19.679 118.252L-21.8937 120.468L-24.1085 118.252Z" fill="white"/>
<path d="M-51.9503 118.252L-49.7355 116.037L-47.5207 118.252L-49.7355 120.468L-51.9503 118.252Z" fill="white"/>
<path d="M-79.7917 118.252L-77.577 116.037L-75.3622 118.252L-77.577 120.468L-79.7917 118.252Z" fill="white"/>
<path d="M-107.634 118.252L-105.419 116.037L-103.204 118.252L-105.419 120.468L-107.634 118.252Z" fill="white"/>
<path d="M-135.475 118.252L-133.26 116.037L-131.045 118.252L-133.26 120.468L-135.475 118.252Z" fill="white"/>
<path d="M-163.317 118.252L-161.102 116.037L-158.887 118.252L-161.102 120.468L-163.317 118.252Z" fill="white"/>
<path d="M-191.158 118.252L-188.943 116.037L-186.729 118.252L-188.943 120.468L-191.158 118.252Z" fill="white"/>
<path d="M-219 118.252L-216.785 116.037L-214.57 118.252L-216.785 120.468L-219 118.252Z" fill="white"/>
<path d="M282.15 146.106L284.365 143.89L286.58 146.106L284.365 148.321L282.15 146.106Z" fill="white"/>
<path d="M254.308 146.106L256.523 143.89L258.738 146.106L256.523 148.321L254.308 146.106Z" fill="white"/>
<path d="M226.467 146.106L228.681 143.89L230.896 146.106L228.681 148.321L226.467 146.106Z" fill="white"/>
<path d="M198.625 146.106L200.84 143.89L203.055 146.106L200.84 148.321L198.625 146.106Z" fill="white"/>
<path d="M170.783 146.106L172.998 143.89L175.213 146.106L172.998 148.321L170.783 146.106Z" fill="white"/>
<path d="M142.942 146.106L145.156 143.89L147.371 146.106L145.156 148.321L142.942 146.106Z" fill="white"/>
<path d="M115.1 146.106L117.315 143.89L119.529 146.106L117.315 148.321L115.1 146.106Z" fill="white"/>
<path d="M87.2584 146.106L89.4732 143.89L91.688 146.106L89.4732 148.321L87.2584 146.106Z" fill="white"/>
<path d="M59.4167 146.106L61.6314 143.89L63.8462 146.106L61.6314 148.321L59.4167 146.106Z" fill="white"/>
<path d="M31.5748 146.106L33.7896 143.89L36.0043 146.106L33.7896 148.321L31.5748 146.106Z" fill="white"/>
<path d="M3.73334 146.106L5.94806 143.89L8.1629 146.106L5.94806 148.321L3.73334 146.106Z" fill="white"/>
<path d="M-24.1085 146.106L-21.8937 143.89L-19.679 146.106L-21.8937 148.321L-24.1085 146.106Z" fill="white"/>
<path d="M-51.9503 146.106L-49.7355 143.89L-47.5207 146.106L-49.7355 148.321L-51.9503 146.106Z" fill="white"/>
<path d="M-79.7917 146.106L-77.577 143.89L-75.3622 146.106L-77.577 148.321L-79.7917 146.106Z" fill="white"/>
<path d="M-107.634 146.106L-105.419 143.89L-103.204 146.106L-105.419 148.321L-107.634 146.106Z" fill="white"/>
<path d="M-135.475 146.106L-133.26 143.89L-131.045 146.106L-133.26 148.321L-135.475 146.106Z" fill="white"/>
<path d="M-163.317 146.106L-161.102 143.89L-158.887 146.106L-161.102 148.321L-163.317 146.106Z" fill="white"/>
<path d="M-191.158 146.106L-188.943 143.89L-186.729 146.106L-188.943 148.321L-191.158 146.106Z" fill="white"/>
<path d="M-219 146.106L-216.785 143.89L-214.57 146.106L-216.785 148.321L-219 146.106Z" fill="white"/>
<path d="M282.15 173.959L284.365 171.743L286.58 173.959L284.365 176.174L282.15 173.959Z" fill="white"/>
<path d="M254.308 173.959L256.523 171.743L258.738 173.959L256.523 176.174L254.308 173.959Z" fill="white"/>
<path d="M226.467 173.959L228.681 171.743L230.896 173.959L228.681 176.174L226.467 173.959Z" fill="white"/>
<path d="M198.625 173.959L200.84 171.743L203.055 173.959L200.84 176.174L198.625 173.959Z" fill="white"/>
<path d="M170.783 173.959L172.998 171.743L175.213 173.959L172.998 176.174L170.783 173.959Z" fill="white"/>
<path d="M142.942 173.959L145.156 171.743L147.371 173.959L145.156 176.174L142.942 173.959Z" fill="white"/>
<path d="M115.1 173.959L117.315 171.743L119.529 173.959L117.315 176.174L115.1 173.959Z" fill="white"/>
<path d="M87.2584 173.959L89.4732 171.743L91.688 173.959L89.4732 176.174L87.2584 173.959Z" fill="white"/>
<path d="M59.4167 173.959L61.6314 171.743L63.8462 173.959L61.6314 176.174L59.4167 173.959Z" fill="white"/>
<path d="M31.5748 173.959L33.7896 171.743L36.0043 173.959L33.7896 176.174L31.5748 173.959Z" fill="white"/>
<path d="M3.73334 173.959L5.94806 171.743L8.1629 173.959L5.94806 176.174L3.73334 173.959Z" fill="white"/>
<path d="M-24.1085 173.959L-21.8937 171.743L-19.679 173.959L-21.8937 176.174L-24.1085 173.959Z" fill="white"/>
<path d="M-51.9503 173.959L-49.7355 171.743L-47.5207 173.959L-49.7355 176.174L-51.9503 173.959Z" fill="white"/>
<path d="M-79.7917 173.959L-77.577 171.743L-75.3622 173.959L-77.577 176.174L-79.7917 173.959Z" fill="white"/>
<path d="M-107.634 173.959L-105.419 171.743L-103.204 173.959L-105.419 176.174L-107.634 173.959Z" fill="white"/>
<path d="M-135.475 173.959L-133.26 171.743L-131.045 173.959L-133.26 176.174L-135.475 173.959Z" fill="white"/>
<path d="M-163.317 173.959L-161.102 171.743L-158.887 173.959L-161.102 176.174L-163.317 173.959Z" fill="white"/>
<path d="M-191.158 173.959L-188.943 171.743L-186.729 173.959L-188.943 176.174L-191.158 173.959Z" fill="white"/>
<path d="M-219 173.959L-216.785 171.743L-214.57 173.959L-216.785 176.174L-219 173.959Z" fill="white"/>
<path d="M282.15 201.812L284.365 199.596L286.58 201.812L284.365 204.027L282.15 201.812Z" fill="white"/>
<path d="M254.308 201.812L256.523 199.596L258.738 201.812L256.523 204.027L254.308 201.812Z" fill="white"/>
<path d="M226.467 201.812L228.681 199.596L230.896 201.812L228.681 204.027L226.467 201.812Z" fill="white"/>
<path d="M198.625 201.812L200.84 199.596L203.055 201.812L200.84 204.027L198.625 201.812Z" fill="white"/>
<path d="M170.783 201.812L172.998 199.596L175.213 201.812L172.998 204.027L170.783 201.812Z" fill="white"/>
<path d="M142.942 201.812L145.156 199.596L147.371 201.812L145.156 204.027L142.942 201.812Z" fill="white"/>
<path d="M115.1 201.812L117.315 199.596L119.529 201.812L117.315 204.027L115.1 201.812Z" fill="white"/>
<path d="M87.2584 201.812L89.4732 199.596L91.688 201.812L89.4732 204.027L87.2584 201.812Z" fill="white"/>
<path d="M59.4167 201.812L61.6314 199.596L63.8462 201.812L61.6314 204.027L59.4167 201.812Z" fill="white"/>
<path d="M31.5748 201.812L33.7896 199.596L36.0043 201.812L33.7896 204.027L31.5748 201.812Z" fill="white"/>
<path d="M3.73334 201.812L5.94806 199.596L8.1629 201.812L5.94806 204.027L3.73334 201.812Z" fill="white"/>
<path d="M-24.1085 201.812L-21.8937 199.596L-19.679 201.812L-21.8937 204.027L-24.1085 201.812Z" fill="white"/>
<path d="M-51.9503 201.812L-49.7355 199.596L-47.5207 201.812L-49.7355 204.027L-51.9503 201.812Z" fill="white"/>
<path d="M-79.7917 201.812L-77.577 199.596L-75.3622 201.812L-77.577 204.027L-79.7917 201.812Z" fill="white"/>
<path d="M-107.634 201.812L-105.419 199.596L-103.204 201.812L-105.419 204.027L-107.634 201.812Z" fill="white"/>
<path d="M-135.475 201.812L-133.26 199.596L-131.045 201.812L-133.26 204.027L-135.475 201.812Z" fill="white"/>
<path d="M-163.317 201.812L-161.102 199.596L-158.887 201.812L-161.102 204.027L-163.317 201.812Z" fill="white"/>
<path d="M-191.158 201.812L-188.943 199.596L-186.729 201.812L-188.943 204.027L-191.158 201.812Z" fill="white"/>
<path d="M-219 201.812L-216.785 199.596L-214.57 201.812L-216.785 204.027L-219 201.812Z" fill="white"/>
<path d="M282.15 229.665L284.365 227.45L286.58 229.665L284.365 231.881L282.15 229.665Z" fill="white"/>
<path d="M254.308 229.665L256.523 227.45L258.738 229.665L256.523 231.881L254.308 229.665Z" fill="white"/>
<path d="M226.467 229.665L228.681 227.45L230.896 229.665L228.681 231.881L226.467 229.665Z" fill="white"/>
<path d="M198.625 229.665L200.84 227.45L203.055 229.665L200.84 231.881L198.625 229.665Z" fill="white"/>
<path d="M170.783 229.665L172.998 227.45L175.213 229.665L172.998 231.881L170.783 229.665Z" fill="white"/>
<path d="M142.942 229.665L145.156 227.45L147.371 229.665L145.156 231.881L142.942 229.665Z" fill="white"/>
<path d="M115.1 229.665L117.315 227.45L119.529 229.665L117.315 231.881L115.1 229.665Z" fill="white"/>
<path d="M87.2584 229.665L89.4732 227.45L91.688 229.665L89.4732 231.881L87.2584 229.665Z" fill="white"/>
<path d="M59.4167 229.665L61.6314 227.45L63.8462 229.665L61.6314 231.881L59.4167 229.665Z" fill="white"/>
<path d="M31.5748 229.665L33.7896 227.45L36.0043 229.665L33.7896 231.881L31.5748 229.665Z" fill="white"/>
<path d="M3.73334 229.665L5.94806 227.45L8.1629 229.665L5.94806 231.881L3.73334 229.665Z" fill="white"/>
<path d="M-24.1085 229.665L-21.8937 227.45L-19.679 229.665L-21.8937 231.881L-24.1085 229.665Z" fill="white"/>
<path d="M-51.9503 229.665L-49.7355 227.45L-47.5207 229.665L-49.7355 231.881L-51.9503 229.665Z" fill="white"/>
<path d="M-79.7917 229.665L-77.577 227.45L-75.3622 229.665L-77.577 231.881L-79.7917 229.665Z" fill="white"/>
<path d="M-107.634 229.665L-105.419 227.45L-103.204 229.665L-105.419 231.881L-107.634 229.665Z" fill="white"/>
<path d="M-135.475 229.665L-133.26 227.45L-131.045 229.665L-133.26 231.881L-135.475 229.665Z" fill="white"/>
<path d="M-163.317 229.665L-161.102 227.45L-158.887 229.665L-161.102 231.881L-163.317 229.665Z" fill="white"/>
<path d="M-191.158 229.665L-188.943 227.45L-186.729 229.665L-188.943 231.881L-191.158 229.665Z" fill="white"/>
<path d="M-219 229.665L-216.785 227.45L-214.57 229.665L-216.785 231.881L-219 229.665Z" fill="white"/>
<path d="M282.15 257.518L284.365 255.302L286.58 257.518L284.365 259.734L282.15 257.518Z" fill="white"/>
<path d="M254.308 257.518L256.523 255.302L258.738 257.518L256.523 259.734L254.308 257.518Z" fill="white"/>
<path d="M226.467 257.518L228.681 255.302L230.896 257.518L228.681 259.734L226.467 257.518Z" fill="white"/>
<path d="M198.625 257.518L200.84 255.302L203.055 257.518L200.84 259.734L198.625 257.518Z" fill="white"/>
<path d="M170.783 257.518L172.998 255.302L175.213 257.518L172.998 259.734L170.783 257.518Z" fill="white"/>
<path d="M142.942 257.518L145.156 255.302L147.371 257.518L145.156 259.734L142.942 257.518Z" fill="white"/>
<path d="M115.1 257.518L117.315 255.302L119.529 257.518L117.315 259.734L115.1 257.518Z" fill="white"/>
<path d="M87.2584 257.518L89.4732 255.302L91.688 257.518L89.4732 259.734L87.2584 257.518Z" fill="white"/>
<path d="M59.4167 257.518L61.6314 255.302L63.8462 257.518L61.6314 259.734L59.4167 257.518Z" fill="white"/>
<path d="M31.5748 257.518L33.7896 255.302L36.0043 257.518L33.7896 259.734L31.5748 257.518Z" fill="white"/>
<path d="M3.73334 257.518L5.94806 255.302L8.1629 257.518L5.94806 259.734L3.73334 257.518Z" fill="white"/>
<path d="M-24.1085 257.518L-21.8937 255.302L-19.679 257.518L-21.8937 259.734L-24.1085 257.518Z" fill="white"/>
<path d="M-51.9503 257.518L-49.7355 255.302L-47.5207 257.518L-49.7355 259.734L-51.9503 257.518Z" fill="white"/>
<path d="M-79.7917 257.518L-77.577 255.302L-75.3622 257.518L-77.577 259.734L-79.7917 257.518Z" fill="white"/>
<path d="M-107.634 257.518L-105.419 255.302L-103.204 257.518L-105.419 259.734L-107.634 257.518Z" fill="white"/>
<path d="M-135.475 257.518L-133.26 255.302L-131.045 257.518L-133.26 259.734L-135.475 257.518Z" fill="white"/>
<path d="M-163.317 257.518L-161.102 255.302L-158.887 257.518L-161.102 259.734L-163.317 257.518Z" fill="white"/>
<path d="M-191.158 257.518L-188.943 255.302L-186.729 257.518L-188.943 259.734L-191.158 257.518Z" fill="white"/>
<path d="M-219 257.518L-216.785 255.302L-214.57 257.518L-216.785 259.734L-219 257.518Z" fill="white"/>
<path d="M282.15 285.371L284.365 283.155L286.58 285.371L284.365 287.587L282.15 285.371Z" fill="white"/>
<path d="M254.308 285.371L256.523 283.155L258.738 285.371L256.523 287.587L254.308 285.371Z" fill="white"/>
<path d="M226.467 285.371L228.681 283.155L230.896 285.371L228.681 287.587L226.467 285.371Z" fill="white"/>
<path d="M198.625 285.371L200.84 283.155L203.055 285.371L200.84 287.587L198.625 285.371Z" fill="white"/>
<path d="M170.783 285.371L172.998 283.155L175.213 285.371L172.998 287.587L170.783 285.371Z" fill="white"/>
<path d="M142.942 285.371L145.156 283.155L147.371 285.371L145.156 287.587L142.942 285.371Z" fill="white"/>
<path d="M115.1 285.371L117.315 283.155L119.529 285.371L117.315 287.587L115.1 285.371Z" fill="white"/>
<path d="M87.2584 285.371L89.4732 283.155L91.688 285.371L89.4732 287.587L87.2584 285.371Z" fill="white"/>
<path d="M59.4167 285.371L61.6314 283.155L63.8462 285.371L61.6314 287.587L59.4167 285.371Z" fill="white"/>
<path d="M31.5748 285.371L33.7896 283.155L36.0043 285.371L33.7896 287.587L31.5748 285.371Z" fill="white"/>
<path d="M3.73334 285.371L5.94806 283.155L8.1629 285.371L5.94806 287.587L3.73334 285.371Z" fill="white"/>
<path d="M-24.1085 285.371L-21.8937 283.155L-19.679 285.371L-21.8937 287.587L-24.1085 285.371Z" fill="white"/>
<path d="M-51.9503 285.371L-49.7355 283.155L-47.5207 285.371L-49.7355 287.587L-51.9503 285.371Z" fill="white"/>
<path d="M-79.7917 285.371L-77.577 283.155L-75.3622 285.371L-77.577 287.587L-79.7917 285.371Z" fill="white"/>
<path d="M-107.634 285.371L-105.419 283.155L-103.204 285.371L-105.419 287.587L-107.634 285.371Z" fill="white"/>
<path d="M-135.475 285.371L-133.26 283.155L-131.045 285.371L-133.26 287.587L-135.475 285.371Z" fill="white"/>
<path d="M-163.317 285.371L-161.102 283.155L-158.887 285.371L-161.102 287.587L-163.317 285.371Z" fill="white"/>
<path d="M-191.158 285.371L-188.943 283.155L-186.729 285.371L-188.943 287.587L-191.158 285.371Z" fill="white"/>
<path d="M-219 285.371L-216.785 283.155L-214.57 285.371L-216.785 287.587L-219 285.371Z" fill="white"/>
<path d="M282.15 313.225L284.365 311.009L286.58 313.225L284.365 315.44L282.15 313.225Z" fill="white"/>
<path d="M254.308 313.225L256.523 311.009L258.738 313.225L256.523 315.44L254.308 313.225Z" fill="white"/>
<path d="M226.467 313.225L228.681 311.009L230.896 313.225L228.681 315.44L226.467 313.225Z" fill="white"/>
<path d="M198.625 313.225L200.84 311.009L203.055 313.225L200.84 315.44L198.625 313.225Z" fill="white"/>
<path d="M170.783 313.225L172.998 311.009L175.213 313.225L172.998 315.44L170.783 313.225Z" fill="white"/>
<path d="M142.942 313.225L145.156 311.009L147.371 313.225L145.156 315.44L142.942 313.225Z" fill="white"/>
<path d="M115.1 313.225L117.315 311.009L119.529 313.225L117.315 315.44L115.1 313.225Z" fill="white"/>
<path d="M87.2584 313.225L89.4732 311.009L91.688 313.225L89.4732 315.44L87.2584 313.225Z" fill="white"/>
<path d="M59.4167 313.225L61.6314 311.009L63.8462 313.225L61.6314 315.44L59.4167 313.225Z" fill="white"/>
<path d="M31.5748 313.225L33.7896 311.009L36.0043 313.225L33.7896 315.44L31.5748 313.225Z" fill="white"/>
<path d="M3.73334 313.225L5.94806 311.009L8.1629 313.225L5.94806 315.44L3.73334 313.225Z" fill="white"/>
<path d="M-24.1085 313.225L-21.8937 311.009L-19.679 313.225L-21.8937 315.44L-24.1085 313.225Z" fill="white"/>
<path d="M-51.9503 313.225L-49.7355 311.009L-47.5207 313.225L-49.7355 315.44L-51.9503 313.225Z" fill="white"/>
<path d="M-79.7917 313.225L-77.577 311.009L-75.3622 313.225L-77.577 315.44L-79.7917 313.225Z" fill="white"/>
<path d="M-107.634 313.225L-105.419 311.009L-103.204 313.225L-105.419 315.44L-107.634 313.225Z" fill="white"/>
<path d="M-135.475 313.225L-133.26 311.009L-131.045 313.225L-133.26 315.44L-135.475 313.225Z" fill="white"/>
<path d="M-163.317 313.225L-161.102 311.009L-158.887 313.225L-161.102 315.44L-163.317 313.225Z" fill="white"/>
<path d="M-191.158 313.225L-188.943 311.009L-186.729 313.225L-188.943 315.44L-191.158 313.225Z" fill="white"/>
<path d="M-219 313.225L-216.785 311.009L-214.57 313.225L-216.785 315.44L-219 313.225Z" fill="white"/>
<path d="M282.15 341.078L284.365 338.862L286.58 341.078L284.365 343.293L282.15 341.078Z" fill="white"/>
<path d="M254.308 341.078L256.523 338.862L258.738 341.078L256.523 343.293L254.308 341.078Z" fill="white"/>
<path d="M226.467 341.078L228.681 338.862L230.896 341.078L228.681 343.293L226.467 341.078Z" fill="white"/>
<path d="M198.625 341.078L200.84 338.862L203.055 341.078L200.84 343.293L198.625 341.078Z" fill="white"/>
<path d="M170.783 341.078L172.998 338.862L175.213 341.078L172.998 343.293L170.783 341.078Z" fill="white"/>
<path d="M142.942 341.078L145.156 338.862L147.371 341.078L145.156 343.293L142.942 341.078Z" fill="white"/>
<path d="M115.1 341.078L117.315 338.862L119.529 341.078L117.315 343.293L115.1 341.078Z" fill="white"/>
<path d="M87.2584 341.078L89.4732 338.862L91.688 341.078L89.4732 343.293L87.2584 341.078Z" fill="white"/>
<path d="M59.4167 341.078L61.6314 338.862L63.8462 341.078L61.6314 343.293L59.4167 341.078Z" fill="white"/>
<path d="M31.5748 341.078L33.7896 338.862L36.0043 341.078L33.7896 343.293L31.5748 341.078Z" fill="white"/>
<path d="M3.73334 341.078L5.94806 338.862L8.1629 341.078L5.94806 343.293L3.73334 341.078Z" fill="white"/>
<path d="M-24.1085 341.078L-21.8937 338.862L-19.679 341.078L-21.8937 343.293L-24.1085 341.078Z" fill="white"/>
<path d="M-51.9503 341.078L-49.7355 338.862L-47.5207 341.078L-49.7355 343.293L-51.9503 341.078Z" fill="white"/>
<path d="M-79.7917 341.078L-77.577 338.862L-75.3622 341.078L-77.577 343.293L-79.7917 341.078Z" fill="white"/>
<path d="M-107.634 341.078L-105.419 338.862L-103.204 341.078L-105.419 343.293L-107.634 341.078Z" fill="white"/>
<path d="M-135.475 341.078L-133.26 338.862L-131.045 341.078L-133.26 343.293L-135.475 341.078Z" fill="white"/>
<path d="M-163.317 341.078L-161.102 338.862L-158.887 341.078L-161.102 343.293L-163.317 341.078Z" fill="white"/>
<path d="M-191.158 341.078L-188.943 338.862L-186.729 341.078L-188.943 343.293L-191.158 341.078Z" fill="white"/>
<path d="M-219 341.078L-216.785 338.862L-214.57 341.078L-216.785 343.293L-219 341.078Z" fill="white"/>
<path d="M282.15 368.931L284.365 366.715L286.58 368.931L284.365 371.146L282.15 368.931Z" fill="white"/>
<path d="M254.308 368.931L256.523 366.715L258.738 368.931L256.523 371.146L254.308 368.931Z" fill="white"/>
<path d="M226.467 368.931L228.681 366.715L230.896 368.931L228.681 371.146L226.467 368.931Z" fill="white"/>
<path d="M198.625 368.931L200.84 366.715L203.055 368.931L200.84 371.146L198.625 368.931Z" fill="white"/>
<path d="M170.783 368.931L172.998 366.715L175.213 368.931L172.998 371.146L170.783 368.931Z" fill="white"/>
<path d="M142.942 368.931L145.156 366.715L147.371 368.931L145.156 371.146L142.942 368.931Z" fill="white"/>
<path d="M115.1 368.931L117.315 366.715L119.529 368.931L117.315 371.146L115.1 368.931Z" fill="white"/>
<path d="M87.2584 368.931L89.4732 366.715L91.688 368.931L89.4732 371.146L87.2584 368.931Z" fill="white"/>
<path d="M59.4167 368.931L61.6314 366.715L63.8462 368.931L61.6314 371.146L59.4167 368.931Z" fill="white"/>
<path d="M31.5748 368.931L33.7896 366.715L36.0043 368.931L33.7896 371.146L31.5748 368.931Z" fill="white"/>
<path d="M3.73334 368.931L5.94806 366.715L8.1629 368.931L5.94806 371.146L3.73334 368.931Z" fill="white"/>
<path d="M-24.1085 368.931L-21.8937 366.715L-19.679 368.931L-21.8937 371.146L-24.1085 368.931Z" fill="white"/>
<path d="M-51.9503 368.931L-49.7355 366.715L-47.5207 368.931L-49.7355 371.146L-51.9503 368.931Z" fill="white"/>
<path d="M-79.7917 368.931L-77.577 366.715L-75.3622 368.931L-77.577 371.146L-79.7917 368.931Z" fill="white"/>
<path d="M-107.634 368.931L-105.419 366.715L-103.204 368.931L-105.419 371.146L-107.634 368.931Z" fill="white"/>
<path d="M-135.475 368.931L-133.26 366.715L-131.045 368.931L-133.26 371.146L-135.475 368.931Z" fill="white"/>
<path d="M-163.317 368.931L-161.102 366.715L-158.887 368.931L-161.102 371.146L-163.317 368.931Z" fill="white"/>
<path d="M-191.158 368.931L-188.943 366.715L-186.729 368.931L-188.943 371.146L-191.158 368.931Z" fill="white"/>
<path d="M-219 368.931L-216.785 366.715L-214.57 368.931L-216.785 371.146L-219 368.931Z" fill="white"/>
<path d="M282.15 396.784L284.365 394.569L286.58 396.784L284.365 399L282.15 396.784Z" fill="white"/>
<path d="M254.308 396.784L256.523 394.569L258.738 396.784L256.523 399L254.308 396.784Z" fill="white"/>
<path d="M226.467 396.784L228.681 394.569L230.896 396.784L228.681 399L226.467 396.784Z" fill="white"/>
<path d="M198.625 396.784L200.84 394.569L203.055 396.784L200.84 399L198.625 396.784Z" fill="white"/>
<path d="M170.783 396.784L172.998 394.569L175.213 396.784L172.998 399L170.783 396.784Z" fill="white"/>
<path d="M142.942 396.784L145.156 394.569L147.371 396.784L145.156 399L142.942 396.784Z" fill="white"/>
<path d="M115.1 396.784L117.315 394.569L119.529 396.784L117.315 399L115.1 396.784Z" fill="white"/>
<path d="M87.2584 396.784L89.4732 394.569L91.688 396.784L89.4732 399L87.2584 396.784Z" fill="white"/>
<path d="M59.4167 396.784L61.6314 394.569L63.8462 396.784L61.6314 399L59.4167 396.784Z" fill="white"/>
<path d="M31.5748 396.784L33.7896 394.569L36.0043 396.784L33.7896 399L31.5748 396.784Z" fill="white"/>
<path d="M3.73334 396.784L5.94806 394.569L8.1629 396.784L5.94806 399L3.73334 396.784Z" fill="white"/>
<path d="M-24.1085 396.784L-21.8937 394.569L-19.679 396.784L-21.8937 399L-24.1085 396.784Z" fill="white"/>
<path d="M-51.9503 396.784L-49.7355 394.569L-47.5207 396.784L-49.7355 399L-51.9503 396.784Z" fill="white"/>
<path d="M-79.7917 396.784L-77.577 394.569L-75.3622 396.784L-77.577 399L-79.7917 396.784Z" fill="white"/>
<path d="M-107.634 396.784L-105.419 394.569L-103.204 396.784L-105.419 399L-107.634 396.784Z" fill="white"/>
<path d="M-135.475 396.784L-133.26 394.569L-131.045 396.784L-133.26 399L-135.475 396.784Z" fill="white"/>
<path d="M-163.317 396.784L-161.102 394.569L-158.887 396.784L-161.102 399L-163.317 396.784Z" fill="white"/>
<path d="M-191.158 396.784L-188.943 394.569L-186.729 396.784L-188.943 399L-191.158 396.784Z" fill="white"/>
<path d="M-219 396.784L-216.785 394.569L-214.57 396.784L-216.785 399L-219 396.784Z" fill="white"/>
</mask>
<g mask="url(#mask0_404_326)">
<ellipse cx="473.575" cy="243.56" rx="473.575" ry="243.56" transform="matrix(-0.866025 0.5 0.5 0.866025 509.698 -243.274)" fill="url(#paint0_radial_404_326)" fill-opacity="0.2"/>
</g>
<defs>
<radialGradient id="paint0_radial_404_326" cx="0" cy="0" r="1" gradientUnits="userSpaceOnUse" gradientTransform="translate(473.409 243.424) rotate(86.6495) scale(248.185 483.13)">
<stop stop-color="white"/>
<stop offset="1" stop-opacity="0"/>
</radialGradient>
</defs>
</svg>
