<svg width="29" height="26" viewBox="0 0 29 26" fill="none" xmlns="http://www.w3.org/2000/svg">
<path fill-rule="evenodd" clip-rule="evenodd" d="M2.55029 12.9998C2.55029 12.4115 3.08855 11.9346 3.75253 11.9346H25.3929C26.0569 11.9346 26.5951 12.4115 26.5951 12.9998C26.5951 13.5881 26.0569 14.065 25.3929 14.065H3.75253C3.08855 14.065 2.55029 13.5881 2.55029 12.9998Z" fill="#A3A3A3"/>
<path fill-rule="evenodd" clip-rule="evenodd" d="M2.55029 6.60868C2.55029 6.02037 3.08855 5.54346 3.75253 5.54346H25.3929C26.0569 5.54346 26.5951 6.02037 26.5951 6.60868C26.5951 7.19698 26.0569 7.67389 25.3929 7.67389H3.75253C3.08855 7.67389 2.55029 7.19698 2.55029 6.60868Z" fill="#A3A3A3"/>
<path fill-rule="evenodd" clip-rule="evenodd" d="M2.55029 19.3911C2.55029 18.8028 3.08855 18.3259 3.75253 18.3259H25.3929C26.0569 18.3259 26.5951 18.8028 26.5951 19.3911C26.5951 19.9794 26.0569 20.4564 25.3929 20.4564H3.75253C3.08855 20.4564 2.55029 19.9794 2.55029 19.3911Z" fill="#A3A3A3"/>
</svg>
