<svg width="1296" height="692" viewBox="0 0 1296 692" fill="none" xmlns="http://www.w3.org/2000/svg">
<g clip-path="url(#clip0_427_38482)">
<rect width="1296" height="692" rx="10" fill="#1E1E1E"/>
<rect x="20" y="20" width="1256" height="735" rx="5" fill="black"/>
<path d="M80.9063 108.164V90.6231H85.0116L89.9876 107.591H90.5598L95.5607 90.6231H99.6411V108.164H97.6009V92.6633L97.9492 91.1953H97.3521L92.3263 108.164H88.2211L83.1953 91.1953H82.6231L82.9465 92.6633V108.164H80.9063ZM111.768 95.7982H113.734L109.703 108.164H105.573L101.492 95.7982H103.483L107.339 107.591H107.936L111.768 95.7982ZM115.601 95.7982H117.641V97.6144L117.318 99.0326H117.89C118.413 97.0919 120.055 95.5494 122.891 95.5494C126.474 95.5494 128.788 98.311 128.788 101.993C128.788 105.651 126.474 108.412 122.891 108.412C120.055 108.412 118.413 106.87 117.89 104.954H117.318L117.641 106.347V112.692H115.601V95.7982ZM117.641 101.993C117.641 105.277 119.756 106.671 122.294 106.671C124.856 106.671 126.747 105.228 126.747 101.993C126.747 98.734 124.856 97.291 122.294 97.291C119.756 97.291 117.641 98.6843 117.641 101.993ZM138.597 101.645V90.6231H140.637V101.322C140.637 104.879 141.881 106.671 145.539 106.671C149.196 106.671 150.465 104.879 150.465 101.322V90.6231H152.505V101.645C152.505 106.024 150.341 108.412 145.539 108.412C140.762 108.412 138.597 106.024 138.597 101.645ZM153.904 108.164L160 99.7541V99.0077L153.904 90.6231H156.243L161.617 98.1618L167.016 90.6231H169.33L163.234 99.0077V99.7541L169.33 108.164H167.016L161.617 100.6L156.243 108.164H153.904ZM179.146 108.164V90.6231H190.641V92.3647H181.187V99.356L189.472 98.8584V100.625L181.187 101.123V108.164H179.146ZM191.994 108.164V106.422H195.477V91.3944L192.914 91.6183V89.8767L195.8 89.6279C196.945 89.5284 197.492 90.1753 197.492 91.3446V106.422H200.95V108.164H191.994ZM201.803 101.968C201.803 98.3857 204.39 95.5494 208.346 95.5494C212.277 95.5494 214.84 98.3857 214.84 101.968C214.84 105.576 212.277 108.412 208.346 108.412C204.39 108.412 201.803 105.576 201.803 101.968ZM203.843 101.968C203.843 104.556 205.41 106.671 208.346 106.671C211.257 106.671 212.824 104.556 212.824 101.968C212.824 99.4058 211.257 97.291 208.346 97.291C205.41 97.291 203.843 99.4058 203.843 101.968ZM215.646 95.7982H217.586L220.572 107.591H221.169L223.657 95.7982H227.862L230.375 107.591H230.947L233.958 95.7982H235.873L232.738 108.164H228.583L226.071 96.3953H225.473L222.961 108.164H218.781L215.646 95.7982ZM238.58 108.412C237.41 108.412 236.515 107.517 236.515 106.322C236.515 105.178 237.41 104.282 238.58 104.282C239.724 104.282 240.645 105.178 240.645 106.322C240.645 107.517 239.724 108.412 238.58 108.412Z" fill="white"/>
<rect x="581.126" y="202.743" width="137.723" height="61.3765" fill="#262626" stroke="#808080" stroke-width="1.49699"/>
<path d="M636.824 230.008V236.994H635.677V232.014L633.551 235.527H633.411L631.285 232.004V236.994H630.138V230.008H631.375L633.481 233.501L635.597 230.008H636.824ZM639.994 236.994L637.568 230.008H638.826L640.682 235.607L642.548 230.008H643.796L641.371 236.994H639.994ZM647.117 230.008C648.434 230.008 649.432 231.006 649.432 232.304C649.432 233.591 648.434 234.599 647.117 234.599H645.69V236.994H644.542V230.008H647.117ZM647.117 233.521C647.796 233.521 648.285 233.002 648.285 232.304C648.285 231.595 647.796 231.086 647.117 231.086H645.69V233.521H647.117ZM657.475 236.994L656.986 235.587H654.012L653.523 236.994H652.275L654.81 230.008H656.187L658.712 236.994H657.475ZM654.391 234.509H656.606L655.499 231.355L654.391 234.509ZM662.038 230.008C663.356 230.008 664.354 231.006 664.354 232.304C664.354 233.591 663.356 234.599 662.038 234.599H660.611V236.994H659.463V230.008H662.038ZM662.038 233.521C662.717 233.521 663.206 233.002 663.206 232.304C663.206 231.595 662.717 231.086 662.038 231.086H660.611V233.521H662.038ZM667.925 230.008C669.242 230.008 670.24 231.006 670.24 232.304C670.24 233.591 669.242 234.599 667.925 234.599H666.498V236.994H665.35V230.008H667.925ZM667.925 233.521C668.603 233.521 669.092 233.002 669.092 232.304C669.092 231.595 668.603 231.086 667.925 231.086H666.498V233.521H667.925Z" fill="white"/>
<rect x="620.252" y="78.2515" width="61.497" height="61.497" rx="30.7485" fill="#262626" stroke="#808080" stroke-width="1.49699"/>
<path d="M642.106 113.13C640.729 113.13 639.781 112.451 639.412 111.413L640.4 110.834C640.649 111.543 641.188 112.012 642.136 112.012C643.045 112.012 643.434 111.603 643.434 111.094C643.434 110.475 642.885 110.266 641.847 109.946C640.759 109.617 639.701 109.218 639.701 107.9C639.701 106.613 640.769 105.884 641.947 105.884C643.094 105.884 643.943 106.493 644.382 107.421L643.414 107.98C643.164 107.421 642.725 107.002 641.947 107.002C641.278 107.002 640.849 107.341 640.849 107.87C640.849 108.409 641.238 108.639 642.256 108.958C643.414 109.327 644.581 109.687 644.581 111.074C644.581 112.351 643.564 113.13 642.106 113.13ZM648.139 109.048H646.901V111.443C646.901 112.082 647.32 112.072 648.139 112.032V113C646.482 113.2 645.823 112.741 645.823 111.443V109.048H644.905V108.01H645.823V106.932L646.901 106.613V108.01H648.139V109.048ZM652.864 108.01H653.941V113H652.864V112.281C652.484 112.81 651.896 113.13 651.117 113.13C649.76 113.13 648.632 111.982 648.632 110.505C648.632 109.018 649.76 107.88 651.117 107.88C651.896 107.88 652.484 108.2 652.864 108.719V108.01ZM651.287 112.102C652.185 112.102 652.864 111.433 652.864 110.505C652.864 109.577 652.185 108.908 651.287 108.908C650.389 108.908 649.71 109.577 649.71 110.505C649.71 111.433 650.389 112.102 651.287 112.102ZM656.276 108.848C656.575 108.17 657.184 107.92 657.812 107.92V109.088C657.104 109.038 656.276 109.367 656.276 110.485V113H655.198V108.01H656.276V108.848ZM661.52 109.048H660.282V111.443C660.282 112.082 660.702 112.072 661.52 112.032V113C659.863 113.2 659.205 112.741 659.205 111.443V109.048H658.286V108.01H659.205V106.932L660.282 106.613V108.01H661.52V109.048Z" fill="white"/>
<rect x="581.127" y="342.694" width="137.723" height="61.3765" fill="#262626" stroke="#808080" stroke-width="1.49699"/>
<path d="M632.553 371.916H633.701V378.902H632.553V371.916ZM637.652 373.782C638.769 373.782 639.568 374.54 639.568 375.838V378.902H638.49V375.948C638.49 375.189 638.051 374.79 637.372 374.79C636.664 374.79 636.105 375.209 636.105 376.227V378.902H635.027V373.912H636.105V374.55C636.434 374.031 636.973 373.782 637.652 373.782ZM643.513 374.95H642.275V377.345C642.275 377.983 642.694 377.973 643.513 377.934V378.902C641.856 379.101 641.198 378.642 641.198 377.345V374.95H640.279V373.912H641.198V372.834L642.275 372.514V373.912H643.513V374.95ZM645.134 376.866C645.304 377.644 645.932 378.043 646.731 378.043C647.33 378.043 647.779 377.774 648.018 377.425L648.906 377.944C648.447 378.622 647.699 379.031 646.721 379.031C645.074 379.031 644.006 377.904 644.006 376.407C644.006 374.93 645.074 373.782 646.641 373.782C648.128 373.782 649.146 374.98 649.146 376.417C649.146 376.566 649.126 376.726 649.106 376.866H645.134ZM645.124 375.987H648.058C647.908 375.129 647.28 374.76 646.631 374.76C645.823 374.76 645.274 375.239 645.124 375.987ZM651.172 374.75C651.472 374.071 652.08 373.822 652.709 373.822V374.989C652.001 374.94 651.172 375.269 651.172 376.387V378.902H650.094V373.912H651.172V374.75ZM657.224 373.912H658.301V378.902H657.224V378.183C656.844 378.712 656.256 379.031 655.477 379.031C654.12 379.031 652.992 377.884 652.992 376.407C652.992 374.92 654.12 373.782 655.477 373.782C656.256 373.782 656.844 374.101 657.224 374.62V373.912ZM655.647 378.003C656.545 378.003 657.224 377.335 657.224 376.407C657.224 375.478 656.545 374.81 655.647 374.81C654.749 374.81 654.07 375.478 654.07 376.407C654.07 377.335 654.749 378.003 655.647 378.003ZM661.913 379.031C660.406 379.031 659.278 377.884 659.278 376.407C659.278 374.92 660.406 373.782 661.913 373.782C662.891 373.782 663.739 374.291 664.139 375.069L663.21 375.608C662.991 375.139 662.502 374.84 661.903 374.84C661.025 374.84 660.356 375.508 660.356 376.407C660.356 377.305 661.025 377.973 661.903 377.973C662.502 377.973 662.991 377.664 663.23 377.205L664.158 377.734C663.739 378.522 662.891 379.031 661.913 379.031ZM667.722 374.95H666.484V377.345C666.484 377.983 666.904 377.973 667.722 377.934V378.902C666.065 379.101 665.407 378.642 665.407 377.345V374.95H664.488V373.912H665.407V372.834L666.484 372.514V373.912H667.722V374.95Z" fill="white"/>
<rect x="339.583" y="342.694" width="137.723" height="61.3765" fill="#262626" stroke="#808080" stroke-width="1.49699"/>
<path d="M395.342 379.031C393.965 379.031 393.017 378.353 392.648 377.315L393.636 376.736C393.885 377.445 394.424 377.914 395.372 377.914C396.28 377.914 396.67 377.504 396.67 376.995C396.67 376.377 396.121 376.167 395.083 375.848C393.995 375.518 392.937 375.119 392.937 373.802C392.937 372.514 394.005 371.786 395.183 371.786C396.33 371.786 397.179 372.395 397.618 373.323L396.65 373.882C396.4 373.323 395.961 372.904 395.183 372.904C394.514 372.904 394.085 373.243 394.085 373.772C394.085 374.311 394.474 374.54 395.492 374.86C396.65 375.229 397.817 375.588 397.817 376.975C397.817 378.253 396.799 379.031 395.342 379.031ZM399.721 376.866C399.891 377.644 400.519 378.043 401.318 378.043C401.917 378.043 402.366 377.774 402.605 377.425L403.493 377.944C403.034 378.622 402.286 379.031 401.308 379.031C399.661 379.031 398.593 377.904 398.593 376.407C398.593 374.93 399.661 373.782 401.228 373.782C402.715 373.782 403.733 374.98 403.733 376.417C403.733 376.566 403.713 376.726 403.693 376.866H399.721ZM399.711 375.987H402.645C402.495 375.129 401.867 374.76 401.218 374.76C400.41 374.76 399.861 375.239 399.711 375.987ZM408.604 373.912H409.682V378.902H408.604V378.183C408.225 378.712 407.636 379.031 406.858 379.031C405.5 379.031 404.373 377.884 404.373 376.407C404.373 374.92 405.5 373.782 406.858 373.782C407.636 373.782 408.225 374.101 408.604 374.62V373.912ZM407.027 378.003C407.925 378.003 408.604 377.335 408.604 376.407C408.604 375.478 407.925 374.81 407.027 374.81C406.129 374.81 405.45 375.478 405.45 376.407C405.45 377.335 406.129 378.003 407.027 378.003ZM412.016 374.75C412.315 374.071 412.924 373.822 413.553 373.822V374.989C412.844 374.94 412.016 375.269 412.016 376.387V378.902H410.938V373.912H412.016V374.75ZM416.471 379.031C414.964 379.031 413.836 377.884 413.836 376.407C413.836 374.92 414.964 373.782 416.471 373.782C417.449 373.782 418.297 374.291 418.696 375.069L417.768 375.608C417.548 375.139 417.059 374.84 416.461 374.84C415.582 374.84 414.914 375.508 414.914 376.407C414.914 377.305 415.582 377.973 416.461 377.973C417.059 377.973 417.548 377.664 417.788 377.205L418.716 377.734C418.297 378.522 417.449 379.031 416.471 379.031ZM422.12 373.782C423.238 373.782 424.036 374.54 424.036 375.838V378.902H422.958V375.948C422.958 375.189 422.519 374.79 421.84 374.79C421.132 374.79 420.573 375.209 420.573 376.227V378.902H419.495V371.916H420.573V374.55C420.902 374.031 421.441 373.782 422.12 373.782Z" fill="white"/>
<rect x="1064.22" y="342.694" width="137.723" height="61.3765" fill="#262626" stroke="#808080" stroke-width="1.49699"/>
<path d="M1127.36 371.916H1128.51V378.902H1127.36V375.878H1124.37V378.902H1123.22V371.916H1124.37V374.78H1127.36V371.916ZM1130.68 376.866C1130.85 377.644 1131.48 378.043 1132.28 378.043C1132.88 378.043 1133.33 377.774 1133.57 377.425L1134.46 377.944C1134 378.622 1133.25 379.031 1132.27 379.031C1130.62 379.031 1129.56 377.904 1129.56 376.407C1129.56 374.93 1130.62 373.782 1132.19 373.782C1133.68 373.782 1134.7 374.98 1134.7 376.417C1134.7 376.566 1134.68 376.726 1134.66 376.866H1130.68ZM1130.67 375.987H1133.61C1133.46 375.129 1132.83 374.76 1132.18 374.76C1131.37 374.76 1130.82 375.239 1130.67 375.987ZM1135.64 378.902V371.616H1136.72V378.902H1135.64ZM1140.8 373.782C1142.15 373.782 1143.28 374.93 1143.28 376.407C1143.28 377.894 1142.15 379.031 1140.8 379.031C1140.02 379.031 1139.43 378.712 1139.05 378.193V380.898H1137.97V373.912H1139.05V374.63C1139.43 374.101 1140.02 373.782 1140.8 373.782ZM1140.63 378.003C1141.53 378.003 1142.2 377.335 1142.2 376.407C1142.2 375.478 1141.53 374.81 1140.63 374.81C1139.73 374.81 1139.05 375.478 1139.05 376.407C1139.05 377.335 1139.73 378.003 1140.63 378.003Z" fill="white"/>
<rect x="98.0376" y="342.694" width="137.723" height="61.3765" fill="#262626" stroke="#808080" stroke-width="1.49699"/>
<path d="M151.723 377.804H154.817V378.902H150.575V371.916H154.767V373.013H151.723V374.83H154.517V375.918H151.723V377.804ZM160.259 378.902H159.011L157.774 377.195L156.526 378.902H155.269L157.145 376.337L155.368 373.912H156.616L157.764 375.488L158.911 373.912H160.169L158.392 376.347L160.259 378.902ZM163.807 373.782C165.164 373.782 166.292 374.93 166.292 376.407C166.292 377.894 165.164 379.031 163.807 379.031C163.028 379.031 162.44 378.712 162.06 378.193V380.898H160.982V373.912H162.06V374.63C162.44 374.101 163.028 373.782 163.807 373.782ZM163.637 378.003C164.535 378.003 165.214 377.335 165.214 376.407C165.214 375.478 164.535 374.81 163.637 374.81C162.739 374.81 162.06 375.478 162.06 376.407C162.06 377.335 162.739 378.003 163.637 378.003ZM167.269 378.902V371.616H168.346V378.902H167.269ZM171.953 379.031C170.496 379.031 169.319 377.884 169.319 376.407C169.319 374.92 170.496 373.782 171.953 373.782C173.42 373.782 174.588 374.92 174.588 376.407C174.588 377.884 173.42 379.031 171.953 379.031ZM171.953 377.983C172.831 377.983 173.51 377.315 173.51 376.407C173.51 375.498 172.831 374.83 171.953 374.83C171.075 374.83 170.396 375.498 170.396 376.407C170.396 377.315 171.075 377.983 171.953 377.983ZM176.64 374.75C176.94 374.071 177.549 373.822 178.177 373.822V374.989C177.469 374.94 176.64 375.269 176.64 376.387V378.902H175.563V373.912H176.64V374.75ZM179.588 376.866C179.758 377.644 180.386 378.043 181.185 378.043C181.784 378.043 182.233 377.774 182.472 377.425L183.36 377.944C182.901 378.622 182.153 379.031 181.175 379.031C179.528 379.031 178.46 377.904 178.46 376.407C178.46 374.93 179.528 373.782 181.095 373.782C182.582 373.782 183.6 374.98 183.6 376.417C183.6 376.566 183.58 376.726 183.56 376.866H179.588ZM179.578 375.987H182.512C182.362 375.129 181.734 374.76 181.085 374.76C180.277 374.76 179.728 375.239 179.578 375.987Z" fill="white"/>
<rect x="98.0376" y="456.728" width="137.723" height="61.3765" fill="#262626" stroke="#808080" stroke-width="1.49699"/>
<path d="M127.481 485.949V487.047H125.515V492.935H124.368V487.047H122.392V485.949H127.481ZM128.685 488.783C128.984 488.105 129.593 487.855 130.222 487.855V489.023C129.513 488.973 128.685 489.302 128.685 490.42V492.935H127.607V487.945H128.685V488.783ZM131.633 490.899C131.802 491.678 132.431 492.077 133.23 492.077C133.828 492.077 134.277 491.807 134.517 491.458L135.405 491.977C134.946 492.656 134.198 493.065 133.22 493.065C131.573 493.065 130.505 491.937 130.505 490.44C130.505 488.963 131.573 487.815 133.14 487.815C134.627 487.815 135.645 489.013 135.645 490.45C135.645 490.6 135.625 490.759 135.605 490.899H131.633ZM131.623 490.021H134.557C134.407 489.163 133.778 488.793 133.13 488.793C132.321 488.793 131.772 489.272 131.623 490.021ZM139.218 487.815C140.336 487.815 141.134 488.574 141.134 489.871V492.935H140.056V489.981C140.056 489.223 139.617 488.823 138.938 488.823C138.23 488.823 137.671 489.242 137.671 490.26V492.935H136.593V487.945H137.671V488.584C138 488.065 138.539 487.815 139.218 487.815ZM146.247 485.949H147.324V492.935H146.247V492.217C145.867 492.745 145.278 493.065 144.5 493.065C143.143 493.065 142.015 491.917 142.015 490.44C142.015 488.953 143.143 487.815 144.5 487.815C145.278 487.815 145.867 488.135 146.247 488.654V485.949ZM144.67 492.037C145.568 492.037 146.247 491.368 146.247 490.44C146.247 489.512 145.568 488.843 144.67 488.843C143.772 488.843 143.093 489.512 143.093 490.44C143.093 491.368 143.772 492.037 144.67 492.037ZM149.12 487.197C148.74 487.197 148.431 486.877 148.431 486.508C148.431 486.129 148.74 485.819 149.12 485.819C149.499 485.819 149.808 486.129 149.808 486.508C149.808 486.877 149.499 487.197 149.12 487.197ZM148.581 492.935V487.945H149.658V492.935H148.581ZM153.535 487.815C154.652 487.815 155.451 488.574 155.451 489.871V492.935H154.373V489.981C154.373 489.223 153.934 488.823 153.255 488.823C152.547 488.823 151.988 489.242 151.988 490.26V492.935H150.91V487.945H151.988V488.584C152.317 488.065 152.856 487.815 153.535 487.815ZM160.583 487.945H161.641V492.706C161.641 494.312 160.384 495.061 159.076 495.061C157.979 495.061 157.13 494.652 156.711 493.853L157.639 493.314C157.859 493.743 158.228 494.083 159.096 494.083C160.025 494.083 160.583 493.574 160.583 492.706V492.097C160.204 492.636 159.615 492.965 158.847 492.965C157.44 492.965 156.332 491.817 156.332 490.39C156.332 488.963 157.44 487.815 158.847 487.815C159.615 487.815 160.204 488.145 160.583 488.684V487.945ZM158.997 491.957C159.905 491.957 160.583 491.288 160.583 490.39C160.583 489.492 159.905 488.823 158.997 488.823C158.088 488.823 157.41 489.492 157.41 490.39C157.41 491.288 158.088 491.957 158.997 491.957ZM168.766 493.065C166.64 493.065 165.113 491.468 165.113 489.442C165.113 487.416 166.64 485.819 168.766 485.819C170.043 485.819 171.181 486.468 171.77 487.486L170.772 488.065C170.402 487.376 169.644 486.937 168.766 486.937C167.259 486.937 166.261 488.005 166.261 489.442C166.261 490.879 167.259 491.947 168.766 491.947C169.644 491.947 170.412 491.508 170.772 490.819L171.77 491.388C171.191 492.406 170.053 493.065 168.766 493.065ZM174.999 493.065C173.542 493.065 172.364 491.917 172.364 490.44C172.364 488.953 173.542 487.815 174.999 487.815C176.466 487.815 177.634 488.953 177.634 490.44C177.634 491.917 176.466 493.065 174.999 493.065ZM174.999 492.017C175.877 492.017 176.556 491.348 176.556 490.44C176.556 489.532 175.877 488.863 174.999 488.863C174.121 488.863 173.442 489.532 173.442 490.44C173.442 491.348 174.121 492.017 174.999 492.017ZM178.608 492.935V485.65H179.686V492.935H178.608ZM180.937 492.935V485.65H182.015V492.935H180.937ZM184.115 490.899C184.285 491.678 184.913 492.077 185.712 492.077C186.311 492.077 186.76 491.807 186.999 491.458L187.887 491.977C187.428 492.656 186.68 493.065 185.702 493.065C184.055 493.065 182.987 491.937 182.987 490.44C182.987 488.963 184.055 487.815 185.622 487.815C187.109 487.815 188.127 489.013 188.127 490.45C188.127 490.6 188.107 490.759 188.087 490.899H184.115ZM184.105 490.021H187.039C186.889 489.163 186.261 488.793 185.612 488.793C184.804 488.793 184.255 489.272 184.105 490.021ZM191.401 493.065C189.894 493.065 188.767 491.917 188.767 490.44C188.767 488.953 189.894 487.815 191.401 487.815C192.379 487.815 193.228 488.324 193.627 489.103L192.699 489.642C192.479 489.173 191.99 488.873 191.391 488.873C190.513 488.873 189.845 489.542 189.845 490.44C189.845 491.338 190.513 492.007 191.391 492.007C191.99 492.007 192.479 491.698 192.719 491.238L193.647 491.767C193.228 492.556 192.379 493.065 191.401 493.065ZM197.21 488.983H195.973V491.378C195.973 492.017 196.392 492.007 197.21 491.967V492.935C195.554 493.135 194.895 492.676 194.895 491.378V488.983H193.977V487.945H194.895V486.867L195.973 486.548V487.945H197.21V488.983ZM198.727 487.197C198.348 487.197 198.038 486.877 198.038 486.508C198.038 486.129 198.348 485.819 198.727 485.819C199.106 485.819 199.415 486.129 199.415 486.508C199.415 486.877 199.106 487.197 198.727 487.197ZM198.188 492.935V487.945H199.266V492.935H198.188ZM202.872 493.065C201.415 493.065 200.238 491.917 200.238 490.44C200.238 488.953 201.415 487.815 202.872 487.815C204.339 487.815 205.507 488.953 205.507 490.44C205.507 491.917 204.339 493.065 202.872 493.065ZM202.872 492.017C203.751 492.017 204.429 491.348 204.429 490.44C204.429 489.532 203.751 488.863 202.872 488.863C201.994 488.863 201.316 489.532 201.316 490.44C201.316 491.348 201.994 492.017 202.872 492.017ZM209.106 487.815C210.224 487.815 211.023 488.574 211.023 489.871V492.935H209.945V489.981C209.945 489.223 209.506 488.823 208.827 488.823C208.118 488.823 207.56 489.242 207.56 490.26V492.935H206.482V487.945H207.56V488.584C207.889 488.065 208.428 487.815 209.106 487.815Z" fill="white"/>
<rect x="339.583" y="456.728" width="137.723" height="61.3765" fill="#262626" stroke="#808080" stroke-width="1.49699"/>
<path d="M386.906 493.065C384.78 493.065 383.253 491.468 383.253 489.442C383.253 487.416 384.78 485.819 386.906 485.819C388.183 485.819 389.321 486.468 389.91 487.486L388.912 488.065C388.542 487.376 387.784 486.937 386.906 486.937C385.399 486.937 384.401 488.005 384.401 489.442C384.401 490.879 385.399 491.947 386.906 491.947C387.784 491.947 388.552 491.508 388.912 490.819L389.91 491.388C389.331 492.406 388.193 493.065 386.906 493.065ZM394.735 487.945H395.813V492.935H394.735V492.217C394.356 492.745 393.767 493.065 392.989 493.065C391.632 493.065 390.504 491.917 390.504 490.44C390.504 488.953 391.632 487.815 392.989 487.815C393.767 487.815 394.356 488.135 394.735 488.654V487.945ZM393.159 492.037C394.057 492.037 394.735 491.368 394.735 490.44C394.735 489.512 394.057 488.843 393.159 488.843C392.26 488.843 391.582 489.512 391.582 490.44C391.582 491.368 392.26 492.037 393.159 492.037ZM399.854 488.983H398.617V491.378C398.617 492.017 399.036 492.007 399.854 491.967V492.935C398.197 493.135 397.539 492.676 397.539 491.378V488.983H396.621V487.945H397.539V486.867L398.617 486.548V487.945H399.854V488.983ZM401.475 490.899C401.645 491.678 402.274 492.077 403.072 492.077C403.671 492.077 404.12 491.807 404.359 491.458L405.248 491.977C404.789 492.656 404.04 493.065 403.062 493.065C401.415 493.065 400.347 491.937 400.347 490.44C400.347 488.963 401.415 487.815 402.982 487.815C404.469 487.815 405.487 489.013 405.487 490.45C405.487 490.6 405.467 490.759 405.447 490.899H401.475ZM401.465 490.021H404.399C404.25 489.163 403.621 488.793 402.972 488.793C402.164 488.793 401.615 489.272 401.465 490.021ZM410.378 487.945H411.436V492.706C411.436 494.312 410.179 495.061 408.871 495.061C407.774 495.061 406.925 494.652 406.506 493.853L407.434 493.314C407.654 493.743 408.023 494.083 408.891 494.083C409.819 494.083 410.378 493.574 410.378 492.706V492.097C409.999 492.636 409.41 492.965 408.642 492.965C407.235 492.965 406.127 491.817 406.127 490.39C406.127 488.963 407.235 487.815 408.642 487.815C409.41 487.815 409.999 488.145 410.378 488.684V487.945ZM408.792 491.957C409.7 491.957 410.378 491.288 410.378 490.39C410.378 489.492 409.7 488.823 408.792 488.823C407.883 488.823 407.205 489.492 407.205 490.39C407.205 491.288 407.883 491.957 408.792 491.957ZM415.048 493.065C413.591 493.065 412.413 491.917 412.413 490.44C412.413 488.953 413.591 487.815 415.048 487.815C416.515 487.815 417.682 488.953 417.682 490.44C417.682 491.917 416.515 493.065 415.048 493.065ZM415.048 492.017C415.926 492.017 416.605 491.348 416.605 490.44C416.605 489.532 415.926 488.863 415.048 488.863C414.17 488.863 413.491 489.532 413.491 490.44C413.491 491.348 414.17 492.017 415.048 492.017ZM419.735 488.783C420.034 488.105 420.643 487.855 421.272 487.855V489.023C420.563 488.973 419.735 489.302 419.735 490.42V492.935H418.657V487.945H419.735V488.783ZM422.607 487.197C422.228 487.197 421.918 486.877 421.918 486.508C421.918 486.129 422.228 485.819 422.607 485.819C422.986 485.819 423.296 486.129 423.296 486.508C423.296 486.877 422.986 487.197 422.607 487.197ZM422.068 492.935V487.945H423.146V492.935H422.068ZM425.246 490.899C425.415 491.678 426.044 492.077 426.843 492.077C427.441 492.077 427.89 491.807 428.13 491.458L429.018 491.977C428.559 492.656 427.811 493.065 426.833 493.065C425.186 493.065 424.118 491.937 424.118 490.44C424.118 488.963 425.186 487.815 426.753 487.815C428.24 487.815 429.258 489.013 429.258 490.45C429.258 490.6 429.238 490.759 429.218 490.899H425.246ZM425.236 490.021H428.17C428.02 489.163 427.391 488.793 426.743 488.793C425.934 488.793 425.385 489.272 425.236 490.021ZM430.979 489.322C430.979 490.23 433.664 489.682 433.664 491.528C433.664 492.526 432.796 493.065 431.718 493.065C430.72 493.065 430.001 492.616 429.682 491.897L430.61 491.358C430.77 491.807 431.169 492.077 431.718 492.077C432.197 492.077 432.566 491.917 432.566 491.518C432.566 490.63 429.881 491.129 429.881 489.342C429.881 488.404 430.69 487.815 431.708 487.815C432.526 487.815 433.205 488.195 433.554 488.853L432.646 489.362C432.466 488.973 432.117 488.793 431.708 488.793C431.319 488.793 430.979 488.963 430.979 489.322Z" fill="white"/>
<rect x="581.127" y="456.728" width="137.723" height="61.3765" fill="#262626" stroke="#808080" stroke-width="1.49699"/>
<path d="M603.919 493.065C601.793 493.065 600.266 491.468 600.266 489.442C600.266 487.416 601.793 485.819 603.919 485.819C605.196 485.819 606.334 486.468 606.923 487.486L605.925 488.065C605.556 487.376 604.797 486.937 603.919 486.937C602.412 486.937 601.414 488.005 601.414 489.442C601.414 490.879 602.412 491.947 603.919 491.947C604.797 491.947 605.566 491.508 605.925 490.819L606.923 491.388C606.344 492.406 605.206 493.065 603.919 493.065ZM611.749 487.945H612.827V492.935H611.749V492.217C611.369 492.745 610.781 493.065 610.002 493.065C608.645 493.065 607.517 491.917 607.517 490.44C607.517 488.953 608.645 487.815 610.002 487.815C610.781 487.815 611.369 488.135 611.749 488.654V487.945ZM610.172 492.037C611.07 492.037 611.749 491.368 611.749 490.44C611.749 489.512 611.07 488.843 610.172 488.843C609.274 488.843 608.595 489.512 608.595 490.44C608.595 491.368 609.274 492.037 610.172 492.037ZM619.532 487.815C620.66 487.815 621.418 488.594 621.418 489.841V492.935H620.34V489.911C620.34 489.213 619.961 488.823 619.372 488.823C618.733 488.823 618.284 489.233 618.284 490.141V492.935H617.207V489.911C617.207 489.213 616.857 488.823 616.268 488.823C615.66 488.823 615.161 489.233 615.161 490.141V492.935H614.083V487.945H615.161V488.544C615.48 488.055 615.969 487.815 616.588 487.815C617.236 487.815 617.716 488.105 618.005 488.604C618.334 488.085 618.863 487.815 619.532 487.815ZM623.42 490.899C623.59 491.678 624.218 492.077 625.017 492.077C625.616 492.077 626.065 491.807 626.304 491.458L627.192 491.977C626.733 492.656 625.985 493.065 625.007 493.065C623.36 493.065 622.292 491.937 622.292 490.44C622.292 488.963 623.36 487.815 624.927 487.815C626.414 487.815 627.432 489.013 627.432 490.45C627.432 490.6 627.412 490.759 627.392 490.899H623.42ZM623.41 490.021H626.344C626.194 489.163 625.566 488.793 624.917 488.793C624.109 488.793 623.56 489.272 623.41 490.021ZM629.458 488.783C629.757 488.105 630.366 487.855 630.995 487.855V489.023C630.286 488.973 629.458 489.302 629.458 490.42V492.935H628.38V487.945H629.458V488.783ZM635.51 487.945H636.587V492.935H635.51V492.217C635.13 492.745 634.541 493.065 633.763 493.065C632.406 493.065 631.278 491.917 631.278 490.44C631.278 488.953 632.406 487.815 633.763 487.815C634.541 487.815 635.13 488.135 635.51 488.654V487.945ZM633.933 492.037C634.831 492.037 635.51 491.368 635.51 490.44C635.51 489.512 634.831 488.843 633.933 488.843C633.034 488.843 632.356 489.512 632.356 490.44C632.356 491.368 633.034 492.037 633.933 492.037ZM640.608 493.933H640.059L644.051 484.951H644.6L640.608 493.933ZM650.722 485.949C652.039 485.949 653.037 486.947 653.037 488.244C653.037 489.532 652.039 490.54 650.722 490.54H649.294V492.935H648.147V485.949H650.722ZM650.722 489.462C651.4 489.462 651.889 488.943 651.889 488.244C651.889 487.536 651.4 487.027 650.722 487.027H649.294V489.462H650.722ZM653.964 492.935V485.65H655.041V492.935H653.964ZM660.245 487.945H661.323V492.935H660.245V492.217C659.866 492.745 659.277 493.065 658.498 493.065C657.141 493.065 656.013 491.917 656.013 490.44C656.013 488.953 657.141 487.815 658.498 487.815C659.277 487.815 659.866 488.135 660.245 488.654V487.945ZM658.668 492.037C659.566 492.037 660.245 491.368 660.245 490.44C660.245 489.512 659.566 488.843 658.668 488.843C657.77 488.843 657.091 489.512 657.091 490.44C657.091 491.368 657.77 492.037 658.668 492.037ZM665.942 487.945H667.09L665.174 493.095C664.705 494.362 663.886 495.001 662.739 494.931V493.923C663.437 493.963 663.817 493.604 664.066 492.945L664.116 492.845L662 487.945H663.178L664.665 491.568L665.942 487.945ZM671.541 487.945H672.599V492.706C672.599 494.312 671.341 495.061 670.034 495.061C668.936 495.061 668.088 494.652 667.669 493.853L668.597 493.314C668.816 493.743 669.186 494.083 670.054 494.083C670.982 494.083 671.541 493.574 671.541 492.706V492.097C671.162 492.636 670.573 492.965 669.804 492.965C668.397 492.965 667.29 491.817 667.29 490.39C667.29 488.963 668.397 487.815 669.804 487.815C670.573 487.815 671.162 488.145 671.541 488.684V487.945ZM669.954 491.957C670.862 491.957 671.541 491.288 671.541 490.39C671.541 489.492 670.862 488.823 669.954 488.823C669.046 488.823 668.367 489.492 668.367 490.39C668.367 491.288 669.046 491.957 669.954 491.957ZM674.933 488.783C675.232 488.105 675.841 487.855 676.47 487.855V489.023C675.761 488.973 674.933 489.302 674.933 490.42V492.935H673.855V487.945H674.933V488.783ZM679.388 493.065C677.931 493.065 676.753 491.917 676.753 490.44C676.753 488.953 677.931 487.815 679.388 487.815C680.855 487.815 682.022 488.953 682.022 490.44C682.022 491.917 680.855 493.065 679.388 493.065ZM679.388 492.017C680.266 492.017 680.944 491.348 680.944 490.44C680.944 489.532 680.266 488.863 679.388 488.863C678.509 488.863 677.831 489.532 677.831 490.44C677.831 491.348 678.509 492.017 679.388 492.017ZM686.36 487.945H687.438V492.935H686.36V492.296C686.031 492.815 685.492 493.065 684.813 493.065C683.696 493.065 682.897 492.306 682.897 491.009V487.945H683.975V490.899C683.975 491.658 684.414 492.057 685.093 492.057C685.801 492.057 686.36 491.638 686.36 490.62V487.945ZM691.323 487.815C692.441 487.815 693.239 488.574 693.239 489.871V492.935H692.161V489.981C692.161 489.223 691.722 488.823 691.044 488.823C690.335 488.823 689.776 489.242 689.776 490.26V492.935H688.698V487.945H689.776V488.584C690.106 488.065 690.644 487.815 691.323 487.815ZM698.352 485.949H699.43V492.935H698.352V492.217C697.973 492.745 697.384 493.065 696.605 493.065C695.248 493.065 694.12 491.917 694.12 490.44C694.12 488.953 695.248 487.815 696.605 487.815C697.384 487.815 697.973 488.135 698.352 488.654V485.949ZM696.775 492.037C697.673 492.037 698.352 491.368 698.352 490.44C698.352 489.512 697.673 488.843 696.775 488.843C695.877 488.843 695.198 489.512 695.198 490.44C695.198 491.368 695.877 492.037 696.775 492.037Z" fill="white"/>
<rect x="822.671" y="456.728" width="137.723" height="61.3765" fill="#262626" stroke="#808080" stroke-width="1.49699"/>
<path d="M878.816 492.935L876.84 485.949H878.047L879.514 491.408L881.101 485.949H882.159L883.736 491.408L885.203 485.949H886.41L884.434 492.935H883.107L881.63 487.835L880.143 492.935H878.816ZM890.597 487.945H891.674V492.935H890.597V492.217C890.217 492.745 889.628 493.065 888.85 493.065C887.493 493.065 886.365 491.917 886.365 490.44C886.365 488.953 887.493 487.815 888.85 487.815C889.628 487.815 890.217 488.135 890.597 488.654V487.945ZM889.02 492.037C889.918 492.037 890.597 491.368 890.597 490.44C890.597 489.512 889.918 488.843 889.02 488.843C888.121 488.843 887.443 489.512 887.443 490.44C887.443 491.368 888.121 492.037 889.02 492.037ZM892.931 492.935V485.65H894.008V492.935H892.931ZM895.26 492.935V485.65H896.338V492.935H895.26ZM898.438 490.899C898.607 491.678 899.236 492.077 900.034 492.077C900.633 492.077 901.082 491.807 901.322 491.458L902.21 491.977C901.751 492.656 901.002 493.065 900.024 493.065C898.378 493.065 897.31 491.937 897.31 490.44C897.31 488.963 898.378 487.815 899.944 487.815C901.432 487.815 902.449 489.013 902.449 490.45C902.449 490.6 902.429 490.759 902.41 490.899H898.438ZM898.428 490.021H901.362C901.212 489.163 900.583 488.793 899.935 488.793C899.126 488.793 898.577 489.272 898.428 490.021ZM906.026 488.983H904.789V491.378C904.789 492.017 905.208 492.007 906.026 491.967V492.935C904.37 493.135 903.711 492.676 903.711 491.378V488.983H902.793V487.945H903.711V486.867L904.789 486.548V487.945H906.026V488.983Z" fill="white"/>
<rect x="1064.22" y="456.728" width="137.723" height="61.3765" fill="#262626" stroke="#808080" stroke-width="1.49699"/>
<path d="M1117.39 492.935L1116.9 491.528H1113.92L1113.43 492.935H1112.19L1114.72 485.949H1116.1L1118.62 492.935H1117.39ZM1114.3 490.45H1116.52L1115.41 487.296L1114.3 490.45ZM1122.13 487.815C1123.49 487.815 1124.61 488.953 1124.61 490.44C1124.61 491.917 1123.49 493.065 1122.13 493.065C1121.35 493.065 1120.76 492.745 1120.38 492.217V492.935H1119.3V485.949H1120.38V488.654C1120.76 488.135 1121.35 487.815 1122.13 487.815ZM1121.96 492.037C1122.86 492.037 1123.54 491.368 1123.54 490.44C1123.54 489.512 1122.86 488.843 1121.96 488.843C1121.06 488.843 1120.38 489.512 1120.38 490.44C1120.38 491.368 1121.06 492.037 1121.96 492.037ZM1127.95 493.065C1126.49 493.065 1125.31 491.917 1125.31 490.44C1125.31 488.953 1126.49 487.815 1127.95 487.815C1129.41 487.815 1130.58 488.953 1130.58 490.44C1130.58 491.917 1129.41 493.065 1127.95 493.065ZM1127.95 492.017C1128.82 492.017 1129.5 491.348 1129.5 490.44C1129.5 489.532 1128.82 488.863 1127.95 488.863C1127.07 488.863 1126.39 489.532 1126.39 490.44C1126.39 491.348 1127.07 492.017 1127.95 492.017ZM1134.92 487.945H1136V492.935H1134.92V492.296C1134.59 492.815 1134.05 493.065 1133.37 493.065C1132.25 493.065 1131.46 492.306 1131.46 491.009V487.945H1132.53V490.899C1132.53 491.658 1132.97 492.057 1133.65 492.057C1134.36 492.057 1134.92 491.638 1134.92 490.62V487.945ZM1140.04 488.983H1138.8V491.378C1138.8 492.017 1139.22 492.007 1140.04 491.967V492.935C1138.38 493.135 1137.73 492.676 1137.73 491.378V488.983H1136.81V487.945H1137.73V486.867L1138.8 486.548V487.945H1140.04V488.983ZM1146.21 493.065C1144.67 493.065 1143.56 492.127 1143.56 490.62V485.949H1144.71V490.55C1144.71 491.368 1145.18 491.947 1146.21 491.947C1147.24 491.947 1147.7 491.368 1147.7 490.55V485.949H1148.85V490.62C1148.85 492.127 1147.73 493.065 1146.21 493.065ZM1151.01 489.322C1151.01 490.23 1153.7 489.682 1153.7 491.528C1153.7 492.526 1152.83 493.065 1151.75 493.065C1150.75 493.065 1150.03 492.616 1149.71 491.897L1150.64 491.358C1150.8 491.807 1151.2 492.077 1151.75 492.077C1152.23 492.077 1152.6 491.917 1152.6 491.518C1152.6 490.63 1149.91 491.129 1149.91 489.342C1149.91 488.404 1150.72 487.815 1151.74 487.815C1152.56 487.815 1153.24 488.195 1153.59 488.853L1152.68 489.362C1152.5 488.973 1152.15 488.793 1151.74 488.793C1151.35 488.793 1151.01 488.963 1151.01 489.322Z" fill="white"/>
<rect x="98.0376" y="570.762" width="137.723" height="61.3765" fill="#262626" stroke="#808080" stroke-width="1.49699"/>
<path d="M128.884 601.082H125.94V603.038H128.784V604.135H125.94V606.97H124.792V599.984H128.884V601.082ZM130.736 604.934C130.906 605.712 131.534 606.111 132.333 606.111C132.932 606.111 133.381 605.842 133.62 605.493L134.509 606.012C134.049 606.69 133.301 607.099 132.323 607.099C130.676 607.099 129.608 605.972 129.608 604.475C129.608 602.998 130.676 601.85 132.243 601.85C133.73 601.85 134.748 603.048 134.748 604.485C134.748 604.634 134.728 604.794 134.708 604.934H130.736ZM130.726 604.056H133.66C133.511 603.197 132.882 602.828 132.233 602.828C131.425 602.828 130.876 603.307 130.726 604.056ZM139.619 601.98H140.697V606.97H139.619V606.251C139.24 606.78 138.651 607.099 137.873 607.099C136.515 607.099 135.388 605.952 135.388 604.475C135.388 602.988 136.515 601.85 137.873 601.85C138.651 601.85 139.24 602.169 139.619 602.688V601.98ZM138.042 606.072C138.941 606.072 139.619 605.403 139.619 604.475C139.619 603.547 138.941 602.878 138.042 602.878C137.144 602.878 136.466 603.547 136.466 604.475C136.466 605.403 137.144 606.072 138.042 606.072ZM144.738 603.018H143.5V605.413C143.5 606.052 143.919 606.042 144.738 606.002V606.97C143.081 607.169 142.422 606.71 142.422 605.413V603.018H141.504V601.98H142.422V600.902L143.5 600.583V601.98H144.738V603.018ZM149.127 601.98H150.205V606.97H149.127V606.331C148.798 606.85 148.259 607.099 147.58 607.099C146.463 607.099 145.664 606.341 145.664 605.044V601.98H146.742V604.934C146.742 605.692 147.181 606.091 147.86 606.091C148.568 606.091 149.127 605.672 149.127 604.654V601.98ZM152.543 602.818C152.843 602.139 153.451 601.89 154.08 601.89V603.058C153.372 603.008 152.543 603.337 152.543 604.455V606.97H151.465V601.98H152.543V602.818ZM155.491 604.934C155.661 605.712 156.289 606.111 157.088 606.111C157.687 606.111 158.136 605.842 158.375 605.493L159.263 606.012C158.804 606.69 158.056 607.099 157.078 607.099C155.431 607.099 154.363 605.972 154.363 604.475C154.363 602.998 155.431 601.85 156.998 601.85C158.485 601.85 159.503 603.048 159.503 604.485C159.503 604.634 159.483 604.794 159.463 604.934H155.491ZM155.481 604.056H158.415C158.265 603.197 157.637 602.828 156.988 602.828C156.18 602.828 155.631 603.307 155.481 604.056ZM164.374 599.984H165.452V606.97H164.374V606.251C163.995 606.78 163.406 607.099 162.628 607.099C161.27 607.099 160.143 605.952 160.143 604.475C160.143 602.988 161.27 601.85 162.628 601.85C163.406 601.85 163.995 602.169 164.374 602.688V599.984ZM162.797 606.072C163.695 606.072 164.374 605.403 164.374 604.475C164.374 603.547 163.695 602.878 162.797 602.878C161.899 602.878 161.22 603.547 161.22 604.475C161.22 605.403 161.899 606.072 162.797 606.072ZM176.169 603.477C176.169 604.415 175.82 605.263 175.251 605.892L175.99 606.65L175.181 607.379L174.413 606.59C173.864 606.91 173.225 607.099 172.547 607.099C170.551 607.099 168.924 605.503 168.924 603.477C168.924 601.451 170.551 599.854 172.547 599.854C174.552 599.854 176.169 601.451 176.169 603.477ZM172.547 605.982C172.926 605.982 173.275 605.902 173.594 605.752L172.317 604.445L173.125 603.716L174.463 605.084C174.812 604.654 175.022 604.105 175.022 603.477C175.022 602.04 173.924 600.972 172.547 600.972C171.169 600.972 170.071 602.04 170.071 603.477C170.071 604.914 171.169 605.982 172.547 605.982ZM180.617 601.98H181.695V606.97H180.617V606.331C180.287 606.85 179.748 607.099 179.07 607.099C177.952 607.099 177.154 606.341 177.154 605.044V601.98H178.231V604.934C178.231 605.692 178.671 606.091 179.349 606.091C180.058 606.091 180.617 605.672 180.617 604.654V601.98ZM186.907 601.98H187.985V606.97H186.907V606.251C186.528 606.78 185.939 607.099 185.16 607.099C183.803 607.099 182.675 605.952 182.675 604.475C182.675 602.988 183.803 601.85 185.16 601.85C185.939 601.85 186.528 602.169 186.907 602.688V601.98ZM185.33 606.072C186.228 606.072 186.907 605.403 186.907 604.475C186.907 603.547 186.228 602.878 185.33 602.878C184.432 602.878 183.753 603.547 183.753 604.475C183.753 605.403 184.432 606.072 185.33 606.072ZM190.319 602.818C190.618 602.139 191.227 601.89 191.856 601.89V603.058C191.147 603.008 190.319 603.337 190.319 604.455V606.97H189.241V601.98H190.319V602.818ZM197.063 606.97H195.776L193.73 604.664V606.97H192.652V599.984H193.73V604.185L195.666 601.98H196.983L194.788 604.425L197.063 606.97ZM198.327 601.231C197.948 601.231 197.639 600.912 197.639 600.543C197.639 600.163 197.948 599.854 198.327 599.854C198.706 599.854 199.016 600.163 199.016 600.543C199.016 600.912 198.706 601.231 198.327 601.231ZM197.788 606.97V601.98H198.866V606.97H197.788ZM200.966 604.934C201.136 605.712 201.764 606.111 202.563 606.111C203.161 606.111 203.611 605.842 203.85 605.493L204.738 606.012C204.279 606.69 203.531 607.099 202.553 607.099C200.906 607.099 199.838 605.972 199.838 604.475C199.838 602.998 200.906 601.85 202.473 601.85C203.96 601.85 204.978 603.048 204.978 604.485C204.978 604.634 204.958 604.794 204.938 604.934H200.966ZM200.956 604.056H203.89C203.74 603.197 203.112 602.828 202.463 602.828C201.655 602.828 201.106 603.307 200.956 604.056ZM206.699 603.357C206.699 604.265 209.384 603.716 209.384 605.563C209.384 606.561 208.516 607.099 207.438 607.099C206.44 607.099 205.721 606.65 205.402 605.932L206.33 605.393C206.49 605.842 206.889 606.111 207.438 606.111C207.917 606.111 208.286 605.952 208.286 605.553C208.286 604.664 205.602 605.163 205.602 603.377C205.602 602.439 206.41 601.85 207.428 601.85C208.246 601.85 208.925 602.229 209.274 602.888L208.366 603.397C208.186 603.008 207.837 602.828 207.428 602.828C207.039 602.828 206.699 602.998 206.699 603.357Z" fill="white"/>
<rect x="822.671" y="342.694" width="137.723" height="61.3765" fill="#262626" stroke="#808080" stroke-width="1.49699"/>
<path d="M880.649 371.916C881.967 371.916 882.965 372.914 882.965 374.211C882.965 375.498 881.967 376.506 880.649 376.506H879.222V378.902H878.074V371.916H880.649ZM880.649 375.429C881.328 375.429 881.817 374.91 881.817 374.211C881.817 373.502 881.328 372.993 880.649 372.993H879.222V375.429H880.649ZM884.872 374.75C885.171 374.071 885.78 373.822 886.408 373.822V374.989C885.7 374.94 884.872 375.269 884.872 376.387V378.902H883.794V373.912H884.872V374.75ZM889.326 379.031C887.869 379.031 886.692 377.884 886.692 376.407C886.692 374.92 887.869 373.782 889.326 373.782C890.793 373.782 891.961 374.92 891.961 376.407C891.961 377.884 890.793 379.031 889.326 379.031ZM889.326 377.983C890.204 377.983 890.883 377.315 890.883 376.407C890.883 375.498 890.204 374.83 889.326 374.83C888.448 374.83 887.769 375.498 887.769 376.407C887.769 377.315 888.448 377.983 889.326 377.983ZM896.932 373.912V378.902H895.854V374.95H894.197V378.902H893.119V374.95H892.361V373.912H893.119V373.812C893.119 372.465 893.878 371.786 895.375 371.786C895.734 371.786 896.083 371.826 896.483 371.916V372.904C896.083 372.844 895.724 372.824 895.375 372.824C894.616 372.824 894.197 373.043 894.197 373.812V373.912H896.932ZM898.179 378.902V371.616H899.257V378.902H898.179ZM901.356 376.866C901.526 377.644 902.155 378.043 902.953 378.043C903.552 378.043 904.001 377.774 904.241 377.425L905.129 377.944C904.67 378.622 903.921 379.031 902.943 379.031C901.297 379.031 900.229 377.904 900.229 376.407C900.229 374.93 901.297 373.782 902.863 373.782C904.35 373.782 905.368 374.98 905.368 376.417C905.368 376.566 905.348 376.726 905.328 376.866H901.356ZM901.346 375.987H904.281C904.131 375.129 903.502 374.76 902.853 374.76C902.045 374.76 901.496 375.239 901.346 375.987Z" fill="white"/>
<g clip-path="url(#clip1_427_38482)">
<rect x="583.949" y="542.482" width="130.621" height="73.6037" fill="#262626"/>
<path d="M597.43 563.517V564.044H595.714V569.106H595.155V564.044H593.438V563.517H597.43ZM599.93 565.018C600.904 565.018 601.495 565.657 601.495 566.655V569.106H600.968V566.655C600.968 565.944 600.576 565.529 599.882 565.529C599.179 565.529 598.588 565.944 598.588 567.014V569.106H598.061V563.517H598.588V565.736C598.9 565.234 599.363 565.018 599.93 565.018ZM602.689 564.267C602.474 564.267 602.306 564.092 602.306 563.884C602.306 563.677 602.474 563.501 602.689 563.501C602.905 563.501 603.072 563.677 603.072 563.884C603.072 564.092 602.905 564.267 602.689 564.267ZM602.426 569.106V565.114H602.953V569.106H602.426ZM604.398 566.16C604.398 567.15 606.729 566.583 606.729 568.052C606.729 568.73 606.139 569.202 605.284 569.202C604.486 569.202 603.943 568.794 603.743 568.283L604.191 568.02C604.334 568.427 604.749 568.691 605.284 568.691C605.755 568.691 606.202 568.523 606.202 568.052C606.202 567.062 603.871 567.629 603.871 566.16C603.871 565.521 604.438 565.018 605.236 565.018C605.891 565.018 606.402 565.337 606.634 565.832L606.195 566.088C606.027 565.681 605.62 565.529 605.236 565.529C604.821 565.529 604.398 565.729 604.398 566.16ZM614.235 565.114H614.778L613.549 569.106H612.974L611.944 565.888L610.914 569.106H610.339L609.109 565.114H609.652L610.634 568.427L611.68 565.114H612.207L613.253 568.427L614.235 565.114ZM617.353 565.018C618.327 565.018 618.918 565.657 618.918 566.655V569.106H618.391V566.655C618.391 565.944 618 565.529 617.305 565.529C616.603 565.529 616.012 565.944 616.012 567.014V569.106H615.485V563.517H616.012V565.736C616.323 565.234 616.786 565.018 617.353 565.018ZM621.693 565.018C622.915 565.018 623.673 566.032 623.673 567.126C623.673 567.206 623.665 567.293 623.657 567.373H620.152C620.264 568.188 620.895 568.691 621.741 568.691C622.372 568.691 622.811 568.395 623.027 568.012L623.49 568.283C623.154 568.826 622.54 569.202 621.733 569.202C620.472 569.202 619.61 568.315 619.61 567.11C619.61 565.936 620.456 565.018 621.693 565.018ZM621.693 565.529C620.855 565.529 620.256 566.08 620.152 566.862H623.13C623.019 565.984 622.38 565.529 621.693 565.529ZM624.951 565.776C625.23 565.218 625.701 565.05 626.212 565.05V565.561C625.573 565.561 624.951 565.896 624.951 566.886V569.106H624.424V565.114H624.951V565.776ZM628.449 565.018C629.671 565.018 630.429 566.032 630.429 567.126C630.429 567.206 630.421 567.293 630.413 567.373H626.908C627.02 568.188 627.651 568.691 628.497 568.691C629.128 568.691 629.567 568.395 629.782 568.012L630.245 568.283C629.91 568.826 629.295 569.202 628.489 569.202C627.228 569.202 626.365 568.315 626.365 567.11C626.365 565.936 627.212 565.018 628.449 565.018ZM628.449 565.529C627.611 565.529 627.012 566.08 626.908 566.862H629.886C629.774 565.984 629.136 565.529 628.449 565.529ZM635.898 565.114H636.425V569.106H635.898V568.483C635.587 568.986 635.123 569.202 634.557 569.202C633.583 569.202 632.992 568.563 632.992 567.565V565.114H633.519V567.565C633.519 568.275 633.91 568.691 634.605 568.691C635.307 568.691 635.898 568.275 635.898 567.206V565.114ZM637.867 566.16C637.867 567.15 640.198 566.583 640.198 568.052C640.198 568.73 639.607 569.202 638.753 569.202C637.955 569.202 637.412 568.794 637.212 568.283L637.659 568.02C637.803 568.427 638.218 568.691 638.753 568.691C639.224 568.691 639.671 568.523 639.671 568.052C639.671 567.062 637.34 567.629 637.34 566.16C637.34 565.521 637.907 565.018 638.705 565.018C639.36 565.018 639.871 565.337 640.102 565.832L639.663 566.088C639.496 565.681 639.088 565.529 638.705 565.529C638.29 565.529 637.867 565.729 637.867 566.16ZM642.717 565.018C643.938 565.018 644.697 566.032 644.697 567.126C644.697 567.206 644.689 567.293 644.681 567.373H641.176C641.288 568.188 641.918 568.691 642.765 568.691C643.395 568.691 643.835 568.395 644.05 568.012L644.513 568.283C644.178 568.826 643.563 569.202 642.757 569.202C641.495 569.202 640.633 568.315 640.633 567.11C640.633 565.936 641.479 565.018 642.717 565.018ZM642.717 565.529C641.878 565.529 641.28 566.08 641.176 566.862H644.154C644.042 565.984 643.403 565.529 642.717 565.529ZM645.974 565.776C646.254 565.218 646.725 565.05 647.236 565.05V565.561C646.597 565.561 645.974 565.896 645.974 566.886V569.106H645.447V565.114H645.974V565.776ZM648.129 566.16C648.129 567.15 650.46 566.583 650.46 568.052C650.46 568.73 649.87 569.202 649.015 569.202C648.217 569.202 647.674 568.794 647.474 568.283L647.922 568.02C648.065 568.427 648.48 568.691 649.015 568.691C649.486 568.691 649.934 568.523 649.934 568.052C649.934 567.062 647.602 567.629 647.602 566.16C647.602 565.521 648.169 565.018 648.967 565.018C649.622 565.018 650.133 565.337 650.365 565.832L649.926 566.088C649.758 565.681 649.351 565.529 648.967 565.529C648.552 565.529 648.129 565.729 648.129 566.16ZM655.02 569.202C653.815 569.202 652.92 568.291 652.92 567.11C652.92 565.928 653.815 565.018 655.02 565.018C655.81 565.018 656.481 565.433 656.769 566.064L656.337 566.311C656.122 565.84 655.619 565.529 655.02 565.529C654.134 565.529 653.447 566.224 653.447 567.11C653.447 567.996 654.134 568.691 655.02 568.691C655.627 568.691 656.114 568.371 656.369 567.908L656.808 568.164C656.481 568.794 655.803 569.202 655.02 569.202ZM660.871 565.114H661.398V569.106H660.871V568.323C660.536 568.858 659.969 569.202 659.259 569.202C658.133 569.202 657.199 568.291 657.199 567.11C657.199 565.928 658.133 565.018 659.259 565.018C659.969 565.018 660.536 565.361 660.871 565.896V565.114ZM659.298 568.691C660.185 568.691 660.871 567.996 660.871 567.11C660.871 566.224 660.185 565.529 659.298 565.529C658.412 565.529 657.726 566.224 657.726 567.11C657.726 567.996 658.412 568.691 659.298 568.691ZM664.294 565.018C665.268 565.018 665.859 565.657 665.859 566.655V569.106H665.332V566.655C665.332 565.944 664.941 565.529 664.246 565.529C663.544 565.529 662.953 565.944 662.953 567.014V569.106H662.426V565.114H662.953V565.736C663.264 565.234 663.728 565.018 664.294 565.018ZM668.962 564.267C668.746 564.267 668.579 564.092 668.579 563.884C668.579 563.677 668.746 563.501 668.962 563.501C669.177 563.501 669.345 563.677 669.345 563.884C669.345 564.092 669.177 564.267 668.962 564.267ZM668.698 569.106V565.114H669.225V569.106H668.698ZM672.124 565.018C673.098 565.018 673.689 565.657 673.689 566.655V569.106H673.162V566.655C673.162 565.944 672.771 565.529 672.076 565.529C671.374 565.529 670.783 565.944 670.783 567.014V569.106H670.256V565.114H670.783V565.736C671.094 565.234 671.557 565.018 672.124 565.018ZM676.736 565.625H675.586V568.044C675.586 568.73 675.961 568.675 676.736 568.643V569.106C675.658 569.265 675.059 569.002 675.059 568.044V565.625H674.221V565.114H675.059V564.156L675.586 563.996V565.114H676.736V565.625ZM679.129 565.018C680.35 565.018 681.109 566.032 681.109 567.126C681.109 567.206 681.101 567.293 681.093 567.373H677.588C677.7 568.188 678.33 568.691 679.177 568.691C679.807 568.691 680.246 568.395 680.462 568.012L680.925 568.283C680.59 568.826 679.975 569.202 679.169 569.202C677.907 569.202 677.045 568.315 677.045 567.11C677.045 565.936 677.891 565.018 679.129 565.018ZM679.129 565.529C678.29 565.529 677.692 566.08 677.588 566.862H680.566C680.454 565.984 679.815 565.529 679.129 565.529ZM682.386 565.776C682.665 565.218 683.136 565.05 683.647 565.05V565.561C683.009 565.561 682.386 565.896 682.386 566.886V569.106H681.859V565.114H682.386V565.776ZM687.473 565.114H688V569.106H687.473V568.323C687.138 568.858 686.571 569.202 685.86 569.202C684.735 569.202 683.801 568.291 683.801 567.11C683.801 565.928 684.735 565.018 685.86 565.018C686.571 565.018 687.138 565.361 687.473 565.896V565.114ZM685.9 568.691C686.787 568.691 687.473 567.996 687.473 567.11C687.473 566.224 686.787 565.529 685.9 565.529C685.014 565.529 684.327 566.224 684.327 567.11C684.327 567.996 685.014 568.691 685.9 568.691ZM690.888 569.202C689.683 569.202 688.788 568.291 688.788 567.11C688.788 565.928 689.683 565.018 690.888 565.018C691.679 565.018 692.349 565.433 692.637 566.064L692.206 566.311C691.99 565.84 691.487 565.529 690.888 565.529C690.002 565.529 689.315 566.224 689.315 567.11C689.315 567.996 690.002 568.691 690.888 568.691C691.495 568.691 691.982 568.371 692.238 567.908L692.677 568.164C692.349 568.794 691.671 569.202 690.888 569.202ZM695.461 565.625H694.311V568.044C694.311 568.73 694.687 568.675 695.461 568.643V569.106C694.383 569.265 693.784 569.002 693.784 568.044V565.625H692.946V565.114H693.784V564.156L694.311 563.996V565.114H695.461V565.625ZM598.644 577.114H599.187L597.957 581.106H597.383L596.353 577.888L595.323 581.106H594.748L593.518 577.114H594.061L595.043 580.427L596.089 577.114H596.616L597.662 580.427L598.644 577.114ZM600.157 576.267C599.942 576.267 599.774 576.092 599.774 575.884C599.774 575.677 599.942 575.501 600.157 575.501C600.373 575.501 600.54 575.677 600.54 575.884C600.54 576.092 600.373 576.267 600.157 576.267ZM599.894 581.106V577.114H600.421V581.106H599.894ZM603.567 577.625H602.417V580.044C602.417 580.73 602.792 580.675 603.567 580.643V581.106C602.489 581.265 601.89 581.002 601.89 580.044V577.625H601.052V577.114H601.89V576.156L602.417 575.996V577.114H603.567V577.625ZM606.225 577.018C607.199 577.018 607.79 577.657 607.79 578.655V581.106H607.263V578.655C607.263 577.944 606.872 577.529 606.178 577.529C605.475 577.529 604.884 577.944 604.884 579.014V581.106H604.357V575.517H604.884V577.736C605.196 577.234 605.659 577.018 606.225 577.018ZM612.745 577.625H611.596V580.044C611.596 580.73 611.971 580.675 612.745 580.643V581.106C611.667 581.265 611.069 581.002 611.069 580.044V577.625H610.23V577.114H611.069V576.156L611.596 575.996V577.114H612.745V577.625ZM615.404 577.018C616.378 577.018 616.969 577.657 616.969 578.655V581.106H616.442V578.655C616.442 577.944 616.051 577.529 615.356 577.529C614.653 577.529 614.063 577.944 614.063 579.014V581.106H613.536V575.517H614.063V577.736C614.374 577.234 614.837 577.018 615.404 577.018ZM619.744 577.018C620.966 577.018 621.724 578.032 621.724 579.126C621.724 579.206 621.716 579.293 621.708 579.373H618.203C618.315 580.188 618.946 580.691 619.792 580.691C620.423 580.691 620.862 580.395 621.077 580.012L621.541 580.283C621.205 580.826 620.59 581.202 619.784 581.202C618.523 581.202 617.66 580.315 617.66 579.11C617.66 577.936 618.507 577.018 619.744 577.018ZM619.744 577.529C618.906 577.529 618.307 578.08 618.203 578.862H621.181C621.069 577.984 620.431 577.529 619.744 577.529ZM622.738 576.267C622.522 576.267 622.355 576.092 622.355 575.884C622.355 575.677 622.522 575.501 622.738 575.501C622.954 575.501 623.121 575.677 623.121 575.884C623.121 576.092 622.954 576.267 622.738 576.267ZM622.475 581.106V577.114H623.001V581.106H622.475ZM624.559 577.776C624.838 577.218 625.309 577.05 625.82 577.05V577.561C625.181 577.561 624.559 577.896 624.559 578.886V581.106H624.032V577.114H624.559V577.776ZM631.796 577.114H632.323V582.703H631.796V580.323C631.46 580.858 630.894 581.202 630.183 581.202C629.057 581.202 628.123 580.291 628.123 579.11C628.123 577.928 629.057 577.018 630.183 577.018C630.894 577.018 631.46 577.361 631.796 577.896V577.114ZM630.223 580.691C631.109 580.691 631.796 579.996 631.796 579.11C631.796 578.224 631.109 577.529 630.223 577.529C629.337 577.529 628.65 578.224 628.65 579.11C628.65 579.996 629.337 580.691 630.223 580.691ZM636.161 577.114H636.688V581.106H636.161V580.483C635.85 580.986 635.387 581.202 634.82 581.202C633.846 581.202 633.255 580.563 633.255 579.565V577.114H633.782V579.565C633.782 580.275 634.173 580.691 634.868 580.691C635.57 580.691 636.161 580.275 636.161 579.206V577.114ZM641.148 577.114H641.675V581.106H641.148V580.323C640.813 580.858 640.246 581.202 639.535 581.202C638.409 581.202 637.475 580.291 637.475 579.11C637.475 577.928 638.409 577.018 639.535 577.018C640.246 577.018 640.813 577.361 641.148 577.896V577.114ZM639.575 580.691C640.461 580.691 641.148 579.996 641.148 579.11C641.148 578.224 640.461 577.529 639.575 577.529C638.689 577.529 638.002 578.224 638.002 579.11C638.002 579.996 638.689 580.691 639.575 580.691ZM643.23 577.776C643.509 577.218 643.98 577.05 644.491 577.05V577.561C643.852 577.561 643.23 577.896 643.23 578.886V581.106H642.703V577.114H643.23V577.776ZM648.351 581.106H647.648L645.652 579.182V581.106H645.125V575.517H645.652V578.878L647.553 577.114H648.271L646.211 579.03L648.351 581.106ZM649.246 576.267C649.031 576.267 648.863 576.092 648.863 575.884C648.863 575.677 649.031 575.501 649.246 575.501C649.462 575.501 649.629 575.677 649.629 575.884C649.629 576.092 649.462 576.267 649.246 576.267ZM648.983 581.106V577.114H649.51V581.106H648.983ZM652.384 577.018C653.606 577.018 654.364 578.032 654.364 579.126C654.364 579.206 654.356 579.293 654.348 579.373H650.843C650.955 580.188 651.586 580.691 652.432 580.691C653.063 580.691 653.502 580.395 653.718 580.012L654.181 580.283C653.845 580.826 653.231 581.202 652.424 581.202C651.163 581.202 650.301 580.315 650.301 579.11C650.301 577.936 651.147 577.018 652.384 577.018ZM652.384 577.529C651.546 577.529 650.947 578.08 650.843 578.862H653.822C653.71 577.984 653.071 577.529 652.384 577.529ZM655.374 578.16C655.374 579.15 657.705 578.583 657.705 580.052C657.705 580.73 657.115 581.202 656.26 581.202C655.462 581.202 654.919 580.794 654.719 580.283L655.166 580.02C655.31 580.427 655.725 580.691 656.26 580.691C656.731 580.691 657.178 580.523 657.178 580.052C657.178 579.062 654.847 579.629 654.847 578.16C654.847 577.521 655.414 577.018 656.212 577.018C656.867 577.018 657.378 577.337 657.61 577.832L657.17 578.088C657.003 577.681 656.596 577.529 656.212 577.529C655.797 577.529 655.374 577.729 655.374 578.16ZM660.82 578.16C660.82 579.15 663.151 578.583 663.151 580.052C663.151 580.73 662.56 581.202 661.706 581.202C660.908 581.202 660.365 580.794 660.165 580.283L660.612 580.02C660.756 580.427 661.171 580.691 661.706 580.691C662.177 580.691 662.624 580.523 662.624 580.052C662.624 579.062 660.293 579.629 660.293 578.16C660.293 577.521 660.86 577.018 661.658 577.018C662.313 577.018 662.824 577.337 663.055 577.832L662.616 578.088C662.449 577.681 662.041 577.529 661.658 577.529C661.243 577.529 660.82 577.729 660.82 578.16ZM664.167 576.267C663.951 576.267 663.784 576.092 663.784 575.884C663.784 575.677 663.951 575.501 664.167 575.501C664.382 575.501 664.55 575.677 664.55 575.884C664.55 576.092 664.382 576.267 664.167 576.267ZM663.903 581.106V577.114H664.43V581.106H663.903ZM669.716 577.018C670.594 577.018 671.209 577.617 671.209 578.615V581.106H670.682V578.615C670.682 577.904 670.275 577.529 669.708 577.529C669.093 577.529 668.598 577.904 668.598 578.894V581.106H668.071V578.615C668.071 577.904 667.704 577.529 667.137 577.529C666.562 577.529 665.988 577.904 665.988 578.894V581.106H665.461V577.114H665.988V577.697C666.299 577.21 666.73 577.018 667.209 577.018C667.768 577.018 668.199 577.281 668.423 577.744C668.718 577.249 669.205 577.018 669.716 577.018ZM674.28 577.018C675.406 577.018 676.34 577.928 676.34 579.11C676.34 580.291 675.406 581.202 674.28 581.202C673.57 581.202 673.003 580.858 672.667 580.323V582.703H672.141V577.114H672.667V577.896C673.003 577.361 673.57 577.018 674.28 577.018ZM674.24 580.691C675.127 580.691 675.813 579.996 675.813 579.11C675.813 578.224 675.127 577.529 674.24 577.529C673.354 577.529 672.667 578.224 672.667 579.11C672.667 579.996 673.354 580.691 674.24 580.691ZM677.128 581.106V575.277H677.655V581.106H677.128ZM681.56 577.114H682.119L680.41 581.473C680.107 582.239 679.516 582.758 678.798 582.703V582.207C679.316 582.263 679.676 581.896 679.891 581.377L679.995 581.13L678.207 577.114H678.766L680.267 580.459L681.56 577.114ZM686.716 577.018C687.841 577.018 688.776 577.928 688.776 579.11C688.776 580.291 687.841 581.202 686.716 581.202C686.005 581.202 685.438 580.858 685.103 580.323V581.106H684.576V575.517H685.103V577.896C685.438 577.361 686.005 577.018 686.716 577.018ZM686.676 580.691C687.562 580.691 688.249 579.996 688.249 579.11C688.249 578.224 687.562 577.529 686.676 577.529C685.79 577.529 685.103 578.224 685.103 579.11C685.103 579.996 685.79 580.691 686.676 580.691ZM692.282 577.114H692.841L691.132 581.473C690.829 582.239 690.238 582.758 689.52 582.703V582.207C690.039 582.263 690.398 581.896 690.614 581.377L690.717 581.13L688.929 577.114H689.488L690.989 580.459L692.282 577.114ZM598.093 589.018C598.971 589.018 599.586 589.617 599.586 590.615V593.106H599.059V590.615C599.059 589.904 598.652 589.529 598.085 589.529C597.47 589.529 596.975 589.904 596.975 590.894V593.106H596.448V590.615C596.448 589.904 596.081 589.529 595.514 589.529C594.939 589.529 594.365 589.904 594.365 590.894V593.106H593.838V589.114H594.365V589.697C594.676 589.21 595.107 589.018 595.586 589.018C596.145 589.018 596.576 589.281 596.8 589.744C597.095 589.249 597.582 589.018 598.093 589.018ZM602.378 593.202C601.212 593.202 600.278 592.291 600.278 591.11C600.278 589.928 601.212 589.018 602.378 589.018C603.543 589.018 604.478 589.928 604.478 591.11C604.478 592.291 603.543 593.202 602.378 593.202ZM602.378 592.691C603.264 592.691 603.951 591.996 603.951 591.11C603.951 590.224 603.264 589.529 602.378 589.529C601.492 589.529 600.805 590.224 600.805 591.11C600.805 591.996 601.492 592.691 602.378 592.691ZM607.99 589.114H608.549L606.912 593.106H606.273L604.637 589.114H605.195L606.593 592.555L607.99 589.114ZM609.361 588.267C609.146 588.267 608.978 588.092 608.978 587.884C608.978 587.677 609.146 587.501 609.361 587.501C609.577 587.501 609.744 587.677 609.744 587.884C609.744 588.092 609.577 588.267 609.361 588.267ZM609.098 593.106V589.114H609.625V593.106H609.098ZM612.523 589.018C613.497 589.018 614.088 589.657 614.088 590.655V593.106H613.561V590.655C613.561 589.944 613.17 589.529 612.475 589.529C611.773 589.529 611.182 589.944 611.182 591.014V593.106H610.655V589.114H611.182V589.736C611.493 589.234 611.956 589.018 612.523 589.018ZM618.452 589.114H618.979V592.946C618.979 594.16 618.005 594.798 616.975 594.798C616.057 594.798 615.394 594.447 615.083 593.824L615.546 593.561C615.746 593.968 616.113 594.287 616.975 594.287C617.901 594.287 618.452 593.76 618.452 592.946V592.323C618.117 592.858 617.55 593.202 616.839 593.202C615.714 593.202 614.78 592.291 614.78 591.11C614.78 589.928 615.714 589.018 616.839 589.018C617.55 589.018 618.117 589.361 618.452 589.896V589.114ZM616.879 592.691C617.766 592.691 618.452 591.996 618.452 591.11C618.452 590.224 617.766 589.529 616.879 589.529C615.993 589.529 615.307 590.224 615.307 591.11C615.307 591.996 615.993 592.691 616.879 592.691ZM624.031 589.625H622.881V592.044C622.881 592.73 623.256 592.675 624.031 592.643V593.106C622.953 593.265 622.354 593.002 622.354 592.044V589.625H621.516V589.114H622.354V588.156L622.881 587.996V589.114H624.031V589.625ZM626.69 589.018C627.664 589.018 628.254 589.657 628.254 590.655V593.106H627.728V590.655C627.728 589.944 627.336 589.529 626.642 589.529C625.939 589.529 625.348 589.944 625.348 591.014V593.106H624.821V587.517H625.348V589.736C625.66 589.234 626.123 589.018 626.69 589.018ZM631.03 589.018C632.251 589.018 633.01 590.032 633.01 591.126C633.01 591.206 633.002 591.293 632.994 591.373H629.489C629.601 592.188 630.231 592.691 631.078 592.691C631.708 592.691 632.148 592.395 632.363 592.012L632.826 592.283C632.491 592.826 631.876 593.202 631.07 593.202C629.808 593.202 628.946 592.315 628.946 591.11C628.946 589.936 629.792 589.018 631.03 589.018ZM631.03 589.529C630.191 589.529 629.593 590.08 629.489 590.862H632.467C632.355 589.984 631.716 589.529 631.03 589.529ZM638.016 589.018C638.894 589.018 639.509 589.617 639.509 590.615V593.106H638.982V590.615C638.982 589.904 638.574 589.529 638.008 589.529C637.393 589.529 636.898 589.904 636.898 590.894V593.106H636.371V590.615C636.371 589.904 636.004 589.529 635.437 589.529C634.862 589.529 634.287 589.904 634.287 590.894V593.106H633.76V589.114H634.287V589.697C634.598 589.21 635.03 589.018 635.509 589.018C636.068 589.018 636.499 589.281 636.722 589.744C637.018 589.249 637.505 589.018 638.016 589.018ZM645.781 589.114H646.308V593.106H645.781V592.323C645.446 592.858 644.879 593.202 644.168 593.202C643.043 593.202 642.109 592.291 642.109 591.11C642.109 589.928 643.043 589.018 644.168 589.018C644.879 589.018 645.446 589.361 645.781 589.896V589.114ZM644.208 592.691C645.095 592.691 645.781 591.996 645.781 591.11C645.781 590.224 645.095 589.529 644.208 589.529C643.322 589.529 642.636 590.224 642.636 591.11C642.636 591.996 643.322 592.691 644.208 592.691ZM647.863 589.776C648.142 589.218 648.613 589.05 649.124 589.05V589.561C648.486 589.561 647.863 589.896 647.863 590.886V593.106H647.336V589.114H647.863V589.776ZM651.377 593.202C650.212 593.202 649.278 592.291 649.278 591.11C649.278 589.928 650.212 589.018 651.377 589.018C652.543 589.018 653.477 589.928 653.477 591.11C653.477 592.291 652.543 593.202 651.377 593.202ZM651.377 592.691C652.264 592.691 652.95 591.996 652.95 591.11C652.95 590.224 652.264 589.529 651.377 589.529C650.491 589.529 649.805 590.224 649.805 591.11C649.805 591.996 650.491 592.691 651.377 592.691ZM657.081 589.114H657.608V593.106H657.081V592.483C656.77 592.986 656.307 593.202 655.74 593.202C654.766 593.202 654.175 592.563 654.175 591.565V589.114H654.702V591.565C654.702 592.275 655.093 592.691 655.788 592.691C656.491 592.691 657.081 592.275 657.081 591.206V589.114ZM660.503 589.018C661.478 589.018 662.068 589.657 662.068 590.655V593.106H661.541V590.655C661.541 589.944 661.15 589.529 660.456 589.529C659.753 589.529 659.162 589.944 659.162 591.014V593.106H658.635V589.114H659.162V589.736C659.474 589.234 659.937 589.018 660.503 589.018ZM666.433 587.517H666.959V593.106H666.433V592.323C666.097 592.858 665.53 593.202 664.82 593.202C663.694 593.202 662.76 592.291 662.76 591.11C662.76 589.928 663.694 589.018 664.82 589.018C665.53 589.018 666.097 589.361 666.433 589.896V587.517ZM664.86 592.691C665.746 592.691 666.433 591.996 666.433 591.11C666.433 590.224 665.746 589.529 664.86 589.529C663.973 589.529 663.287 590.224 663.287 591.11C663.287 591.996 663.973 592.691 664.86 592.691ZM670.159 588.267C669.943 588.267 669.776 588.092 669.776 587.884C669.776 587.677 669.943 587.501 670.159 587.501C670.375 587.501 670.542 587.677 670.542 587.884C670.542 588.092 670.375 588.267 670.159 588.267ZM669.895 593.106V589.114H670.422V593.106H669.895ZM673.321 589.018C674.295 589.018 674.886 589.657 674.886 590.655V593.106H674.359V590.655C674.359 589.944 673.968 589.529 673.273 589.529C672.571 589.529 671.98 589.944 671.98 591.014V593.106H671.453V589.114H671.98V589.736C672.291 589.234 672.754 589.018 673.321 589.018ZM679.841 589.625H678.691V592.044C678.691 592.73 679.066 592.675 679.841 592.643V593.106C678.763 593.265 678.164 593.002 678.164 592.044V589.625H677.326V589.114H678.164V588.156L678.691 587.996V589.114H679.841V589.625ZM682.499 589.018C683.474 589.018 684.064 589.657 684.064 590.655V593.106H683.537V590.655C683.537 589.944 683.146 589.529 682.452 589.529C681.749 589.529 681.158 589.944 681.158 591.014V593.106H680.631V587.517H681.158V589.736C681.47 589.234 681.933 589.018 682.499 589.018ZM686.84 589.018C688.061 589.018 688.82 590.032 688.82 591.126C688.82 591.206 688.812 591.293 688.804 591.373H685.299C685.411 592.188 686.041 592.691 686.888 592.691C687.518 592.691 687.957 592.395 688.173 592.012L688.636 592.283C688.301 592.826 687.686 593.202 686.88 593.202C685.618 593.202 684.756 592.315 684.756 591.11C684.756 589.936 685.602 589.018 686.84 589.018ZM686.84 589.529C686.001 589.529 685.403 590.08 685.299 590.862H688.277C688.165 589.984 687.526 589.529 686.84 589.529ZM594.253 602.16C594.253 603.15 596.584 602.583 596.584 604.052C596.584 604.73 595.993 605.202 595.139 605.202C594.341 605.202 593.798 604.794 593.598 604.283L594.045 604.02C594.189 604.427 594.604 604.691 595.139 604.691C595.61 604.691 596.057 604.523 596.057 604.052C596.057 603.062 593.726 603.629 593.726 602.16C593.726 601.521 594.293 601.018 595.091 601.018C595.746 601.018 596.257 601.337 596.488 601.832L596.049 602.088C595.882 601.681 595.474 601.529 595.091 601.529C594.676 601.529 594.253 601.729 594.253 602.16ZM599.515 601.018C600.641 601.018 601.575 601.928 601.575 603.11C601.575 604.291 600.641 605.202 599.515 605.202C598.805 605.202 598.238 604.858 597.902 604.323V606.703H597.375V601.114H597.902V601.896C598.238 601.361 598.805 601.018 599.515 601.018ZM599.475 604.691C600.361 604.691 601.048 603.996 601.048 603.11C601.048 602.224 600.361 601.529 599.475 601.529C598.589 601.529 597.902 602.224 597.902 603.11C597.902 603.996 598.589 604.691 599.475 604.691ZM605.796 601.114H606.323V605.106H605.796V604.323C605.461 604.858 604.894 605.202 604.184 605.202C603.058 605.202 602.124 604.291 602.124 603.11C602.124 601.928 603.058 601.018 604.184 601.018C604.894 601.018 605.461 601.361 605.796 601.896V601.114ZM604.224 604.691C605.11 604.691 605.796 603.996 605.796 603.11C605.796 602.224 605.11 601.529 604.224 601.529C603.337 601.529 602.651 602.224 602.651 603.11C602.651 603.996 603.337 604.691 604.224 604.691ZM609.211 605.202C608.006 605.202 607.112 604.291 607.112 603.11C607.112 601.928 608.006 601.018 609.211 601.018C610.002 601.018 610.673 601.433 610.96 602.064L610.529 602.311C610.313 601.84 609.81 601.529 609.211 601.529C608.325 601.529 607.639 602.224 607.639 603.11C607.639 603.996 608.325 604.691 609.211 604.691C609.818 604.691 610.305 604.371 610.561 603.908L611 604.164C610.673 604.794 609.994 605.202 609.211 605.202ZM613.474 601.018C614.695 601.018 615.454 602.032 615.454 603.126C615.454 603.206 615.446 603.293 615.438 603.373H611.933C612.045 604.188 612.675 604.691 613.522 604.691C614.152 604.691 614.592 604.395 614.807 604.012L615.27 604.283C614.935 604.826 614.32 605.202 613.514 605.202C612.252 605.202 611.39 604.315 611.39 603.11C611.39 601.936 612.236 601.018 613.474 601.018ZM613.474 601.529C612.636 601.529 612.037 602.08 611.933 602.862H614.911C614.799 601.984 614.16 601.529 613.474 601.529ZM616.244 605.186C615.996 605.186 615.805 604.994 615.805 604.746C615.805 604.499 615.996 604.307 616.244 604.307C616.491 604.307 616.683 604.499 616.683 604.746C616.683 604.994 616.491 605.186 616.244 605.186Z" fill="white"/>
<rect x="583.949" y="542.483" width="130.238" height="2.99398" fill="url(#paint0_linear_427_38482)"/>
</g>
<g clip-path="url(#clip2_427_38482)">
<rect x="826.53" y="543.519" width="130.621" height="73.6037" fill="#262626"/>
<path d="M841.857 568.146C841.409 568.146 841.05 567.787 841.05 567.339C841.05 566.9 841.409 566.549 841.857 566.549C842.296 566.549 842.647 566.9 842.647 567.339C842.647 567.787 842.296 568.146 841.857 568.146ZM853.584 564.553V570.142H853.025V565.399L851.069 568.673H850.989L849.033 565.399V570.142H848.474V564.553H849.169L851.029 567.667L852.89 564.553H853.584ZM856.537 566.054C857.758 566.054 858.517 567.068 858.517 568.162C858.517 568.242 858.509 568.329 858.501 568.409H854.996C855.108 569.224 855.738 569.727 856.585 569.727C857.215 569.727 857.654 569.431 857.87 569.048L858.333 569.32C857.998 569.862 857.383 570.238 856.577 570.238C855.315 570.238 854.453 569.351 854.453 568.146C854.453 566.972 855.299 566.054 856.537 566.054ZM856.537 566.565C855.698 566.565 855.1 567.116 854.996 567.898H857.974C857.862 567.02 857.223 566.565 856.537 566.565ZM861.266 566.661H860.116V569.08C860.116 569.767 860.491 569.711 861.266 569.679V570.142C860.188 570.302 859.589 570.038 859.589 569.08V566.661H858.751V566.15H859.589V565.192L860.116 565.032V566.15H861.266V566.661ZM865.248 566.15H865.775V570.142H865.248V569.359C864.912 569.894 864.345 570.238 863.635 570.238C862.509 570.238 861.575 569.327 861.575 568.146C861.575 566.964 862.509 566.054 863.635 566.054C864.345 566.054 864.912 566.397 865.248 566.932V566.15ZM863.675 569.727C864.561 569.727 865.248 569.032 865.248 568.146C865.248 567.26 864.561 566.565 863.675 566.565C862.789 566.565 862.102 567.26 862.102 568.146C862.102 569.032 862.789 569.727 863.675 569.727ZM871.058 566.054C871.936 566.054 872.551 566.653 872.551 567.651V570.142H872.024V567.651C872.024 566.94 871.617 566.565 871.05 566.565C870.435 566.565 869.94 566.94 869.94 567.93V570.142H869.413V567.651C869.413 566.94 869.046 566.565 868.479 566.565C867.904 566.565 867.329 566.94 867.329 567.93V570.142H866.802V566.15H867.329V566.733C867.641 566.246 868.072 566.054 868.551 566.054C869.11 566.054 869.541 566.318 869.765 566.781C870.06 566.286 870.547 566.054 871.058 566.054ZM876.915 566.15H877.442V570.142H876.915V569.359C876.58 569.894 876.013 570.238 875.303 570.238C874.177 570.238 873.243 569.327 873.243 568.146C873.243 566.964 874.177 566.054 875.303 566.054C876.013 566.054 876.58 566.397 876.915 566.932V566.15ZM875.343 569.727C876.229 569.727 876.915 569.032 876.915 568.146C876.915 567.26 876.229 566.565 875.343 566.565C874.456 566.565 873.77 567.26 873.77 568.146C873.77 569.032 874.456 569.727 875.343 569.727ZM878.885 567.196C878.885 568.186 881.217 567.619 881.217 569.088C881.217 569.767 880.626 570.238 879.772 570.238C878.973 570.238 878.43 569.83 878.231 569.32L878.678 569.056C878.821 569.463 879.237 569.727 879.772 569.727C880.243 569.727 880.69 569.559 880.69 569.088C880.69 568.098 878.358 568.665 878.358 567.196C878.358 566.557 878.925 566.054 879.724 566.054C880.378 566.054 880.889 566.373 881.121 566.868L880.682 567.124C880.514 566.717 880.107 566.565 879.724 566.565C879.309 566.565 878.885 566.765 878.885 567.196ZM885.194 570.142H884.492L882.496 568.218V570.142H881.969V564.553H882.496V567.914L884.396 566.15H885.115L883.055 568.066L885.194 570.142ZM841.857 580.146C841.409 580.146 841.05 579.787 841.05 579.339C841.05 578.9 841.409 578.549 841.857 578.549C842.296 578.549 842.647 578.9 842.647 579.339C842.647 579.787 842.296 580.146 841.857 580.146ZM849.033 581.615H851.748V582.142H848.474V576.553H851.708V577.08H849.033V579.06H851.508V579.587H849.033V581.615ZM854.656 578.661H853.507V581.08C853.507 581.767 853.882 581.711 854.656 581.679V582.142C853.578 582.302 852.98 582.038 852.98 581.08V578.661H852.141V578.15H852.98V577.192L853.507 577.032V578.15H854.656V578.661ZM857.315 578.054C858.289 578.054 858.88 578.693 858.88 579.691V582.142H858.353V579.691C858.353 578.98 857.962 578.565 857.267 578.565C856.564 578.565 855.974 578.98 855.974 580.05V582.142H855.447V576.553H855.974V578.773C856.285 578.27 856.748 578.054 857.315 578.054ZM861.655 578.054C862.877 578.054 863.635 579.068 863.635 580.162C863.635 580.242 863.627 580.329 863.619 580.409H860.114C860.226 581.224 860.857 581.727 861.703 581.727C862.334 581.727 862.773 581.431 862.988 581.048L863.451 581.32C863.116 581.862 862.501 582.238 861.695 582.238C860.434 582.238 859.571 581.351 859.571 580.146C859.571 578.972 860.418 578.054 861.655 578.054ZM861.655 578.565C860.817 578.565 860.218 579.116 860.114 579.898H863.092C862.98 579.02 862.342 578.565 861.655 578.565ZM864.912 578.813C865.192 578.254 865.663 578.086 866.174 578.086V578.597C865.535 578.597 864.912 578.932 864.912 579.922V582.142H864.385V578.15H864.912V578.813ZM871.615 578.15H872.157L870.928 582.142H870.353L869.323 578.924L868.293 582.142H867.718L866.489 578.15H867.032L868.014 581.463L869.06 578.15H869.587L870.633 581.463L871.615 578.15ZM876.141 578.15H876.668V582.142H876.141V581.359C875.806 581.894 875.239 582.238 874.529 582.238C873.403 582.238 872.469 581.327 872.469 580.146C872.469 578.964 873.403 578.054 874.529 578.054C875.239 578.054 875.806 578.397 876.141 578.932V578.15ZM874.569 581.727C875.455 581.727 876.141 581.032 876.141 580.146C876.141 579.26 875.455 578.565 874.569 578.565C873.682 578.565 872.996 579.26 872.996 580.146C872.996 581.032 873.682 581.727 874.569 581.727ZM877.696 582.142V576.314H878.223V582.142H877.696ZM879.254 582.142V576.314H879.78V582.142H879.254ZM882.655 578.054C883.877 578.054 884.635 579.068 884.635 580.162C884.635 580.242 884.627 580.329 884.619 580.409H881.114C881.226 581.224 881.857 581.727 882.703 581.727C883.334 581.727 883.773 581.431 883.988 581.048L884.452 581.32C884.116 581.862 883.501 582.238 882.695 582.238C881.434 582.238 880.571 581.351 880.571 580.146C880.571 578.972 881.418 578.054 882.655 578.054ZM882.655 578.565C881.817 578.565 881.218 579.116 881.114 579.898H884.092C883.98 579.02 883.342 578.565 882.655 578.565ZM887.384 578.661H886.235V581.08C886.235 581.767 886.61 581.711 887.384 581.679V582.142C886.306 582.302 885.708 582.038 885.708 581.08V578.661H884.869V578.15H885.708V577.192L886.235 577.032V578.15H887.384V578.661Z" fill="white"/>
<rect x="826.53" y="543.52" width="130.238" height="2.99398" fill="url(#paint1_linear_427_38482)"/>
</g>
<path d="M649.988 258.706C647.397 258.706 645.323 260.779 645.323 263.371C645.323 265.963 647.397 268.036 649.988 268.036C652.58 268.036 654.653 265.963 654.653 263.371C654.653 260.779 652.58 258.706 649.988 258.706Z" fill="white"/>
<path d="M648.889 344.542C649.496 345.149 650.481 345.149 651.088 344.542L660.984 334.646C661.591 334.038 661.591 333.054 660.984 332.447C660.377 331.839 659.392 331.839 658.785 332.447L649.988 341.243L641.192 332.447C640.585 331.839 639.6 331.839 638.993 332.447C638.385 333.054 638.385 334.038 638.993 334.646L648.889 344.542ZM646.878 263.371C646.878 261.638 648.255 260.261 649.988 260.261V257.151C646.538 257.151 643.768 259.921 643.768 263.371H646.878ZM649.988 260.261C651.721 260.261 653.098 261.638 653.098 263.371H656.208C656.208 259.921 653.439 257.151 649.988 257.151V260.261ZM653.098 263.371C653.098 265.104 651.721 266.481 649.988 266.481V269.591C653.439 269.591 656.208 266.822 656.208 263.371H653.098ZM649.988 266.481C648.255 266.481 646.878 265.104 646.878 263.371H643.768C643.768 266.822 646.538 269.591 649.988 269.591V266.481ZM648.433 268.036V343.442H651.543V268.036H648.433Z" fill="#808080"/>
<path d="M650.5 139C648.556 139 647 140.566 647 142.523C647 144.481 648.556 146.047 650.5 146.047C652.444 146.047 654 144.481 654 142.523C654 140.566 652.444 139 650.5 139Z" fill="white"/>
<path d="M649.4 204.1C650.008 204.707 650.992 204.707 651.6 204.1L661.496 194.204C662.103 193.596 662.103 192.612 661.496 192.004C660.888 191.397 659.904 191.397 659.296 192.004L650.5 200.801L641.704 192.004C641.096 191.397 640.112 191.397 639.504 192.004C638.897 192.612 638.897 193.596 639.504 194.204L649.4 204.1ZM648.555 142.523C648.555 141.415 649.424 140.555 650.5 140.555V137.445C647.687 137.445 645.445 139.717 645.445 142.523H648.555ZM650.5 140.555C651.576 140.555 652.445 141.415 652.445 142.523H655.555C655.555 139.717 653.313 137.445 650.5 137.445V140.555ZM652.445 142.523C652.445 143.632 651.576 144.492 650.5 144.492V147.602C653.313 147.602 655.555 145.33 655.555 142.523H652.445ZM650.5 144.492C649.424 144.492 648.555 143.632 648.555 142.523H645.445C645.445 145.33 647.687 147.602 650.5 147.602V144.492ZM648.945 146.047V203H652.055V146.047H648.945Z" fill="#808080"/>
<path d="M581.875 228.766C579.283 228.766 577.21 230.839 577.21 233.431C577.21 236.022 579.283 238.096 581.875 238.096C584.467 238.096 586.54 236.022 586.54 233.431C586.54 230.839 584.467 228.766 581.875 228.766Z" fill="white"/>
<path d="M166.899 233.431V231.876C166.04 231.876 165.344 232.572 165.344 233.431H166.899ZM165.8 344.541C166.407 345.148 167.391 345.148 167.999 344.541L177.895 334.645C178.502 334.038 178.502 333.053 177.895 332.446C177.287 331.839 176.303 331.839 175.696 332.446L166.899 341.243L158.103 332.446C157.495 331.839 156.511 331.839 155.904 332.446C155.296 333.053 155.296 334.038 155.904 334.645L165.8 344.541ZM578.765 233.431C578.765 231.698 580.142 230.321 581.875 230.321V227.211C578.425 227.211 575.655 229.98 575.655 233.431H578.765ZM581.875 230.321C583.608 230.321 584.985 231.698 584.985 233.431H588.095C588.095 229.98 585.326 227.211 581.875 227.211V230.321ZM584.985 233.431C584.985 235.164 583.608 236.541 581.875 236.541V239.651C585.326 239.651 588.095 236.881 588.095 233.431H584.985ZM581.875 236.541C580.142 236.541 578.765 235.164 578.765 233.431H575.655C575.655 236.881 578.425 239.651 581.875 239.651V236.541ZM577.21 231.876H166.899V234.986H577.21V231.876ZM165.344 233.431V343.442H168.454V233.431H165.344Z" fill="#808080"/>
<path d="M411.799 344.541C412.406 345.148 413.39 345.148 413.998 344.541L423.894 334.645C424.501 334.038 424.501 333.053 423.894 332.446C423.286 331.839 422.302 331.839 421.695 332.446L412.898 341.242L404.102 332.446C403.494 331.839 402.51 331.839 401.903 332.446C401.295 333.053 401.295 334.038 401.903 334.645L411.799 344.541ZM411.343 233.052V343.442H414.453V233.052H411.343Z" fill="#808080"/>
<path d="M890.741 344.541C891.348 345.148 892.333 345.148 892.94 344.541L902.836 334.645C903.443 334.038 903.443 333.053 902.836 332.446C902.229 331.839 901.244 331.839 900.637 332.446L891.84 341.242L883.044 332.446C882.437 331.839 881.452 331.839 880.845 332.446C880.238 333.053 880.238 334.038 880.845 334.645L890.741 344.541ZM890.285 233.052V343.442H893.395V233.052H890.285Z" fill="#808080"/>
<path d="M718.101 228.766C715.509 228.766 713.436 230.839 713.436 233.431C713.436 236.022 715.509 238.096 718.101 238.096C720.692 238.096 722.766 236.022 722.766 233.431C722.766 230.839 720.692 228.766 718.101 228.766Z" fill="white"/>
<path d="M1133.08 233.431H1134.63C1134.63 232.572 1133.94 231.876 1133.08 231.876V233.431ZM1131.98 344.541C1132.58 345.148 1133.57 345.148 1134.18 344.541L1144.07 334.645C1144.68 334.038 1144.68 333.053 1144.07 332.446C1143.46 331.839 1142.48 331.839 1141.87 332.446L1133.08 341.243L1124.28 332.446C1123.67 331.839 1122.69 331.839 1122.08 332.446C1121.47 333.053 1121.47 334.038 1122.08 334.645L1131.98 344.541ZM714.991 233.431C714.991 231.698 716.368 230.321 718.101 230.321V227.211C714.65 227.211 711.881 229.98 711.881 233.431H714.991ZM718.101 230.321C719.833 230.321 721.211 231.698 721.211 233.431H724.321C724.321 229.98 721.551 227.211 718.101 227.211V230.321ZM721.211 233.431C721.211 235.164 719.833 236.541 718.101 236.541V239.651C721.551 239.651 724.321 236.881 724.321 233.431H721.211ZM718.101 236.541C716.368 236.541 714.991 235.164 714.991 233.431H711.881C711.881 236.881 714.65 239.651 718.101 239.651V236.541ZM722.766 234.986H1133.08V231.876H722.766V234.986ZM1131.52 233.431V343.442H1134.63V233.431H1131.52Z" fill="#808080"/>
<path d="M166.899 398.656C164.308 398.656 162.234 400.73 162.234 403.321C162.234 405.913 164.308 407.986 166.899 407.986C169.491 407.986 171.564 405.913 171.564 403.321C171.564 400.73 169.491 398.656 166.899 398.656Z" fill="white"/>
<path d="M165.8 458.575C166.407 459.182 167.392 459.182 167.999 458.575L177.895 448.679C178.502 448.072 178.502 447.087 177.895 446.48C177.288 445.873 176.303 445.873 175.696 446.48L166.899 455.276L158.103 446.48C157.496 445.873 156.511 445.873 155.904 446.48C155.297 447.087 155.297 448.072 155.904 448.679L165.8 458.575ZM163.789 403.321C163.789 401.588 165.167 400.211 166.899 400.211V397.101C163.449 397.101 160.679 399.871 160.679 403.321H163.789ZM166.899 400.211C168.632 400.211 170.009 401.588 170.009 403.321H173.119C173.119 399.871 170.35 397.101 166.899 397.101V400.211ZM170.009 403.321C170.009 405.054 168.632 406.431 166.899 406.431V409.541C170.35 409.541 173.119 406.772 173.119 403.321H170.009ZM166.899 406.431C165.167 406.431 163.789 405.054 163.789 403.321H160.679C160.679 406.772 163.449 409.541 166.899 409.541V406.431ZM165.344 407.986V457.476H168.454V407.986H165.344Z" fill="#808080"/>
<path d="M166.899 512.69C164.308 512.69 162.234 514.764 162.234 517.355C162.234 519.947 164.308 522.02 166.899 522.02C169.491 522.02 171.564 519.947 171.564 517.355C171.564 514.764 169.491 512.69 166.899 512.69Z" fill="white"/>
<path d="M165.8 572.609C166.407 573.216 167.392 573.216 167.999 572.609L177.895 562.713C178.502 562.106 178.502 561.121 177.895 560.514C177.288 559.907 176.303 559.907 175.696 560.514L166.899 569.31L158.103 560.514C157.496 559.907 156.511 559.907 155.904 560.514C155.297 561.121 155.297 562.106 155.904 562.713L165.8 572.609ZM163.789 517.355C163.789 515.622 165.167 514.245 166.899 514.245V511.135C163.449 511.135 160.679 513.905 160.679 517.355H163.789ZM166.899 514.245C168.632 514.245 170.009 515.622 170.009 517.355H173.119C173.119 513.905 170.35 511.135 166.899 511.135V514.245ZM170.009 517.355C170.009 519.088 168.632 520.465 166.899 520.465V523.575C170.35 523.575 173.119 520.806 173.119 517.355H170.009ZM166.899 520.465C165.167 520.465 163.789 519.088 163.789 517.355H160.679C160.679 520.806 163.449 523.575 166.899 523.575V520.465ZM165.344 522.02V571.51H168.454V522.02H165.344Z" fill="#808080"/>
<path d="M408.444 398.656C405.852 398.656 403.779 400.73 403.779 403.321C403.779 405.913 405.852 407.986 408.444 407.986C411.036 407.986 413.109 405.913 413.109 403.321C413.109 400.73 411.036 398.656 408.444 398.656Z" fill="white"/>
<path d="M407.344 458.575C407.952 459.182 408.936 459.182 409.543 458.575L419.439 448.679C420.047 448.072 420.047 447.087 419.439 446.48C418.832 445.873 417.848 445.873 417.24 446.48L408.444 455.276L399.647 446.48C399.04 445.873 398.056 445.873 397.448 446.48C396.841 447.087 396.841 448.072 397.448 448.679L407.344 458.575ZM405.334 403.321C405.334 401.588 406.711 400.211 408.444 400.211V397.101C404.993 397.101 402.224 399.871 402.224 403.321H405.334ZM408.444 400.211C410.177 400.211 411.554 401.588 411.554 403.321H414.664C414.664 399.871 411.894 397.101 408.444 397.101V400.211ZM411.554 403.321C411.554 405.054 410.177 406.431 408.444 406.431V409.541C411.894 409.541 414.664 406.772 414.664 403.321H411.554ZM408.444 406.431C406.711 406.431 405.334 405.054 405.334 403.321H402.224C402.224 406.772 404.993 409.541 408.444 409.541V406.431ZM406.889 407.986V457.476H409.999V407.986H406.889Z" fill="#808080"/>
<path d="M649.988 398.656C647.397 398.656 645.323 400.73 645.323 403.321C645.323 405.913 647.397 407.986 649.988 407.986C652.58 407.986 654.653 405.913 654.653 403.321C654.653 400.73 652.58 398.656 649.988 398.656Z" fill="white"/>
<path d="M648.889 458.575C649.496 459.182 650.481 459.182 651.088 458.575L660.984 448.679C661.591 448.072 661.591 447.087 660.984 446.48C660.377 445.873 659.392 445.873 658.785 446.48L649.988 455.276L641.192 446.48C640.585 445.873 639.6 445.873 638.993 446.48C638.385 447.087 638.385 448.072 638.993 448.679L648.889 458.575ZM646.878 403.321C646.878 401.588 648.255 400.211 649.988 400.211V397.101C646.538 397.101 643.768 399.871 643.768 403.321H646.878ZM649.988 400.211C651.721 400.211 653.098 401.588 653.098 403.321H656.208C656.208 399.871 653.439 397.101 649.988 397.101V400.211ZM653.098 403.321C653.098 405.054 651.721 406.431 649.988 406.431V409.541C653.439 409.541 656.208 406.772 656.208 403.321H653.098ZM649.988 406.431C648.255 406.431 646.878 405.054 646.878 403.321H643.768C643.768 406.772 646.538 409.541 649.988 409.541V406.431ZM648.433 407.986V457.476H651.543V407.986H648.433Z" fill="#808080"/>
<path d="M891.533 398.656C888.941 398.656 886.868 400.73 886.868 403.321C886.868 405.913 888.941 407.986 891.533 407.986C894.124 407.986 896.198 405.913 896.198 403.321C896.198 400.73 894.124 398.656 891.533 398.656Z" fill="white"/>
<path d="M890.433 458.575C891.04 459.182 892.025 459.182 892.632 458.575L902.528 448.679C903.136 448.072 903.136 447.087 902.528 446.48C901.921 445.873 900.936 445.873 900.329 446.48L891.533 455.276L882.736 446.48C882.129 445.873 881.144 445.873 880.537 446.48C879.93 447.087 879.93 448.072 880.537 448.679L890.433 458.575ZM888.423 403.321C888.423 401.588 889.8 400.211 891.533 400.211V397.101C888.082 397.101 885.313 399.871 885.313 403.321H888.423ZM891.533 400.211C893.266 400.211 894.643 401.588 894.643 403.321H897.753C897.753 399.871 894.983 397.101 891.533 397.101V400.211ZM894.643 403.321C894.643 405.054 893.266 406.431 891.533 406.431V409.541C894.983 409.541 897.753 406.772 897.753 403.321H894.643ZM891.533 406.431C889.8 406.431 888.423 405.054 888.423 403.321H885.313C885.313 406.772 888.082 409.541 891.533 409.541V406.431ZM889.978 407.986V457.476H893.088V407.986H889.978Z" fill="#808080"/>
<path d="M1133.08 398.656C1130.49 398.656 1128.41 400.73 1128.41 403.321C1128.41 405.913 1130.49 407.986 1133.08 407.986C1135.67 407.986 1137.74 405.913 1137.74 403.321C1137.74 400.73 1135.67 398.656 1133.08 398.656Z" fill="white"/>
<path d="M1131.98 458.575C1132.58 459.182 1133.57 459.182 1134.18 458.575L1144.07 448.679C1144.68 448.072 1144.68 447.087 1144.07 446.48C1143.47 445.873 1142.48 445.873 1141.87 446.48L1133.08 455.276L1124.28 446.48C1123.67 445.873 1122.69 445.873 1122.08 446.48C1121.47 447.087 1121.47 448.072 1122.08 448.679L1131.98 458.575ZM1129.97 403.321C1129.97 401.588 1131.34 400.211 1133.08 400.211V397.101C1129.63 397.101 1126.86 399.871 1126.86 403.321H1129.97ZM1133.08 400.211C1134.81 400.211 1136.19 401.588 1136.19 403.321H1139.3C1139.3 399.871 1136.53 397.101 1133.08 397.101V400.211ZM1136.19 403.321C1136.19 405.054 1134.81 406.431 1133.08 406.431V409.541C1136.53 409.541 1139.3 406.772 1139.3 403.321H1136.19ZM1133.08 406.431C1131.34 406.431 1129.97 405.054 1129.97 403.321H1126.86C1126.86 406.772 1129.63 409.541 1133.08 409.541V406.431ZM1131.52 407.986V457.476H1134.63V407.986H1131.52Z" fill="#808080"/>
</g>
<defs>
<linearGradient id="paint0_linear_427_38482" x1="578.648" y1="545.477" x2="717.216" y2="545.477" gradientUnits="userSpaceOnUse">
<stop stop-color="#71AFAC"/>
<stop offset="1" stop-color="#0D3642"/>
</linearGradient>
<linearGradient id="paint1_linear_427_38482" x1="821.229" y1="546.514" x2="959.797" y2="546.514" gradientUnits="userSpaceOnUse">
<stop stop-color="#71AFAC"/>
<stop offset="1" stop-color="#0D3642"/>
</linearGradient>
<clipPath id="clip0_427_38482">
<rect width="1296" height="692" rx="10" fill="white"/>
</clipPath>
<clipPath id="clip1_427_38482">
<rect width="130.621" height="73.6037" fill="white" transform="translate(583.949 542.482)"/>
</clipPath>
<clipPath id="clip2_427_38482">
<rect width="130.621" height="55.9803" fill="white" transform="translate(826.53 543.519)"/>
</clipPath>
</defs>
</svg>
